G04*
G04 #@! TF.GenerationSoftware,Altium Limited,Altium Designer,22.11.1 (43)*
G04*
G04 Layer_Color=32896*
%FSLAX44Y44*%
%MOMM*%
G71*
G04*
G04 #@! TF.SameCoordinates,1E15B7FD-EAFD-4F9B-970C-30AA40316711*
G04*
G04*
G04 #@! TF.FilePolarity,Positive*
G04*
G01*
G75*
G36*
X6745Y118791D02*
X6496D01*
X6145Y119143D01*
Y119639D01*
X6496Y119991D01*
X6745D01*
X6993D01*
X7345Y119639D01*
Y119143D01*
X6993Y118791D01*
X6745D01*
D01*
D02*
G37*
G36*
X-74725Y147516D02*
Y147268D01*
X-75077Y146917D01*
X-75574D01*
X-75925Y147268D01*
Y147516D01*
Y147765D01*
X-75574Y148116D01*
X-75077D01*
X-74725Y147765D01*
Y147516D01*
D01*
D02*
G37*
G36*
X6745Y299701D02*
X6496D01*
X6145Y300052D01*
Y300549D01*
X6496Y300900D01*
X6745D01*
X6993D01*
X7345Y300549D01*
Y300052D01*
X6993Y299701D01*
X6745D01*
D01*
D02*
G37*
G36*
X203892Y-47883D02*
Y-48131D01*
X203541Y-48482D01*
X203044D01*
X202693Y-48131D01*
Y-47883D01*
Y-47634D01*
X203044Y-47283D01*
X203541D01*
X203892Y-47634D01*
Y-47883D01*
D01*
D02*
G37*
G36*
X309804Y177321D02*
X309628Y177497D01*
Y177994D01*
X309979Y178345D01*
X310476D01*
X310652Y178169D01*
X310827Y177994D01*
Y177497D01*
X310476Y177145D01*
X309979D01*
X309804Y177321D01*
D01*
D02*
G37*
G36*
X433644Y203512D02*
Y203760D01*
X433996Y204111D01*
X434492D01*
X434844Y203760D01*
Y203512D01*
Y203263D01*
X434492Y202912D01*
X433996D01*
X433644Y203263D01*
Y203512D01*
D01*
D02*
G37*
M02*
