G04*
G04 #@! TF.GenerationSoftware,Altium Limited,Altium Designer,22.11.1 (43)*
G04*
G04 Layer_Color=8388736*
%FSLAX44Y44*%
%MOMM*%
G71*
G04*
G04 #@! TF.SameCoordinates,1E15B7FD-EAFD-4F9B-970C-30AA40316711*
G04*
G04*
G04 #@! TF.FilePolarity,Positive*
G04*
G01*
G75*
%ADD13C,0.2000*%
D13*
X176785Y280939D02*
X176785Y261939D01*
X214367Y261939D01*
X214367Y280939D01*
X176785Y280939D02*
X214367Y280939D01*
X85732Y58075D02*
X105732Y58075D01*
X85732Y58075D02*
X85732Y30075D01*
X105732Y30075D01*
Y58075D01*
X46114Y83593D02*
X65114Y83593D01*
X46114Y46010D02*
X46114Y83593D01*
X46114Y46010D02*
X65114Y46010D01*
Y83593D01*
X323652Y280939D02*
X323652Y261938D01*
X286070Y280938D02*
X323652Y280939D01*
X286070Y261938D02*
Y280938D01*
Y261938D02*
X323652Y261938D01*
X112399Y278107D02*
X112400Y259107D01*
X74817Y278107D02*
X112399D01*
X74817Y259107D02*
X74817Y278107D01*
X74817Y259107D02*
X112400Y259107D01*
X46471Y253430D02*
X46471Y291012D01*
X65471Y291012D01*
X65471Y253430D02*
X65471Y291012D01*
X46471Y253430D02*
X65471Y253430D01*
X226846Y253601D02*
X226846Y291183D01*
X245846Y291183D01*
X245846Y253601D02*
X245846Y291183D01*
X226846Y253601D02*
X245846Y253601D01*
X257952Y291775D02*
X257952Y254193D01*
X257952Y291775D02*
X276952Y291775D01*
X276952Y254193D01*
X257952Y254193D02*
X276952Y254193D01*
M02*
