G04*
G04 #@! TF.GenerationSoftware,Altium Limited,Altium Designer,22.11.1 (43)*
G04*
G04 Layer_Physical_Order=3*
G04 Layer_Color=16440176*
%FSLAX44Y44*%
%MOMM*%
G71*
G04*
G04 #@! TF.SameCoordinates,1E15B7FD-EAFD-4F9B-970C-30AA40316711*
G04*
G04*
G04 #@! TF.FilePolarity,Positive*
G04*
G01*
G75*
%ADD94C,3.8000*%
%ADD98R,1.0000X1.0000*%
%ADD104C,0.4570*%
%ADD105C,0.6000*%
G36*
X322076Y356404D02*
Y345274D01*
X343999Y323351D01*
X378401D01*
X406058Y295694D01*
Y271748D01*
X422247Y255558D01*
Y230600D01*
X425620Y227227D01*
Y193735D01*
X424447Y193249D01*
X423544Y194153D01*
X419613Y196779D01*
X415245Y198588D01*
X410608Y199510D01*
X405881D01*
X401244Y198588D01*
X396876Y196779D01*
X392945Y194153D01*
X389603Y190810D01*
X386976Y186879D01*
X385167Y182511D01*
X384244Y177874D01*
Y173147D01*
X385167Y168510D01*
X386976Y164142D01*
X389603Y160212D01*
X392945Y156869D01*
X396876Y154242D01*
X401244Y152433D01*
X405881Y151511D01*
X410608D01*
X415245Y152433D01*
X419613Y154242D01*
X423544Y156869D01*
X424447Y157772D01*
X425620Y157286D01*
Y126719D01*
X417188Y118287D01*
X332869D01*
X317017Y134139D01*
Y172926D01*
X309597Y180346D01*
X300490D01*
X268787Y148642D01*
X260692D01*
X203018Y206316D01*
X133539D01*
X125107Y197884D01*
Y179772D01*
X124131Y178796D01*
X123172Y177135D01*
X122675Y175282D01*
Y173364D01*
X123172Y171511D01*
X124131Y169850D01*
X125107Y168874D01*
Y146955D01*
X117687Y139535D01*
X50231D01*
X36913Y152853D01*
X-22312D01*
X-25326Y155866D01*
Y174942D01*
Y177881D01*
D01*
X-26248Y182518D01*
X-28057Y186886D01*
X-30684Y190816D01*
X-34027Y194159D01*
X-37957Y196786D01*
X-42325Y198595D01*
X-46962Y199517D01*
X-51690D01*
X-56326Y198595D01*
X-60694Y196786D01*
X-64625Y194159D01*
X-67968Y190816D01*
X-70594Y186886D01*
X-72403Y182518D01*
X-73291Y178055D01*
X-74561Y178180D01*
Y215423D01*
X-73212Y216772D01*
Y242742D01*
X-62756Y253198D01*
Y273772D01*
X-18910Y317617D01*
X19202D01*
X36740Y335156D01*
Y362138D01*
X45847Y371244D01*
X307236D01*
X322076Y356404D01*
D02*
G37*
G36*
X259062Y141546D02*
X271229D01*
X295271Y165588D01*
X302890D01*
X303522Y164790D01*
X303002Y163607D01*
X302600D01*
X301209Y163031D01*
X300145Y161966D01*
X299568Y160575D01*
Y159069D01*
X300145Y157678D01*
X301209Y156613D01*
X302600Y156037D01*
X304106D01*
X305497Y156613D01*
X306562Y157678D01*
X307138Y159069D01*
Y159781D01*
X308408Y160307D01*
X310984Y157731D01*
Y131804D01*
X313833Y128955D01*
X313114Y127879D01*
X311998Y128341D01*
X310492D01*
X309101Y127765D01*
X308036Y126700D01*
X307460Y125309D01*
Y123803D01*
X308036Y122412D01*
X309101Y121347D01*
X310492Y120771D01*
X311998D01*
X313389Y121347D01*
X314454Y122412D01*
X315030Y123803D01*
Y125309D01*
X314567Y126425D01*
X315644Y127144D01*
X338326Y104462D01*
X396633D01*
X396973Y103192D01*
X396618Y102987D01*
X395407Y101777D01*
X394552Y100295D01*
X394109Y98642D01*
Y96930D01*
X394552Y95277D01*
X395407Y93795D01*
X396618Y92584D01*
X398100Y91729D01*
X399753Y91286D01*
X401465D01*
X403118Y91729D01*
X404600Y92584D01*
X405810Y93795D01*
X406666Y95277D01*
X407109Y96930D01*
Y98642D01*
X406666Y100295D01*
X405810Y101777D01*
X404600Y102987D01*
X404244Y103192D01*
X404585Y104462D01*
X418779D01*
X422865Y100377D01*
Y89377D01*
X415794Y82306D01*
Y74292D01*
X407466Y65964D01*
Y57164D01*
X392380Y42079D01*
X385781D01*
X371953Y28251D01*
X348854D01*
X347597Y26994D01*
X339583D01*
X323555Y10966D01*
Y-34131D01*
X320727Y-36960D01*
X310356D01*
X298571Y-48745D01*
X288828D01*
X276886Y-60687D01*
X264472D01*
X255987Y-69173D01*
X238859D01*
X233202Y-74830D01*
X126193D01*
X117708Y-66344D01*
X92566D01*
X83295Y-57073D01*
X71824D01*
X56896Y-42145D01*
X42283D01*
X32865Y-32728D01*
X32865Y-32728D01*
Y-25406D01*
X45274Y-12997D01*
Y17873D01*
X46544Y18126D01*
X46862Y17357D01*
X48128Y16091D01*
X49782Y15406D01*
X51572D01*
X53226Y16091D01*
X54492Y17357D01*
X55177Y19011D01*
Y20801D01*
X54633Y22115D01*
X55546Y23061D01*
X56597Y22625D01*
X58103D01*
X59494Y23202D01*
X60227Y23934D01*
X60959Y23202D01*
X62351Y22625D01*
X63856D01*
X65247Y23202D01*
X66312Y24266D01*
X66888Y25657D01*
Y27163D01*
X66312Y28554D01*
X65310Y29557D01*
X66312Y30559D01*
X66888Y31950D01*
Y33456D01*
X66312Y34847D01*
X65247Y35912D01*
X63856Y36488D01*
X62351D01*
X60959Y35912D01*
X60227Y35179D01*
X59494Y35912D01*
X58103Y36488D01*
X56597D01*
X55206Y35912D01*
X54387Y35094D01*
X53569Y35912D01*
X52178Y36488D01*
X50672D01*
X49281Y35912D01*
X48216Y34847D01*
X47640Y33456D01*
Y31950D01*
X48216Y30559D01*
X49219Y29557D01*
X48216Y28554D01*
X47640Y27163D01*
Y25657D01*
X48216Y24266D01*
X48233Y24249D01*
X48128Y23721D01*
X46862Y22455D01*
X46544Y21687D01*
X45274Y21939D01*
Y63677D01*
X45862Y64265D01*
X71051D01*
X76129Y69343D01*
Y87858D01*
X88164Y99893D01*
Y118524D01*
X96401Y126762D01*
X97550Y126533D01*
X98615Y125468D01*
X100006Y124892D01*
X101511D01*
X102903Y125468D01*
X103967Y126533D01*
X104544Y127924D01*
Y128476D01*
X122366D01*
X131643Y137753D01*
Y188638D01*
X135095Y192090D01*
X136007Y191624D01*
X136230Y191429D01*
Y190005D01*
X136806Y188614D01*
X137871Y187549D01*
X139262Y186973D01*
X140768D01*
X142159Y187549D01*
X143223Y188614D01*
X143800Y190005D01*
Y191511D01*
X143223Y192902D01*
X142159Y193967D01*
X140768Y194543D01*
X139344D01*
X139148Y194765D01*
X138682Y195677D01*
X143870Y200865D01*
X199744D01*
X259062Y141546D01*
D02*
G37*
G36*
X-50894Y115444D02*
X-50727Y115426D01*
X-50561Y115407D01*
X-50357Y115370D01*
X-50153Y115314D01*
X-49690Y115185D01*
X-49450Y115092D01*
X-49191Y114963D01*
X-48950Y114833D01*
X-48727Y114685D01*
X-48487Y114500D01*
X-48283Y114296D01*
X-48265Y114277D01*
X-48246Y114259D01*
X-48191Y114203D01*
X-48135Y114129D01*
X-47987Y113944D01*
X-47820Y113685D01*
X-47654Y113370D01*
X-47524Y113000D01*
X-47413Y112592D01*
X-47394Y112389D01*
X-47376Y112167D01*
Y112148D01*
Y112093D01*
X-47394Y112000D01*
X-47413Y111889D01*
X-47431Y111741D01*
X-47468Y111574D01*
X-47524Y111389D01*
X-47598Y111185D01*
X-47709Y110982D01*
X-47820Y110759D01*
X-47968Y110537D01*
X-48154Y110315D01*
X-48376Y110093D01*
X-48616Y109871D01*
X-48894Y109667D01*
X-49227Y109463D01*
X-49209D01*
X-49172Y109445D01*
X-49116D01*
X-49042Y109408D01*
X-48839Y109352D01*
X-48598Y109241D01*
X-48320Y109093D01*
X-48024Y108908D01*
X-47728Y108667D01*
X-47468Y108389D01*
X-47431Y108352D01*
X-47357Y108241D01*
X-47265Y108074D01*
X-47135Y107834D01*
X-47006Y107556D01*
X-46913Y107204D01*
X-46839Y106834D01*
X-46802Y106408D01*
Y106389D01*
Y106334D01*
Y106241D01*
X-46820Y106130D01*
X-46839Y105982D01*
X-46876Y105815D01*
X-46913Y105612D01*
X-46950Y105408D01*
X-47098Y104964D01*
X-47209Y104723D01*
X-47320Y104464D01*
X-47468Y104223D01*
X-47635Y103982D01*
X-47820Y103742D01*
X-48042Y103519D01*
X-48061Y103501D01*
X-48098Y103464D01*
X-48172Y103408D01*
X-48265Y103334D01*
X-48394Y103242D01*
X-48524Y103149D01*
X-48709Y103038D01*
X-48894Y102927D01*
X-49098Y102816D01*
X-49339Y102705D01*
X-49598Y102612D01*
X-49857Y102520D01*
X-50153Y102445D01*
X-50450Y102390D01*
X-50783Y102353D01*
X-51116Y102334D01*
X-51283D01*
X-51412Y102353D01*
X-51561Y102371D01*
X-51727Y102390D01*
X-51912Y102427D01*
X-52135Y102464D01*
X-52579Y102575D01*
X-53060Y102760D01*
X-53320Y102871D01*
X-53542Y103001D01*
X-53783Y103167D01*
X-54005Y103334D01*
X-54023Y103353D01*
X-54060Y103390D01*
X-54116Y103445D01*
X-54190Y103519D01*
X-54282Y103612D01*
X-54375Y103742D01*
X-54486Y103871D01*
X-54597Y104038D01*
X-54708Y104223D01*
X-54838Y104408D01*
X-55042Y104853D01*
X-55208Y105371D01*
X-55282Y105649D01*
X-55319Y105945D01*
X-52949Y106241D01*
Y106223D01*
Y106204D01*
X-52931Y106093D01*
X-52894Y105927D01*
X-52838Y105723D01*
X-52746Y105501D01*
X-52653Y105260D01*
X-52505Y105038D01*
X-52338Y104834D01*
X-52320Y104816D01*
X-52246Y104760D01*
X-52135Y104686D01*
X-52005Y104612D01*
X-51820Y104519D01*
X-51616Y104445D01*
X-51394Y104390D01*
X-51135Y104371D01*
X-51098D01*
X-51005Y104390D01*
X-50876Y104408D01*
X-50690Y104445D01*
X-50487Y104519D01*
X-50283Y104612D01*
X-50061Y104760D01*
X-49857Y104945D01*
X-49839Y104964D01*
X-49764Y105056D01*
X-49690Y105186D01*
X-49579Y105352D01*
X-49487Y105575D01*
X-49394Y105852D01*
X-49339Y106167D01*
X-49320Y106519D01*
Y106538D01*
Y106556D01*
Y106667D01*
X-49339Y106834D01*
X-49376Y107056D01*
X-49450Y107297D01*
X-49542Y107537D01*
X-49672Y107778D01*
X-49839Y108000D01*
X-49857Y108019D01*
X-49931Y108093D01*
X-50042Y108186D01*
X-50172Y108278D01*
X-50357Y108389D01*
X-50561Y108463D01*
X-50783Y108537D01*
X-51042Y108556D01*
X-51227D01*
X-51357Y108537D01*
X-51523Y108519D01*
X-51727Y108482D01*
X-51931Y108426D01*
X-52172Y108371D01*
X-51912Y110352D01*
X-51746D01*
X-51561Y110371D01*
X-51338Y110389D01*
X-51098Y110445D01*
X-50838Y110519D01*
X-50598Y110630D01*
X-50375Y110778D01*
X-50357Y110796D01*
X-50283Y110870D01*
X-50209Y110963D01*
X-50098Y111111D01*
X-50005Y111278D01*
X-49913Y111482D01*
X-49857Y111722D01*
X-49839Y112000D01*
Y112037D01*
Y112111D01*
X-49857Y112222D01*
X-49894Y112370D01*
X-49931Y112537D01*
X-50005Y112704D01*
X-50098Y112889D01*
X-50227Y113037D01*
X-50246Y113055D01*
X-50301Y113092D01*
X-50375Y113167D01*
X-50505Y113241D01*
X-50653Y113296D01*
X-50820Y113370D01*
X-51042Y113407D01*
X-51264Y113426D01*
X-51375D01*
X-51487Y113407D01*
X-51635Y113370D01*
X-51801Y113315D01*
X-51986Y113241D01*
X-52172Y113130D01*
X-52338Y112981D01*
X-52357Y112963D01*
X-52412Y112907D01*
X-52486Y112796D01*
X-52579Y112648D01*
X-52672Y112481D01*
X-52746Y112259D01*
X-52820Y112000D01*
X-52875Y111704D01*
X-55134Y112074D01*
Y112093D01*
X-55116Y112130D01*
Y112185D01*
X-55097Y112278D01*
X-55042Y112481D01*
X-54968Y112759D01*
X-54857Y113055D01*
X-54745Y113370D01*
X-54597Y113666D01*
X-54431Y113944D01*
X-54412Y113981D01*
X-54338Y114055D01*
X-54227Y114185D01*
X-54079Y114352D01*
X-53894Y114518D01*
X-53671Y114703D01*
X-53394Y114888D01*
X-53098Y115055D01*
X-53079D01*
X-53060Y115074D01*
X-52949Y115111D01*
X-52764Y115185D01*
X-52542Y115259D01*
X-52264Y115333D01*
X-51931Y115407D01*
X-51579Y115444D01*
X-51190Y115463D01*
X-51024D01*
X-50894Y115444D01*
D02*
G37*
G36*
X-62967Y104741D02*
X-56523D01*
Y102575D01*
X-65559D01*
Y115296D01*
X-62967D01*
Y104741D01*
D02*
G37*
%LPC*%
G36*
X271388Y256464D02*
X269470D01*
X267617Y255968D01*
X267282Y255775D01*
X266947Y255968D01*
X265095Y256464D01*
X263176D01*
X261324Y255968D01*
X261054Y255812D01*
X260784Y255968D01*
X258931Y256464D01*
X257013D01*
X255160Y255968D01*
X254697Y255701D01*
X254235Y255968D01*
X252382Y256464D01*
X250464D01*
X248611Y255968D01*
X246950Y255009D01*
X245594Y253652D01*
X244635Y251991D01*
X244138Y250138D01*
Y248220D01*
X244635Y246367D01*
X244722Y246217D01*
X244635Y246067D01*
X244138Y244214D01*
Y242296D01*
X244635Y240443D01*
X244672Y240378D01*
X244635Y240313D01*
X244138Y238460D01*
Y236542D01*
X244635Y234689D01*
X245594Y233028D01*
X246950Y231672D01*
X248611Y230713D01*
X250464Y230216D01*
X252382D01*
X254235Y230713D01*
X254697Y230980D01*
X255160Y230713D01*
X257013Y230216D01*
X258931D01*
X260784Y230713D01*
X261054Y230869D01*
X261324Y230713D01*
X263176Y230216D01*
X265095D01*
X266947Y230713D01*
X267282Y230906D01*
X267617Y230713D01*
X269470Y230216D01*
X271388D01*
X273241Y230713D01*
X274902Y231672D01*
X276258Y233028D01*
X277217Y234689D01*
X277714Y236542D01*
Y238460D01*
X277217Y240313D01*
X277180Y240378D01*
X277217Y240443D01*
X277714Y242296D01*
Y244214D01*
X277217Y246067D01*
X277130Y246217D01*
X277217Y246367D01*
X277714Y248220D01*
Y250138D01*
X277217Y251991D01*
X276258Y253652D01*
X274902Y255009D01*
X273241Y255968D01*
X271388Y256464D01*
D02*
G37*
G36*
X193385Y263952D02*
X191466D01*
X189614Y263455D01*
X187952Y262496D01*
X186596Y261140D01*
X185637Y259479D01*
X185140Y257626D01*
Y255708D01*
X185637Y253855D01*
X186596Y252194D01*
X187952Y250837D01*
X189614Y249878D01*
X191466Y249382D01*
X193385D01*
X195237Y249878D01*
X196899Y250837D01*
X198255Y252194D01*
X199214Y253855D01*
X199711Y255708D01*
Y257626D01*
X199214Y259479D01*
X198255Y261140D01*
X196899Y262496D01*
X195237Y263455D01*
X193385Y263952D01*
D02*
G37*
G36*
X293620Y263258D02*
X291702D01*
X289849Y262762D01*
X288188Y261803D01*
X286831Y260447D01*
X285872Y258785D01*
X285376Y256933D01*
Y255014D01*
X285872Y253162D01*
X286831Y251500D01*
X288188Y250144D01*
X289849Y249185D01*
X291702Y248689D01*
X293620D01*
X295473Y249185D01*
X297134Y250144D01*
X298490Y251500D01*
X299449Y253162D01*
X299946Y255014D01*
Y256933D01*
X299449Y258785D01*
X298490Y260447D01*
X297134Y261803D01*
X295473Y262762D01*
X293620Y263258D01*
D02*
G37*
G36*
X47376Y267441D02*
X45458D01*
X43605Y266945D01*
X41943Y265986D01*
X40587Y264629D01*
X39628Y262968D01*
X39132Y261115D01*
Y261040D01*
X39067Y261003D01*
X37710Y259646D01*
X36751Y257985D01*
X36255Y256133D01*
Y255959D01*
X36105Y255872D01*
X34748Y254516D01*
X33789Y252854D01*
X33293Y251002D01*
Y249083D01*
X33789Y247231D01*
X34748Y245569D01*
X36105Y244213D01*
X37766Y243254D01*
X39618Y242757D01*
X40005D01*
X40198Y242423D01*
X41554Y241067D01*
X43215Y240107D01*
X45068Y239611D01*
X45380D01*
X45536Y239341D01*
X46892Y237985D01*
X48554Y237026D01*
X50406Y236529D01*
X50940D01*
X51207Y236067D01*
X52564Y234710D01*
X54225Y233751D01*
X56078Y233255D01*
X57996D01*
X59849Y233751D01*
X61510Y234710D01*
X62866Y236067D01*
X63825Y237728D01*
X64322Y239581D01*
Y239754D01*
X64472Y239841D01*
X65828Y241198D01*
X66788Y242859D01*
X67284Y244712D01*
Y244787D01*
X67349Y244824D01*
X68705Y246180D01*
X69664Y247841D01*
X70161Y249694D01*
Y251612D01*
X69664Y253465D01*
X68705Y255126D01*
X67349Y256483D01*
X65688Y257442D01*
X63835Y257938D01*
X63301D01*
X63034Y258401D01*
X61678Y259757D01*
X60017Y260716D01*
X58164Y261213D01*
X57852D01*
X57696Y261483D01*
X56340Y262839D01*
X54679Y263798D01*
X52826Y264295D01*
X52439D01*
X52246Y264629D01*
X50890Y265986D01*
X49229Y266945D01*
X47376Y267441D01*
D02*
G37*
G36*
X149554Y246503D02*
X147636D01*
X145783Y246006D01*
X144122Y245047D01*
X142766Y243691D01*
X141807Y242030D01*
X141310Y240177D01*
Y238259D01*
X141807Y236406D01*
X142766Y234745D01*
X144122Y233388D01*
X145783Y232429D01*
X147636Y231933D01*
X149554D01*
X151407Y232429D01*
X153068Y233388D01*
X154425Y234745D01*
X155384Y236406D01*
X155880Y238259D01*
Y240177D01*
X155384Y242030D01*
X154425Y243691D01*
X153068Y245047D01*
X151407Y246006D01*
X149554Y246503D01*
D02*
G37*
G36*
X341358Y218282D02*
X339251D01*
X337217Y217736D01*
X335392Y216683D01*
X333903Y215194D01*
X332850Y213370D01*
X332304Y211335D01*
Y209228D01*
X332850Y207194D01*
X333903Y205370D01*
X335392Y203880D01*
X337217Y202827D01*
X339251Y202282D01*
X341358D01*
X343392Y202827D01*
X345217Y203880D01*
X346706Y205370D01*
X347759Y207194D01*
X348304Y209228D01*
Y211335D01*
X347759Y213370D01*
X346706Y215194D01*
X345217Y216683D01*
X343392Y217736D01*
X341358Y218282D01*
D02*
G37*
G36*
X109198Y166046D02*
X107280D01*
X105427Y165549D01*
X105276Y165462D01*
X105126Y165549D01*
X103273Y166046D01*
X101355D01*
X99502Y165549D01*
X99461Y165526D01*
X97759Y165982D01*
X95841D01*
X93988Y165485D01*
X92326Y164526D01*
X90970Y163170D01*
X90011Y161509D01*
X89679Y160268D01*
X87879Y159785D01*
X86217Y158826D01*
X84861Y157470D01*
X83902Y155809D01*
X83406Y153956D01*
Y152038D01*
X83902Y150185D01*
X84861Y148524D01*
X86217Y147168D01*
X87879Y146208D01*
X89731Y145712D01*
X91650D01*
X93502Y146208D01*
X93969Y146478D01*
X95602Y146040D01*
X97520D01*
X99373Y146537D01*
X99437Y146574D01*
X99502Y146537D01*
X101355Y146040D01*
X103273D01*
X105126Y146537D01*
X105276Y146623D01*
X105427Y146537D01*
X107280Y146040D01*
X109198D01*
X111051Y146537D01*
X112712Y147496D01*
X114068Y148852D01*
X115027Y150513D01*
X115524Y152366D01*
Y154284D01*
X115053Y156043D01*
X115524Y157802D01*
Y159720D01*
X115027Y161573D01*
X114068Y163234D01*
X112712Y164590D01*
X111051Y165549D01*
X109198Y166046D01*
D02*
G37*
G36*
X268670Y193639D02*
X266751D01*
X264899Y193143D01*
X263237Y192184D01*
X261881Y190827D01*
X260922Y189166D01*
X260903Y189094D01*
X260830Y189074D01*
X259169Y188115D01*
X257813Y186759D01*
X256854Y185098D01*
X256809Y184930D01*
X256641Y184885D01*
X254980Y183926D01*
X253623Y182570D01*
X252664Y180909D01*
X252168Y179056D01*
Y177138D01*
X252664Y175285D01*
X253623Y173624D01*
X254980Y172267D01*
X256641Y171308D01*
X256942Y171227D01*
X257023Y170926D01*
X257982Y169265D01*
X259338Y167908D01*
X261000Y166950D01*
X261515Y166811D01*
X261653Y166296D01*
X262612Y164634D01*
X263969Y163278D01*
X265630Y162319D01*
X267483Y161822D01*
X269401D01*
X271254Y162319D01*
X272915Y163278D01*
X274271Y164634D01*
X275230Y166296D01*
X275275Y166463D01*
X275443Y166508D01*
X277104Y167467D01*
X278461Y168824D01*
X279420Y170485D01*
X279439Y170557D01*
X279512Y170577D01*
X281173Y171536D01*
X282529Y172892D01*
X283488Y174553D01*
X283985Y176406D01*
Y178324D01*
X283488Y180177D01*
X282529Y181838D01*
X281173Y183195D01*
X279512Y184154D01*
X278996Y184292D01*
X278858Y184808D01*
X277899Y186469D01*
X276542Y187825D01*
X274881Y188784D01*
X274580Y188865D01*
X274499Y189166D01*
X273540Y190827D01*
X272184Y192184D01*
X270522Y193143D01*
X268670Y193639D01*
D02*
G37*
G36*
X140919Y178449D02*
X139413D01*
X138022Y177873D01*
X136958Y176808D01*
X136381Y175417D01*
Y173912D01*
X136958Y172521D01*
X138022Y171456D01*
X139413Y170879D01*
X140919D01*
X142310Y171456D01*
X143375Y172521D01*
X143951Y173912D01*
Y175417D01*
X143375Y176808D01*
X142310Y177873D01*
X140919Y178449D01*
D02*
G37*
G36*
X194418Y199353D02*
X160728D01*
X160728Y148553D01*
X194418D01*
Y199353D01*
D02*
G37*
G36*
X240300Y155477D02*
X238794D01*
X237403Y154901D01*
X236339Y153836D01*
X235762Y152445D01*
Y150939D01*
X236339Y149548D01*
X237403Y148483D01*
X238794Y147907D01*
X240300D01*
X241691Y148483D01*
X242756Y149548D01*
X243332Y150939D01*
Y152445D01*
X242756Y153836D01*
X241691Y154901D01*
X240300Y155477D01*
D02*
G37*
G36*
X302448Y151123D02*
X300942D01*
X299551Y150547D01*
X298486Y149482D01*
X297910Y148091D01*
Y146585D01*
X298486Y145194D01*
X299551Y144129D01*
X300942Y143553D01*
X302448D01*
X303839Y144129D01*
X304904Y145194D01*
X305480Y146585D01*
Y148091D01*
X304904Y149482D01*
X303839Y150547D01*
X302448Y151123D01*
D02*
G37*
G36*
X207913Y148112D02*
X206407D01*
X205016Y147536D01*
X203951Y146471D01*
X203375Y145080D01*
Y143574D01*
X203951Y142183D01*
X205016Y141118D01*
X206407Y140542D01*
X207913D01*
X209304Y141118D01*
X210369Y142183D01*
X210945Y143574D01*
Y145080D01*
X210369Y146471D01*
X209304Y147536D01*
X207913Y148112D01*
D02*
G37*
G36*
X245303Y140831D02*
X243797D01*
X242406Y140255D01*
X241341Y139190D01*
X240103Y139518D01*
X239314Y139845D01*
X237808D01*
X236417Y139269D01*
X235352Y138204D01*
X234776Y136813D01*
Y135307D01*
X235352Y133916D01*
X236417Y132851D01*
X237808Y132275D01*
X239314D01*
X240705Y132851D01*
X241770Y133916D01*
X243008Y133588D01*
X243797Y133261D01*
X244999D01*
X245548Y132944D01*
X246108Y132220D01*
Y131116D01*
X246685Y129725D01*
X247749Y128660D01*
X249140Y128084D01*
X250646D01*
X252037Y128660D01*
X253102Y129725D01*
X253678Y131116D01*
Y132622D01*
X253102Y134013D01*
X252037Y135077D01*
X250646Y135654D01*
X249445D01*
X248896Y135970D01*
X248335Y136695D01*
Y137799D01*
X247759Y139190D01*
X246694Y140255D01*
X245303Y140831D01*
D02*
G37*
G36*
X282648Y142142D02*
X281142D01*
X279751Y141566D01*
X278686Y140501D01*
X278110Y139110D01*
Y137605D01*
X278686Y136213D01*
X279751Y135149D01*
X281142Y134572D01*
X282648D01*
X284039Y135149D01*
X285104Y136213D01*
X285680Y137605D01*
Y139110D01*
X285104Y140501D01*
X284039Y141566D01*
X282648Y142142D01*
D02*
G37*
G36*
X270228Y137952D02*
X268722D01*
X267331Y137375D01*
X266266Y136311D01*
X265690Y134920D01*
Y133414D01*
X266266Y132023D01*
X267331Y130958D01*
X268722Y130382D01*
X270228D01*
X271619Y130958D01*
X272684Y132023D01*
X273260Y133414D01*
Y134920D01*
X272684Y136311D01*
X271619Y137375D01*
X270228Y137952D01*
D02*
G37*
G36*
X178745Y135339D02*
X177239D01*
X175848Y134763D01*
X174783Y133698D01*
X174207Y132307D01*
Y130801D01*
X174783Y129410D01*
X175848Y128345D01*
X177239Y127769D01*
X178745D01*
X180136Y128345D01*
X181201Y129410D01*
X181777Y130801D01*
Y132307D01*
X181201Y133698D01*
X180136Y134763D01*
X178745Y135339D01*
D02*
G37*
G36*
X242707Y129092D02*
X241201D01*
X239810Y128516D01*
X238745Y127451D01*
X238169Y126060D01*
Y124655D01*
X237901Y124427D01*
X237021Y124007D01*
X236368Y124660D01*
X234977Y125236D01*
X233472D01*
X232080Y124660D01*
X231016Y123595D01*
X230439Y122204D01*
Y120698D01*
X231016Y119307D01*
X232080Y118242D01*
X233472Y117666D01*
X234977D01*
X236368Y118242D01*
X237433Y119307D01*
X238009Y120698D01*
Y122103D01*
X238277Y122332D01*
X239157Y122751D01*
X239810Y122099D01*
X241201Y121522D01*
X242707D01*
X244098Y122099D01*
X245163Y123163D01*
X245739Y124554D01*
Y126060D01*
X245163Y127451D01*
X244098Y128516D01*
X242707Y129092D01*
D02*
G37*
G36*
X293627Y124114D02*
X292121D01*
X290730Y123538D01*
X289696Y122504D01*
X288955Y123245D01*
X287564Y123821D01*
X286058D01*
X284667Y123245D01*
X283602Y122180D01*
X283026Y120789D01*
Y119283D01*
X283602Y117892D01*
X284667Y116827D01*
X286058Y116251D01*
X287564D01*
X288955Y116827D01*
X289989Y117861D01*
X290730Y117120D01*
X291209Y116922D01*
X292018Y115554D01*
Y114048D01*
X292594Y112657D01*
X293659Y111593D01*
X295050Y111016D01*
X296555D01*
X297946Y111593D01*
X299011Y112657D01*
X299587Y114048D01*
Y115554D01*
X299011Y116945D01*
X297946Y118010D01*
X297467Y118209D01*
X296659Y119576D01*
Y121082D01*
X296083Y122473D01*
X295018Y123538D01*
X293627Y124114D01*
D02*
G37*
G36*
X301928Y130054D02*
X300422D01*
X299031Y129478D01*
X297966Y128413D01*
X297390Y127022D01*
Y125516D01*
X297966Y124125D01*
X299031Y123060D01*
X300422Y122484D01*
X301928D01*
X303319Y123060D01*
X304384Y124125D01*
X304960Y125516D01*
Y127022D01*
X304384Y128413D01*
X303319Y129478D01*
X301928Y130054D01*
D02*
G37*
G36*
X207681Y123606D02*
X206176D01*
X204785Y123029D01*
X203720Y121965D01*
X203144Y120574D01*
Y119068D01*
X203720Y117677D01*
X204785Y116612D01*
X206176Y116036D01*
X207681D01*
X209073Y116612D01*
X210137Y117677D01*
X210714Y119068D01*
Y120574D01*
X210137Y121965D01*
X209073Y123029D01*
X207681Y123606D01*
D02*
G37*
G36*
X249997Y120505D02*
X248491D01*
X247100Y119928D01*
X246036Y118863D01*
X245459Y117472D01*
Y115967D01*
X246036Y114576D01*
X247100Y113511D01*
X248491Y112935D01*
X249997D01*
X251388Y113511D01*
X252453Y114576D01*
X253029Y115967D01*
Y117472D01*
X252453Y118863D01*
X251388Y119928D01*
X249997Y120505D01*
D02*
G37*
G36*
X194693Y118441D02*
X193188D01*
X191796Y117865D01*
X190732Y116800D01*
X190155Y115409D01*
Y113903D01*
X190732Y112512D01*
X191796Y111447D01*
X193188Y110871D01*
X194693D01*
X196084Y111447D01*
X197149Y112512D01*
X197725Y113903D01*
Y115409D01*
X197149Y116800D01*
X196084Y117865D01*
X194693Y118441D01*
D02*
G37*
G36*
X183093Y118175D02*
X181588D01*
X180196Y117599D01*
X179132Y116534D01*
X178556Y115143D01*
Y113637D01*
X179132Y112246D01*
X180196Y111181D01*
X181588Y110605D01*
X183093D01*
X184485Y111181D01*
X185549Y112246D01*
X186126Y113637D01*
Y115143D01*
X185549Y116534D01*
X184485Y117599D01*
X183093Y118175D01*
D02*
G37*
G36*
X251246Y110934D02*
X249740D01*
X248349Y110358D01*
X247440Y109449D01*
X246715Y109360D01*
X245973Y109447D01*
X245067Y110353D01*
X243675Y110930D01*
X242170D01*
X240779Y110353D01*
X239714Y109289D01*
X239138Y107898D01*
Y106392D01*
X239602Y105271D01*
X239437Y103827D01*
X239085Y103682D01*
X238021Y102617D01*
X237444Y101226D01*
Y99720D01*
X238021Y98329D01*
X239085Y97264D01*
X240477Y96688D01*
X241982D01*
X243374Y97264D01*
X244438Y98329D01*
X245014Y99720D01*
Y101226D01*
X244550Y102347D01*
X244715Y103790D01*
X245067Y103936D01*
X245976Y104845D01*
X246701Y104934D01*
X247442Y104847D01*
X248349Y103941D01*
X249740Y103364D01*
X251246D01*
X252637Y103941D01*
X253702Y105006D01*
X254278Y106397D01*
Y107902D01*
X253702Y109293D01*
X252637Y110358D01*
X251246Y110934D01*
D02*
G37*
G36*
X144402Y116092D02*
X142896D01*
X141505Y115516D01*
X140440Y114451D01*
X139864Y113060D01*
Y111554D01*
X140440Y110163D01*
X141505Y109098D01*
X142896Y108522D01*
X144402D01*
X145793Y109098D01*
X146857Y110163D01*
X147434Y111554D01*
Y113060D01*
X146857Y114451D01*
X145793Y115516D01*
X144402Y116092D01*
D02*
G37*
G36*
X232218Y113899D02*
X230712D01*
X229321Y113322D01*
X228256Y112258D01*
X227680Y110867D01*
Y109361D01*
X228256Y107970D01*
X229321Y106905D01*
X230712Y106329D01*
X232218D01*
X233609Y106905D01*
X234674Y107970D01*
X235250Y109361D01*
Y110867D01*
X234674Y112258D01*
X233609Y113322D01*
X232218Y113899D01*
D02*
G37*
G36*
X315379Y110444D02*
X313873D01*
X312482Y109867D01*
X311418Y108803D01*
X310841Y107411D01*
Y105906D01*
X311418Y104515D01*
X312482Y103450D01*
X313873Y102874D01*
X315379D01*
X316770Y103450D01*
X317835Y104515D01*
X318411Y105906D01*
Y107411D01*
X317835Y108803D01*
X316770Y109867D01*
X315379Y110444D01*
D02*
G37*
G36*
X306159Y104925D02*
X304653D01*
X303262Y104348D01*
X302198Y103284D01*
X301621Y101893D01*
Y100387D01*
X302198Y98996D01*
X303262Y97931D01*
X304653Y97355D01*
X306159D01*
X307550Y97931D01*
X308615Y98996D01*
X309191Y100387D01*
Y101893D01*
X308615Y103284D01*
X307550Y104348D01*
X306159Y104925D01*
D02*
G37*
G36*
X227424Y101660D02*
X225919D01*
X224527Y101084D01*
X223463Y100019D01*
X222887Y98628D01*
Y97122D01*
X223463Y95731D01*
X224527Y94666D01*
X225919Y94090D01*
X227424D01*
X228815Y94666D01*
X229880Y95731D01*
X230457Y97122D01*
Y98628D01*
X229880Y100019D01*
X228815Y101084D01*
X227424Y101660D01*
D02*
G37*
G36*
X200794Y100974D02*
X199288D01*
X197897Y100398D01*
X196832Y99333D01*
X196256Y97942D01*
Y96436D01*
X196832Y95045D01*
X197897Y93980D01*
X199288Y93404D01*
X200794D01*
X202185Y93980D01*
X203250Y95045D01*
X203826Y96436D01*
Y97942D01*
X203250Y99333D01*
X202185Y100398D01*
X200794Y100974D01*
D02*
G37*
G36*
X350967Y97555D02*
X349462D01*
X348070Y96979D01*
X347006Y95914D01*
X346429Y94523D01*
Y93017D01*
X347006Y91626D01*
X348070Y90561D01*
X349462Y89985D01*
X350967D01*
X352358Y90561D01*
X353423Y91626D01*
X353999Y93017D01*
Y94523D01*
X353423Y95914D01*
X352358Y96979D01*
X350967Y97555D01*
D02*
G37*
G36*
X195880Y91441D02*
X194374D01*
X192983Y90865D01*
X191918Y89800D01*
X191342Y88409D01*
Y86903D01*
X191918Y85512D01*
X192983Y84447D01*
X194374Y83871D01*
X195880D01*
X197271Y84447D01*
X198335Y85512D01*
X198912Y86903D01*
Y88409D01*
X198335Y89800D01*
X197271Y90865D01*
X195880Y91441D01*
D02*
G37*
G36*
X321500Y96973D02*
X319994D01*
X318603Y96397D01*
X317538Y95332D01*
X316962Y93941D01*
Y92436D01*
X317538Y91044D01*
X317661Y90921D01*
X317561Y90417D01*
X316496Y89353D01*
X315920Y87961D01*
Y86456D01*
X316496Y85064D01*
X317561Y84000D01*
X318952Y83424D01*
X320458D01*
X321849Y84000D01*
X322914Y85064D01*
X323490Y86456D01*
Y87961D01*
X322914Y89353D01*
X322791Y89475D01*
X322891Y89980D01*
X323956Y91044D01*
X324532Y92436D01*
Y93941D01*
X323956Y95332D01*
X322891Y96397D01*
X321500Y96973D01*
D02*
G37*
G36*
X359689Y86488D02*
X358183D01*
X356792Y85911D01*
X355728Y84846D01*
X355151Y83455D01*
Y81950D01*
X355728Y80559D01*
X356792Y79494D01*
X358183Y78917D01*
X359689D01*
X361080Y79494D01*
X362145Y80559D01*
X362721Y81950D01*
Y83455D01*
X362145Y84846D01*
X361080Y85911D01*
X359689Y86488D01*
D02*
G37*
G36*
X382780Y86215D02*
X381275D01*
X379884Y85639D01*
X378819Y84574D01*
X378243Y83183D01*
Y81678D01*
X378819Y80287D01*
X379884Y79222D01*
X381275Y78646D01*
X382780D01*
X384172Y79222D01*
X385236Y80287D01*
X385813Y81678D01*
Y83183D01*
X385236Y84574D01*
X384172Y85639D01*
X382780Y86215D01*
D02*
G37*
G36*
X376243Y70703D02*
X374737D01*
X373346Y70126D01*
X372281Y69061D01*
X371705Y67670D01*
Y66165D01*
X372281Y64774D01*
X373346Y63709D01*
X374737Y63133D01*
X376243D01*
X377634Y63709D01*
X378699Y64774D01*
X379275Y66165D01*
Y67670D01*
X378699Y69061D01*
X377634Y70126D01*
X376243Y70703D01*
D02*
G37*
G36*
X274393Y84018D02*
X272887D01*
X271496Y83441D01*
X270431Y82377D01*
X269855Y80986D01*
Y79760D01*
X268488D01*
X267097Y79184D01*
X266032Y78119D01*
X265456Y76728D01*
Y75222D01*
X265447Y75209D01*
X264078D01*
X262687Y74633D01*
X261622Y73568D01*
X261046Y72177D01*
Y70671D01*
X261622Y69280D01*
X262687Y68215D01*
X264078Y67639D01*
X265115D01*
Y66603D01*
X265691Y65212D01*
X266756Y64147D01*
X268147Y63571D01*
X269304D01*
Y62414D01*
X269880Y61023D01*
X270945Y59958D01*
X272336Y59382D01*
X273842D01*
X275233Y59958D01*
X276298Y61023D01*
X276874Y62414D01*
Y63831D01*
X278292D01*
X279683Y64408D01*
X280748Y65472D01*
X281324Y66863D01*
Y68190D01*
X282650D01*
X284041Y68766D01*
X285106Y69831D01*
X285682Y71222D01*
Y72728D01*
X285106Y74119D01*
X284041Y75184D01*
X282650Y75760D01*
X281493D01*
Y76917D01*
X280917Y78308D01*
X279852Y79373D01*
X278461Y79949D01*
X277425D01*
Y80986D01*
X276848Y82377D01*
X275784Y83441D01*
X274393Y84018D01*
D02*
G37*
G36*
X224349Y63365D02*
X222844D01*
X221453Y62789D01*
X220388Y61724D01*
X219811Y60333D01*
Y58827D01*
X220388Y57436D01*
X221453Y56371D01*
X222844Y55795D01*
X224349D01*
X225741Y56371D01*
X226805Y57436D01*
X227381Y58827D01*
Y60333D01*
X226805Y61724D01*
X225741Y62789D01*
X224349Y63365D01*
D02*
G37*
G36*
X320386Y62833D02*
X318880D01*
X317489Y62257D01*
X316425Y61192D01*
X315848Y59801D01*
Y58295D01*
X316425Y56904D01*
X317489Y55840D01*
X318880Y55263D01*
X320386D01*
X321777Y55840D01*
X322842Y56904D01*
X323418Y58295D01*
Y59801D01*
X322842Y61192D01*
X321777Y62257D01*
X320386Y62833D01*
D02*
G37*
G36*
X364194Y56674D02*
X362688D01*
X361297Y56098D01*
X360232Y55033D01*
X359656Y53642D01*
Y52136D01*
X360232Y50745D01*
X361297Y49680D01*
X362688Y49104D01*
X364194D01*
X365585Y49680D01*
X366650Y50745D01*
X367226Y52136D01*
Y53642D01*
X366650Y55033D01*
X365585Y56098D01*
X364194Y56674D01*
D02*
G37*
G36*
X316162Y51478D02*
X314656D01*
X313265Y50902D01*
X312200Y49837D01*
X311624Y48446D01*
Y46940D01*
X312200Y45549D01*
X313265Y44485D01*
X314656Y43908D01*
X316162D01*
X317553Y44485D01*
X318618Y45549D01*
X319194Y46940D01*
Y48446D01*
X318618Y49837D01*
X317553Y50902D01*
X316162Y51478D01*
D02*
G37*
G36*
X346747Y50653D02*
X345241D01*
X343850Y50077D01*
X342785Y49012D01*
X342209Y47621D01*
Y46115D01*
X342785Y44724D01*
X343850Y43660D01*
X345241Y43083D01*
X346747D01*
X348138Y43660D01*
X349203Y44724D01*
X349779Y46115D01*
Y47621D01*
X349203Y49012D01*
X348138Y50077D01*
X346747Y50653D01*
D02*
G37*
G36*
X240762Y47902D02*
X239256D01*
X237865Y47325D01*
X236800Y46261D01*
X236224Y44869D01*
Y43364D01*
X236800Y41972D01*
X237865Y40908D01*
X239256Y40332D01*
X240762D01*
X242046Y39489D01*
X242243Y39012D01*
X243308Y37948D01*
X244699Y37371D01*
X246205D01*
X247596Y37948D01*
X248661Y39012D01*
X249237Y40403D01*
Y41909D01*
X248661Y43300D01*
X247596Y44365D01*
X246205Y44941D01*
X244699D01*
X243415Y45784D01*
X243218Y46261D01*
X242153Y47325D01*
X240762Y47902D01*
D02*
G37*
G36*
X218837Y44319D02*
X217332D01*
X215940Y43742D01*
X214876Y42678D01*
X214299Y41287D01*
Y39781D01*
X214876Y38390D01*
X215940Y37325D01*
X217332Y36749D01*
X218837D01*
X220228Y37325D01*
X221293Y38390D01*
X221869Y39781D01*
Y41287D01*
X221293Y42678D01*
X220228Y43742D01*
X218837Y44319D01*
D02*
G37*
G36*
X119227Y45665D02*
X117437D01*
X115783Y44980D01*
X114517Y43714D01*
X113832Y42060D01*
Y40270D01*
X114517Y38616D01*
X115783Y37350D01*
X117437Y36665D01*
X119227D01*
X120881Y37350D01*
X122147Y38616D01*
X122832Y40270D01*
Y42060D01*
X122147Y43714D01*
X120881Y44980D01*
X119227Y45665D01*
D02*
G37*
G36*
X229102Y54583D02*
X227596D01*
X226205Y54007D01*
X225140Y52942D01*
X224564Y51551D01*
Y50045D01*
X225140Y48654D01*
X226205Y47590D01*
X226618Y46052D01*
X226514Y45803D01*
Y44297D01*
X227091Y42906D01*
X227715Y42281D01*
X227567Y41814D01*
X227092Y41108D01*
X225836D01*
X224445Y40532D01*
X223381Y39467D01*
X222804Y38076D01*
Y36570D01*
X223381Y35179D01*
X224445Y34114D01*
X225836Y33538D01*
X227342D01*
X228733Y34114D01*
X229798Y35179D01*
X230374Y36570D01*
Y38076D01*
X229798Y39467D01*
X229173Y40092D01*
X229322Y40559D01*
X229796Y41265D01*
X231052D01*
X232443Y41841D01*
X233508Y42906D01*
X234084Y44297D01*
Y45803D01*
X233508Y47194D01*
X232443Y48259D01*
X232031Y49797D01*
X232134Y50045D01*
Y51551D01*
X231558Y52942D01*
X230493Y54007D01*
X229102Y54583D01*
D02*
G37*
G36*
X306345Y38814D02*
X304839D01*
X303448Y38238D01*
X302383Y37174D01*
X301807Y35782D01*
Y34277D01*
X302383Y32885D01*
X303448Y31821D01*
X304839Y31244D01*
X306345D01*
X307736Y31821D01*
X308801Y32885D01*
X309377Y34277D01*
Y35782D01*
X308801Y37174D01*
X307736Y38238D01*
X306345Y38814D01*
D02*
G37*
G36*
X317152Y34560D02*
X315646D01*
X314255Y33984D01*
X313190Y32919D01*
X312614Y31528D01*
Y31462D01*
X311344Y30613D01*
X310876Y30807D01*
X309370D01*
X307979Y30231D01*
X306914Y29166D01*
X306338Y27775D01*
Y26269D01*
X306914Y24878D01*
X307979Y23813D01*
X309370Y23237D01*
X310876D01*
X312267Y23813D01*
X313332Y24878D01*
X313908Y26269D01*
Y26336D01*
X315178Y27184D01*
X315646Y26990D01*
X317152D01*
X318543Y27566D01*
X319608Y28631D01*
X320184Y30022D01*
Y31528D01*
X319608Y32919D01*
X318543Y33984D01*
X317152Y34560D01*
D02*
G37*
G36*
X344306Y37237D02*
X342800D01*
X341409Y36661D01*
X340345Y35596D01*
X339768Y34205D01*
Y32699D01*
X340345Y31308D01*
X341409Y30243D01*
X342800Y29667D01*
X344306D01*
X345697Y30243D01*
X346762Y31308D01*
X347338Y32699D01*
Y34205D01*
X346762Y35596D01*
X345697Y36661D01*
X344306Y37237D01*
D02*
G37*
G36*
X295469Y38536D02*
X293964D01*
X292572Y37959D01*
X291508Y36895D01*
X290931Y35504D01*
Y33998D01*
X291508Y32607D01*
X292572Y31542D01*
X292705Y31487D01*
X292813Y30947D01*
X292237Y29555D01*
Y28050D01*
X292813Y26659D01*
X293878Y25594D01*
X295269Y25018D01*
X296775D01*
X298166Y25594D01*
X299230Y26659D01*
X299807Y28050D01*
Y29555D01*
X299230Y30947D01*
X298166Y32011D01*
X298033Y32067D01*
X297925Y32607D01*
X298501Y33998D01*
Y35504D01*
X297925Y36895D01*
X296861Y37959D01*
X295469Y38536D01*
D02*
G37*
G36*
X287068Y22753D02*
X285562D01*
X284171Y22177D01*
X283106Y21112D01*
X282101Y20912D01*
X281996Y21016D01*
X280605Y21593D01*
X279099D01*
X277708Y21016D01*
X276644Y19952D01*
X276067Y18561D01*
Y17055D01*
X276644Y15664D01*
X277708Y14599D01*
X279099Y14023D01*
X280605D01*
X281996Y14599D01*
X283061Y15664D01*
X284066Y15864D01*
X284171Y15759D01*
X285562Y15183D01*
X287068D01*
X288459Y15759D01*
X289523Y16824D01*
X289666Y17168D01*
X291041D01*
X291227Y16719D01*
X292292Y15654D01*
X293683Y15078D01*
X295189D01*
X296580Y15654D01*
X297645Y16719D01*
X298221Y18110D01*
Y19615D01*
X297645Y21007D01*
X296580Y22071D01*
X295189Y22648D01*
X293683D01*
X292292Y22071D01*
X291227Y21007D01*
X291084Y20662D01*
X289710D01*
X289523Y21112D01*
X288459Y22177D01*
X287068Y22753D01*
D02*
G37*
G36*
X235143Y36485D02*
X233637D01*
X232246Y35909D01*
X231181Y34844D01*
X230605Y33453D01*
Y31947D01*
X231181Y30556D01*
X232246Y29492D01*
X233637Y28915D01*
X233807D01*
X234655Y27645D01*
X234578Y27458D01*
Y25953D01*
X235154Y24561D01*
X236219Y23497D01*
X237610Y22920D01*
X239116D01*
X239388Y23033D01*
X240360Y22061D01*
X240331Y21992D01*
Y20486D01*
X240908Y19095D01*
X241972Y18031D01*
X243364Y17454D01*
X244869D01*
X246261Y18031D01*
X247325Y19095D01*
X247901Y20486D01*
Y21992D01*
X247325Y23383D01*
X246261Y24448D01*
X244869Y25024D01*
X243364D01*
X243091Y24911D01*
X242119Y25884D01*
X242148Y25953D01*
Y27458D01*
X241572Y28849D01*
X240507Y29914D01*
X239116Y30490D01*
X238946D01*
X238098Y31760D01*
X238175Y31947D01*
Y33453D01*
X237599Y34844D01*
X236534Y35909D01*
X235143Y36485D01*
D02*
G37*
G36*
X268339Y23169D02*
X266833D01*
X265442Y22593D01*
X264377Y21528D01*
X263801Y20137D01*
Y18632D01*
X264377Y17241D01*
X265442Y16176D01*
X266833Y15599D01*
X268339D01*
X269730Y16176D01*
X270795Y17241D01*
X271371Y18632D01*
Y20137D01*
X270795Y21528D01*
X269730Y22593D01*
X268339Y23169D01*
D02*
G37*
G36*
X216399Y21771D02*
X214894D01*
X213503Y21195D01*
X212438Y20130D01*
X211862Y18739D01*
Y17233D01*
X212438Y15842D01*
X213503Y14777D01*
X214894Y14201D01*
X216399D01*
X217791Y14777D01*
X218855Y15842D01*
X219431Y17233D01*
Y18739D01*
X218855Y20130D01*
X217791Y21195D01*
X216399Y21771D01*
D02*
G37*
G36*
X127073Y16376D02*
X125567D01*
X124176Y15800D01*
X123111Y14735D01*
X122535Y13344D01*
Y11838D01*
X123111Y10447D01*
X124176Y9382D01*
X125567Y8806D01*
X127073D01*
X128464Y9382D01*
X129529Y10447D01*
X130105Y11838D01*
Y13344D01*
X129529Y14735D01*
X128464Y15800D01*
X127073Y16376D01*
D02*
G37*
G36*
X161589Y57534D02*
X160084D01*
X158693Y56958D01*
X157628Y55894D01*
X157052Y54502D01*
Y52997D01*
X157628Y51606D01*
X158693Y50541D01*
X160027Y49988D01*
X160084Y49964D01*
X161200Y49421D01*
X161200Y48695D01*
X161200Y-1048D01*
X194890D01*
Y49752D01*
X163988D01*
X163462Y51022D01*
X164045Y51606D01*
X164622Y52997D01*
Y54502D01*
X164045Y55894D01*
X162981Y56958D01*
X161589Y57534D01*
D02*
G37*
G36*
X222623Y1721D02*
X221117D01*
X219726Y1145D01*
X218661Y80D01*
X218085Y-1311D01*
Y-2817D01*
X218661Y-4208D01*
X219726Y-5273D01*
X221117Y-5849D01*
X222623D01*
X224014Y-5273D01*
X225079Y-4208D01*
X225655Y-2817D01*
Y-1311D01*
X225079Y80D01*
X224014Y1145D01*
X222623Y1721D01*
D02*
G37*
G36*
X149714Y-5298D02*
X148209D01*
X146817Y-5875D01*
X145753Y-6939D01*
X145176Y-8331D01*
Y-9836D01*
X145753Y-11227D01*
X146817Y-12292D01*
X148209Y-12868D01*
X149714D01*
X151105Y-12292D01*
X152170Y-11227D01*
X152746Y-9836D01*
Y-8331D01*
X152170Y-6939D01*
X151105Y-5875D01*
X149714Y-5298D01*
D02*
G37*
G36*
X97769Y-10946D02*
X95979D01*
X94325Y-11631D01*
X93059Y-12897D01*
X92374Y-14551D01*
Y-16341D01*
X93059Y-17995D01*
X94325Y-19261D01*
X95979Y-19946D01*
X97769D01*
X99423Y-19261D01*
X100689Y-17995D01*
X101374Y-16341D01*
Y-14551D01*
X100689Y-12897D01*
X99423Y-11631D01*
X97769Y-10946D01*
D02*
G37*
G36*
X231155Y-15398D02*
X229649D01*
X228258Y-15974D01*
X227193Y-17039D01*
X226617Y-18430D01*
Y-19936D01*
X227193Y-21327D01*
X228258Y-22392D01*
X229649Y-22968D01*
X231155D01*
X232546Y-22392D01*
X233611Y-21327D01*
X234187Y-19936D01*
Y-18430D01*
X233611Y-17039D01*
X232546Y-15974D01*
X231155Y-15398D01*
D02*
G37*
G36*
X307839Y-9634D02*
X292251Y-18634D01*
X301251Y-34223D01*
X316839Y-25223D01*
X307839Y-9634D01*
D02*
G37*
G36*
X281363Y-25628D02*
X279074Y-26242D01*
X277022Y-27427D01*
X275346Y-29102D01*
X274161Y-31154D01*
X273548Y-33443D01*
X273548Y-35813D01*
X274161Y-38102D01*
X275346Y-40154D01*
X277022Y-41830D01*
X279074Y-43015D01*
X281363Y-43628D01*
X283733Y-43628D01*
X286022Y-43015D01*
X288074Y-41830D01*
X289750Y-40154D01*
X290935Y-38102D01*
X291548Y-35813D01*
X291548Y-33443D01*
X290935Y-31154D01*
X289750Y-29102D01*
X288074Y-27427D01*
X286022Y-26242D01*
X283733Y-25628D01*
X281363Y-25628D01*
D02*
G37*
G36*
X195794Y-42882D02*
X180794D01*
Y-45835D01*
X179524Y-46175D01*
X179294Y-45777D01*
X177898Y-44380D01*
X176187Y-43393D01*
X174280Y-42882D01*
X172305D01*
X170398Y-43393D01*
X168687Y-44380D01*
X167291Y-45777D01*
X166304Y-47487D01*
X165793Y-49395D01*
Y-51369D01*
X166304Y-53277D01*
X167291Y-54987D01*
X168687Y-56384D01*
X170398Y-57371D01*
X172305Y-57882D01*
X174280D01*
X176187Y-57371D01*
X177898Y-56384D01*
X179294Y-54987D01*
X179524Y-54589D01*
X180794Y-54929D01*
Y-57882D01*
X195794D01*
Y-42882D01*
D02*
G37*
G36*
X216887Y-47580D02*
X215381D01*
X213990Y-48156D01*
X212925Y-49221D01*
X212349Y-50612D01*
Y-52118D01*
X212925Y-53509D01*
X213990Y-54574D01*
X215381Y-55150D01*
X216887D01*
X218278Y-54574D01*
X219343Y-53509D01*
X219919Y-52118D01*
Y-50612D01*
X219343Y-49221D01*
X218278Y-48156D01*
X216887Y-47580D01*
D02*
G37*
G36*
X259366Y-38328D02*
X257077Y-38942D01*
X255025Y-40127D01*
X253349Y-41802D01*
X252164Y-43854D01*
X251551Y-46143D01*
X251551Y-48513D01*
X252164Y-50802D01*
X253349Y-52854D01*
X255025Y-54530D01*
X257077Y-55715D01*
X259366Y-56328D01*
X261736Y-56328D01*
X264025Y-55715D01*
X266077Y-54530D01*
X267753Y-52854D01*
X268937Y-50802D01*
X269551Y-48513D01*
X269551Y-46143D01*
X268937Y-43854D01*
X267753Y-41802D01*
X266077Y-40127D01*
X264025Y-38942D01*
X261736Y-38328D01*
X259366Y-38328D01*
D02*
G37*
G36*
X236837Y-49798D02*
X235331D01*
X233940Y-50374D01*
X232875Y-51438D01*
X232299Y-52830D01*
Y-54335D01*
X232875Y-55726D01*
X233940Y-56791D01*
X235331Y-57367D01*
X236837D01*
X238228Y-56791D01*
X239293Y-55726D01*
X239869Y-54335D01*
Y-52830D01*
X239293Y-51438D01*
X238228Y-50374D01*
X236837Y-49798D01*
D02*
G37*
%LPD*%
D94*
X674Y175517D02*
D03*
X358245Y175511D02*
D03*
D98*
X387909Y97786D02*
D03*
D104*
X253790Y-19238D02*
D03*
X212847Y71831D02*
D03*
X231817Y487D02*
D03*
X126228Y50729D02*
D03*
X203105Y51609D02*
D03*
X152656Y76063D02*
D03*
X155532Y81046D02*
D03*
X146985Y79337D02*
D03*
X149861Y84320D02*
D03*
X220404Y97569D02*
D03*
X341821Y78331D02*
D03*
X326605Y64818D02*
D03*
X260345Y26911D02*
D03*
X127068Y320811D02*
D03*
Y314017D02*
D03*
Y332489D02*
D03*
Y326565D02*
D03*
X120775Y320811D02*
D03*
Y314017D02*
D03*
Y332489D02*
D03*
Y326565D02*
D03*
X114611Y332489D02*
D03*
Y320811D02*
D03*
Y314017D02*
D03*
Y326565D02*
D03*
X108062Y332489D02*
D03*
Y320811D02*
D03*
Y314017D02*
D03*
Y326565D02*
D03*
X187323Y320430D02*
D03*
Y313636D02*
D03*
Y332108D02*
D03*
Y326183D02*
D03*
X181030Y320430D02*
D03*
Y313636D02*
D03*
Y332108D02*
D03*
Y326183D02*
D03*
X174866Y332108D02*
D03*
Y320430D02*
D03*
Y313636D02*
D03*
Y326183D02*
D03*
X168318Y332108D02*
D03*
Y320430D02*
D03*
Y313636D02*
D03*
Y326183D02*
D03*
X361226Y268945D02*
D03*
Y262152D02*
D03*
Y280623D02*
D03*
Y274699D02*
D03*
X354933Y268945D02*
D03*
Y262152D02*
D03*
Y280623D02*
D03*
Y274699D02*
D03*
X348769Y280623D02*
D03*
Y268945D02*
D03*
Y262152D02*
D03*
Y274699D02*
D03*
X342220Y280623D02*
D03*
Y268945D02*
D03*
Y262152D02*
D03*
Y274699D02*
D03*
X235399Y156727D02*
D03*
X150383Y131799D02*
D03*
X129960Y174323D02*
D03*
X132396Y153512D02*
D03*
D105*
X81719Y10496D02*
D03*
M02*
