G04*
G04 #@! TF.GenerationSoftware,Altium Limited,Altium Designer,22.11.1 (43)*
G04*
G04 Layer_Color=16711935*
%FSLAX44Y44*%
%MOMM*%
G71*
G04*
G04 #@! TF.SameCoordinates,1E15B7FD-EAFD-4F9B-970C-30AA40316711*
G04*
G04*
G04 #@! TF.FilePolarity,Positive*
G04*
G01*
G75*
%ADD14C,0.1524*%
G36*
X-23379Y295051D02*
X-41379D01*
Y297051D01*
X-23379D01*
Y295051D01*
D02*
G37*
G36*
X6745Y276552D02*
X-1755D01*
Y278552D01*
X6745D01*
Y276552D01*
D02*
G37*
G36*
Y264050D02*
X-1755D01*
Y266050D01*
X6745D01*
Y264050D01*
D02*
G37*
G36*
Y251551D02*
X-1755D01*
Y253551D01*
X6745D01*
Y251551D01*
D02*
G37*
G36*
X-23379Y233052D02*
X-41379D01*
Y235052D01*
X-23379D01*
Y233052D01*
D02*
G37*
G36*
X266104Y212817D02*
X264548Y211261D01*
X261720Y214090D01*
X263275Y215646D01*
X266104Y212817D01*
D02*
G37*
G36*
X273883Y214090D02*
X271054Y211261D01*
X269499Y212817D01*
X272327Y215646D01*
X273883Y214090D01*
D02*
G37*
G36*
X277418Y210555D02*
X274589Y207727D01*
X273033Y209282D01*
X275862Y212111D01*
X277418Y210555D01*
D02*
G37*
G36*
X262569Y209282D02*
X261013Y207727D01*
X258185Y210555D01*
X259741Y212111D01*
X262569Y209282D01*
D02*
G37*
G36*
X280954Y207019D02*
X278125Y204190D01*
X276570Y205746D01*
X279398Y208575D01*
X280954Y207019D01*
D02*
G37*
G36*
X259033Y205746D02*
X257477Y204190D01*
X254649Y207019D01*
X256204Y208575D01*
X259033Y205746D01*
D02*
G37*
G36*
X284489Y203484D02*
X281660Y200656D01*
X280104Y202211D01*
X282933Y205040D01*
X284489Y203484D01*
D02*
G37*
G36*
X255498Y202211D02*
X253942Y200656D01*
X251114Y203484D01*
X252670Y205040D01*
X255498Y202211D01*
D02*
G37*
G36*
X288025Y199948D02*
X285196Y197119D01*
X283641Y198675D01*
X286469Y201503D01*
X288025Y199948D01*
D02*
G37*
G36*
X251962Y198675D02*
X250406Y197119D01*
X247577Y199948D01*
X249133Y201503D01*
X251962Y198675D01*
D02*
G37*
G36*
X248427Y195140D02*
X246871Y193585D01*
X244043Y196413D01*
X245599Y197969D01*
X248427Y195140D01*
D02*
G37*
G36*
X291560Y196413D02*
X288731Y193585D01*
X287175Y195140D01*
X290004Y197969D01*
X291560Y196413D01*
D02*
G37*
G36*
X295096Y192877D02*
X292267Y190048D01*
X290712Y191604D01*
X293540Y194432D01*
X295096Y192877D01*
D02*
G37*
G36*
X244891Y191604D02*
X243335Y190048D01*
X240506Y192877D01*
X242062Y194432D01*
X244891Y191604D01*
D02*
G37*
G36*
X298631Y189342D02*
X295802Y186514D01*
X294246Y188069D01*
X297075Y190898D01*
X298631Y189342D01*
D02*
G37*
G36*
X241356Y188069D02*
X239800Y186514D01*
X236972Y189342D01*
X238528Y190898D01*
X241356Y188069D01*
D02*
G37*
G36*
X237819Y184533D02*
X236264Y182977D01*
X233435Y185806D01*
X234991Y187361D01*
X237819Y184533D01*
D02*
G37*
G36*
X302167Y185806D02*
X299339Y182977D01*
X297783Y184533D01*
X300611Y187361D01*
X302167Y185806D01*
D02*
G37*
G36*
X305702Y182271D02*
X302873Y179443D01*
X301318Y180998D01*
X304146Y183827D01*
X305702Y182271D01*
D02*
G37*
G36*
X234285Y180998D02*
X232729Y179443D01*
X229901Y182271D01*
X231456Y183827D01*
X234285Y180998D01*
D02*
G37*
G36*
X305702Y173219D02*
X304146Y171663D01*
X301317Y174492D01*
X302873Y176048D01*
X305702Y173219D01*
D02*
G37*
G36*
X234285Y174492D02*
X231457Y171663D01*
X229901Y173219D01*
X232729Y176048D01*
X234285Y174492D01*
D02*
G37*
G36*
X302167Y169685D02*
X300611Y168129D01*
X297783Y170957D01*
X299339Y172513D01*
X302167Y169685D01*
D02*
G37*
G36*
X237819Y170957D02*
X234991Y168129D01*
X233435Y169685D01*
X236264Y172513D01*
X237819Y170957D01*
D02*
G37*
G36*
X298631Y166148D02*
X297075Y164592D01*
X294246Y167421D01*
X295802Y168976D01*
X298631Y166148D01*
D02*
G37*
G36*
X241356Y167421D02*
X238528Y164592D01*
X236972Y166148D01*
X239800Y168977D01*
X241356Y167421D01*
D02*
G37*
G36*
X-44501Y187166D02*
X-41651Y185520D01*
X-39323Y183193D01*
X-37678Y180342D01*
X-36826Y177163D01*
Y175517D01*
Y173872D01*
X-37678Y170693D01*
X-39323Y167842D01*
X-41651Y165515D01*
X-44501Y163869D01*
X-47680Y163017D01*
X-50971D01*
X-54151Y163869D01*
X-57001Y165515D01*
X-59328Y167842D01*
X-60974Y170693D01*
X-61826Y173872D01*
Y175517D01*
Y177163D01*
X-60974Y180342D01*
X-59328Y183193D01*
X-57001Y185520D01*
X-54151Y187166D01*
X-50971Y188017D01*
X-47680D01*
X-44501Y187166D01*
D02*
G37*
G36*
X5499Y187166D02*
X8349Y185520D01*
X10677Y183193D01*
X12322Y180342D01*
X13174Y177163D01*
Y175517D01*
Y173872D01*
X12322Y170693D01*
X10677Y167842D01*
X8349Y165515D01*
X5499Y163869D01*
X2320Y163017D01*
X-971D01*
X-4151Y163869D01*
X-7001Y165515D01*
X-9328Y167842D01*
X-10974Y170693D01*
X-11826Y173872D01*
Y175517D01*
Y177163D01*
X-10974Y180342D01*
X-9328Y183193D01*
X-7001Y185520D01*
X-4151Y187166D01*
X-971Y188017D01*
X2320D01*
X5499Y187166D01*
D02*
G37*
G36*
X363069Y187159D02*
X365920Y185513D01*
X368247Y183186D01*
X369893Y180335D01*
X370745Y177156D01*
Y175511D01*
Y173865D01*
X369893Y170686D01*
X368247Y167835D01*
X365920Y165508D01*
X363069Y163862D01*
X359890Y163011D01*
X356599D01*
X353420Y163862D01*
X350569Y165508D01*
X348242Y167835D01*
X346596Y170686D01*
X345745Y173865D01*
Y175511D01*
Y177156D01*
X346596Y180335D01*
X348242Y183186D01*
X350569Y185513D01*
X353420Y187159D01*
X356599Y188011D01*
X359890D01*
X363069Y187159D01*
D02*
G37*
G36*
X413069Y187159D02*
X415920Y185513D01*
X418247Y183186D01*
X419893Y180335D01*
X420745Y177156D01*
Y175511D01*
Y173865D01*
X419893Y170686D01*
X418247Y167835D01*
X415920Y165508D01*
X413069Y163862D01*
X409890Y163011D01*
X406599D01*
X403420Y163862D01*
X400569Y165508D01*
X398242Y167835D01*
X396596Y170686D01*
X395745Y173865D01*
Y175511D01*
Y177156D01*
X396596Y180335D01*
X398242Y183186D01*
X400569Y185513D01*
X403420Y187159D01*
X406599Y188011D01*
X409890D01*
X413069Y187159D01*
D02*
G37*
G36*
X295096Y162614D02*
X293540Y161058D01*
X290712Y163886D01*
X292267Y165442D01*
X295096Y162614D01*
D02*
G37*
G36*
X244890Y163886D02*
X242062Y161058D01*
X240506Y162614D01*
X243335Y165442D01*
X244890Y163886D01*
D02*
G37*
G36*
X291560Y159077D02*
X290004Y157521D01*
X287175Y160350D01*
X288731Y161905D01*
X291560Y159077D01*
D02*
G37*
G36*
X248427Y160350D02*
X245599Y157521D01*
X244043Y159077D01*
X246871Y161905D01*
X248427Y160350D01*
D02*
G37*
G36*
X288025Y155542D02*
X286469Y153987D01*
X283641Y156815D01*
X285196Y158371D01*
X288025Y155542D01*
D02*
G37*
G36*
X251962Y156815D02*
X249133Y153987D01*
X247577Y155542D01*
X250406Y158371D01*
X251962Y156815D01*
D02*
G37*
G36*
X255498Y153279D02*
X252670Y150450D01*
X251114Y152006D01*
X253942Y154834D01*
X255498Y153279D01*
D02*
G37*
G36*
X284489Y152006D02*
X282933Y150450D01*
X280104Y153279D01*
X281660Y154834D01*
X284489Y152006D01*
D02*
G37*
G36*
X280954Y148471D02*
X279398Y146916D01*
X276570Y149744D01*
X278125Y151300D01*
X280954Y148471D01*
D02*
G37*
G36*
X259033Y149744D02*
X256204Y146916D01*
X254648Y148471D01*
X257477Y151300D01*
X259033Y149744D01*
D02*
G37*
G36*
X299621Y177745D02*
X267801Y145925D01*
X235981Y177745D01*
X267801Y209565D01*
X299621Y177745D01*
D02*
G37*
G36*
X277418Y144935D02*
X275862Y143379D01*
X273033Y146208D01*
X274589Y147763D01*
X277418Y144935D01*
D02*
G37*
G36*
X262569Y146208D02*
X259741Y143379D01*
X258185Y144935D01*
X261013Y147763D01*
X262569Y146208D01*
D02*
G37*
G36*
X273883Y141400D02*
X272327Y139845D01*
X269499Y142673D01*
X271054Y144229D01*
X273883Y141400D01*
D02*
G37*
G36*
X266104Y142673D02*
X263275Y139845D01*
X261720Y141400D01*
X264548Y144229D01*
X266104Y142673D01*
D02*
G37*
G36*
X-23379Y114142D02*
X-41379D01*
X-41379Y116142D01*
X-23379D01*
Y114142D01*
D02*
G37*
G36*
X6745Y95643D02*
X-1755D01*
Y97643D01*
X6745D01*
Y95643D01*
D02*
G37*
G36*
X6745Y83141D02*
X-1755D01*
Y85141D01*
X6745D01*
X6745Y83141D01*
D02*
G37*
G36*
X6745Y70641D02*
X-1755D01*
Y72642D01*
X6745D01*
Y70641D01*
D02*
G37*
G36*
X-23379Y52143D02*
X-41379D01*
X-41379Y54143D01*
X-23379D01*
Y52143D01*
D02*
G37*
G36*
X190794Y-52882D02*
X185794D01*
Y-47882D01*
X190794D01*
Y-52882D01*
D02*
G37*
G36*
X175793D02*
X170793D01*
Y-47882D01*
X175793D01*
Y-52882D01*
D02*
G37*
D14*
X212028Y-50890D02*
X220664D01*
X212028D02*
Y-46826D01*
X220664D02*
X223331Y-46826D01*
X220664Y-50890D02*
Y-46826D01*
X209361Y-46826D02*
X212028Y-46826D01*
X209361Y-46826D02*
Y-28792D01*
X223331Y-28792D02*
X223331Y-46826D01*
X220664Y-28792D02*
X223331Y-28792D01*
X212028Y-28792D02*
Y-24728D01*
X209361Y-28792D02*
X212028Y-28792D01*
X220664D02*
Y-24728D01*
X212028D02*
X220664D01*
X281193Y123143D02*
X323619Y80716D01*
X321823Y78920D02*
X323619Y80716D01*
X273669Y127074D02*
X279397Y121347D01*
X281193Y123143D01*
X321823Y78920D02*
X327551Y73193D01*
X321823Y67465D02*
X327551Y73193D01*
X266146Y123143D02*
X267942Y121347D01*
X273669Y127074D01*
X321823Y67465D02*
X323619Y65669D01*
X281193Y23243D02*
X323619Y65669D01*
X223719Y80716D02*
X266146Y123143D01*
X223719Y80716D02*
X225515Y78920D01*
X273669Y19311D02*
X279397Y25039D01*
X281193Y23243D01*
X219788Y73193D02*
X225515Y78920D01*
X219788Y73193D02*
X225515Y67465D01*
X266145Y23243D02*
X267942Y25039D01*
X273669Y19311D01*
X223719Y65669D02*
X225515Y67465D01*
X223719Y65669D02*
X266145Y23243D01*
X288227Y256185D02*
X296863D01*
Y252121D02*
Y256185D01*
X285560Y252120D02*
X288227Y252121D01*
X288227Y256185D01*
X296863Y252121D02*
X299530Y252121D01*
X299530Y234087D02*
X299530Y252121D01*
X285560Y234087D02*
X285560Y252120D01*
X285560Y234087D02*
X288227Y234087D01*
X296863Y230023D02*
Y234087D01*
X299530Y234087D01*
X288227Y230022D02*
X288227Y234087D01*
X288227Y230022D02*
X296863Y230023D01*
X190030Y253583D02*
X196137Y259690D01*
X199010Y256816D01*
X191018Y248824D02*
X192904Y250710D01*
X190030Y253583D02*
X192904Y250710D01*
X199010Y256816D02*
X200896Y258702D01*
X213648Y245950D01*
X191018Y248824D02*
X203770Y236072D01*
X205656Y237958D01*
X211762Y244064D02*
X214636Y241190D01*
X211762Y244064D02*
X213648Y245950D01*
X205656Y237958D02*
X208529Y235084D01*
X214636Y241190D01*
X146786Y234734D02*
X152892Y240840D01*
X155766Y237967D01*
X147774Y229974D02*
X149659Y231860D01*
X146786Y234734D02*
X149659Y231860D01*
X155766Y237967D02*
X157652Y239853D01*
X170404Y227101D01*
X147774Y229974D02*
X160525Y217222D01*
X162411Y219108D01*
X168518Y225215D02*
X171392Y222341D01*
X168518Y225215D02*
X170404Y227101D01*
X162411Y219108D02*
X165285Y216234D01*
X171392Y222341D01*
M02*
