G04*
G04 #@! TF.GenerationSoftware,Altium Limited,Altium Designer,22.11.1 (43)*
G04*
G04 Layer_Color=16711935*
%FSLAX44Y44*%
%MOMM*%
G71*
G04*
G04 #@! TF.SameCoordinates,1E15B7FD-EAFD-4F9B-970C-30AA40316711*
G04*
G04*
G04 #@! TF.FilePolarity,Positive*
G04*
G01*
G75*
%ADD16C,0.1000*%
%ADD109C,0.0508*%
D16*
X4546Y136302D02*
X35545Y136302D01*
X4546Y118302D02*
X35546Y118302D01*
X35545Y136302D02*
X35546Y118302D01*
X4546Y118302D02*
Y136302D01*
X87339Y109359D02*
X105339Y109359D01*
X87339Y109359D02*
X87339Y78359D01*
X105339Y78359D02*
X105339Y109359D01*
X87339Y78359D02*
X105339Y78359D01*
X175259Y129719D02*
X178258Y132719D01*
X173258Y130719D02*
X176258Y133719D01*
X172308Y138889D02*
X180308Y138889D01*
X178308Y134889D02*
X178308Y142889D01*
X174308Y142889D02*
X178308Y138889D01*
X174308Y134889D02*
X178308Y138889D01*
X174308Y134889D02*
Y142889D01*
X174184Y118945D02*
Y126945D01*
Y118945D02*
X178184Y122945D01*
X174184Y126945D02*
X178184Y122945D01*
X178184Y126945D02*
X178184Y118945D01*
X172184Y122945D02*
X180184D01*
X173134Y114775D02*
X176134Y117775D01*
X175134Y113775D02*
X178134Y116775D01*
D109*
X123710Y28246D02*
X128710D01*
X123710Y18246D02*
X128710D01*
X123710D02*
Y28246D01*
X128710Y18246D02*
X128710Y28246D01*
X124686Y23246D02*
X127734D01*
X126209Y21721D02*
X126209Y24769D01*
X241246Y-19031D02*
X244294D01*
X242771Y-20555D02*
Y-17507D01*
X237771Y-16531D02*
X247771Y-16530D01*
X237771Y-21531D02*
X247771Y-21531D01*
X237771Y-21531D02*
Y-16531D01*
X247771Y-21531D02*
Y-16530D01*
X233879Y-37396D02*
X238879D01*
X233879Y-47396D02*
X238879D01*
X238879Y-37396D02*
X238879Y-47396D01*
X233879D02*
Y-37396D01*
X234855Y-42396D02*
X237903D01*
X236380Y-43921D02*
X236380Y-40873D01*
X230099Y-28879D02*
X233147Y-28879D01*
X231624Y-30402D02*
Y-27354D01*
X226624Y-26378D02*
X236624D01*
X226624Y-31378D02*
X236624Y-31378D01*
X226624Y-31378D02*
Y-26378D01*
X236624Y-31378D02*
Y-26378D01*
X132404Y28350D02*
X137404Y28350D01*
X132403Y18350D02*
X137404Y18350D01*
X132404Y18350D02*
Y28350D01*
X137404Y18350D02*
X137404Y28350D01*
X133380Y23350D02*
X136428Y23350D01*
X134903Y21825D02*
X134903Y24873D01*
X231897Y4177D02*
Y9177D01*
X241897Y4177D02*
X241897Y9177D01*
X231897Y9177D02*
X241897D01*
X231897Y4177D02*
X241897Y4177D01*
X236897Y5153D02*
Y8201D01*
X235374Y6678D02*
X238422D01*
X280165Y130821D02*
X283701Y127285D01*
X287236Y137892D02*
X290772Y134357D01*
X280165Y130821D02*
X287236Y137892D01*
X283701Y127285D02*
X290772Y134357D01*
X284391Y133666D02*
X286546Y131511D01*
X284391Y131512D02*
X286546Y133668D01*
X246381Y152780D02*
X249917Y156316D01*
X239310Y159851D02*
X242846Y163387D01*
X242845Y163387D02*
X249917Y156316D01*
X239310Y159851D02*
X246381Y152780D01*
X243536Y157006D02*
X245691Y159161D01*
X243536Y159162D02*
X245691Y157007D01*
X186655Y209123D02*
X189703Y209123D01*
X188178Y207600D02*
X188178Y210648D01*
X183178Y211624D02*
X193178D01*
X183178Y206624D02*
X193178Y206623D01*
X193178Y211624D02*
X193178Y206623D01*
X183178Y211624D02*
X183178Y206624D01*
X119245Y113250D02*
X124246Y113250D01*
X119246Y103250D02*
X124246Y103250D01*
X124246Y103250D02*
X124246Y113250D01*
X119245Y113250D02*
X119246Y103250D01*
X120222Y108250D02*
X123270Y108250D01*
X121746Y109773D02*
X121746Y106725D01*
X143271Y-15590D02*
X143271Y-12542D01*
X141746Y-14066D02*
X144794D01*
X140770Y-19065D02*
Y-9066D01*
X145770Y-19066D02*
X145770Y-9065D01*
X140770Y-19065D02*
X145770Y-19066D01*
X140770Y-9066D02*
X145770Y-9065D01*
X100427Y-46377D02*
X100427Y-51377D01*
X90427Y-51377D02*
X90427Y-46377D01*
X90427Y-51377D02*
X100427Y-51377D01*
X90427Y-46377D02*
X100427Y-46377D01*
X95427Y-47353D02*
X95427Y-50401D01*
X93902Y-48878D02*
X96950Y-48878D01*
X111323Y29340D02*
Y32388D01*
X109800Y30863D02*
X112848D01*
X113824Y25863D02*
Y35863D01*
X108824Y25863D02*
Y35863D01*
X108824D02*
X113824D01*
X108824Y25863D02*
X113824D01*
X121198Y29518D02*
Y32566D01*
X119674Y31041D02*
X122722D01*
X123699Y26041D02*
Y36041D01*
X118698Y26041D02*
Y36041D01*
X118698D02*
X123699D01*
X118698Y26041D02*
X123699D01*
X93996Y73518D02*
X97044Y73518D01*
X95519Y71993D02*
X95519Y75041D01*
X90519Y71017D02*
X100519Y71017D01*
X90519Y76017D02*
X100519Y76017D01*
X100519Y76017D02*
X100519Y71017D01*
X90519Y76017D02*
X90519Y71017D01*
X93764Y64289D02*
X96812D01*
X95287Y62765D02*
Y65813D01*
X90287Y61789D02*
X100287D01*
X90287Y66789D02*
X100287D01*
Y61789D02*
Y66789D01*
X90287Y61789D02*
Y66789D01*
X84684Y113763D02*
X89685D01*
X84684Y123763D02*
X89685D01*
X84684Y113763D02*
Y123763D01*
X89685Y113763D02*
Y123763D01*
X85660Y118763D02*
X88708D01*
X87184Y117240D02*
Y120288D01*
X98191Y123832D02*
X103191Y123832D01*
X98191Y113832D02*
X103191Y113832D01*
X103191Y123832D02*
X103191Y113832D01*
X98191Y113832D02*
X98191Y123832D01*
X99167Y118832D02*
X102215Y118832D01*
X100691Y120356D02*
X100691Y117308D01*
X110049Y120535D02*
X110049Y117487D01*
X108524Y119011D02*
X111572Y119011D01*
X107548Y114011D02*
X107548Y124011D01*
X112548Y124011D02*
X112548Y114011D01*
X107548Y114011D02*
X112548Y114011D01*
X107548Y124011D02*
X112548Y124011D01*
X137246Y162969D02*
Y166017D01*
X135723Y164492D02*
X138771D01*
X139747Y159492D02*
Y169492D01*
X134746Y159492D02*
Y169492D01*
X134746D02*
X139747D01*
X134746Y159492D02*
X139747D01*
X145835Y146732D02*
X148883Y146732D01*
X147358Y145208D02*
X147358Y148256D01*
X142358Y144231D02*
X152358Y144231D01*
X142358Y149232D02*
X152358Y149232D01*
X152358Y144231D02*
Y149232D01*
X142358Y149232D02*
X142358Y144231D01*
X143231Y122059D02*
X143231Y125107D01*
X141706Y123584D02*
X144754Y123584D01*
X140730Y118584D02*
Y128584D01*
X145730Y118584D02*
X145730Y128584D01*
X140730Y118584D02*
X145730Y118584D01*
X140730Y128584D02*
X145730D01*
X131583Y128584D02*
X136583Y128584D01*
X131583Y118584D02*
X136583D01*
X136583D02*
X136583Y128584D01*
X131583Y128584D02*
X131583Y118584D01*
X132559Y123584D02*
X135607Y123584D01*
X134084Y125107D02*
X134084Y122059D01*
X198306Y104293D02*
X203306Y104293D01*
X198306Y114293D02*
X203306Y114293D01*
X198306Y114293D02*
X198306Y104293D01*
X203306Y104293D02*
X203306Y114293D01*
X199282Y109293D02*
X202330Y109293D01*
X200805Y107770D02*
X200805Y110818D01*
X212814Y98383D02*
X216349Y94847D01*
X205743Y91312D02*
X209278Y87776D01*
X209278Y87776D02*
X216349Y94847D01*
X205743Y91312D02*
X212814Y98383D01*
X209968Y94157D02*
X212124Y92002D01*
X209968Y92001D02*
X212124Y94156D01*
X209695Y104474D02*
X214695D01*
X209695Y114474D02*
X214695D01*
X209695Y104474D02*
Y114474D01*
X214695Y104474D02*
Y114474D01*
X210671Y109474D02*
X213719D01*
X212194Y107951D02*
Y110999D01*
X219099Y104368D02*
X224099D01*
X219099Y114368D02*
X224099D01*
X219099Y104368D02*
Y114368D01*
X224099Y104368D02*
Y114368D01*
X220075Y109368D02*
X223123D01*
X221598Y107844D02*
Y110892D01*
X218859Y122222D02*
X223859D01*
X218859Y132222D02*
X223859D01*
X218859Y122222D02*
Y132222D01*
X223859Y122222D02*
Y132222D01*
X219835Y127222D02*
X222883D01*
X221358Y125699D02*
Y128747D01*
X198281Y122500D02*
X203281D01*
X198281Y132500D02*
X203281D01*
X198281Y122500D02*
Y132500D01*
X203281Y122500D02*
Y132500D01*
X199257Y127500D02*
X202305D01*
X200781Y125976D02*
Y129024D01*
X219005Y92311D02*
X222541Y88775D01*
X211934Y85240D02*
X215470Y81704D01*
X215470Y81704D02*
X222541Y88775D01*
X211934Y85240D02*
X219005Y92311D01*
X216160Y88085D02*
X218315Y85930D01*
X216160Y85929D02*
X218315Y88084D01*
X210377Y49344D02*
X212532Y51500D01*
X210377Y51501D02*
X212532Y49345D01*
X206151Y48656D02*
X213222Y55726D01*
X209687Y45120D02*
X216758Y52191D01*
X206151Y48656D02*
X209687Y45120D01*
X213222Y55726D02*
X216758Y52191D01*
X260757Y13319D02*
X264293Y16855D01*
X253686Y20390D02*
X257222Y23926D01*
X253686Y20391D02*
X260757Y13319D01*
X257222Y23926D02*
X264293Y16855D01*
X257912Y17545D02*
X260067Y19700D01*
X257911Y19700D02*
X260066Y17545D01*
X366177Y104737D02*
Y107785D01*
X364654Y106260D02*
X367702D01*
X368678Y101260D02*
Y111260D01*
X363678Y101260D02*
Y111260D01*
X363678D02*
X368678D01*
X363678Y101260D02*
X368678D01*
X388124Y75944D02*
Y78992D01*
X386599Y77469D02*
X389647D01*
X385623Y82468D02*
X385623Y72469D01*
X390623Y82468D02*
X390623Y72469D01*
X385623Y72469D02*
X390623Y72468D01*
X385623Y82468D02*
X390623Y82468D01*
X394856Y82469D02*
X399856D01*
X394856Y72468D02*
X399856Y72468D01*
X399856Y72468D02*
Y82469D01*
X394856D02*
X394856Y72468D01*
X395832Y77469D02*
X398880Y77469D01*
X397357Y75944D02*
Y78992D01*
X374888Y75945D02*
Y78993D01*
X373365Y77469D02*
X376413D01*
X377389Y72469D02*
Y82469D01*
X372389Y72469D02*
Y82469D01*
X372389D02*
X377389D01*
X372389Y72469D02*
X377389D01*
X363133Y82469D02*
X368133Y82469D01*
X363133Y72469D02*
X368134Y72468D01*
X368133Y72469D02*
X368133Y82469D01*
X363133Y72469D02*
Y82469D01*
X364109Y77469D02*
X367157Y77468D01*
X365634Y78992D02*
X365634Y75944D01*
X354981Y43598D02*
X357136Y45753D01*
X354981Y45754D02*
X357136Y43599D01*
X350755Y42909D02*
X357826Y49980D01*
X354291Y39374D02*
X361362Y46445D01*
X350755Y42909D02*
X354291Y39374D01*
X357826Y49980D02*
X361362Y46445D01*
X334076Y41529D02*
X336231Y39373D01*
X334075Y39373D02*
X336230Y41529D01*
X329849Y42219D02*
X336920Y35148D01*
X333385Y45754D02*
X340456Y38683D01*
X336920Y35148D02*
X340456Y38683D01*
X329849Y42219D02*
X333385Y45754D01*
X330082Y55979D02*
X333618Y59515D01*
X337154Y48908D02*
X340689Y52444D01*
X333618Y59515D02*
X340689Y52444D01*
X330082Y55979D02*
X337154Y48908D01*
X334308Y53134D02*
X336463Y55289D01*
X334309Y55289D02*
X336465Y53134D01*
X336575Y83749D02*
X340111Y80213D01*
X343646Y90820D02*
X347182Y87285D01*
X336575Y83749D02*
X343646Y90820D01*
X340111Y80213D02*
X347182Y87285D01*
X340801Y86595D02*
X342956Y84439D01*
X340801Y84440D02*
X342956Y86596D01*
X337150Y97437D02*
X340686Y93902D01*
X330079Y90366D02*
X333615Y86831D01*
X333615Y86831D02*
X340686Y93902D01*
X330079Y90366D02*
X337150Y97437D01*
X334305Y93211D02*
X336460Y91056D01*
X334305Y91055D02*
X336460Y93210D01*
X312550Y118774D02*
X316085Y115238D01*
X305479Y111703D02*
X309014Y108167D01*
X309014Y108167D02*
X316085Y115238D01*
X305479Y111703D02*
X312550Y118774D01*
X309705Y114548D02*
X311860Y112393D01*
X309705Y112391D02*
X311860Y114547D01*
X26865Y312364D02*
X31865Y312364D01*
X26865Y302364D02*
X31865Y302364D01*
X31865Y302364D02*
X31865Y312364D01*
X26865Y302364D02*
X26865Y312364D01*
X27841Y307364D02*
X30889Y307364D01*
X29366Y305839D02*
X29366Y308887D01*
X332453Y98232D02*
X335988Y101768D01*
X325381Y105303D02*
X328917Y108839D01*
X328917Y108839D02*
X335988Y101768D01*
X325381Y105303D02*
X332453Y98232D01*
X329607Y102458D02*
X331763Y104614D01*
X329607Y104615D02*
X331763Y102459D01*
X304950Y113643D02*
X308485Y110108D01*
X312021Y120714D02*
X315556Y117179D01*
X308485Y110108D02*
X315556Y117179D01*
X304950Y113643D02*
X312021Y120714D01*
X309175Y116489D02*
X311331Y114333D01*
X309177Y114333D02*
X311332Y116489D01*
X235329Y140798D02*
X238865Y144333D01*
X228258Y147869D02*
X231794Y151404D01*
X228258Y147869D02*
X235329Y140798D01*
X231794Y151404D02*
X238865Y144333D01*
X232484Y145023D02*
X234639Y147179D01*
X232482Y147178D02*
X234638Y145023D01*
X47881Y3873D02*
X52882D01*
X47881Y13873D02*
X52882Y13873D01*
X47881Y13873D02*
X47881Y3873D01*
X52882Y13873D02*
X52882Y3873D01*
X48857Y8874D02*
X51905Y8873D01*
X50381Y7350D02*
X50381Y10398D01*
X209695Y122615D02*
X214695Y122615D01*
X209695Y132615D02*
X214695D01*
X209695Y122615D02*
X209695Y132615D01*
X214695Y122615D02*
X214695Y132615D01*
X210671Y127615D02*
X213719Y127615D01*
X212194Y126092D02*
X212194Y129140D01*
X204764Y73740D02*
X208300Y77275D01*
X197693Y80810D02*
X201229Y84346D01*
X197693Y80811D02*
X204764Y73740D01*
X201229Y84346D02*
X208300Y77275D01*
X201919Y77965D02*
X204074Y80120D01*
X201918Y80121D02*
X204073Y77965D01*
X142326Y135631D02*
Y140631D01*
X152326Y135631D02*
Y140631D01*
X142326Y140631D02*
X152326D01*
X142326Y135631D02*
X152326D01*
X147326Y136607D02*
Y139655D01*
X145803Y138132D02*
X148851D01*
X129835Y71768D02*
X129835Y66768D01*
X139834D02*
X139835Y71769D01*
X129835Y71768D02*
X139835Y71768D01*
X129835Y66768D02*
X139834D01*
X134835Y67745D02*
X134835Y70792D01*
X133311Y69269D02*
X136359Y69269D01*
X129834Y76105D02*
X129834Y81105D01*
X139834Y76105D02*
Y81105D01*
X129834Y81105D02*
X139834Y81105D01*
X129834Y76105D02*
X139834Y76105D01*
X134834Y77081D02*
X134834Y80129D01*
X133311Y78606D02*
X136359D01*
X142172Y47990D02*
X147253D01*
X144712Y45450D02*
X144712Y50530D01*
X132712Y179476D02*
X137713Y179476D01*
X132712Y189476D02*
X137712D01*
X132712Y179476D02*
Y189476D01*
X137712D02*
X137713Y179476D01*
X133688Y184476D02*
X136736Y184476D01*
X135212Y186001D02*
X135212Y182953D01*
M02*
