G04*
G04 #@! TF.GenerationSoftware,Altium Limited,Altium Designer,22.11.1 (43)*
G04*
G04 Layer_Color=128*
%FSLAX44Y44*%
%MOMM*%
G71*
G04*
G04 #@! TF.SameCoordinates,1E15B7FD-EAFD-4F9B-970C-30AA40316711*
G04*
G04*
G04 #@! TF.FilePolarity,Positive*
G04*
G01*
G75*
G04:AMPARAMS|DCode=25|XSize=0.508mm|YSize=0.508mm|CornerRadius=0.127mm|HoleSize=0mm|Usage=FLASHONLY|Rotation=270.000|XOffset=0mm|YOffset=0mm|HoleType=Round|Shape=RoundedRectangle|*
%AMROUNDEDRECTD25*
21,1,0.5080,0.2540,0,0,270.0*
21,1,0.2540,0.5080,0,0,270.0*
1,1,0.2540,-0.1270,-0.1270*
1,1,0.2540,-0.1270,0.1270*
1,1,0.2540,0.1270,0.1270*
1,1,0.2540,0.1270,-0.1270*
%
%ADD25ROUNDEDRECTD25*%
G04:AMPARAMS|DCode=26|XSize=0.508mm|YSize=0.508mm|CornerRadius=0.127mm|HoleSize=0mm|Usage=FLASHONLY|Rotation=0.000|XOffset=0mm|YOffset=0mm|HoleType=Round|Shape=RoundedRectangle|*
%AMROUNDEDRECTD26*
21,1,0.5080,0.2540,0,0,0.0*
21,1,0.2540,0.5080,0,0,0.0*
1,1,0.2540,0.1270,-0.1270*
1,1,0.2540,-0.1270,-0.1270*
1,1,0.2540,-0.1270,0.1270*
1,1,0.2540,0.1270,0.1270*
%
%ADD26ROUNDEDRECTD26*%
G04:AMPARAMS|DCode=29|XSize=0.508mm|YSize=0.508mm|CornerRadius=0.127mm|HoleSize=0mm|Usage=FLASHONLY|Rotation=135.000|XOffset=0mm|YOffset=0mm|HoleType=Round|Shape=RoundedRectangle|*
%AMROUNDEDRECTD29*
21,1,0.5080,0.2540,0,0,135.0*
21,1,0.2540,0.5080,0,0,135.0*
1,1,0.2540,0.0000,0.1796*
1,1,0.2540,0.1796,0.0000*
1,1,0.2540,0.0000,-0.1796*
1,1,0.2540,-0.1796,0.0000*
%
%ADD29ROUNDEDRECTD29*%
G04:AMPARAMS|DCode=38|XSize=0.508mm|YSize=0.508mm|CornerRadius=0.127mm|HoleSize=0mm|Usage=FLASHONLY|Rotation=225.000|XOffset=0mm|YOffset=0mm|HoleType=Round|Shape=RoundedRectangle|*
%AMROUNDEDRECTD38*
21,1,0.5080,0.2540,0,0,225.0*
21,1,0.2540,0.5080,0,0,225.0*
1,1,0.2540,-0.1796,0.0000*
1,1,0.2540,0.0000,0.1796*
1,1,0.2540,0.1796,0.0000*
1,1,0.2540,0.0000,-0.1796*
%
%ADD38ROUNDEDRECTD38*%
%ADD41R,0.7600X0.8600*%
%ADD106R,1.1883X0.3408*%
%ADD107O,1.1883X0.3408*%
G36*
X420210Y239942D02*
Y204666D01*
X398904Y183360D01*
Y151805D01*
X391780Y144681D01*
X360225D01*
X359779Y145128D01*
Y172143D01*
X364264Y176629D01*
X375619D01*
X384230Y185239D01*
Y198969D01*
X370049Y213150D01*
Y242026D01*
X418126D01*
X420210Y239942D01*
D02*
G37*
D25*
X183098Y209123D02*
D03*
X193258Y209123D02*
D03*
D26*
X126210Y18166D02*
D03*
Y28326D02*
D03*
X134904Y18270D02*
D03*
X134904Y28430D02*
D03*
D29*
X313845Y119003D02*
D03*
X306661Y111819D02*
D03*
D38*
X241021Y161675D02*
D03*
X248205Y154491D02*
D03*
X327093Y107128D02*
D03*
X334277Y99944D02*
D03*
D41*
X102647Y339124D02*
D03*
X102647Y354124D02*
D03*
X164975Y339124D02*
D03*
Y354124D02*
D03*
X227303Y339124D02*
D03*
X227303Y354124D02*
D03*
X274966Y339723D02*
D03*
X274966Y354723D02*
D03*
D106*
X204876Y43986D02*
D03*
X204728Y196221D02*
D03*
D107*
X204876Y37486D02*
D03*
Y30986D02*
D03*
Y24486D02*
D03*
Y17986D02*
D03*
Y11486D02*
D03*
Y4986D02*
D03*
X149051D02*
D03*
Y11486D02*
D03*
Y17986D02*
D03*
Y24486D02*
D03*
Y30986D02*
D03*
Y37486D02*
D03*
Y43986D02*
D03*
X148904Y196221D02*
D03*
Y189721D02*
D03*
Y183221D02*
D03*
Y176721D02*
D03*
Y170221D02*
D03*
Y163721D02*
D03*
Y157221D02*
D03*
X204728D02*
D03*
Y163721D02*
D03*
Y170221D02*
D03*
Y176721D02*
D03*
Y183221D02*
D03*
Y189721D02*
D03*
M02*
