M48
;Layer_Color=9474304
;FILE_FORMAT=4:4
METRIC,LZ
;TYPE=PLATED
T1F00S00C0.2540
T2F00S00C0.3000
T3F00S00C0.6000
T4F00S00C0.8000
T5F00S00C0.9000
T6F00S00C1.6000
T7F00S00C2.6000
T8F00S00C2.8000
%
T01
X00051425Y0002641
X0005735
X00063103
Y00032703
X0005735Y00032703
X00051425Y00032703
X00043871Y0007796
X00038499Y00078199
X00038435Y00083714
X00043871Y00083714
Y00089639
X00038435Y00089639
X00100759Y00128677
X00102314Y00153325
X00102314Y00158761
X000968Y00158697
X00096561Y00153325
X0009069Y00152997
X00108239Y00153325
X00108239Y00158761
X00132396Y00153512
X0012996Y00174323
X00140166Y00174664
X00140015Y00190758
X00148595Y00239218
X00057037Y0024054
X00059999Y00245671
X00062876Y00250653
X00054328Y00248945
X00051366Y00243814
X00046027Y00246896
X0004899Y00252027
X00040578Y00250042
X00251423Y00249179
Y00243255
Y00237501
X00257972
Y00243255
Y00249179
X00264136
Y00243255
Y00237501
X00270429
Y00243255
Y00249179
X0026771Y00186354
X00263642Y00182286
X00259453Y00178097
X00263811Y00173738
X00268001Y00177927
X00272069Y00181996
X00272631Y00173297
X002767Y00177365
X00268442Y00169107
X00269475Y00134167
X00281895Y00138357
X00286811Y00120036
X00292874Y00120329
X00295802Y00114801
X00301175Y00126269
X00311245Y00124556
X00314626Y00106659
X00305406Y0010114
X00301695Y00147338
X00303353Y00159822
X00235399Y00156727
X00239547Y00151692
X00238561Y0013606
X0024455Y00137046
X00249893Y00131869
X00241954Y00125307
X00234224Y00121451
X00231465Y00110114
X00242923Y00107145
X00250493Y00107149
X00249244Y0011672
X00241229Y00100473
X00226672Y00097875
X00220404Y00097569
X00200041Y00097189
X00195127Y00087656
X0019394Y00114656
X00182341Y0011439
X00177992Y00131554
X00150383Y00131799
X00143649Y00112307
X00149861Y0008432
X00146985Y00079337
X00152656Y00076063
X00155532Y00081046
X00160837Y00053749
X00126228Y00050729
X0012632Y00012591
X00148961Y-00009083
X0022187Y-00002064
X00231817Y00000487
X00230402Y-00019183
X0025379Y-00019238
X00244116Y00021239
X00238363Y00026706
X0023439Y000327
X00226589Y00037323
X00230299Y0004505
X00228349Y00050798
X00223596Y0005958
X00212847Y00071831
X00203105Y00051609
X00218084Y00040534
X00215647Y00017986
X00240009Y00044117
X00245452Y00041156
X00260345Y00026911
X00267586Y00019384
X00279852Y00017808
X00286315Y00018968
X00294436Y00018863
X00296022Y00028803
X00294716Y00034751
X00305592Y00035029
X00310123Y00027022
X00316399Y00030775
X00315409Y00047693
X00277539Y00067616
X00273349Y00071806
X00269241Y00075975
X0027364Y00080233
X00277708Y00076164
X00281897Y00071975
X002689Y00067356
X00264831Y00071424
X00273089Y00063167
X00206929Y00119821
X0020716Y00144327
X00216134Y-00051365
X00236084Y-00053582
X00343553Y00033452
X00345994Y00046868
X00363441Y00052889
X0037549Y00066918
X00382028Y0008243
X00358936Y00082703
X00350214Y0009377
X00341821Y00078331
X00326605Y00064818
X00319633Y00059048
X00319705Y00087208
X00320747Y00093188
X0034222Y00262152
X00348769
X00354933
X00361226
Y00268945
Y00274699
Y00280623
X00354933
Y00274699
Y00268945
X00348769
Y00274699
Y00280623
X0034222
Y00274699
Y00268945
X00292661Y00255973
X00192425Y00256667
X00187323Y00313636
X0018103
X00174866
X00168318
Y0032043
Y00326183
Y00332108
X00174866
Y00326183
Y0032043
X0018103
Y00326183
Y00332108
X00187323
Y00326183
Y0032043
X00127068Y00320811
Y00326565
Y00332489
X00120775
Y00326565
Y00320811
X00114611
Y00326565
Y00332489
X00108062
Y00326565
Y00320811
Y00314017
X00114611
X00120775
X00127068
X00057205Y00253928
X00051867Y0025701
X00046417Y00260156
X0004354Y00255173
T02
X00050677Y00019906
X00081719Y00010496
X00096874Y-00015446
X00118332Y00041165
X00340304Y00210282
T03
X00387909Y00097786
X00400609Y00097786
T04
X00173294Y-00050382
X00188294
T05
X00260551Y-00047328
X00282548Y-00034628
X00304545Y-00021928
T06
X00105684Y0040299
X00177877
X00250071
T07
X0Y0
X00353553Y0
X00353553Y00353553
X00000004Y00353548
T08
X-00049327Y00175517
X00000673Y00175517
X00358246Y00175511
X00408246
M30
