G04*
G04 #@! TF.GenerationSoftware,Altium Limited,Altium Designer,22.11.1 (43)*
G04*
G04 Layer_Color=255*
%FSLAX44Y44*%
%MOMM*%
G71*
G04*
G04 #@! TF.SameCoordinates,1E15B7FD-EAFD-4F9B-970C-30AA40316711*
G04*
G04*
G04 #@! TF.FilePolarity,Positive*
G04*
G01*
G75*
G04:AMPARAMS|DCode=22|XSize=0.6mm|YSize=1mm|CornerRadius=0.15mm|HoleSize=0mm|Usage=FLASHONLY|Rotation=0.000|XOffset=0mm|YOffset=0mm|HoleType=Round|Shape=RoundedRectangle|*
%AMROUNDEDRECTD22*
21,1,0.6000,0.7000,0,0,0.0*
21,1,0.3000,1.0000,0,0,0.0*
1,1,0.3000,0.1500,-0.3500*
1,1,0.3000,-0.1500,-0.3500*
1,1,0.3000,-0.1500,0.3500*
1,1,0.3000,0.1500,0.3500*
%
%ADD22ROUNDEDRECTD22*%
G04:AMPARAMS|DCode=25|XSize=0.508mm|YSize=0.508mm|CornerRadius=0.127mm|HoleSize=0mm|Usage=FLASHONLY|Rotation=270.000|XOffset=0mm|YOffset=0mm|HoleType=Round|Shape=RoundedRectangle|*
%AMROUNDEDRECTD25*
21,1,0.5080,0.2540,0,0,270.0*
21,1,0.2540,0.5080,0,0,270.0*
1,1,0.2540,-0.1270,-0.1270*
1,1,0.2540,-0.1270,0.1270*
1,1,0.2540,0.1270,0.1270*
1,1,0.2540,0.1270,-0.1270*
%
%ADD25ROUNDEDRECTD25*%
G04:AMPARAMS|DCode=26|XSize=0.508mm|YSize=0.508mm|CornerRadius=0.127mm|HoleSize=0mm|Usage=FLASHONLY|Rotation=0.000|XOffset=0mm|YOffset=0mm|HoleType=Round|Shape=RoundedRectangle|*
%AMROUNDEDRECTD26*
21,1,0.5080,0.2540,0,0,0.0*
21,1,0.2540,0.5080,0,0,0.0*
1,1,0.2540,0.1270,-0.1270*
1,1,0.2540,-0.1270,-0.1270*
1,1,0.2540,-0.1270,0.1270*
1,1,0.2540,0.1270,0.1270*
%
%ADD26ROUNDEDRECTD26*%
%ADD27R,0.3556X0.6604*%
G04:AMPARAMS|DCode=28|XSize=0.9561mm|YSize=1.6098mm|CornerRadius=0.239mm|HoleSize=0mm|Usage=FLASHONLY|Rotation=0.000|XOffset=0mm|YOffset=0mm|HoleType=Round|Shape=RoundedRectangle|*
%AMROUNDEDRECTD28*
21,1,0.9561,1.1318,0,0,0.0*
21,1,0.4780,1.6098,0,0,0.0*
1,1,0.4780,0.2390,-0.5659*
1,1,0.4780,-0.2390,-0.5659*
1,1,0.4780,-0.2390,0.5659*
1,1,0.4780,0.2390,0.5659*
%
%ADD28ROUNDEDRECTD28*%
G04:AMPARAMS|DCode=29|XSize=0.508mm|YSize=0.508mm|CornerRadius=0.127mm|HoleSize=0mm|Usage=FLASHONLY|Rotation=135.000|XOffset=0mm|YOffset=0mm|HoleType=Round|Shape=RoundedRectangle|*
%AMROUNDEDRECTD29*
21,1,0.5080,0.2540,0,0,135.0*
21,1,0.2540,0.5080,0,0,135.0*
1,1,0.2540,0.0000,0.1796*
1,1,0.2540,0.1796,0.0000*
1,1,0.2540,0.0000,-0.1796*
1,1,0.2540,-0.1796,0.0000*
%
%ADD29ROUNDEDRECTD29*%
G04:AMPARAMS|DCode=30|XSize=0.635mm|YSize=1.27mm|CornerRadius=0.1588mm|HoleSize=0mm|Usage=FLASHONLY|Rotation=270.000|XOffset=0mm|YOffset=0mm|HoleType=Round|Shape=RoundedRectangle|*
%AMROUNDEDRECTD30*
21,1,0.6350,0.9525,0,0,270.0*
21,1,0.3175,1.2700,0,0,270.0*
1,1,0.3175,-0.4763,-0.1588*
1,1,0.3175,-0.4763,0.1588*
1,1,0.3175,0.4763,0.1588*
1,1,0.3175,0.4763,-0.1588*
%
%ADD30ROUNDEDRECTD30*%
G04:AMPARAMS|DCode=31|XSize=0.5mm|YSize=0.6mm|CornerRadius=0.125mm|HoleSize=0mm|Usage=FLASHONLY|Rotation=180.000|XOffset=0mm|YOffset=0mm|HoleType=Round|Shape=RoundedRectangle|*
%AMROUNDEDRECTD31*
21,1,0.5000,0.3500,0,0,180.0*
21,1,0.2500,0.6000,0,0,180.0*
1,1,0.2500,-0.1250,0.1750*
1,1,0.2500,0.1250,0.1750*
1,1,0.2500,0.1250,-0.1750*
1,1,0.2500,-0.1250,-0.1750*
%
%ADD31ROUNDEDRECTD31*%
G04:AMPARAMS|DCode=32|XSize=0.9561mm|YSize=1.6098mm|CornerRadius=0.239mm|HoleSize=0mm|Usage=FLASHONLY|Rotation=270.000|XOffset=0mm|YOffset=0mm|HoleType=Round|Shape=RoundedRectangle|*
%AMROUNDEDRECTD32*
21,1,0.9561,1.1318,0,0,270.0*
21,1,0.4780,1.6098,0,0,270.0*
1,1,0.4780,-0.5659,-0.2390*
1,1,0.4780,-0.5659,0.2390*
1,1,0.4780,0.5659,0.2390*
1,1,0.4780,0.5659,-0.2390*
%
%ADD32ROUNDEDRECTD32*%
G04:AMPARAMS|DCode=33|XSize=0.7mm|YSize=1.3mm|CornerRadius=0.175mm|HoleSize=0mm|Usage=FLASHONLY|Rotation=270.000|XOffset=0mm|YOffset=0mm|HoleType=Round|Shape=RoundedRectangle|*
%AMROUNDEDRECTD33*
21,1,0.7000,0.9500,0,0,270.0*
21,1,0.3500,1.3000,0,0,270.0*
1,1,0.3500,-0.4750,-0.1750*
1,1,0.3500,-0.4750,0.1750*
1,1,0.3500,0.4750,0.1750*
1,1,0.3500,0.4750,-0.1750*
%
%ADD33ROUNDEDRECTD33*%
G04:AMPARAMS|DCode=34|XSize=0.3048mm|YSize=0.8128mm|CornerRadius=0mm|HoleSize=0mm|Usage=FLASHONLY|Rotation=315.000|XOffset=0mm|YOffset=0mm|HoleType=Round|Shape=Rectangle|*
%AMROTATEDRECTD34*
4,1,4,-0.3951,-0.1796,0.1796,0.3951,0.3951,0.1796,-0.1796,-0.3951,-0.3951,-0.1796,0.0*
%
%ADD34ROTATEDRECTD34*%

G04:AMPARAMS|DCode=35|XSize=0.3048mm|YSize=0.8128mm|CornerRadius=0mm|HoleSize=0mm|Usage=FLASHONLY|Rotation=225.000|XOffset=0mm|YOffset=0mm|HoleType=Round|Shape=Rectangle|*
%AMROTATEDRECTD35*
4,1,4,-0.1796,0.3951,0.3951,-0.1796,0.1796,-0.3951,-0.3951,0.1796,-0.1796,0.3951,0.0*
%
%ADD35ROTATEDRECTD35*%

%ADD36P,8.0463X4X270.0*%
%ADD37R,0.9300X0.9800*%
G04:AMPARAMS|DCode=38|XSize=0.508mm|YSize=0.508mm|CornerRadius=0.127mm|HoleSize=0mm|Usage=FLASHONLY|Rotation=225.000|XOffset=0mm|YOffset=0mm|HoleType=Round|Shape=RoundedRectangle|*
%AMROUNDEDRECTD38*
21,1,0.5080,0.2540,0,0,225.0*
21,1,0.2540,0.5080,0,0,225.0*
1,1,0.2540,-0.1796,0.0000*
1,1,0.2540,0.0000,0.1796*
1,1,0.2540,0.1796,0.0000*
1,1,0.2540,0.0000,-0.1796*
%
%ADD38ROUNDEDRECTD38*%
G04:AMPARAMS|DCode=39|XSize=0.86mm|YSize=0.76mm|CornerRadius=0mm|HoleSize=0mm|Usage=FLASHONLY|Rotation=315.000|XOffset=0mm|YOffset=0mm|HoleType=Round|Shape=Rectangle|*
%AMROTATEDRECTD39*
4,1,4,-0.5728,0.0354,-0.0354,0.5728,0.5728,-0.0354,0.0354,-0.5728,-0.5728,0.0354,0.0*
%
%ADD39ROTATEDRECTD39*%

G04:AMPARAMS|DCode=40|XSize=0.6604mm|YSize=0.3556mm|CornerRadius=0mm|HoleSize=0mm|Usage=FLASHONLY|Rotation=135.000|XOffset=0mm|YOffset=0mm|HoleType=Round|Shape=Rectangle|*
%AMROTATEDRECTD40*
4,1,4,0.3592,-0.1078,0.1078,-0.3592,-0.3592,0.1078,-0.1078,0.3592,0.3592,-0.1078,0.0*
%
%ADD40ROTATEDRECTD40*%

%ADD41R,0.7600X0.8600*%
G04:AMPARAMS|DCode=42|XSize=0.5mm|YSize=0.6mm|CornerRadius=0.125mm|HoleSize=0mm|Usage=FLASHONLY|Rotation=90.000|XOffset=0mm|YOffset=0mm|HoleType=Round|Shape=RoundedRectangle|*
%AMROUNDEDRECTD42*
21,1,0.5000,0.3500,0,0,90.0*
21,1,0.2500,0.6000,0,0,90.0*
1,1,0.2500,0.1750,0.1250*
1,1,0.2500,0.1750,-0.1250*
1,1,0.2500,-0.1750,-0.1250*
1,1,0.2500,-0.1750,0.1250*
%
%ADD42ROUNDEDRECTD42*%
%ADD43R,1.6002X0.6096*%
%ADD44R,2.6162X3.5052*%
%ADD45R,3.5000X1.2000*%
G04:AMPARAMS|DCode=46|XSize=0.6096mm|YSize=0.762mm|CornerRadius=0.1524mm|HoleSize=0mm|Usage=FLASHONLY|Rotation=0.000|XOffset=0mm|YOffset=0mm|HoleType=Round|Shape=RoundedRectangle|*
%AMROUNDEDRECTD46*
21,1,0.6096,0.4572,0,0,0.0*
21,1,0.3048,0.7620,0,0,0.0*
1,1,0.3048,0.1524,-0.2286*
1,1,0.3048,-0.1524,-0.2286*
1,1,0.3048,-0.1524,0.2286*
1,1,0.3048,0.1524,0.2286*
%
%ADD46ROUNDEDRECTD46*%
%ADD80R,2.4500X0.6000*%
%ADD81R,1.4000X0.6000*%
%ADD82R,0.6000X1.0000*%
%ADD83R,4.4100X4.0000*%
%ADD84C,0.2500*%
%ADD85P,6.3640X4X270.0*%
G04:AMPARAMS|DCode=86|XSize=0.22mm|YSize=0.8mm|CornerRadius=0mm|HoleSize=0mm|Usage=FLASHONLY|Rotation=225.000|XOffset=0mm|YOffset=0mm|HoleType=Round|Shape=Rectangle|*
%AMROTATEDRECTD86*
4,1,4,-0.2051,0.3606,0.3606,-0.2051,0.2051,-0.3606,-0.3606,0.2051,-0.2051,0.3606,0.0*
%
%ADD86ROTATEDRECTD86*%

G04:AMPARAMS|DCode=87|XSize=0.8mm|YSize=0.22mm|CornerRadius=0mm|HoleSize=0mm|Usage=FLASHONLY|Rotation=225.000|XOffset=0mm|YOffset=0mm|HoleType=Round|Shape=Rectangle|*
%AMROTATEDRECTD87*
4,1,4,0.2051,0.3606,0.3606,0.2051,-0.2051,-0.3606,-0.3606,-0.2051,0.2051,0.3606,0.0*
%
%ADD87ROTATEDRECTD87*%

%ADD94C,3.8000*%
%ADD95C,1.2000*%
%ADD96R,1.2000X1.2000*%
%ADD97C,1.0000*%
%ADD98R,1.0000X1.0000*%
%ADD99R,2.8000X2.8000*%
%ADD100C,1.5000*%
%ADD101P,2.1213X4X255.0*%
%ADD102C,2.6000*%
%ADD103C,3.5000*%
D22*
X29546Y139762D02*
D03*
X10546Y139762D02*
D03*
X20046Y114842D02*
D03*
D25*
X247851Y-19031D02*
D03*
X237691D02*
D03*
X236704Y-28878D02*
D03*
X226544D02*
D03*
X241977Y6677D02*
D03*
X231817D02*
D03*
X90347Y-48877D02*
D03*
X100507D02*
D03*
X90439Y73517D02*
D03*
X100599Y73517D02*
D03*
X90207Y64289D02*
D03*
X100367D02*
D03*
X142278Y146732D02*
D03*
X152438Y146732D02*
D03*
X152406Y138131D02*
D03*
X142246D02*
D03*
X139915Y69268D02*
D03*
X129754Y69268D02*
D03*
X139915Y78605D02*
D03*
X129754Y78605D02*
D03*
D26*
X236379Y-47476D02*
D03*
Y-37316D02*
D03*
X121746Y103170D02*
D03*
X121746Y113330D02*
D03*
X143270Y-8985D02*
D03*
X143270Y-19145D02*
D03*
X111324Y25783D02*
D03*
Y35943D02*
D03*
X121198Y25961D02*
D03*
Y36121D02*
D03*
X87184Y123843D02*
D03*
Y113683D02*
D03*
X100691Y113752D02*
D03*
X100691Y123912D02*
D03*
X110048Y124091D02*
D03*
X110048Y113931D02*
D03*
X137247Y159412D02*
D03*
Y169572D02*
D03*
X143230Y128664D02*
D03*
X143230Y118504D02*
D03*
X134083Y118504D02*
D03*
Y128664D02*
D03*
X200806Y114373D02*
D03*
X200806Y104213D02*
D03*
X212195Y114554D02*
D03*
Y104394D02*
D03*
X221599Y114448D02*
D03*
Y104288D02*
D03*
X221359Y132302D02*
D03*
Y122142D02*
D03*
X200781Y132580D02*
D03*
Y122420D02*
D03*
X366178Y101180D02*
D03*
Y111340D02*
D03*
X388123Y82549D02*
D03*
X388123Y72388D02*
D03*
X397356Y72388D02*
D03*
X397356Y82549D02*
D03*
X374889Y72389D02*
D03*
Y82549D02*
D03*
X365633Y72389D02*
D03*
Y82549D02*
D03*
X29365Y302284D02*
D03*
X29365Y312444D02*
D03*
X50381Y13953D02*
D03*
X50382Y3793D02*
D03*
X212195Y132695D02*
D03*
X212195Y122535D02*
D03*
X135212Y189556D02*
D03*
X135212Y179396D02*
D03*
D27*
X216346Y-45048D02*
D03*
X216346Y-30570D02*
D03*
X292545Y250343D02*
D03*
X292545Y235865D02*
D03*
D28*
X208587Y271439D02*
D03*
X182565Y271439D02*
D03*
X291850Y271439D02*
D03*
X317872D02*
D03*
X80597Y268607D02*
D03*
X106619Y268607D02*
D03*
D29*
X289061Y136181D02*
D03*
X281877Y128997D02*
D03*
X207454Y89487D02*
D03*
X214638Y96671D02*
D03*
X213646Y83415D02*
D03*
X220830Y90600D02*
D03*
X215047Y54015D02*
D03*
X207862Y46831D02*
D03*
X359651Y48269D02*
D03*
X352467Y41085D02*
D03*
X345471Y89109D02*
D03*
X338287Y81925D02*
D03*
X331790Y88542D02*
D03*
X338974Y95726D02*
D03*
X307190Y109878D02*
D03*
X314374Y117062D02*
D03*
D30*
X95732Y36337D02*
D03*
X95732Y51813D02*
D03*
D31*
X77132Y55497D02*
D03*
Y28909D02*
D03*
D32*
X55614Y51791D02*
D03*
X55614Y77812D02*
D03*
X55971Y259210D02*
D03*
X55971Y285232D02*
D03*
X236346Y259381D02*
D03*
Y285403D02*
D03*
X267452Y259973D02*
D03*
X267452Y285995D02*
D03*
D33*
X84339Y84359D02*
D03*
Y93859D02*
D03*
X84339Y103359D02*
D03*
X108339Y103359D02*
D03*
Y93859D02*
D03*
X108339Y84359D02*
D03*
D34*
X317541Y78174D02*
D03*
X314006Y81709D02*
D03*
X310470Y85245D02*
D03*
X306934Y88780D02*
D03*
X303399Y92316D02*
D03*
X299863Y95851D02*
D03*
X296328Y99387D02*
D03*
X292792Y102922D02*
D03*
X289257Y106458D02*
D03*
X285721Y109993D02*
D03*
X282186Y113529D02*
D03*
X278650Y117064D02*
D03*
X229797Y68212D02*
D03*
X233333Y64676D02*
D03*
X236868Y61141D02*
D03*
X240404Y57605D02*
D03*
X243940Y54070D02*
D03*
X247475Y50534D02*
D03*
X251011Y46999D02*
D03*
X254546Y43463D02*
D03*
X258082Y39927D02*
D03*
X261617Y36392D02*
D03*
X265153Y32856D02*
D03*
X268689Y29321D02*
D03*
D35*
X278650Y29321D02*
D03*
X282185Y32856D02*
D03*
X285721Y36392D02*
D03*
X289257Y39927D02*
D03*
X292792Y43463D02*
D03*
X296328Y46999D02*
D03*
X299863Y50534D02*
D03*
X303399Y54070D02*
D03*
X306934Y57605D02*
D03*
X310470Y61141D02*
D03*
X314005Y64676D02*
D03*
X317541Y68212D02*
D03*
X268689Y117064D02*
D03*
X265153Y113529D02*
D03*
X261617Y109993D02*
D03*
X258082Y106458D02*
D03*
X254546Y102922D02*
D03*
X251011Y99387D02*
D03*
X247475Y95851D02*
D03*
X243940Y92316D02*
D03*
X240404Y88780D02*
D03*
X236869Y85245D02*
D03*
X233333Y81709D02*
D03*
X229798Y78173D02*
D03*
D36*
X273669Y73193D02*
D03*
D37*
X168608Y138889D02*
D03*
X184008Y138889D02*
D03*
X183884Y122945D02*
D03*
X168484D02*
D03*
D38*
X255398Y22215D02*
D03*
X262582Y15031D02*
D03*
X331560Y44043D02*
D03*
X338745Y36859D02*
D03*
X338978Y50619D02*
D03*
X331794Y57804D02*
D03*
X229969Y149693D02*
D03*
X237153Y142509D02*
D03*
X199405Y82635D02*
D03*
X206589Y75451D02*
D03*
D39*
X323319Y227183D02*
D03*
X333925Y216577D02*
D03*
X306714Y208820D02*
D03*
X317321Y198214D02*
D03*
D40*
X197214Y252506D02*
D03*
X207452Y242268D02*
D03*
X153970Y233656D02*
D03*
X164207Y223419D02*
D03*
D41*
X321780Y168552D02*
D03*
X321780Y183552D02*
D03*
X55475Y109865D02*
D03*
X55474Y94865D02*
D03*
D42*
X76132Y128616D02*
D03*
X49544Y128616D02*
D03*
D43*
X69874Y-21796D02*
D03*
X123875Y3604D02*
D03*
X69874Y-9096D02*
D03*
X69874Y-34496D02*
D03*
X69874Y3604D02*
D03*
X123875Y-34496D02*
D03*
X123875Y-9096D02*
D03*
X123874Y-21796D02*
D03*
D44*
X96874Y-15446D02*
D03*
D45*
X48690Y180427D02*
D03*
X102088Y180427D02*
D03*
D46*
X135060Y36052D02*
D03*
X154365Y36052D02*
D03*
X154364Y59928D02*
D03*
X144712Y36052D02*
D03*
X135061Y59928D02*
D03*
D80*
X-32379Y234052D02*
D03*
X-32379Y296051D02*
D03*
Y53143D02*
D03*
Y115141D02*
D03*
D81*
X4870Y252551D02*
D03*
X4870Y265050D02*
D03*
Y277552D02*
D03*
Y71642D02*
D03*
X4870Y84141D02*
D03*
Y96643D02*
D03*
D82*
X307110Y300735D02*
D03*
X307110Y359233D02*
D03*
X294410Y359233D02*
D03*
X281710Y359233D02*
D03*
X269010Y359233D02*
D03*
X294410Y300735D02*
D03*
X281710Y300735D02*
D03*
X269010Y300735D02*
D03*
X370619Y248211D02*
D03*
X357919Y248211D02*
D03*
X345219Y248211D02*
D03*
X332519Y248211D02*
D03*
X332519Y306710D02*
D03*
X345219Y306710D02*
D03*
X357919Y306710D02*
D03*
X370619Y306710D02*
D03*
X43008Y299656D02*
D03*
X55708Y299657D02*
D03*
X68408Y299657D02*
D03*
X81108Y299656D02*
D03*
X81108Y358155D02*
D03*
X68408Y358155D02*
D03*
X55708D02*
D03*
X43008Y358155D02*
D03*
X136995Y298733D02*
D03*
X124295Y298733D02*
D03*
X111595Y298733D02*
D03*
X98895Y298733D02*
D03*
X98896Y357231D02*
D03*
X111595Y357231D02*
D03*
X124295Y357231D02*
D03*
X136995Y357231D02*
D03*
X213386Y359233D02*
D03*
X226086Y359233D02*
D03*
X238786Y359233D02*
D03*
X251486Y359233D02*
D03*
Y300735D02*
D03*
X238786Y300735D02*
D03*
X226086Y300735D02*
D03*
X213386Y300735D02*
D03*
X197202Y299272D02*
D03*
X184502D02*
D03*
X171802Y299272D02*
D03*
X159102Y299272D02*
D03*
X159102Y357771D02*
D03*
X171802Y357771D02*
D03*
X184502Y357771D02*
D03*
X197202Y357771D02*
D03*
D83*
X288060Y336084D02*
D03*
X351569Y271361D02*
D03*
X62058Y335006D02*
D03*
X117945Y321882D02*
D03*
X232436Y336084D02*
D03*
X178152Y322421D02*
D03*
D84*
X267341Y262929D02*
D03*
X267341Y267929D02*
D03*
X56059Y280913D02*
D03*
Y275913D02*
D03*
X236403Y282547D02*
D03*
Y277547D02*
D03*
X55882Y262929D02*
D03*
Y267929D02*
D03*
X236643Y262929D02*
D03*
X236643Y267929D02*
D03*
X267455Y277547D02*
D03*
Y282547D02*
D03*
D85*
X267801Y177745D02*
D03*
D86*
X304924Y172441D02*
D03*
X301389Y168907D02*
D03*
X297853Y165370D02*
D03*
X294318Y161836D02*
D03*
X290782Y158299D02*
D03*
X287247Y154765D02*
D03*
X283711Y151228D02*
D03*
X280176Y147694D02*
D03*
X276640Y144157D02*
D03*
X273105Y140623D02*
D03*
X230679Y183049D02*
D03*
X234213Y186583D02*
D03*
X237750Y190120D02*
D03*
X241284Y193655D02*
D03*
X244821Y197191D02*
D03*
X248355Y200726D02*
D03*
X251892Y204262D02*
D03*
X255426Y207797D02*
D03*
X258963Y211333D02*
D03*
X262498Y214868D02*
D03*
D87*
X262497Y140623D02*
D03*
X258963Y144157D02*
D03*
X255426Y147694D02*
D03*
X251892Y151228D02*
D03*
X248355Y154765D02*
D03*
X244821Y158299D02*
D03*
X241284Y161836D02*
D03*
X237750Y165370D02*
D03*
X234213Y168907D02*
D03*
X230679Y172441D02*
D03*
X273105Y214868D02*
D03*
X276640Y211333D02*
D03*
X280176Y207796D02*
D03*
X283711Y204262D02*
D03*
X287247Y200726D02*
D03*
X290782Y197191D02*
D03*
X294318Y193654D02*
D03*
X297853Y190120D02*
D03*
X301389Y186583D02*
D03*
X304924Y183049D02*
D03*
D94*
X-49326Y175517D02*
D03*
X674Y175517D02*
D03*
X408245Y175511D02*
D03*
X358245D02*
D03*
D95*
X173293Y-50382D02*
D03*
D96*
X188294D02*
D03*
D97*
X400609Y97786D02*
D03*
D98*
X387909Y97786D02*
D03*
D99*
X250071Y402990D02*
D03*
X105684D02*
D03*
X177877D02*
D03*
D100*
X260551Y-47328D02*
D03*
X282548Y-34628D02*
D03*
D101*
X304545Y-21928D02*
D03*
D102*
X4Y353548D02*
D03*
X0Y0D02*
D03*
X353553Y353553D02*
D03*
D103*
X353553Y0D02*
D03*
M02*
