G04*
G04 #@! TF.GenerationSoftware,Altium Limited,Altium Designer,22.11.1 (43)*
G04*
G04 Layer_Physical_Order=4*
G04 Layer_Color=16711680*
%FSLAX44Y44*%
%MOMM*%
G71*
G04*
G04 #@! TF.SameCoordinates,1E15B7FD-EAFD-4F9B-970C-30AA40316711*
G04*
G04*
G04 #@! TF.FilePolarity,Positive*
G04*
G01*
G75*
%ADD11C,0.3000*%
%ADD12C,0.2500*%
%ADD13C,0.2000*%
G04:AMPARAMS|DCode=25|XSize=0.508mm|YSize=0.508mm|CornerRadius=0.127mm|HoleSize=0mm|Usage=FLASHONLY|Rotation=270.000|XOffset=0mm|YOffset=0mm|HoleType=Round|Shape=RoundedRectangle|*
%AMROUNDEDRECTD25*
21,1,0.5080,0.2540,0,0,270.0*
21,1,0.2540,0.5080,0,0,270.0*
1,1,0.2540,-0.1270,-0.1270*
1,1,0.2540,-0.1270,0.1270*
1,1,0.2540,0.1270,0.1270*
1,1,0.2540,0.1270,-0.1270*
%
%ADD25ROUNDEDRECTD25*%
G04:AMPARAMS|DCode=26|XSize=0.508mm|YSize=0.508mm|CornerRadius=0.127mm|HoleSize=0mm|Usage=FLASHONLY|Rotation=0.000|XOffset=0mm|YOffset=0mm|HoleType=Round|Shape=RoundedRectangle|*
%AMROUNDEDRECTD26*
21,1,0.5080,0.2540,0,0,0.0*
21,1,0.2540,0.5080,0,0,0.0*
1,1,0.2540,0.1270,-0.1270*
1,1,0.2540,-0.1270,-0.1270*
1,1,0.2540,-0.1270,0.1270*
1,1,0.2540,0.1270,0.1270*
%
%ADD26ROUNDEDRECTD26*%
G04:AMPARAMS|DCode=29|XSize=0.508mm|YSize=0.508mm|CornerRadius=0.127mm|HoleSize=0mm|Usage=FLASHONLY|Rotation=135.000|XOffset=0mm|YOffset=0mm|HoleType=Round|Shape=RoundedRectangle|*
%AMROUNDEDRECTD29*
21,1,0.5080,0.2540,0,0,135.0*
21,1,0.2540,0.5080,0,0,135.0*
1,1,0.2540,0.0000,0.1796*
1,1,0.2540,0.1796,0.0000*
1,1,0.2540,0.0000,-0.1796*
1,1,0.2540,-0.1796,0.0000*
%
%ADD29ROUNDEDRECTD29*%
G04:AMPARAMS|DCode=38|XSize=0.508mm|YSize=0.508mm|CornerRadius=0.127mm|HoleSize=0mm|Usage=FLASHONLY|Rotation=225.000|XOffset=0mm|YOffset=0mm|HoleType=Round|Shape=RoundedRectangle|*
%AMROUNDEDRECTD38*
21,1,0.5080,0.2540,0,0,225.0*
21,1,0.2540,0.5080,0,0,225.0*
1,1,0.2540,-0.1796,0.0000*
1,1,0.2540,0.0000,0.1796*
1,1,0.2540,0.1796,0.0000*
1,1,0.2540,0.0000,-0.1796*
%
%ADD38ROUNDEDRECTD38*%
%ADD41R,0.7600X0.8600*%
%ADD90C,0.3600*%
%ADD94C,3.8000*%
%ADD95C,1.2000*%
%ADD96R,1.2000X1.2000*%
%ADD97C,1.0000*%
%ADD98R,1.0000X1.0000*%
%ADD99R,2.8000X2.8000*%
%ADD100C,1.5000*%
%ADD101P,2.1213X4X255.0*%
%ADD102C,2.6000*%
%ADD103C,3.5000*%
%ADD104C,0.4570*%
%ADD105C,0.6000*%
%ADD106R,1.1883X0.3408*%
%ADD107O,1.1883X0.3408*%
G36*
X309778Y380102D02*
X314006Y375285D01*
Y365518D01*
Y349244D01*
X342317Y320934D01*
X374161D01*
X404771Y290324D01*
Y271563D01*
X420569Y255764D01*
Y232807D01*
X430937Y222439D01*
Y138262D01*
X421804Y129128D01*
X369718D01*
X361402Y137444D01*
Y151669D01*
X365245Y152433D01*
X369613Y154242D01*
X373544Y156869D01*
X376886Y160212D01*
X379513Y164142D01*
X381322Y168510D01*
X382244Y173147D01*
Y177874D01*
X381373Y182255D01*
X384776Y185658D01*
Y197507D01*
X369718Y212565D01*
Y283165D01*
X365274Y287608D01*
X363305D01*
X362185Y287908D01*
X360267D01*
X359147Y287608D01*
X357012D01*
X355892Y287908D01*
X353974D01*
X352854Y287608D01*
X350848D01*
X349728Y287908D01*
X347810D01*
X346690Y287608D01*
X344299D01*
X343180Y287908D01*
X341261D01*
X340141Y287608D01*
X312694D01*
X289737Y310566D01*
Y352005D01*
X87896D01*
X79065Y343175D01*
Y244971D01*
X48828Y214734D01*
X6282D01*
X-6562Y201889D01*
Y198497D01*
X-10694Y196786D01*
X-14625Y194159D01*
X-17968Y190816D01*
X-20594Y186886D01*
X-22403Y182518D01*
X-22595Y181553D01*
X-25692D01*
Y181047D01*
X-29933Y176806D01*
Y156177D01*
X-37726Y148383D01*
X-65576D01*
X-73727Y156534D01*
Y217677D01*
Y242830D01*
X-61150Y255407D01*
Y276814D01*
X-22350Y315614D01*
X8155D01*
X32505Y339964D01*
Y366723D01*
X45884Y380102D01*
X309778Y380102D01*
D02*
G37*
G36*
X283184Y338659D02*
Y309789D01*
X282677Y309281D01*
Y308701D01*
X309048Y282330D01*
X358441D01*
X363046Y277726D01*
Y185722D01*
X362116Y184793D01*
X360339Y181714D01*
X360248Y181374D01*
X355930Y177056D01*
X356139Y176847D01*
Y128081D01*
X351325Y123268D01*
X328303D01*
X309048Y142522D01*
Y154105D01*
X309354Y155646D01*
X310142Y157010D01*
X310638Y158863D01*
Y160781D01*
X310142Y162634D01*
X309183Y164295D01*
X309048Y164430D01*
Y221007D01*
X252330Y277726D01*
Y306260D01*
X155516D01*
X131458Y282202D01*
Y213556D01*
X84766Y166865D01*
X84760D01*
X74830Y156935D01*
X-9416D01*
X-17010Y164529D01*
Y182216D01*
X-16077Y184471D01*
X-14336Y187076D01*
X-10884Y190528D01*
X-8279Y192268D01*
X-4611Y193787D01*
X-3504Y194527D01*
X582D01*
Y199121D01*
X2186Y200725D01*
X2186D01*
X2186Y200725D01*
X58321D01*
X90399Y232803D01*
Y334564D01*
X97884Y342049D01*
X279794D01*
X283184Y338659D01*
D02*
G37*
G36*
X-48583Y108154D02*
X-46991D01*
Y106006D01*
X-48583D01*
Y103433D01*
X-50953D01*
Y106006D01*
X-56212D01*
Y108136D01*
X-50657Y116302D01*
X-48583D01*
Y108154D01*
D02*
G37*
G36*
X-63526Y105599D02*
X-57082D01*
Y103433D01*
X-66118D01*
Y116153D01*
X-63526D01*
Y105599D01*
D02*
G37*
%LPC*%
G36*
X293620Y263258D02*
X291702D01*
X289849Y262762D01*
X288188Y261803D01*
X286831Y260447D01*
X285872Y258785D01*
X285376Y256933D01*
Y255014D01*
X285872Y253162D01*
X286831Y251500D01*
X288188Y250144D01*
X289849Y249185D01*
X291702Y248689D01*
X293620D01*
X295473Y249185D01*
X297134Y250144D01*
X298490Y251500D01*
X299449Y253162D01*
X299946Y255014D01*
Y256933D01*
X299449Y258785D01*
X298490Y260447D01*
X297134Y261803D01*
X295473Y262762D01*
X293620Y263258D01*
D02*
G37*
G36*
X341358Y218282D02*
X339251D01*
X337217Y217736D01*
X335392Y216683D01*
X333903Y215194D01*
X332850Y213370D01*
X332304Y211335D01*
Y209228D01*
X332850Y207194D01*
X333903Y205370D01*
X335392Y203880D01*
X337217Y202827D01*
X339251Y202282D01*
X341358D01*
X343392Y202827D01*
X345217Y203880D01*
X346706Y205370D01*
X347759Y207194D01*
X348304Y209228D01*
Y211335D01*
X347759Y213370D01*
X346706Y215194D01*
X345217Y216683D01*
X343392Y217736D01*
X341358Y218282D01*
D02*
G37*
G36*
X-50953Y112561D02*
X-53935Y108154D01*
X-50953D01*
Y112561D01*
D02*
G37*
%LPD*%
D11*
X118332Y6497D02*
X133913Y-9083D01*
X148961D01*
X126210Y50710D02*
X126228Y50729D01*
X126210Y28326D02*
Y50710D01*
X134904Y18270D02*
X141042Y24408D01*
X148973D02*
X149051Y24486D01*
X141042Y24408D02*
X148973D01*
X126262Y28378D02*
X134851D01*
X134904Y28430D01*
X118332Y6497D02*
Y41165D01*
Y53469D01*
X126167Y25881D02*
X127250Y26964D01*
X142173Y30908D02*
X148973D01*
X140149Y28884D02*
X142173Y30908D01*
X148973D02*
X149051Y30986D01*
X136338Y28884D02*
X140149D01*
X174701Y209060D02*
X182058D01*
X158456Y192814D02*
X174701Y209060D01*
X100759Y71043D02*
X118332Y53469D01*
X100759Y71043D02*
Y128677D01*
X141834Y189799D02*
X148826D01*
X140990Y190217D02*
X141415D01*
X141834Y189799D01*
X148826D02*
X148904Y189721D01*
X270106Y141156D02*
X272905Y138357D01*
X261540Y141156D02*
X270106D01*
X272905Y138357D02*
X281895D01*
X248205Y154491D02*
X261540Y141156D01*
X207160Y144327D02*
X207585D01*
X210671Y147413D01*
X211548D01*
X213669Y149535D02*
Y165669D01*
X211548Y147413D02*
X213669Y149535D01*
X158456Y188383D02*
Y192814D01*
X155090Y185017D02*
X158456Y188383D01*
X155048Y185017D02*
X155090D01*
X153251Y183221D02*
X155048Y185017D01*
X148904Y183221D02*
X153251D01*
X142800Y174965D02*
X144556Y176721D01*
X148904D01*
X140914Y183143D02*
X148826D01*
X131454Y173683D02*
X140914Y183143D01*
X148826D02*
X148904Y183221D01*
X210914Y168424D02*
X213669Y165669D01*
X204728Y170221D02*
X209076D01*
X210872Y168424D02*
X210914D01*
X209076Y170221D02*
X210872Y168424D01*
D12*
X290601Y124066D02*
Y143364D01*
X295802Y115361D02*
X297909Y117468D01*
X296140Y124184D02*
Y141783D01*
X292478Y120725D02*
X292874Y120329D01*
X290601Y124066D02*
X292478Y122189D01*
Y120725D02*
Y122189D01*
X296140Y124184D02*
X297909Y122415D01*
X296140Y141783D02*
X301695Y147338D01*
X297909Y117468D02*
Y122415D01*
X295802Y114801D02*
Y115361D01*
X303007Y159475D02*
X303353Y159822D01*
X303007Y155770D02*
Y159475D01*
X290601Y143364D02*
X303007Y155770D01*
X235736Y156727D02*
X240684Y161675D01*
X235399Y156727D02*
X235736D01*
X240684Y161675D02*
X241021D01*
X311672Y87208D02*
X319705D01*
X269871Y128194D02*
X304876Y93188D01*
X309882Y88998D02*
X311672Y87208D01*
X304876Y93188D02*
X320747D01*
X300273Y88998D02*
X309882D01*
X251835Y137436D02*
X300273Y88998D01*
X244940Y137436D02*
X251835D01*
X269871Y128194D02*
Y133771D01*
X269475Y134167D02*
X269871Y133771D01*
X298322Y41448D02*
Y76154D01*
X299865Y37335D02*
X302322Y39791D01*
X294163Y34579D02*
X295113Y35529D01*
Y38239D02*
X298322Y41448D01*
X299743Y31964D02*
X299865D01*
Y37335D01*
X249893Y131869D02*
X302322Y79440D01*
Y39791D02*
Y79440D01*
X296582Y28803D02*
X299743Y31964D01*
X296022Y28803D02*
X296582D01*
X295113Y35529D02*
Y38239D01*
X238561Y135915D02*
X298322Y76154D01*
X243966Y114199D02*
X250493Y107672D01*
Y107149D02*
Y107672D01*
X239496Y118022D02*
Y122289D01*
X241954Y124747D02*
Y125307D01*
X239496Y122289D02*
X241954Y124747D01*
X239496Y118022D02*
X243319Y114199D01*
X243966D01*
X244550Y137046D02*
X244940Y137436D01*
X238561Y135915D02*
Y136060D01*
D13*
X230117Y45233D02*
X230299Y45050D01*
X225009Y45233D02*
X230117D01*
X223038Y52153D02*
X223902Y51290D01*
X227857D01*
X228349Y50798D01*
X231980Y30986D02*
X233695Y32700D01*
X234390D01*
X204876Y30986D02*
X231980D01*
X225894Y37323D02*
X226589D01*
X239692Y35561D02*
X265731Y9523D01*
X239692Y35561D02*
Y44246D01*
X204876Y43986D02*
X214063D01*
X224319Y35749D02*
X225894Y37323D01*
X214063Y43986D02*
X217515Y40534D01*
X218084D01*
X265731Y9523D02*
X312753D01*
X215649Y35749D02*
X224319D01*
X204876Y37486D02*
X213911D01*
X215649Y35749D01*
X221589Y48653D02*
X225009Y45233D01*
X182531Y89041D02*
X219418Y52153D01*
X177050Y89571D02*
Y129097D01*
X219418Y52153D02*
X223038D01*
X177050Y89571D02*
X217968Y48653D01*
X182531Y89041D02*
Y114200D01*
X217968Y48653D02*
X221589D01*
X222242Y-11023D02*
Y-2185D01*
Y-11023D02*
X230402Y-19183D01*
X332434Y63879D02*
Y88313D01*
X310377Y33047D02*
Y49428D01*
X315212Y54263D01*
X322817D02*
X332434Y63879D01*
X315409Y46998D02*
Y47693D01*
Y46998D02*
X316399Y46008D01*
Y30775D02*
Y46008D01*
X315212Y54263D02*
X322817D01*
X235448Y24486D02*
X237667Y26706D01*
X204876Y24486D02*
X235448D01*
X237667Y26706D02*
X238363D01*
X204728Y196221D02*
Y200025D01*
X194688Y210065D02*
X204728Y200025D01*
Y196221D02*
X205432Y195517D01*
X177500Y131062D02*
X177992Y131554D01*
X177500Y129548D02*
Y131062D01*
X177050Y129097D02*
X177500Y129548D01*
X245110Y40746D02*
X245452Y40404D01*
Y34751D02*
Y40404D01*
X226672Y97875D02*
Y101352D01*
X301175Y126269D02*
X301659Y125785D01*
Y116821D02*
Y125785D01*
Y116821D02*
X306661Y111819D01*
X335847Y38541D02*
Y59613D01*
X312753Y9523D02*
X340219Y36989D01*
Y54953D01*
X310328Y13023D02*
X335847Y38541D01*
Y59613D02*
X358936Y82703D01*
X340219Y54953D02*
X367697Y82430D01*
X267181Y13023D02*
X310328D01*
X245452Y34751D02*
X267181Y13023D01*
X234732Y60266D02*
X270980Y24018D01*
X300351D01*
X234732Y60266D02*
Y94598D01*
X325150Y107128D02*
X327093D01*
X315322Y106659D02*
X316956Y108292D01*
X323986D02*
X325150Y107128D01*
X314626Y106659D02*
X315322D01*
X316956Y108292D02*
X323986D01*
X307863Y98988D02*
X321759D01*
X305406Y101140D02*
X305711D01*
X307863Y98988D01*
X321759D02*
X332434Y88313D01*
X305592Y29258D02*
Y35029D01*
X310123Y27022D02*
Y32794D01*
X300351Y24018D02*
X305592Y29258D01*
X310123Y32794D02*
X310377Y33047D01*
X367697Y82430D02*
X382028D01*
X217784Y110239D02*
X226672Y101352D01*
X237285Y104418D02*
Y111545D01*
Y104418D02*
X241229Y100473D01*
X229068Y119761D02*
Y177770D01*
Y119761D02*
X237285Y111545D01*
X211631Y189451D02*
X225568Y175514D01*
Y116010D02*
X231465Y110114D01*
X225568Y116010D02*
Y175514D01*
X211321Y195517D02*
X229068Y177770D01*
X221284Y112792D02*
X232256Y101819D01*
Y97074D02*
Y101819D01*
Y97074D02*
X234732Y94598D01*
X217784Y110239D02*
Y170507D01*
X221284Y112792D02*
Y171957D01*
X204751Y176697D02*
X211594D01*
X204728Y176721D02*
X204751Y176697D01*
X211594D02*
X217784Y170507D01*
X205432Y195517D02*
X211321D01*
X204997Y189451D02*
X211631D01*
X210289Y182951D02*
X221284Y171957D01*
X204997Y182951D02*
X210289D01*
X204728Y183221D02*
X204997Y182951D01*
X204728Y189721D02*
X204997Y189451D01*
D25*
X183098Y209123D02*
D03*
X193258Y209123D02*
D03*
D26*
X126210Y18166D02*
D03*
Y28326D02*
D03*
X134904Y18270D02*
D03*
X134904Y28430D02*
D03*
D29*
X313845Y119003D02*
D03*
X306661Y111819D02*
D03*
D38*
X241021Y161675D02*
D03*
X248205Y154491D02*
D03*
X327093Y107128D02*
D03*
X334277Y99944D02*
D03*
D41*
X102647Y339124D02*
D03*
X102647Y354124D02*
D03*
X164975Y339124D02*
D03*
Y354124D02*
D03*
X227303Y339124D02*
D03*
X227303Y354124D02*
D03*
X274966Y339723D02*
D03*
X274966Y354723D02*
D03*
D90*
X204876Y17986D02*
X215647D01*
X160818Y40352D02*
Y53731D01*
X158048Y37582D02*
X160818Y40352D01*
X149051Y37486D02*
X149148Y37582D01*
X158048D01*
X126320Y12591D02*
Y18055D01*
X126210Y18166D02*
X126320Y18055D01*
X125470Y17426D02*
X126210Y18166D01*
X311245Y122650D02*
Y124556D01*
X313845Y119003D02*
Y120050D01*
X311245Y122650D02*
X313845Y120050D01*
D94*
X-49326Y175517D02*
D03*
X674Y175517D02*
D03*
X408245Y175511D02*
D03*
X358245D02*
D03*
D95*
X173293Y-50382D02*
D03*
D96*
X188294D02*
D03*
D97*
X400609Y97786D02*
D03*
D98*
X387909Y97786D02*
D03*
D99*
X250071Y402990D02*
D03*
X105684D02*
D03*
X177877D02*
D03*
D100*
X260551Y-47328D02*
D03*
X282548Y-34628D02*
D03*
D101*
X304545Y-21928D02*
D03*
D102*
X4Y353548D02*
D03*
X0Y0D02*
D03*
X353553Y353553D02*
D03*
D103*
X353553Y0D02*
D03*
D104*
X228349Y50798D02*
D03*
X230299Y45050D02*
D03*
X215647Y17986D02*
D03*
X234390Y32700D02*
D03*
X218084Y40534D02*
D03*
X226589Y37323D02*
D03*
X223596Y59580D02*
D03*
X160837Y53749D02*
D03*
X253790Y-19238D02*
D03*
X221870Y-2064D02*
D03*
X212847Y71831D02*
D03*
X230402Y-19183D02*
D03*
X236084Y-53582D02*
D03*
X216134Y-51365D02*
D03*
X231817Y487D02*
D03*
X148961Y-9083D02*
D03*
X315409Y47693D02*
D03*
X126228Y50729D02*
D03*
X126320Y12591D02*
D03*
X238363Y26706D02*
D03*
X244116Y21239D02*
D03*
X193940Y114656D02*
D03*
X38435Y83714D02*
D03*
X38435Y89639D02*
D03*
X43871Y89639D02*
D03*
Y83714D02*
D03*
Y77960D02*
D03*
X38499Y78199D02*
D03*
X96800Y158697D02*
D03*
X96561Y153325D02*
D03*
X90690Y152997D02*
D03*
X102314Y153325D02*
D03*
X108239D02*
D03*
X108239Y158761D02*
D03*
X102314D02*
D03*
X182341Y114390D02*
D03*
X177992Y131554D02*
D03*
X195127Y87656D02*
D03*
X203105Y51609D02*
D03*
X240009Y44117D02*
D03*
X245452Y41156D02*
D03*
X152656Y76063D02*
D03*
X155532Y81046D02*
D03*
X146985Y79337D02*
D03*
X149861Y84320D02*
D03*
X220404Y97569D02*
D03*
X226672Y97875D02*
D03*
X341821Y78331D02*
D03*
X326605Y64818D02*
D03*
X260345Y26911D02*
D03*
X143649Y112307D02*
D03*
X200041Y97189D02*
D03*
X206929Y119821D02*
D03*
X286811Y120036D02*
D03*
X301175Y126269D02*
D03*
X311245Y124556D02*
D03*
X292874Y120329D02*
D03*
X350214Y93770D02*
D03*
X375490Y66918D02*
D03*
X363441Y52889D02*
D03*
X345994Y46868D02*
D03*
X343553Y33452D02*
D03*
X267586Y19384D02*
D03*
X269241Y75975D02*
D03*
X277708Y76164D02*
D03*
X273640Y80233D02*
D03*
X281897Y71975D02*
D03*
X273349Y71806D02*
D03*
X277539Y67616D02*
D03*
X268900Y67356D02*
D03*
X273089Y63167D02*
D03*
X264831Y71424D02*
D03*
X286315Y18968D02*
D03*
X279852Y17808D02*
D03*
X314626Y106659D02*
D03*
X295802Y114801D02*
D03*
X272631Y173297D02*
D03*
X276700Y177365D02*
D03*
X268442Y169107D02*
D03*
X268001Y177927D02*
D03*
X272069Y181996D02*
D03*
X263811Y173738D02*
D03*
X263642Y182286D02*
D03*
X259453Y178097D02*
D03*
X267710Y186354D02*
D03*
X292661Y255973D02*
D03*
X148595Y239218D02*
D03*
X140015Y190758D02*
D03*
X303353Y159822D02*
D03*
X301695Y147338D02*
D03*
X46417Y260156D02*
D03*
X40578Y250042D02*
D03*
X43540Y255173D02*
D03*
X51867Y257010D02*
D03*
X46027Y246896D02*
D03*
X48990Y252027D02*
D03*
X51366Y243814D02*
D03*
X57205Y253928D02*
D03*
X54328Y248945D02*
D03*
X57037Y240540D02*
D03*
X62876Y250653D02*
D03*
X59999Y245671D02*
D03*
X270429Y237501D02*
D03*
Y249179D02*
D03*
Y243255D02*
D03*
X264136Y237501D02*
D03*
Y249179D02*
D03*
Y243255D02*
D03*
X257972Y249179D02*
D03*
Y237501D02*
D03*
Y243255D02*
D03*
X251423Y249179D02*
D03*
Y237501D02*
D03*
Y243255D02*
D03*
X192425Y256667D02*
D03*
X127068Y320811D02*
D03*
Y314017D02*
D03*
Y332489D02*
D03*
Y326565D02*
D03*
X120775Y320811D02*
D03*
Y314017D02*
D03*
Y332489D02*
D03*
Y326565D02*
D03*
X114611Y332489D02*
D03*
Y320811D02*
D03*
Y314017D02*
D03*
Y326565D02*
D03*
X108062Y332489D02*
D03*
Y320811D02*
D03*
Y314017D02*
D03*
Y326565D02*
D03*
X187323Y320430D02*
D03*
Y313636D02*
D03*
Y332108D02*
D03*
Y326183D02*
D03*
X181030Y320430D02*
D03*
Y313636D02*
D03*
Y332108D02*
D03*
Y326183D02*
D03*
X174866Y332108D02*
D03*
Y320430D02*
D03*
Y313636D02*
D03*
Y326183D02*
D03*
X168318Y332108D02*
D03*
Y320430D02*
D03*
Y313636D02*
D03*
Y326183D02*
D03*
X361226Y268945D02*
D03*
Y262152D02*
D03*
Y280623D02*
D03*
Y274699D02*
D03*
X354933Y268945D02*
D03*
Y262152D02*
D03*
Y280623D02*
D03*
Y274699D02*
D03*
X348769Y280623D02*
D03*
Y268945D02*
D03*
Y262152D02*
D03*
Y274699D02*
D03*
X342220Y280623D02*
D03*
Y268945D02*
D03*
Y262152D02*
D03*
Y274699D02*
D03*
X281895Y138357D02*
D03*
X238561Y136060D02*
D03*
X319705Y87208D02*
D03*
X320747Y93188D02*
D03*
X305406Y101140D02*
D03*
X207160Y144327D02*
D03*
X235399Y156727D02*
D03*
X319633Y59048D02*
D03*
X305592Y35029D02*
D03*
X294716Y34751D02*
D03*
X310123Y27022D02*
D03*
X294436Y18863D02*
D03*
X296022Y28803D02*
D03*
X382028Y82430D02*
D03*
X358936Y82703D02*
D03*
X150383Y131799D02*
D03*
X140166Y174664D02*
D03*
X129960Y174323D02*
D03*
X132396Y153512D02*
D03*
X241229Y100473D02*
D03*
X316399Y30775D02*
D03*
X63103Y32703D02*
D03*
Y26410D02*
D03*
X57350Y32703D02*
D03*
X57350Y26410D02*
D03*
X51425Y32703D02*
D03*
X51425Y26410D02*
D03*
X100759Y128677D02*
D03*
X269475Y134167D02*
D03*
X239547Y151692D02*
D03*
X250493Y107149D02*
D03*
X249244Y116720D02*
D03*
X242923Y107145D02*
D03*
X249893Y131869D02*
D03*
X241954Y125307D02*
D03*
X234224Y121451D02*
D03*
X231465Y110114D02*
D03*
X244550Y137046D02*
D03*
D105*
X81719Y10496D02*
D03*
X118332Y41165D02*
D03*
X340304Y210282D02*
D03*
X50677Y19906D02*
D03*
X96874Y-15446D02*
D03*
D106*
X204876Y43986D02*
D03*
X204728Y196221D02*
D03*
D107*
X204876Y37486D02*
D03*
Y30986D02*
D03*
Y24486D02*
D03*
Y17986D02*
D03*
Y11486D02*
D03*
Y4986D02*
D03*
X149051D02*
D03*
Y11486D02*
D03*
Y17986D02*
D03*
Y24486D02*
D03*
Y30986D02*
D03*
Y37486D02*
D03*
Y43986D02*
D03*
X148904Y196221D02*
D03*
Y189721D02*
D03*
Y183221D02*
D03*
Y176721D02*
D03*
Y170221D02*
D03*
Y163721D02*
D03*
Y157221D02*
D03*
X204728D02*
D03*
Y163721D02*
D03*
Y170221D02*
D03*
Y176721D02*
D03*
Y183221D02*
D03*
Y189721D02*
D03*
M02*
