G04*
G04 #@! TF.GenerationSoftware,Altium Limited,Altium Designer,22.11.1 (43)*
G04*
G04 Layer_Color=65535*
%FSLAX44Y44*%
%MOMM*%
G71*
G04*
G04 #@! TF.SameCoordinates,1E15B7FD-EAFD-4F9B-970C-30AA40316711*
G04*
G04*
G04 #@! TF.FilePolarity,Positive*
G04*
G01*
G75*
%ADD10C,0.2540*%
%ADD11C,0.3000*%
%ADD12C,0.2500*%
%ADD13C,0.2000*%
%ADD14C,0.1524*%
%ADD15C,0.0254*%
%ADD16C,0.1000*%
%ADD17C,0.1520*%
%ADD18C,0.1270*%
%ADD19C,0.1500*%
%ADD20C,0.2032*%
%ADD21C,0.2550*%
G36*
X31651Y309015D02*
X31651Y308126D01*
X27079Y308126D01*
Y309015D01*
X31651Y309015D01*
D02*
G37*
G36*
X31651Y306602D02*
X31651Y305713D01*
X27079Y305713D01*
X27079Y306602D01*
X31651Y306602D01*
D02*
G37*
G36*
X137498Y186127D02*
X137498Y185238D01*
X132926Y185238D01*
X132926Y186127D01*
X137498Y186127D01*
D02*
G37*
G36*
X137498Y183714D02*
Y182825D01*
X132926Y182825D01*
X132926Y183714D01*
X137498Y183714D01*
D02*
G37*
G36*
X106410Y164258D02*
X98490Y164258D01*
Y166238D01*
X106410Y166238D01*
X106410Y164258D01*
D02*
G37*
G36*
X49320Y171848D02*
X49320Y166238D01*
X52290D01*
X52290Y164258D01*
X49320Y164258D01*
X49320Y158648D01*
X47340Y158648D01*
Y164258D01*
X44370Y164258D01*
X44370Y166238D01*
X47340D01*
Y171848D01*
X49320Y171848D01*
D02*
G37*
G36*
X139660Y162841D02*
X138771Y162841D01*
Y166143D01*
X139660Y166143D01*
Y162841D01*
D02*
G37*
G36*
X135723D02*
X134833D01*
Y166143D01*
X135723D01*
Y162841D01*
D02*
G37*
G36*
X149009Y148256D02*
X145707Y148256D01*
X145707Y149145D01*
X149009Y149145D01*
Y148256D01*
D02*
G37*
G36*
X236435Y146640D02*
X235806Y146011D01*
X233472Y148346D01*
X234100Y148975D01*
X236435Y146640D01*
D02*
G37*
G36*
X149009Y145208D02*
X149009Y144319D01*
X145707Y144319D01*
X145707Y145208D01*
X149009Y145208D01*
D02*
G37*
G36*
X233651Y143856D02*
X233022Y143227D01*
X230688Y145562D01*
X231316Y146191D01*
X233651Y143856D01*
D02*
G37*
G36*
X148977Y139655D02*
X145675D01*
Y140544D01*
X148977D01*
Y139655D01*
D02*
G37*
G36*
Y135718D02*
X145675D01*
X145675Y136607D01*
X148977D01*
X148977Y135718D01*
D02*
G37*
G36*
X288253Y132140D02*
X287624Y131511D01*
X284391Y134744D01*
X285020Y135373D01*
X288253Y132140D01*
D02*
G37*
G36*
X286546Y130434D02*
X285918Y129805D01*
X282685Y133038D01*
X283314Y133666D01*
X286546Y130434D01*
D02*
G37*
G36*
X61822Y132553D02*
Y129505D01*
X65378Y129505D01*
Y127727D01*
X61822Y127727D01*
Y124679D01*
X60298Y124679D01*
X60298Y132553D01*
X61822Y132553D01*
D02*
G37*
G36*
X214608Y125964D02*
X213719D01*
X213719Y129266D01*
X214608Y129266D01*
Y125964D01*
D02*
G37*
G36*
X210671Y125964D02*
X209782Y125964D01*
X209782Y129266D01*
X210671Y129266D01*
X210671Y125964D01*
D02*
G37*
G36*
X203194Y125849D02*
X202305Y125849D01*
Y129151D01*
X203194Y129151D01*
Y125849D01*
D02*
G37*
G36*
X199257D02*
X198368D01*
Y129151D01*
X199257D01*
Y125849D01*
D02*
G37*
G36*
X223772Y125571D02*
X222883Y125571D01*
Y128873D01*
X223772Y128873D01*
Y125571D01*
D02*
G37*
G36*
X219835D02*
X218946D01*
Y128873D01*
X219835D01*
Y125571D01*
D02*
G37*
G36*
X136369Y124346D02*
X131797Y124346D01*
X131797Y125235D01*
X136369Y125235D01*
X136369Y124346D01*
D02*
G37*
G36*
X136369Y121933D02*
X131797D01*
Y122822D01*
X136369Y122822D01*
X136369Y121933D01*
D02*
G37*
G36*
X141706Y121933D02*
X140817Y121933D01*
X140817Y125235D01*
X141706Y125235D01*
X141706Y121933D01*
D02*
G37*
G36*
X145643Y121933D02*
X144754Y121933D01*
X144754Y125235D01*
X145643D01*
X145643Y121933D01*
D02*
G37*
G36*
X112334Y119773D02*
X107762Y119773D01*
X107762Y120662D01*
X112334Y120662D01*
X112334Y119773D01*
D02*
G37*
G36*
X112334Y117360D02*
X107762Y117360D01*
X107762Y118249D01*
X112334Y118249D01*
Y117360D01*
D02*
G37*
G36*
X99167Y120483D02*
X99167Y117182D01*
X98278Y117181D01*
X98278Y120483D01*
X99167Y120483D01*
D02*
G37*
G36*
X103104D02*
X103104Y117181D01*
X102215D01*
X102215Y120484D01*
X103104Y120483D01*
D02*
G37*
G36*
X89598Y117112D02*
X88708Y117112D01*
Y120414D01*
X89598Y120414D01*
Y117112D01*
D02*
G37*
G36*
X85660D02*
X84771D01*
Y120414D01*
X85660D01*
Y117112D01*
D02*
G37*
G36*
X313566Y113021D02*
X312938Y112393D01*
X309705Y115625D01*
X310333Y116254D01*
X313566Y113021D01*
D02*
G37*
G36*
X311860Y111315D02*
X311231Y110686D01*
X307998Y113919D01*
X308627Y114548D01*
X311860Y111315D01*
D02*
G37*
G36*
X214481Y110236D02*
X209909D01*
Y111125D01*
X214481D01*
Y110236D01*
D02*
G37*
G36*
X223885Y110130D02*
X219313D01*
Y111019D01*
X223885D01*
Y110130D01*
D02*
G37*
G36*
X203092Y110055D02*
X198520Y110055D01*
Y110944D01*
X203092D01*
X203092Y110055D01*
D02*
G37*
G36*
X214481Y107823D02*
X209909D01*
Y108712D01*
X214481D01*
Y107823D01*
D02*
G37*
G36*
X223885Y107717D02*
X219313D01*
Y108606D01*
X223885D01*
Y107717D01*
D02*
G37*
G36*
X203092Y108531D02*
X203092Y107642D01*
X198520Y107642D01*
Y108531D01*
X203092Y108531D01*
D02*
G37*
G36*
X124159Y109901D02*
X124158Y106599D01*
X123270Y106599D01*
X123270Y109901D01*
X124159Y109901D01*
D02*
G37*
G36*
X120222Y106599D02*
X119333Y106599D01*
X119333Y109901D01*
X120222Y109901D01*
Y106599D01*
D02*
G37*
G36*
X368591Y104609D02*
X367702Y104609D01*
Y107911D01*
X368591Y107911D01*
Y104609D01*
D02*
G37*
G36*
X364654D02*
X363765D01*
Y107911D01*
X364654D01*
Y104609D01*
D02*
G37*
G36*
X213830Y92630D02*
X213201Y92002D01*
X209968Y95235D01*
X210597Y95863D01*
X213830Y92630D01*
D02*
G37*
G36*
X338166Y91685D02*
X337538Y91056D01*
X334305Y94289D01*
X334933Y94918D01*
X338166Y91685D01*
D02*
G37*
G36*
X212124Y90924D02*
X211495Y90295D01*
X208262Y93528D01*
X208891Y94157D01*
X212124Y90924D01*
D02*
G37*
G36*
X336460Y89979D02*
X335831Y89350D01*
X332598Y92583D01*
X333227Y93211D01*
X336460Y89979D01*
D02*
G37*
G36*
X220022Y86559D02*
X219393Y85930D01*
X216160Y89163D01*
X216789Y89791D01*
X220022Y86559D01*
D02*
G37*
G36*
X344663Y85068D02*
X344034Y84439D01*
X340801Y87672D01*
X341430Y88301D01*
X344663Y85068D01*
D02*
G37*
G36*
X218315Y84852D02*
X217687Y84224D01*
X214454Y87457D01*
X215082Y88085D01*
X218315Y84852D01*
D02*
G37*
G36*
X342956Y83362D02*
X342328Y82733D01*
X339095Y85966D01*
X339723Y86594D01*
X342956Y83362D01*
D02*
G37*
G36*
X205870Y79582D02*
X205242Y78953D01*
X202907Y81288D01*
X203535Y81917D01*
X205870Y79582D01*
D02*
G37*
G36*
X367919Y78231D02*
X363347Y78231D01*
X363347Y79119D01*
X367919Y79119D01*
Y78231D01*
D02*
G37*
G36*
X399642Y78230D02*
X395070Y78230D01*
X395070Y79119D01*
X399642Y79120D01*
X399642Y78230D01*
D02*
G37*
G36*
X134072Y76319D02*
X133183D01*
X133183Y80891D01*
X134073Y80891D01*
X134072Y76319D01*
D02*
G37*
G36*
X136485Y76319D02*
X135597Y76319D01*
X135597Y80891D01*
X136486D01*
X136485Y76319D01*
D02*
G37*
G36*
X203086Y76798D02*
X202458Y76169D01*
X200123Y78504D01*
X200751Y79133D01*
X203086Y76798D01*
D02*
G37*
G36*
X377302Y75817D02*
X376413Y75817D01*
Y79120D01*
X377302Y79120D01*
Y75817D01*
D02*
G37*
G36*
X373365D02*
X372476D01*
Y79120D01*
X373365D01*
Y75817D01*
D02*
G37*
G36*
X399642Y76706D02*
X399642Y75817D01*
X395070D01*
X395070Y76707D01*
X399642Y76706D01*
D02*
G37*
G36*
X390536Y79119D02*
X390536Y75817D01*
X389647Y75817D01*
Y79120D01*
X390536Y79119D01*
D02*
G37*
G36*
X386599Y79119D02*
X386599Y75817D01*
X385710Y75817D01*
X385710Y79119D01*
X386599Y79119D01*
D02*
G37*
G36*
X367919Y76707D02*
Y75817D01*
X363347Y75817D01*
X363347Y76707D01*
X367919Y76707D01*
D02*
G37*
G36*
X94757Y71231D02*
X93868Y71231D01*
Y75803D01*
X94757Y75803D01*
X94757Y71231D01*
D02*
G37*
G36*
X97170Y71231D02*
X96281Y71231D01*
Y75803D01*
X97170D01*
X97170Y71231D01*
D02*
G37*
G36*
X136486Y66982D02*
X135597D01*
X135597Y71554D01*
X136486D01*
X136486Y66982D01*
D02*
G37*
G36*
X134073D02*
X133184Y66982D01*
X133184Y71554D01*
X134073Y71554D01*
X134073Y66982D01*
D02*
G37*
G36*
X96938Y62003D02*
X96049D01*
Y66575D01*
X96938D01*
Y62003D01*
D02*
G37*
G36*
X94525D02*
X93636D01*
Y66575D01*
X94525D01*
Y62003D01*
D02*
G37*
G36*
X336464Y56367D02*
X333231Y53134D01*
X332602Y53762D01*
X335835Y56995D01*
X336464Y56367D01*
D02*
G37*
G36*
X338170Y54660D02*
X334937Y51427D01*
X334308Y52056D01*
X337541Y55289D01*
X338170Y54660D01*
D02*
G37*
G36*
X211544Y52668D02*
X209209Y50333D01*
X208581Y50962D01*
X210916Y53297D01*
X211544Y52668D01*
D02*
G37*
G36*
X214328Y49884D02*
X211993Y47549D01*
X211365Y48178D01*
X213700Y50513D01*
X214328Y49884D01*
D02*
G37*
G36*
X356148Y46922D02*
X353814Y44587D01*
X353185Y45216D01*
X355520Y47551D01*
X356148Y46922D01*
D02*
G37*
G36*
X137346Y42656D02*
X131251Y42656D01*
Y48752D01*
X137346Y42656D01*
D02*
G37*
G36*
X358932Y44138D02*
X356597Y41803D01*
X355969Y42432D01*
X358304Y44767D01*
X358932Y44138D01*
D02*
G37*
G36*
X78021Y41187D02*
X81068Y41187D01*
X81068Y39663D01*
X73194Y39663D01*
Y41187D01*
X76242Y41187D01*
Y44743D01*
X78021Y44743D01*
X78021Y41187D01*
D02*
G37*
G36*
X338026Y40990D02*
X337397Y40361D01*
X335062Y42696D01*
X335691Y43325D01*
X338026Y40990D01*
D02*
G37*
G36*
X335242Y38206D02*
X334613Y37577D01*
X332279Y39912D01*
X332907Y40541D01*
X335242Y38206D01*
D02*
G37*
G36*
X123484Y31803D02*
X118912D01*
Y32692D01*
X123484D01*
Y31803D01*
D02*
G37*
G36*
X113610Y31625D02*
X109038D01*
Y32514D01*
X113610D01*
Y31625D01*
D02*
G37*
G36*
X123484Y29390D02*
X118912D01*
Y30279D01*
X123484D01*
Y29390D01*
D02*
G37*
G36*
X113610Y29212D02*
X109038D01*
Y30101D01*
X113610D01*
Y29212D01*
D02*
G37*
G36*
X260067Y20778D02*
X256835Y17545D01*
X256206Y18174D01*
X259439Y21407D01*
X260067Y20778D01*
D02*
G37*
G36*
X261774Y19072D02*
X258541Y15839D01*
X257912Y16468D01*
X261145Y19700D01*
X261774Y19072D01*
D02*
G37*
G36*
X52667Y9635D02*
X48095Y9635D01*
X48095Y10524D01*
X52667Y10524D01*
X52667Y9635D01*
D02*
G37*
G36*
X238548Y8201D02*
X235246Y8201D01*
X235246Y9090D01*
X238548D01*
X238548Y8201D01*
D02*
G37*
G36*
X52667Y8111D02*
X52667Y7222D01*
X48095Y7222D01*
X48095Y8111D01*
X52667Y8111D01*
D02*
G37*
G36*
X238548Y5153D02*
X238548Y4264D01*
X235246Y4264D01*
X235246Y5153D01*
X238548Y5153D01*
D02*
G37*
G36*
X145556Y-13304D02*
X140984Y-13304D01*
X140984Y-12415D01*
X145556Y-12414D01*
Y-13304D01*
D02*
G37*
G36*
X145556Y-15717D02*
X140984Y-15717D01*
X140984Y-14828D01*
X145556Y-14828D01*
X145556Y-15717D01*
D02*
G37*
G36*
X244422Y-16618D02*
X244422Y-17507D01*
X241120D01*
Y-16618D01*
X244422Y-16618D01*
D02*
G37*
G36*
Y-21444D02*
X241120D01*
Y-20555D01*
X244422D01*
Y-21444D01*
D02*
G37*
G36*
X233275Y-27354D02*
X229973D01*
X229973Y-26465D01*
X233275D01*
X233275Y-27354D01*
D02*
G37*
G36*
X233275Y-31291D02*
X229973Y-31291D01*
X229973Y-30402D01*
X233275D01*
Y-31291D01*
D02*
G37*
G36*
X238665Y-41634D02*
X234093D01*
Y-40745D01*
X238665D01*
X238665Y-41634D01*
D02*
G37*
G36*
X238665Y-44047D02*
X234093D01*
X234093Y-43158D01*
X238665D01*
X238665Y-44047D01*
D02*
G37*
G36*
X97078Y-47353D02*
X93776Y-47353D01*
X93776Y-46464D01*
X97078Y-46464D01*
X97078Y-47353D01*
D02*
G37*
G36*
Y-51290D02*
X93776Y-51290D01*
X93776Y-50401D01*
X97078Y-50401D01*
X97078Y-51290D01*
D02*
G37*
G36*
X351223Y143712D02*
X352906D01*
Y142566D01*
X351223D01*
Y140911D01*
X350104D01*
Y142566D01*
X348431D01*
Y143712D01*
X350104D01*
Y145367D01*
X351223D01*
Y143712D01*
D02*
G37*
G36*
X362235Y142344D02*
X363030D01*
Y141271D01*
X362235D01*
Y139986D01*
X361051D01*
Y141271D01*
X358425D01*
Y142335D01*
X361199Y146412D01*
X362235D01*
Y142344D01*
D02*
G37*
G36*
X355929Y146412D02*
X356012Y146403D01*
X356105Y146394D01*
X356207Y146375D01*
X356317Y146357D01*
X356558Y146292D01*
X356798Y146200D01*
X356928Y146144D01*
X357039Y146079D01*
X357159Y145996D01*
X357260Y145904D01*
X357270Y145894D01*
X357288Y145885D01*
X357307Y145848D01*
X357344Y145811D01*
X357390Y145765D01*
X357436Y145700D01*
X357482Y145635D01*
X357538Y145552D01*
X357630Y145367D01*
X357723Y145155D01*
X357760Y145035D01*
X357778Y144905D01*
X357797Y144766D01*
X357806Y144628D01*
Y144609D01*
Y144554D01*
X357797Y144471D01*
X357787Y144369D01*
X357769Y144239D01*
X357741Y144101D01*
X357704Y143953D01*
X357649Y143805D01*
X357640Y143786D01*
X357621Y143740D01*
X357584Y143657D01*
X357529Y143555D01*
X357464Y143435D01*
X357381Y143296D01*
X357279Y143148D01*
X357159Y142991D01*
X357150Y142982D01*
X357113Y142936D01*
X357057Y142871D01*
X356974Y142779D01*
X356863Y142668D01*
X356724Y142520D01*
X356558Y142362D01*
X356354Y142168D01*
X356345Y142159D01*
X356327Y142150D01*
X356299Y142122D01*
X356262Y142085D01*
X356160Y141993D01*
X356040Y141882D01*
X355920Y141762D01*
X355800Y141641D01*
X355689Y141540D01*
X355652Y141493D01*
X355615Y141456D01*
X355606Y141447D01*
X355587Y141429D01*
X355559Y141392D01*
X355522Y141346D01*
X355439Y141244D01*
X355365Y141124D01*
X357806D01*
Y139986D01*
X353507D01*
Y139996D01*
Y140014D01*
X353516Y140051D01*
X353525Y140097D01*
X353535Y140153D01*
X353544Y140218D01*
X353581Y140384D01*
X353636Y140569D01*
X353710Y140772D01*
X353803Y140994D01*
X353923Y141207D01*
Y141216D01*
X353941Y141235D01*
X353960Y141271D01*
X353997Y141308D01*
X354034Y141373D01*
X354089Y141438D01*
X354154Y141521D01*
X354228Y141614D01*
X354311Y141725D01*
X354413Y141835D01*
X354524Y141965D01*
X354653Y142104D01*
X354792Y142242D01*
X354949Y142400D01*
X355116Y142566D01*
X355300Y142742D01*
X355310Y142751D01*
X355337Y142779D01*
X355374Y142816D01*
X355430Y142871D01*
X355504Y142927D01*
X355578Y143000D01*
X355744Y143167D01*
X355911Y143343D01*
X356077Y143518D01*
X356151Y143592D01*
X356225Y143675D01*
X356280Y143740D01*
X356317Y143796D01*
X356327Y143814D01*
X356354Y143860D01*
X356401Y143934D01*
X356447Y144036D01*
X356493Y144147D01*
X356539Y144276D01*
X356567Y144406D01*
X356576Y144544D01*
Y144554D01*
Y144563D01*
Y144609D01*
X356567Y144692D01*
X356549Y144785D01*
X356521Y144887D01*
X356484Y144988D01*
X356428Y145090D01*
X356354Y145182D01*
X356345Y145192D01*
X356317Y145219D01*
X356262Y145256D01*
X356197Y145293D01*
X356105Y145330D01*
X356003Y145367D01*
X355883Y145395D01*
X355744Y145404D01*
X355680D01*
X355606Y145395D01*
X355522Y145377D01*
X355421Y145349D01*
X355319Y145303D01*
X355217Y145247D01*
X355125Y145173D01*
X355116Y145164D01*
X355088Y145127D01*
X355051Y145071D01*
X355014Y144988D01*
X354967Y144887D01*
X354931Y144748D01*
X354894Y144591D01*
X354875Y144406D01*
X353655Y144526D01*
Y144535D01*
X353664Y144572D01*
Y144619D01*
X353682Y144692D01*
X353692Y144776D01*
X353719Y144868D01*
X353747Y144970D01*
X353775Y145090D01*
X353867Y145321D01*
X353978Y145562D01*
X354052Y145682D01*
X354135Y145793D01*
X354228Y145885D01*
X354330Y145978D01*
X354339Y145987D01*
X354357Y145996D01*
X354385Y146014D01*
X354431Y146052D01*
X354487Y146079D01*
X354561Y146116D01*
X354635Y146163D01*
X354727Y146200D01*
X354829Y146246D01*
X354940Y146283D01*
X355180Y146357D01*
X355467Y146403D01*
X355615Y146412D01*
X355772Y146421D01*
X355864D01*
X355929Y146412D01*
D02*
G37*
G36*
X185Y207998D02*
X1868D01*
Y206852D01*
X185D01*
Y205197D01*
X-934D01*
Y206852D01*
X-2607D01*
Y207998D01*
X-934D01*
Y209653D01*
X185D01*
Y207998D01*
D02*
G37*
G36*
X11197Y206630D02*
X11992D01*
Y205557D01*
X11197D01*
Y204272D01*
X10013D01*
Y205557D01*
X7387D01*
Y206621D01*
X10161Y210698D01*
X11197D01*
Y206630D01*
D02*
G37*
G36*
X4891Y210698D02*
X4974Y210688D01*
X5067Y210679D01*
X5168Y210661D01*
X5279Y210642D01*
X5520Y210578D01*
X5760Y210485D01*
X5889Y210430D01*
X6000Y210365D01*
X6121Y210282D01*
X6222Y210189D01*
X6232Y210180D01*
X6250Y210171D01*
X6269Y210134D01*
X6306Y210097D01*
X6352Y210051D01*
X6398Y209986D01*
X6444Y209921D01*
X6500Y209838D01*
X6592Y209653D01*
X6685Y209440D01*
X6722Y209320D01*
X6740Y209191D01*
X6759Y209052D01*
X6768Y208913D01*
Y208895D01*
Y208839D01*
X6759Y208756D01*
X6749Y208654D01*
X6731Y208525D01*
X6703Y208386D01*
X6666Y208238D01*
X6611Y208090D01*
X6601Y208072D01*
X6583Y208026D01*
X6546Y207943D01*
X6490Y207841D01*
X6426Y207721D01*
X6343Y207582D01*
X6241Y207434D01*
X6121Y207277D01*
X6111Y207268D01*
X6075Y207221D01*
X6019Y207157D01*
X5936Y207064D01*
X5825Y206953D01*
X5686Y206805D01*
X5520Y206648D01*
X5316Y206454D01*
X5307Y206445D01*
X5289Y206436D01*
X5261Y206408D01*
X5224Y206371D01*
X5122Y206278D01*
X5002Y206167D01*
X4882Y206047D01*
X4762Y205927D01*
X4651Y205825D01*
X4614Y205779D01*
X4577Y205742D01*
X4567Y205733D01*
X4549Y205714D01*
X4521Y205677D01*
X4484Y205631D01*
X4401Y205529D01*
X4327Y205409D01*
X6768D01*
Y204272D01*
X2469D01*
Y204281D01*
Y204300D01*
X2478Y204337D01*
X2487Y204383D01*
X2496Y204438D01*
X2506Y204503D01*
X2543Y204670D01*
X2598Y204855D01*
X2672Y205058D01*
X2765Y205280D01*
X2885Y205492D01*
Y205502D01*
X2903Y205520D01*
X2922Y205557D01*
X2959Y205594D01*
X2996Y205659D01*
X3051Y205724D01*
X3116Y205807D01*
X3190Y205899D01*
X3273Y206010D01*
X3375Y206121D01*
X3486Y206251D01*
X3615Y206389D01*
X3754Y206528D01*
X3911Y206685D01*
X4077Y206852D01*
X4262Y207027D01*
X4272Y207036D01*
X4299Y207064D01*
X4336Y207101D01*
X4392Y207157D01*
X4466Y207212D01*
X4540Y207286D01*
X4706Y207453D01*
X4873Y207628D01*
X5039Y207804D01*
X5113Y207878D01*
X5187Y207961D01*
X5242Y208026D01*
X5279Y208081D01*
X5289Y208100D01*
X5316Y208146D01*
X5362Y208220D01*
X5409Y208322D01*
X5455Y208433D01*
X5501Y208562D01*
X5529Y208692D01*
X5538Y208830D01*
Y208839D01*
Y208849D01*
Y208895D01*
X5529Y208978D01*
X5511Y209070D01*
X5483Y209172D01*
X5446Y209274D01*
X5390Y209376D01*
X5316Y209468D01*
X5307Y209477D01*
X5279Y209505D01*
X5224Y209542D01*
X5159Y209579D01*
X5067Y209616D01*
X4965Y209653D01*
X4845Y209681D01*
X4706Y209690D01*
X4641D01*
X4567Y209681D01*
X4484Y209662D01*
X4383Y209634D01*
X4281Y209588D01*
X4179Y209533D01*
X4087Y209459D01*
X4077Y209450D01*
X4050Y209413D01*
X4013Y209357D01*
X3976Y209274D01*
X3929Y209172D01*
X3893Y209034D01*
X3855Y208876D01*
X3837Y208692D01*
X2617Y208812D01*
Y208821D01*
X2626Y208858D01*
Y208904D01*
X2644Y208978D01*
X2654Y209061D01*
X2681Y209154D01*
X2709Y209256D01*
X2737Y209376D01*
X2829Y209607D01*
X2940Y209847D01*
X3014Y209967D01*
X3097Y210078D01*
X3190Y210171D01*
X3291Y210263D01*
X3301Y210273D01*
X3319Y210282D01*
X3347Y210300D01*
X3393Y210337D01*
X3449Y210365D01*
X3523Y210402D01*
X3597Y210448D01*
X3689Y210485D01*
X3791Y210531D01*
X3902Y210568D01*
X4142Y210642D01*
X4429Y210688D01*
X4577Y210698D01*
X4734Y210707D01*
X4826D01*
X4891Y210698D01*
D02*
G37*
G36*
X16434Y101405D02*
X16536Y101396D01*
X16647Y101377D01*
X16776Y101359D01*
X16915Y101331D01*
X17063Y101294D01*
X17220Y101248D01*
X17377Y101193D01*
X17543Y101119D01*
X17701Y101045D01*
X17849Y100952D01*
X18006Y100841D01*
X18144Y100721D01*
X18154D01*
X18163Y100703D01*
X18191Y100675D01*
X18218Y100647D01*
X18255Y100601D01*
X18292Y100545D01*
X18394Y100416D01*
X18496Y100250D01*
X18607Y100046D01*
X18708Y99815D01*
X18801Y99547D01*
X17525Y99242D01*
Y99251D01*
X17516Y99260D01*
Y99288D01*
X17497Y99325D01*
X17469Y99408D01*
X17423Y99519D01*
X17358Y99649D01*
X17275Y99778D01*
X17164Y99907D01*
X17044Y100018D01*
X17026Y100028D01*
X16979Y100065D01*
X16905Y100111D01*
X16804Y100166D01*
X16674Y100222D01*
X16526Y100268D01*
X16360Y100305D01*
X16175Y100314D01*
X16110D01*
X16055Y100305D01*
X15999Y100296D01*
X15925Y100287D01*
X15768Y100250D01*
X15583Y100185D01*
X15389Y100092D01*
X15287Y100037D01*
X15195Y99972D01*
X15102Y99889D01*
X15019Y99796D01*
Y99787D01*
X15001Y99769D01*
X14982Y99741D01*
X14955Y99695D01*
X14918Y99639D01*
X14881Y99575D01*
X14844Y99491D01*
X14807Y99399D01*
X14760Y99288D01*
X14724Y99168D01*
X14686Y99029D01*
X14649Y98881D01*
X14622Y98715D01*
X14603Y98539D01*
X14594Y98345D01*
X14585Y98132D01*
Y98123D01*
Y98077D01*
Y98012D01*
X14594Y97938D01*
Y97836D01*
X14612Y97716D01*
X14622Y97596D01*
X14640Y97457D01*
X14696Y97171D01*
X14770Y96884D01*
X14816Y96746D01*
X14881Y96616D01*
X14945Y96496D01*
X15019Y96394D01*
X15029Y96385D01*
X15038Y96376D01*
X15066Y96348D01*
X15102Y96311D01*
X15195Y96237D01*
X15324Y96145D01*
X15482Y96043D01*
X15676Y95969D01*
X15898Y95904D01*
X16018Y95895D01*
X16147Y95886D01*
X16193D01*
X16230Y95895D01*
X16332Y95904D01*
X16452Y95923D01*
X16582Y95969D01*
X16730Y96024D01*
X16878Y96098D01*
X17026Y96209D01*
X17044Y96228D01*
X17090Y96274D01*
X17155Y96348D01*
X17229Y96459D01*
X17321Y96607D01*
X17405Y96782D01*
X17488Y96995D01*
X17562Y97245D01*
X18819Y96856D01*
Y96847D01*
X18810Y96810D01*
X18792Y96755D01*
X18764Y96681D01*
X18727Y96597D01*
X18690Y96496D01*
X18644Y96385D01*
X18588Y96265D01*
X18459Y96015D01*
X18292Y95756D01*
X18089Y95506D01*
X17978Y95396D01*
X17858Y95294D01*
X17849Y95285D01*
X17830Y95275D01*
X17793Y95248D01*
X17737Y95211D01*
X17673Y95174D01*
X17590Y95137D01*
X17497Y95091D01*
X17395Y95044D01*
X17275Y94989D01*
X17146Y94943D01*
X17007Y94906D01*
X16859Y94869D01*
X16702Y94832D01*
X16526Y94804D01*
X16351Y94795D01*
X16157Y94785D01*
X16101D01*
X16036Y94795D01*
X15944Y94804D01*
X15842Y94813D01*
X15713Y94832D01*
X15574Y94859D01*
X15417Y94896D01*
X15260Y94943D01*
X15093Y94998D01*
X14918Y95072D01*
X14742Y95155D01*
X14566Y95248D01*
X14391Y95368D01*
X14224Y95497D01*
X14067Y95654D01*
X14058Y95664D01*
X14030Y95691D01*
X13993Y95747D01*
X13938Y95812D01*
X13882Y95904D01*
X13808Y96006D01*
X13734Y96135D01*
X13660Y96283D01*
X13586Y96440D01*
X13512Y96616D01*
X13438Y96819D01*
X13383Y97032D01*
X13327Y97254D01*
X13290Y97504D01*
X13263Y97762D01*
X13253Y98040D01*
Y98049D01*
Y98058D01*
Y98114D01*
X13263Y98197D01*
Y98308D01*
X13281Y98437D01*
X13300Y98595D01*
X13318Y98761D01*
X13355Y98955D01*
X13401Y99149D01*
X13457Y99353D01*
X13521Y99556D01*
X13605Y99769D01*
X13697Y99972D01*
X13808Y100166D01*
X13928Y100351D01*
X14076Y100527D01*
X14086Y100536D01*
X14113Y100564D01*
X14159Y100610D01*
X14224Y100666D01*
X14307Y100730D01*
X14409Y100804D01*
X14520Y100887D01*
X14659Y100971D01*
X14807Y101054D01*
X14964Y101137D01*
X15149Y101211D01*
X15334Y101276D01*
X15546Y101331D01*
X15759Y101377D01*
X15999Y101405D01*
X16240Y101414D01*
X16351D01*
X16434Y101405D01*
D02*
G37*
G36*
X40935Y94896D02*
X39640D01*
Y97698D01*
X37116D01*
Y94896D01*
X35822D01*
Y101294D01*
X37116D01*
Y98779D01*
X39640D01*
Y101294D01*
X40935D01*
Y94896D01*
D02*
G37*
G36*
X31477D02*
X30182D01*
X27584Y99112D01*
Y94896D01*
X26391D01*
Y101294D01*
X27640D01*
X30284Y96986D01*
Y101294D01*
X31477D01*
Y94896D01*
D02*
G37*
G36*
X35101Y96607D02*
X32688D01*
Y97836D01*
X35101D01*
Y96607D01*
D02*
G37*
G36*
X25698Y94896D02*
X24302D01*
X23747Y96348D01*
X21177D01*
X20650Y94896D01*
X19282D01*
X21759Y101294D01*
X23128D01*
X25698Y94896D01*
D02*
G37*
G36*
X264983Y-22014D02*
X269136Y-24122D01*
X267687Y-24958D01*
X264655Y-23239D01*
X264287Y-24690D01*
X265253Y-26364D01*
X264132Y-27011D01*
X260933Y-21470D01*
X262054Y-20823D01*
X263478Y-23289D01*
X264328Y-19510D01*
X265833Y-18641D01*
X264983Y-22014D01*
D02*
G37*
G36*
X254562Y-25543D02*
X254754Y-25561D01*
X254934Y-25595D01*
X254942Y-25591D01*
X254959Y-25602D01*
X254997Y-25612D01*
X255035Y-25622D01*
X255090Y-25644D01*
X255150Y-25674D01*
X255303Y-25735D01*
X255474Y-25828D01*
X255672Y-25949D01*
X255875Y-26098D01*
X256090Y-26284D01*
X255137Y-27186D01*
X255133Y-27178D01*
X255120Y-27175D01*
X255106Y-27151D01*
X255072Y-27128D01*
X255006Y-27070D01*
X254911Y-26997D01*
X254790Y-26917D01*
X254653Y-26847D01*
X254492Y-26790D01*
X254333Y-26754D01*
X254312Y-26755D01*
X254253Y-26746D01*
X254166Y-26743D01*
X254050Y-26746D01*
X253911Y-26763D01*
X253759Y-26797D01*
X253597Y-26848D01*
X253432Y-26932D01*
X253376Y-26965D01*
X253333Y-27001D01*
X253289Y-27036D01*
X253230Y-27081D01*
X253112Y-27192D01*
X252984Y-27340D01*
X252862Y-27517D01*
X252802Y-27616D01*
X252754Y-27719D01*
X252716Y-27837D01*
X252690Y-27959D01*
X252695Y-27967D01*
X252688Y-27992D01*
X252686Y-28025D01*
X252685Y-28079D01*
X252680Y-28146D01*
X252681Y-28220D01*
X252690Y-28311D01*
X252705Y-28409D01*
X252720Y-28528D01*
X252748Y-28651D01*
X252785Y-28790D01*
X252827Y-28936D01*
X252887Y-29094D01*
X252958Y-29256D01*
X253047Y-29428D01*
X253146Y-29617D01*
X253150Y-29625D01*
X253174Y-29665D01*
X253206Y-29721D01*
X253251Y-29781D01*
X253302Y-29869D01*
X253378Y-29964D01*
X253446Y-30063D01*
X253531Y-30174D01*
X253723Y-30394D01*
X253930Y-30606D01*
X254039Y-30703D01*
X254160Y-30782D01*
X254276Y-30854D01*
X254391Y-30905D01*
X254404Y-30909D01*
X254416Y-30912D01*
X254454Y-30922D01*
X254505Y-30936D01*
X254622Y-30954D01*
X254780Y-30969D01*
X254967Y-30978D01*
X255172Y-30945D01*
X255397Y-30890D01*
X255506Y-30838D01*
X255622Y-30782D01*
X255662Y-30759D01*
X255690Y-30732D01*
X255773Y-30673D01*
X255868Y-30597D01*
X255957Y-30492D01*
X256057Y-30370D01*
X256148Y-30232D01*
X256221Y-30062D01*
X256228Y-30037D01*
X256245Y-29974D01*
X256264Y-29877D01*
X256273Y-29744D01*
X256279Y-29570D01*
X256263Y-29376D01*
X256229Y-29150D01*
X256168Y-28897D01*
X257451Y-28605D01*
X257456Y-28613D01*
X257466Y-28649D01*
X257478Y-28707D01*
X257491Y-28785D01*
X257500Y-28875D01*
X257519Y-28982D01*
X257535Y-29101D01*
X257547Y-29233D01*
X257559Y-29514D01*
X257545Y-29821D01*
X257493Y-30139D01*
X257453Y-30291D01*
X257399Y-30439D01*
X257396Y-30451D01*
X257385Y-30469D01*
X257367Y-30511D01*
X257337Y-30571D01*
X257299Y-30635D01*
X257246Y-30709D01*
X257189Y-30795D01*
X257124Y-30886D01*
X257048Y-30994D01*
X256959Y-31099D01*
X256857Y-31200D01*
X256747Y-31306D01*
X256630Y-31417D01*
X256491Y-31529D01*
X256344Y-31625D01*
X256180Y-31730D01*
X256132Y-31758D01*
X256072Y-31782D01*
X255987Y-31820D01*
X255894Y-31863D01*
X255773Y-31912D01*
X255639Y-31957D01*
X255484Y-32004D01*
X255325Y-32042D01*
X255153Y-32077D01*
X254964Y-32101D01*
X254770Y-32117D01*
X254572Y-32125D01*
X254360Y-32108D01*
X254151Y-32079D01*
X253936Y-32022D01*
X253924Y-32018D01*
X253886Y-32008D01*
X253826Y-31979D01*
X253746Y-31951D01*
X253651Y-31898D01*
X253536Y-31847D01*
X253408Y-31772D01*
X253270Y-31681D01*
X253127Y-31582D01*
X252975Y-31467D01*
X252809Y-31327D01*
X252655Y-31171D01*
X252496Y-31007D01*
X252339Y-30809D01*
X252186Y-30598D01*
X252039Y-30363D01*
X252034Y-30355D01*
X252030Y-30347D01*
X252002Y-30299D01*
X251968Y-30222D01*
X251913Y-30126D01*
X251864Y-30005D01*
X251802Y-29859D01*
X251735Y-29706D01*
X251669Y-29519D01*
X251612Y-29328D01*
X251559Y-29124D01*
X251513Y-28916D01*
X251479Y-28690D01*
X251457Y-28468D01*
X251456Y-28244D01*
X251468Y-28024D01*
X251508Y-27798D01*
X251511Y-27785D01*
X251522Y-27747D01*
X251539Y-27684D01*
X251567Y-27603D01*
X251607Y-27506D01*
X251658Y-27391D01*
X251712Y-27263D01*
X251791Y-27122D01*
X251877Y-26976D01*
X251972Y-26825D01*
X252095Y-26669D01*
X252223Y-26520D01*
X252379Y-26366D01*
X252540Y-26220D01*
X252734Y-26075D01*
X252938Y-25947D01*
X253034Y-25892D01*
X253111Y-25858D01*
X253203Y-25815D01*
X253309Y-25776D01*
X253430Y-25727D01*
X253564Y-25682D01*
X253711Y-25640D01*
X253870Y-25601D01*
X254034Y-25571D01*
X254215Y-25552D01*
X254388Y-25537D01*
X254562Y-25543D01*
D02*
G37*
G36*
X260004Y-28145D02*
X262790Y-26536D01*
X263331Y-27473D01*
X259424Y-29729D01*
X256248Y-24228D01*
X257369Y-23581D01*
X260004Y-28145D01*
D02*
G37*
G36*
X243407Y-31962D02*
X243558Y-31982D01*
X243570Y-31985D01*
X243596Y-31992D01*
X243633Y-32002D01*
X243684Y-32016D01*
X243752Y-32041D01*
X243832Y-32069D01*
X243917Y-32106D01*
X244015Y-32145D01*
X244114Y-32206D01*
X244213Y-32266D01*
X244321Y-32342D01*
X244426Y-32431D01*
X244530Y-32520D01*
X244636Y-32630D01*
X244734Y-32744D01*
X244825Y-32884D01*
X243728Y-33571D01*
X243723Y-33563D01*
X243718Y-33555D01*
X243670Y-33508D01*
X243612Y-33445D01*
X243529Y-33375D01*
X243429Y-33295D01*
X243318Y-33231D01*
X243190Y-33176D01*
X243064Y-33142D01*
X243051Y-33139D01*
X243006Y-33134D01*
X242931Y-33134D01*
X242832Y-33148D01*
X242718Y-33172D01*
X242579Y-33209D01*
X242421Y-33268D01*
X242248Y-33357D01*
X242168Y-33403D01*
X242085Y-33462D01*
X241990Y-33538D01*
X241884Y-33632D01*
X241779Y-33746D01*
X241686Y-33863D01*
X241616Y-34000D01*
X241613Y-34012D01*
X241606Y-34038D01*
X241588Y-34080D01*
X241579Y-34139D01*
X241574Y-34205D01*
X241579Y-34288D01*
X241600Y-34361D01*
X241639Y-34446D01*
X241643Y-34454D01*
X241657Y-34478D01*
X241688Y-34513D01*
X241727Y-34544D01*
X241776Y-34591D01*
X241832Y-34633D01*
X241905Y-34666D01*
X241993Y-34690D01*
X242006Y-34693D01*
X242059Y-34694D01*
X242093Y-34696D01*
X242142Y-34689D01*
X242196Y-34690D01*
X242266Y-34682D01*
X242344Y-34669D01*
X242434Y-34659D01*
X242541Y-34640D01*
X242647Y-34621D01*
X242778Y-34589D01*
X242917Y-34551D01*
X243063Y-34509D01*
X243230Y-34466D01*
X243239Y-34462D01*
X243275Y-34451D01*
X243320Y-34436D01*
X243385Y-34420D01*
X243458Y-34399D01*
X243552Y-34377D01*
X243654Y-34350D01*
X243756Y-34323D01*
X243985Y-34276D01*
X244223Y-34225D01*
X244456Y-34186D01*
X244559Y-34179D01*
X244663Y-34173D01*
X244671Y-34169D01*
X244683Y-34172D01*
X244750Y-34176D01*
X244850Y-34183D01*
X244975Y-34196D01*
X245117Y-34221D01*
X245277Y-34256D01*
X245445Y-34309D01*
X245607Y-34386D01*
X245625Y-34397D01*
X245676Y-34431D01*
X245758Y-34480D01*
X245858Y-34561D01*
X245972Y-34666D01*
X246100Y-34795D01*
X246221Y-34950D01*
X246340Y-35137D01*
X246345Y-35145D01*
X246354Y-35161D01*
X246368Y-35185D01*
X246386Y-35217D01*
X246401Y-35262D01*
X246426Y-35322D01*
X246474Y-35444D01*
X246526Y-35607D01*
X246565Y-35786D01*
X246581Y-35980D01*
X246586Y-36191D01*
X246590Y-36199D01*
X246579Y-36216D01*
X246574Y-36283D01*
X246557Y-36400D01*
X246528Y-36534D01*
X246483Y-36698D01*
X246403Y-36873D01*
X246314Y-37052D01*
X246189Y-37242D01*
X246181Y-37247D01*
X246169Y-37264D01*
X246150Y-37286D01*
X246119Y-37325D01*
X246080Y-37369D01*
X246034Y-37417D01*
X245979Y-37470D01*
X245916Y-37528D01*
X245842Y-37603D01*
X245763Y-37669D01*
X245573Y-37822D01*
X245355Y-37980D01*
X245103Y-38136D01*
X244999Y-38196D01*
X244923Y-38229D01*
X244830Y-38272D01*
X244729Y-38320D01*
X244608Y-38368D01*
X244474Y-38414D01*
X244177Y-38510D01*
X244018Y-38549D01*
X243867Y-38583D01*
X243698Y-38605D01*
X243533Y-38615D01*
X243372Y-38612D01*
X243209Y-38589D01*
X243196Y-38586D01*
X243171Y-38579D01*
X243125Y-38574D01*
X243070Y-38552D01*
X242989Y-38524D01*
X242904Y-38487D01*
X242807Y-38448D01*
X242704Y-38400D01*
X242593Y-38336D01*
X242477Y-38264D01*
X242351Y-38177D01*
X242221Y-38081D01*
X242103Y-37968D01*
X241967Y-37843D01*
X241842Y-37702D01*
X241721Y-37548D01*
X242750Y-36815D01*
X242755Y-36823D01*
X242772Y-36834D01*
X242790Y-36866D01*
X242817Y-36894D01*
X242904Y-36971D01*
X243014Y-37068D01*
X243141Y-37177D01*
X243291Y-37271D01*
X243440Y-37345D01*
X243609Y-37397D01*
X243630Y-37396D01*
X243689Y-37405D01*
X243776Y-37408D01*
X243899Y-37400D01*
X244047Y-37379D01*
X244207Y-37340D01*
X244385Y-37280D01*
X244574Y-37182D01*
X244662Y-37131D01*
X244749Y-37059D01*
X244860Y-36974D01*
X244974Y-36876D01*
X245087Y-36757D01*
X245183Y-36627D01*
X245253Y-36491D01*
X245265Y-36473D01*
X245278Y-36423D01*
X245290Y-36352D01*
X245310Y-36255D01*
X245311Y-36147D01*
X245304Y-36024D01*
X245280Y-35909D01*
X245224Y-35792D01*
X245219Y-35784D01*
X245205Y-35760D01*
X245174Y-35725D01*
X245138Y-35682D01*
X245095Y-35643D01*
X245046Y-35596D01*
X244982Y-35558D01*
X244909Y-35525D01*
X244897Y-35522D01*
X244872Y-35515D01*
X244834Y-35505D01*
X244775Y-35496D01*
X244696Y-35489D01*
X244601Y-35490D01*
X244498Y-35496D01*
X244370Y-35516D01*
X244362Y-35521D01*
X244321Y-35523D01*
X244256Y-35540D01*
X244207Y-35547D01*
X244154Y-35567D01*
X244089Y-35583D01*
X244011Y-35596D01*
X243929Y-35622D01*
X243836Y-35644D01*
X243725Y-35675D01*
X243608Y-35711D01*
X243477Y-35744D01*
X243330Y-35786D01*
X243322Y-35791D01*
X243286Y-35801D01*
X243228Y-35813D01*
X243163Y-35829D01*
X243077Y-35847D01*
X242975Y-35873D01*
X242869Y-35892D01*
X242746Y-35920D01*
X242492Y-35961D01*
X242236Y-35980D01*
X242104Y-35992D01*
X241984Y-35987D01*
X241863Y-35982D01*
X241759Y-35967D01*
X241746Y-35964D01*
X241721Y-35957D01*
X241683Y-35947D01*
X241633Y-35933D01*
X241565Y-35908D01*
X241493Y-35875D01*
X241412Y-35847D01*
X241330Y-35798D01*
X241137Y-35686D01*
X240946Y-35540D01*
X240854Y-35454D01*
X240770Y-35364D01*
X240685Y-35253D01*
X240607Y-35137D01*
X240603Y-35129D01*
X240598Y-35121D01*
X240584Y-35097D01*
X240566Y-35065D01*
X240536Y-34976D01*
X240491Y-34863D01*
X240446Y-34729D01*
X240408Y-34569D01*
X240380Y-34393D01*
X240382Y-34211D01*
X240377Y-34203D01*
X240381Y-34190D01*
X240393Y-34119D01*
X240404Y-34027D01*
X240438Y-33901D01*
X240483Y-33757D01*
X240548Y-33592D01*
X240633Y-33425D01*
X240747Y-33253D01*
X240755Y-33248D01*
X240766Y-33231D01*
X240786Y-33209D01*
X240808Y-33174D01*
X240847Y-33131D01*
X240886Y-33087D01*
X240941Y-33034D01*
X240999Y-32968D01*
X241141Y-32844D01*
X241306Y-32705D01*
X241501Y-32561D01*
X241728Y-32419D01*
X241824Y-32364D01*
X241901Y-32330D01*
X241994Y-32287D01*
X242102Y-32235D01*
X242216Y-32191D01*
X242345Y-32138D01*
X242634Y-32046D01*
X242785Y-32012D01*
X242936Y-31978D01*
X243097Y-31960D01*
X243254Y-31955D01*
X243407Y-31962D01*
D02*
G37*
G36*
X248901Y-28940D02*
X249097Y-28965D01*
X249307Y-29015D01*
X249315Y-29010D01*
X249332Y-29022D01*
X249400Y-29047D01*
X249510Y-29090D01*
X249643Y-29152D01*
X249805Y-29230D01*
X249981Y-29331D01*
X250170Y-29456D01*
X250353Y-29607D01*
X250358Y-29615D01*
X250375Y-29626D01*
X250402Y-29653D01*
X250441Y-29684D01*
X250476Y-29728D01*
X250529Y-29783D01*
X250587Y-29845D01*
X250657Y-29911D01*
X250724Y-29990D01*
X250800Y-30085D01*
X250877Y-30180D01*
X250954Y-30296D01*
X251121Y-30530D01*
X251291Y-30805D01*
X251296Y-30814D01*
X251310Y-30838D01*
X251328Y-30870D01*
X251356Y-30917D01*
X251385Y-30986D01*
X251422Y-31050D01*
X251460Y-31135D01*
X251503Y-31228D01*
X251593Y-31421D01*
X251672Y-31632D01*
X251740Y-31860D01*
X251794Y-32084D01*
X251799Y-32092D01*
X251800Y-32113D01*
X251803Y-32154D01*
X251814Y-32211D01*
X251826Y-32269D01*
X251826Y-32343D01*
X251846Y-32524D01*
X251853Y-32723D01*
X251846Y-32951D01*
X251819Y-33180D01*
X251770Y-33411D01*
X251764Y-33436D01*
X251742Y-33491D01*
X251706Y-33577D01*
X251655Y-33691D01*
X251584Y-33828D01*
X251498Y-33974D01*
X251379Y-34139D01*
X251240Y-34304D01*
X251232Y-34309D01*
X251229Y-34322D01*
X251205Y-34336D01*
X251185Y-34358D01*
X251106Y-34424D01*
X251008Y-34513D01*
X250886Y-34616D01*
X250727Y-34729D01*
X250532Y-34852D01*
X250320Y-34985D01*
X248222Y-36196D01*
X245023Y-30656D01*
X247233Y-29380D01*
X247302Y-29351D01*
X247458Y-29271D01*
X247631Y-29182D01*
X247821Y-29104D01*
X248003Y-29031D01*
X248179Y-28983D01*
X248186Y-28979D01*
X248207Y-28977D01*
X248236Y-28972D01*
X248272Y-28961D01*
X248392Y-28946D01*
X248536Y-28937D01*
X248706Y-28935D01*
X248901Y-28940D01*
D02*
G37*
G36*
X302427Y2213D02*
X302649Y2181D01*
X302871Y2128D01*
X302884Y2125D01*
X302922Y2114D01*
X302990Y2090D01*
X303062Y2057D01*
X303164Y2009D01*
X303284Y1950D01*
X303412Y1875D01*
X303559Y1788D01*
X303709Y1694D01*
X303866Y1570D01*
X304031Y1431D01*
X304194Y1280D01*
X304362Y1099D01*
X304519Y901D01*
X304677Y683D01*
X304828Y439D01*
X304837Y424D01*
X304861Y383D01*
X304894Y307D01*
X304950Y211D01*
X304998Y89D01*
X305056Y-48D01*
X305120Y-214D01*
X305184Y-380D01*
X305241Y-571D01*
X305295Y-775D01*
X305332Y-988D01*
X305362Y-1206D01*
X305379Y-1420D01*
X305372Y-1649D01*
X305352Y-1874D01*
X305312Y-2100D01*
X305309Y-2112D01*
X305299Y-2150D01*
X305282Y-2213D01*
X305245Y-2298D01*
X305205Y-2396D01*
X305154Y-2511D01*
X305087Y-2635D01*
X305017Y-2772D01*
X304922Y-2923D01*
X304815Y-3070D01*
X304692Y-3226D01*
X304548Y-3384D01*
X304392Y-3538D01*
X304215Y-3694D01*
X304020Y-3838D01*
X303801Y-3976D01*
X303745Y-4008D01*
X303676Y-4037D01*
X303591Y-4075D01*
X303483Y-4127D01*
X303353Y-4181D01*
X303203Y-4235D01*
X303041Y-4286D01*
X302857Y-4339D01*
X302678Y-4379D01*
X302472Y-4412D01*
X302271Y-4432D01*
X302056Y-4449D01*
X301844Y-4433D01*
X301627Y-4408D01*
X301405Y-4356D01*
X301392Y-4352D01*
X301354Y-4342D01*
X301294Y-4313D01*
X301214Y-4284D01*
X301112Y-4236D01*
X300992Y-4177D01*
X300868Y-4110D01*
X300730Y-4019D01*
X300579Y-3925D01*
X300423Y-3801D01*
X300262Y-3670D01*
X300099Y-3519D01*
X299936Y-3346D01*
X299779Y-3148D01*
X299621Y-2930D01*
X299474Y-2694D01*
X299470Y-2686D01*
X299451Y-2654D01*
X299428Y-2614D01*
X299399Y-2546D01*
X299357Y-2474D01*
X299319Y-2389D01*
X299272Y-2288D01*
X299219Y-2180D01*
X299122Y-1937D01*
X299023Y-1673D01*
X298949Y-1396D01*
X298899Y-1126D01*
X298895Y-1118D01*
X298898Y-1105D01*
X298900Y-1072D01*
X298890Y-1035D01*
X298892Y-928D01*
X298888Y-791D01*
X298890Y-629D01*
X298909Y-458D01*
X298935Y-262D01*
X298973Y-69D01*
X298976Y-57D01*
X298979Y-44D01*
X298996Y19D01*
X299032Y125D01*
X299078Y248D01*
X299136Y388D01*
X299205Y545D01*
X299295Y704D01*
X299402Y851D01*
X299410Y856D01*
X299422Y873D01*
X299444Y908D01*
X299480Y939D01*
X299514Y990D01*
X299561Y1039D01*
X299624Y1096D01*
X299682Y1162D01*
X299835Y1304D01*
X300012Y1459D01*
X300230Y1617D01*
X300466Y1764D01*
X300522Y1796D01*
X300590Y1825D01*
X300671Y1872D01*
X300784Y1916D01*
X300913Y1969D01*
X301063Y2024D01*
X301226Y2075D01*
X301401Y2123D01*
X301589Y2167D01*
X301786Y2195D01*
X301996Y2220D01*
X302207Y2225D01*
X302427Y2213D01*
D02*
G37*
G36*
X300210Y-5910D02*
X299089Y-6557D01*
X295890Y-1017D01*
X297011Y-369D01*
X300210Y-5910D01*
D02*
G37*
G36*
X288725Y-5527D02*
X288876Y-5547D01*
X288888Y-5550D01*
X288913Y-5557D01*
X288951Y-5567D01*
X289002Y-5580D01*
X289070Y-5605D01*
X289150Y-5634D01*
X289235Y-5670D01*
X289333Y-5710D01*
X289432Y-5770D01*
X289531Y-5831D01*
X289639Y-5907D01*
X289743Y-5996D01*
X289848Y-6085D01*
X289954Y-6194D01*
X290052Y-6309D01*
X290143Y-6448D01*
X289046Y-7135D01*
X289041Y-7127D01*
X289036Y-7119D01*
X288988Y-7073D01*
X288930Y-7010D01*
X288847Y-6940D01*
X288747Y-6859D01*
X288636Y-6795D01*
X288508Y-6741D01*
X288382Y-6707D01*
X288369Y-6704D01*
X288323Y-6698D01*
X288249Y-6698D01*
X288150Y-6713D01*
X288036Y-6736D01*
X287897Y-6773D01*
X287739Y-6833D01*
X287566Y-6922D01*
X287486Y-6968D01*
X287403Y-7027D01*
X287308Y-7103D01*
X287202Y-7196D01*
X287097Y-7310D01*
X287004Y-7428D01*
X286934Y-7564D01*
X286931Y-7577D01*
X286924Y-7602D01*
X286905Y-7645D01*
X286897Y-7703D01*
X286892Y-7770D01*
X286897Y-7853D01*
X286918Y-7926D01*
X286957Y-8011D01*
X286961Y-8019D01*
X286975Y-8043D01*
X287006Y-8078D01*
X287045Y-8109D01*
X287094Y-8156D01*
X287150Y-8198D01*
X287222Y-8231D01*
X287311Y-8254D01*
X287323Y-8258D01*
X287377Y-8259D01*
X287411Y-8261D01*
X287460Y-8254D01*
X287514Y-8255D01*
X287584Y-8246D01*
X287662Y-8233D01*
X287752Y-8224D01*
X287859Y-8205D01*
X287965Y-8186D01*
X288096Y-8153D01*
X288235Y-8116D01*
X288381Y-8074D01*
X288548Y-8031D01*
X288556Y-8026D01*
X288593Y-8016D01*
X288638Y-8001D01*
X288703Y-7984D01*
X288776Y-7963D01*
X288870Y-7941D01*
X288972Y-7914D01*
X289074Y-7887D01*
X289303Y-7841D01*
X289540Y-7789D01*
X289774Y-7750D01*
X289877Y-7744D01*
X289981Y-7738D01*
X289988Y-7733D01*
X290001Y-7737D01*
X290068Y-7741D01*
X290168Y-7747D01*
X290292Y-7760D01*
X290435Y-7785D01*
X290594Y-7821D01*
X290763Y-7873D01*
X290925Y-7950D01*
X290942Y-7962D01*
X290994Y-7996D01*
X291076Y-8045D01*
X291176Y-8126D01*
X291290Y-8231D01*
X291418Y-8360D01*
X291539Y-8514D01*
X291658Y-8702D01*
X291663Y-8710D01*
X291672Y-8726D01*
X291686Y-8750D01*
X291704Y-8782D01*
X291719Y-8826D01*
X291744Y-8887D01*
X291792Y-9008D01*
X291843Y-9171D01*
X291883Y-9351D01*
X291899Y-9545D01*
X291903Y-9756D01*
X291908Y-9764D01*
X291897Y-9781D01*
X291892Y-9847D01*
X291875Y-9965D01*
X291845Y-10099D01*
X291801Y-10263D01*
X291721Y-10438D01*
X291632Y-10617D01*
X291507Y-10807D01*
X291499Y-10811D01*
X291487Y-10829D01*
X291468Y-10850D01*
X291437Y-10890D01*
X291398Y-10933D01*
X291352Y-10982D01*
X291297Y-11035D01*
X291234Y-11092D01*
X291160Y-11167D01*
X291081Y-11234D01*
X290891Y-11386D01*
X290673Y-11544D01*
X290421Y-11700D01*
X290317Y-11760D01*
X290240Y-11794D01*
X290148Y-11837D01*
X290047Y-11884D01*
X289926Y-11933D01*
X289792Y-11978D01*
X289495Y-12075D01*
X289336Y-12113D01*
X289185Y-12147D01*
X289016Y-12170D01*
X288851Y-12180D01*
X288689Y-12177D01*
X288526Y-12154D01*
X288514Y-12150D01*
X288489Y-12144D01*
X288443Y-12138D01*
X288388Y-12117D01*
X288307Y-12088D01*
X288222Y-12052D01*
X288125Y-12012D01*
X288022Y-11964D01*
X287911Y-11901D01*
X287795Y-11829D01*
X287669Y-11741D01*
X287539Y-11645D01*
X287421Y-11532D01*
X287285Y-11408D01*
X287160Y-11266D01*
X287039Y-11112D01*
X288068Y-10379D01*
X288073Y-10387D01*
X288090Y-10399D01*
X288108Y-10431D01*
X288135Y-10458D01*
X288222Y-10536D01*
X288332Y-10633D01*
X288458Y-10741D01*
X288609Y-10836D01*
X288758Y-10910D01*
X288927Y-10962D01*
X288948Y-10960D01*
X289006Y-10969D01*
X289093Y-10972D01*
X289217Y-10965D01*
X289365Y-10944D01*
X289524Y-10905D01*
X289703Y-10845D01*
X289892Y-10746D01*
X289980Y-10695D01*
X290067Y-10624D01*
X290178Y-10539D01*
X290292Y-10441D01*
X290405Y-10322D01*
X290501Y-10192D01*
X290571Y-10055D01*
X290583Y-10038D01*
X290596Y-9987D01*
X290608Y-9916D01*
X290627Y-9820D01*
X290629Y-9712D01*
X290622Y-9588D01*
X290598Y-9474D01*
X290542Y-9357D01*
X290537Y-9349D01*
X290523Y-9325D01*
X290492Y-9290D01*
X290456Y-9246D01*
X290413Y-9207D01*
X290364Y-9161D01*
X290300Y-9123D01*
X290227Y-9090D01*
X290215Y-9087D01*
X290189Y-9080D01*
X290152Y-9070D01*
X290093Y-9061D01*
X290014Y-9053D01*
X289919Y-9055D01*
X289816Y-9061D01*
X289688Y-9081D01*
X289680Y-9086D01*
X289639Y-9088D01*
X289574Y-9104D01*
X289524Y-9111D01*
X289472Y-9131D01*
X289407Y-9147D01*
X289329Y-9161D01*
X289247Y-9186D01*
X289153Y-9208D01*
X289043Y-9240D01*
X288925Y-9276D01*
X288795Y-9309D01*
X288648Y-9350D01*
X288640Y-9355D01*
X288604Y-9366D01*
X288546Y-9377D01*
X288481Y-9394D01*
X288395Y-9411D01*
X288293Y-9438D01*
X288186Y-9457D01*
X288064Y-9485D01*
X287810Y-9525D01*
X287554Y-9545D01*
X287422Y-9557D01*
X287302Y-9551D01*
X287181Y-9546D01*
X287077Y-9532D01*
X287064Y-9528D01*
X287039Y-9522D01*
X287001Y-9511D01*
X286950Y-9498D01*
X286883Y-9473D01*
X286810Y-9440D01*
X286730Y-9412D01*
X286648Y-9363D01*
X286455Y-9250D01*
X286264Y-9104D01*
X286172Y-9019D01*
X286088Y-8928D01*
X286003Y-8817D01*
X285925Y-8702D01*
X285921Y-8694D01*
X285916Y-8686D01*
X285902Y-8662D01*
X285884Y-8630D01*
X285853Y-8541D01*
X285809Y-8427D01*
X285764Y-8293D01*
X285725Y-8134D01*
X285698Y-7958D01*
X285700Y-7775D01*
X285695Y-7767D01*
X285699Y-7755D01*
X285711Y-7684D01*
X285722Y-7592D01*
X285756Y-7465D01*
X285801Y-7322D01*
X285865Y-7156D01*
X285951Y-6990D01*
X286065Y-6817D01*
X286073Y-6813D01*
X286084Y-6795D01*
X286103Y-6773D01*
X286126Y-6739D01*
X286165Y-6695D01*
X286204Y-6651D01*
X286259Y-6599D01*
X286317Y-6533D01*
X286458Y-6408D01*
X286624Y-6270D01*
X286819Y-6126D01*
X287046Y-5984D01*
X287142Y-5928D01*
X287219Y-5895D01*
X287311Y-5852D01*
X287420Y-5800D01*
X287534Y-5756D01*
X287663Y-5702D01*
X287952Y-5610D01*
X288103Y-5577D01*
X288254Y-5543D01*
X288414Y-5525D01*
X288571Y-5519D01*
X288725Y-5527D01*
D02*
G37*
G36*
X294219Y-2504D02*
X294415Y-2530D01*
X294625Y-2580D01*
X294633Y-2575D01*
X294650Y-2586D01*
X294718Y-2611D01*
X294828Y-2654D01*
X294960Y-2717D01*
X295123Y-2794D01*
X295298Y-2895D01*
X295488Y-3021D01*
X295671Y-3171D01*
X295676Y-3179D01*
X295693Y-3191D01*
X295720Y-3218D01*
X295759Y-3249D01*
X295794Y-3292D01*
X295847Y-3347D01*
X295905Y-3410D01*
X295975Y-3476D01*
X296042Y-3555D01*
X296118Y-3650D01*
X296194Y-3745D01*
X296272Y-3860D01*
X296439Y-4094D01*
X296609Y-4370D01*
X296614Y-4378D01*
X296627Y-4402D01*
X296646Y-4434D01*
X296674Y-4482D01*
X296702Y-4551D01*
X296740Y-4615D01*
X296778Y-4700D01*
X296821Y-4792D01*
X296911Y-4986D01*
X296990Y-5196D01*
X297057Y-5424D01*
X297112Y-5649D01*
X297117Y-5657D01*
X297118Y-5677D01*
X297121Y-5719D01*
X297132Y-5776D01*
X297144Y-5833D01*
X297144Y-5908D01*
X297164Y-6089D01*
X297171Y-6287D01*
X297164Y-6515D01*
X297137Y-6745D01*
X297088Y-6976D01*
X297082Y-7001D01*
X297060Y-7056D01*
X297024Y-7141D01*
X296973Y-7256D01*
X296902Y-7393D01*
X296816Y-7539D01*
X296697Y-7703D01*
X296558Y-7869D01*
X296550Y-7874D01*
X296546Y-7886D01*
X296523Y-7900D01*
X296503Y-7922D01*
X296424Y-7989D01*
X296326Y-8078D01*
X296204Y-8180D01*
X296045Y-8293D01*
X295849Y-8417D01*
X295638Y-8550D01*
X293540Y-9761D01*
X290341Y-4220D01*
X292551Y-2944D01*
X292620Y-2915D01*
X292776Y-2835D01*
X292949Y-2746D01*
X293139Y-2669D01*
X293321Y-2596D01*
X293496Y-2548D01*
X293504Y-2543D01*
X293525Y-2542D01*
X293554Y-2536D01*
X293590Y-2526D01*
X293710Y-2510D01*
X293854Y-2502D01*
X294024Y-2500D01*
X294219Y-2504D01*
D02*
G37*
G36*
X159640Y215655D02*
X155948D01*
Y219070D01*
X159640D01*
Y215655D01*
D02*
G37*
G36*
X202199Y219403D02*
X202505Y219375D01*
X202838Y219320D01*
X203227Y219265D01*
X203643Y219181D01*
X204087Y219070D01*
X204559Y218931D01*
X205031Y218765D01*
X205531Y218543D01*
X206003Y218321D01*
X206447Y218043D01*
X206919Y217710D01*
X207335Y217349D01*
X207363D01*
X207391Y217293D01*
X207474Y217210D01*
X207558Y217127D01*
X207668Y216988D01*
X207780Y216821D01*
X208085Y216433D01*
X208390Y215933D01*
X208724Y215322D01*
X209029Y214628D01*
X209307Y213823D01*
X205475Y212907D01*
Y212935D01*
X205448Y212962D01*
Y213046D01*
X205392Y213157D01*
X205309Y213407D01*
X205170Y213740D01*
X204976Y214128D01*
X204726Y214517D01*
X204393Y214906D01*
X204032Y215239D01*
X203976Y215267D01*
X203837Y215378D01*
X203615Y215517D01*
X203310Y215683D01*
X202921Y215850D01*
X202477Y215989D01*
X201977Y216100D01*
X201422Y216127D01*
X201228D01*
X201061Y216100D01*
X200895Y216072D01*
X200672Y216044D01*
X200201Y215933D01*
X199645Y215739D01*
X199062Y215461D01*
X198757Y215294D01*
X198479Y215100D01*
X198202Y214850D01*
X197952Y214573D01*
Y214545D01*
X197896Y214489D01*
X197841Y214406D01*
X197757Y214267D01*
X197646Y214101D01*
X197535Y213906D01*
X197424Y213657D01*
X197313Y213379D01*
X197174Y213046D01*
X197063Y212685D01*
X196952Y212268D01*
X196841Y211824D01*
X196758Y211325D01*
X196702Y210797D01*
X196675Y210214D01*
X196647Y209576D01*
Y209548D01*
Y209409D01*
Y209214D01*
X196675Y208992D01*
Y208687D01*
X196730Y208326D01*
X196758Y207965D01*
X196814Y207549D01*
X196980Y206688D01*
X197202Y205828D01*
X197341Y205411D01*
X197535Y205022D01*
X197730Y204662D01*
X197952Y204356D01*
X197980Y204328D01*
X198007Y204301D01*
X198091Y204217D01*
X198202Y204106D01*
X198479Y203884D01*
X198868Y203607D01*
X199340Y203301D01*
X199923Y203079D01*
X200589Y202885D01*
X200950Y202857D01*
X201339Y202829D01*
X201478D01*
X201589Y202857D01*
X201894Y202885D01*
X202255Y202940D01*
X202644Y203079D01*
X203088Y203246D01*
X203532Y203468D01*
X203976Y203801D01*
X204032Y203856D01*
X204170Y203995D01*
X204365Y204217D01*
X204587Y204550D01*
X204865Y204995D01*
X205114Y205522D01*
X205364Y206161D01*
X205586Y206910D01*
X209362Y205744D01*
Y205716D01*
X209334Y205606D01*
X209279Y205439D01*
X209195Y205217D01*
X209084Y204967D01*
X208973Y204662D01*
X208834Y204328D01*
X208668Y203967D01*
X208279Y203218D01*
X207780Y202441D01*
X207169Y201691D01*
X206836Y201358D01*
X206475Y201052D01*
X206447Y201025D01*
X206392Y200997D01*
X206280Y200914D01*
X206114Y200803D01*
X205919Y200692D01*
X205670Y200581D01*
X205392Y200442D01*
X205087Y200303D01*
X204726Y200136D01*
X204337Y199998D01*
X203921Y199886D01*
X203476Y199775D01*
X203004Y199664D01*
X202477Y199581D01*
X201950Y199553D01*
X201367Y199526D01*
X201200D01*
X201006Y199553D01*
X200728Y199581D01*
X200423Y199609D01*
X200034Y199664D01*
X199618Y199748D01*
X199146Y199859D01*
X198674Y199998D01*
X198174Y200164D01*
X197646Y200386D01*
X197119Y200636D01*
X196591Y200914D01*
X196064Y201275D01*
X195564Y201663D01*
X195092Y202135D01*
X195065Y202163D01*
X194981Y202246D01*
X194870Y202413D01*
X194704Y202607D01*
X194537Y202885D01*
X194315Y203190D01*
X194093Y203579D01*
X193871Y204023D01*
X193649Y204495D01*
X193426Y205022D01*
X193204Y205633D01*
X193038Y206272D01*
X192871Y206938D01*
X192760Y207688D01*
X192677Y208465D01*
X192649Y209298D01*
Y209326D01*
Y209353D01*
Y209520D01*
X192677Y209770D01*
Y210103D01*
X192733Y210492D01*
X192788Y210964D01*
X192843Y211463D01*
X192955Y212046D01*
X193093Y212629D01*
X193260Y213240D01*
X193454Y213851D01*
X193704Y214489D01*
X193982Y215100D01*
X194315Y215683D01*
X194676Y216238D01*
X195120Y216766D01*
X195148Y216794D01*
X195231Y216877D01*
X195370Y217016D01*
X195564Y217182D01*
X195814Y217377D01*
X196119Y217599D01*
X196453Y217849D01*
X196869Y218098D01*
X197313Y218348D01*
X197785Y218598D01*
X198340Y218820D01*
X198896Y219015D01*
X199534Y219181D01*
X200173Y219320D01*
X200895Y219403D01*
X201616Y219431D01*
X201950D01*
X202199Y219403D01*
D02*
G37*
G36*
X141900Y199859D02*
X138485D01*
Y201885D01*
X138457Y201830D01*
X138346Y201691D01*
X138152Y201469D01*
X137902Y201219D01*
X137625Y200941D01*
X137264Y200636D01*
X136875Y200358D01*
X136459Y200109D01*
X136403Y200081D01*
X136264Y200025D01*
X136014Y199942D01*
X135737Y199831D01*
X135376Y199720D01*
X134959Y199637D01*
X134543Y199581D01*
X134099Y199553D01*
X133877D01*
X133710Y199581D01*
X133488Y199609D01*
X133266Y199664D01*
X132988Y199720D01*
X132683Y199803D01*
X132377Y199886D01*
X132044Y200025D01*
X131711Y200164D01*
X131350Y200358D01*
X131017Y200581D01*
X130656Y200830D01*
X130323Y201136D01*
X129990Y201469D01*
X129962Y201497D01*
X129907Y201552D01*
X129823Y201663D01*
X129740Y201830D01*
X129601Y202024D01*
X129462Y202274D01*
X129296Y202552D01*
X129157Y202885D01*
X128990Y203246D01*
X128824Y203634D01*
X128685Y204079D01*
X128574Y204550D01*
X128463Y205078D01*
X128380Y205633D01*
X128324Y206216D01*
X128296Y206855D01*
Y206882D01*
Y207021D01*
Y207188D01*
X128324Y207438D01*
X128352Y207743D01*
X128380Y208076D01*
X128435Y208465D01*
X128491Y208854D01*
X128685Y209742D01*
X128824Y210186D01*
X128990Y210630D01*
X129185Y211075D01*
X129407Y211491D01*
X129657Y211880D01*
X129934Y212241D01*
X129962Y212268D01*
X130018Y212324D01*
X130101Y212407D01*
X130240Y212546D01*
X130406Y212685D01*
X130601Y212824D01*
X130823Y212990D01*
X131100Y213185D01*
X131378Y213351D01*
X131711Y213518D01*
X132405Y213823D01*
X132822Y213934D01*
X133238Y214017D01*
X133682Y214073D01*
X134154Y214101D01*
X134376D01*
X134543Y214073D01*
X134737Y214045D01*
X134987Y213990D01*
X135237Y213934D01*
X135542Y213851D01*
X135848Y213768D01*
X136181Y213629D01*
X136514Y213462D01*
X136847Y213296D01*
X137208Y213046D01*
X137541Y212796D01*
X137874Y212491D01*
X138208Y212157D01*
Y219070D01*
X141900D01*
Y199859D01*
D02*
G37*
G36*
X152394Y214073D02*
X152699Y214017D01*
X153088Y213934D01*
X153504Y213795D01*
X153921Y213629D01*
X154365Y213379D01*
X153199Y210186D01*
X153171Y210214D01*
X153033Y210270D01*
X152866Y210380D01*
X152644Y210492D01*
X152366Y210603D01*
X152089Y210714D01*
X151783Y210769D01*
X151478Y210797D01*
X151367D01*
X151200Y210769D01*
X151034Y210741D01*
X150839Y210686D01*
X150617Y210603D01*
X150395Y210492D01*
X150173Y210353D01*
X150145Y210325D01*
X150090Y210270D01*
X149979Y210158D01*
X149868Y209992D01*
X149729Y209797D01*
X149590Y209520D01*
X149451Y209187D01*
X149340Y208798D01*
Y208743D01*
X149312Y208659D01*
X149285Y208576D01*
Y208437D01*
X149257Y208271D01*
X149229Y208048D01*
X149201Y207799D01*
X149174Y207521D01*
X149146Y207160D01*
X149118Y206799D01*
Y206355D01*
X149090Y205883D01*
X149062Y205356D01*
Y204773D01*
Y204134D01*
Y199859D01*
X145370D01*
Y213795D01*
X148785D01*
Y211824D01*
X148813Y211852D01*
X148924Y212019D01*
X149090Y212268D01*
X149312Y212574D01*
X149535Y212879D01*
X149812Y213185D01*
X150062Y213462D01*
X150340Y213657D01*
X150367Y213684D01*
X150451Y213740D01*
X150617Y213795D01*
X150812Y213879D01*
X151034Y213962D01*
X151311Y214045D01*
X151589Y214073D01*
X151922Y214101D01*
X152144D01*
X152394Y214073D01*
D02*
G37*
G36*
X170550Y199859D02*
X167219D01*
X161611Y213795D01*
X165470D01*
X168107Y206660D01*
X168857Y204301D01*
X168885Y204328D01*
X168913Y204439D01*
X168968Y204606D01*
X169023Y204773D01*
X169162Y205189D01*
X169218Y205356D01*
X169246Y205494D01*
Y205522D01*
X169273Y205605D01*
X169301Y205716D01*
X169357Y205855D01*
X169468Y206244D01*
X169634Y206660D01*
X172299Y213795D01*
X176075D01*
X170550Y199859D01*
D02*
G37*
G36*
X221300Y199859D02*
X217607D01*
Y213768D01*
X217580Y213740D01*
X217524Y213684D01*
X217413Y213601D01*
X217246Y213462D01*
X217052Y213296D01*
X216830Y213129D01*
X216552Y212935D01*
X216247Y212713D01*
X215914Y212491D01*
X215553Y212268D01*
X215164Y212019D01*
X214748Y211796D01*
X213860Y211380D01*
X212860Y210991D01*
Y214323D01*
X212888D01*
X212916Y214350D01*
X212999Y214378D01*
X213110Y214406D01*
X213388Y214545D01*
X213776Y214711D01*
X214248Y214934D01*
X214776Y215239D01*
X215359Y215628D01*
X215969Y216072D01*
X215997Y216100D01*
X216053Y216127D01*
X216136Y216211D01*
X216247Y216322D01*
X216552Y216599D01*
X216886Y216960D01*
X217274Y217404D01*
X217663Y217960D01*
X218024Y218543D01*
X218301Y219181D01*
X221300D01*
Y199859D01*
D02*
G37*
G36*
X159640Y199859D02*
X155948D01*
Y213795D01*
X159640D01*
Y199859D01*
D02*
G37*
G36*
X118691Y219042D02*
X118996D01*
X119301Y219015D01*
X119662D01*
X120384Y218931D01*
X121134Y218848D01*
X121828Y218709D01*
X122133Y218626D01*
X122411Y218543D01*
X122439D01*
X122466Y218515D01*
X122633Y218432D01*
X122883Y218293D01*
X123216Y218126D01*
X123577Y217849D01*
X123938Y217543D01*
X124299Y217155D01*
X124632Y216682D01*
Y216655D01*
X124660Y216627D01*
X124715Y216544D01*
X124771Y216460D01*
X124909Y216183D01*
X125076Y215822D01*
X125215Y215378D01*
X125354Y214878D01*
X125465Y214295D01*
X125492Y213684D01*
Y213657D01*
Y213601D01*
Y213462D01*
X125465Y213323D01*
Y213129D01*
X125437Y212935D01*
X125326Y212435D01*
X125187Y211852D01*
X124965Y211269D01*
X124632Y210658D01*
X124437Y210380D01*
X124215Y210103D01*
X124188Y210075D01*
X124160Y210047D01*
X124076Y209964D01*
X123966Y209881D01*
X123854Y209770D01*
X123688Y209631D01*
X123493Y209492D01*
X123271Y209353D01*
X123022Y209187D01*
X122716Y209048D01*
X122411Y208909D01*
X122078Y208770D01*
X121689Y208631D01*
X121300Y208521D01*
X120884Y208409D01*
X120412Y208326D01*
X120440D01*
X120468Y208298D01*
X120634Y208187D01*
X120856Y208048D01*
X121134Y207854D01*
X121467Y207604D01*
X121800Y207354D01*
X122161Y207049D01*
X122466Y206716D01*
X122494Y206688D01*
X122633Y206549D01*
X122800Y206327D01*
X123049Y205994D01*
X123383Y205578D01*
X123549Y205300D01*
X123743Y205022D01*
X123966Y204717D01*
X124188Y204384D01*
X124437Y203995D01*
X124687Y203607D01*
X127047Y199859D01*
X122383D01*
X119607Y204023D01*
X119579Y204051D01*
X119551Y204134D01*
X119468Y204245D01*
X119357Y204384D01*
X119246Y204550D01*
X119107Y204773D01*
X118802Y205217D01*
X118441Y205716D01*
X118108Y206161D01*
X117802Y206577D01*
X117663Y206716D01*
X117552Y206855D01*
X117525Y206882D01*
X117469Y206938D01*
X117358Y207049D01*
X117219Y207188D01*
X117025Y207299D01*
X116831Y207438D01*
X116608Y207549D01*
X116386Y207660D01*
X116359D01*
X116275Y207688D01*
X116137Y207743D01*
X115914Y207771D01*
X115637Y207826D01*
X115304Y207854D01*
X114915Y207882D01*
X113666D01*
Y199859D01*
X109779D01*
Y219070D01*
X118441D01*
X118691Y219042D01*
D02*
G37*
G36*
X184182Y214073D02*
X184432Y214045D01*
X184737Y213990D01*
X185070Y213934D01*
X185431Y213851D01*
X185820Y213740D01*
X186208Y213601D01*
X186625Y213434D01*
X187041Y213212D01*
X187430Y212990D01*
X187819Y212713D01*
X188207Y212379D01*
X188540Y212019D01*
X188568Y211991D01*
X188624Y211935D01*
X188707Y211796D01*
X188818Y211630D01*
X188957Y211408D01*
X189096Y211158D01*
X189262Y210825D01*
X189429Y210464D01*
X189595Y210047D01*
X189762Y209576D01*
X189901Y209076D01*
X190040Y208493D01*
X190151Y207882D01*
X190234Y207216D01*
X190289Y206522D01*
Y205744D01*
X181072Y205744D01*
Y205716D01*
Y205661D01*
Y205578D01*
X181100Y205467D01*
X181128Y205189D01*
X181183Y204800D01*
X181294Y204412D01*
X181461Y203967D01*
X181655Y203551D01*
X181933Y203190D01*
X181961Y203162D01*
X182099Y203051D01*
X182266Y202913D01*
X182516Y202746D01*
X182821Y202579D01*
X183210Y202441D01*
X183626Y202330D01*
X184071Y202302D01*
X184209D01*
X184376Y202330D01*
X184570Y202357D01*
X184792Y202413D01*
X185042Y202496D01*
X185292Y202607D01*
X185514Y202774D01*
X185542Y202801D01*
X185625Y202857D01*
X185736Y202968D01*
X185847Y203135D01*
X186014Y203357D01*
X186153Y203607D01*
X186292Y203940D01*
X186430Y204301D01*
X190095Y203690D01*
Y203662D01*
X190067Y203607D01*
X190012Y203496D01*
X189956Y203357D01*
X189873Y203190D01*
X189790Y202996D01*
X189540Y202552D01*
X189234Y202052D01*
X188846Y201524D01*
X188374Y201052D01*
X187846Y200608D01*
X187819D01*
X187791Y200553D01*
X187680Y200525D01*
X187569Y200442D01*
X187430Y200358D01*
X187236Y200275D01*
X187041Y200192D01*
X186791Y200081D01*
X186236Y199886D01*
X185598Y199720D01*
X184848Y199609D01*
X184043Y199553D01*
X183876D01*
X183710Y199581D01*
X183460D01*
X183155Y199637D01*
X182794Y199692D01*
X182405Y199748D01*
X182016Y199859D01*
X181572Y199970D01*
X181128Y200136D01*
X180684Y200331D01*
X180240Y200553D01*
X179795Y200830D01*
X179379Y201136D01*
X179018Y201497D01*
X178657Y201913D01*
X178629Y201941D01*
X178601Y201996D01*
X178546Y202107D01*
X178435Y202246D01*
X178352Y202440D01*
X178241Y202663D01*
X178102Y202913D01*
X177991Y203218D01*
X177852Y203551D01*
X177741Y203912D01*
X177602Y204301D01*
X177519Y204745D01*
X177435Y205189D01*
X177352Y205661D01*
X177324Y206188D01*
X177297Y206716D01*
Y206744D01*
Y206855D01*
Y207049D01*
X177324Y207299D01*
X177352Y207577D01*
X177380Y207910D01*
X177435Y208271D01*
X177519Y208687D01*
X177741Y209548D01*
X177880Y209992D01*
X178046Y210464D01*
X178268Y210908D01*
X178518Y211324D01*
X178796Y211741D01*
X179101Y212129D01*
X179129Y212157D01*
X179184Y212213D01*
X179296Y212324D01*
X179434Y212435D01*
X179601Y212574D01*
X179823Y212740D01*
X180073Y212935D01*
X180350Y213129D01*
X180656Y213296D01*
X181017Y213490D01*
X181378Y213657D01*
X181794Y213795D01*
X182211Y213906D01*
X182682Y214017D01*
X183155Y214073D01*
X183654Y214101D01*
X183960D01*
X184182Y214073D01*
D02*
G37*
G36*
X-7188Y223124D02*
Y203907D01*
X-43084D01*
Y223124D01*
X-7188D01*
D02*
G37*
G36*
X418817Y203333D02*
X382921D01*
Y222550D01*
X418817D01*
Y203333D01*
D02*
G37*
%LPC*%
G36*
X361051Y144544D02*
X359563Y142344D01*
X361051D01*
Y144544D01*
D02*
G37*
G36*
X10013Y208830D02*
X8525Y206630D01*
X10013D01*
Y208830D01*
D02*
G37*
G36*
X22434Y99806D02*
X21565Y97430D01*
X23331D01*
X22434Y99806D01*
D02*
G37*
G36*
X248487Y-30129D02*
X248376Y-30140D01*
X248257Y-30155D01*
X248127Y-30188D01*
X248118Y-30192D01*
X248074Y-30207D01*
X248005Y-30236D01*
X247908Y-30271D01*
X247852Y-30304D01*
X247775Y-30337D01*
X247703Y-30379D01*
X247618Y-30417D01*
X247522Y-30473D01*
X247414Y-30525D01*
X246685Y-30945D01*
X248802Y-34612D01*
X249787Y-34044D01*
X249886Y-33976D01*
X249999Y-33911D01*
X250102Y-33830D01*
X250201Y-33762D01*
X250280Y-33695D01*
X250296Y-33686D01*
X250319Y-33651D01*
X250357Y-33608D01*
X250408Y-33547D01*
X250461Y-33473D01*
X250510Y-33391D01*
X250554Y-33302D01*
X250594Y-33204D01*
X250597Y-33192D01*
X250608Y-33154D01*
X250616Y-33095D01*
X250624Y-33016D01*
X250623Y-32921D01*
X250628Y-32800D01*
X250603Y-32665D01*
X250577Y-32509D01*
X250573Y-32501D01*
X250576Y-32489D01*
X250562Y-32465D01*
X250552Y-32428D01*
X250549Y-32387D01*
X250529Y-32334D01*
X250484Y-32200D01*
X250417Y-32047D01*
X250344Y-31865D01*
X250232Y-31652D01*
X250110Y-31423D01*
X250106Y-31415D01*
X250092Y-31391D01*
X250073Y-31359D01*
X250050Y-31319D01*
X250018Y-31263D01*
X249973Y-31203D01*
X249886Y-31072D01*
X249778Y-30921D01*
X249665Y-30762D01*
X249545Y-30629D01*
X249422Y-30508D01*
X249417Y-30500D01*
X249404Y-30496D01*
X249365Y-30465D01*
X249304Y-30415D01*
X249226Y-30354D01*
X249132Y-30301D01*
X249025Y-30246D01*
X248910Y-30194D01*
X248792Y-30156D01*
X248779Y-30153D01*
X248741Y-30143D01*
X248675Y-30138D01*
X248595Y-30131D01*
X248487Y-30129D01*
D02*
G37*
G36*
X301975Y1055D02*
X301879Y1054D01*
X301768Y1043D01*
X301538Y1017D01*
X301415Y988D01*
X301294Y940D01*
X301164Y887D01*
X301032Y821D01*
X300968Y784D01*
X300924Y748D01*
X300865Y703D01*
X300805Y658D01*
X300664Y533D01*
X300525Y368D01*
X300447Y280D01*
X300379Y177D01*
X300323Y70D01*
X300264Y-50D01*
X300217Y-173D01*
X300188Y-307D01*
X300185Y-320D01*
X300186Y-340D01*
X300176Y-378D01*
X300175Y-432D01*
X300175Y-507D01*
X300176Y-581D01*
X300177Y-676D01*
X300188Y-788D01*
X300203Y-907D01*
X300224Y-1034D01*
X300261Y-1173D01*
X300303Y-1319D01*
X300362Y-1477D01*
X300426Y-1643D01*
X300510Y-1808D01*
X300604Y-1989D01*
X300609Y-1997D01*
X300627Y-2029D01*
X300655Y-2077D01*
X300700Y-2136D01*
X300754Y-2212D01*
X300818Y-2303D01*
X300889Y-2390D01*
X300970Y-2493D01*
X301152Y-2697D01*
X301366Y-2883D01*
X301483Y-2976D01*
X301604Y-3055D01*
X301736Y-3118D01*
X301864Y-3172D01*
X301876Y-3176D01*
X301902Y-3183D01*
X301940Y-3193D01*
X301985Y-3198D01*
X302049Y-3215D01*
X302128Y-3223D01*
X302212Y-3238D01*
X302307Y-3237D01*
X302514Y-3245D01*
X302748Y-3206D01*
X302871Y-3178D01*
X302997Y-3137D01*
X303126Y-3084D01*
X303251Y-3023D01*
X303315Y-2986D01*
X303358Y-2950D01*
X303410Y-2910D01*
X303469Y-2865D01*
X303598Y-2737D01*
X303742Y-2579D01*
X303807Y-2488D01*
X303880Y-2393D01*
X303936Y-2286D01*
X303995Y-2166D01*
X304041Y-2043D01*
X304070Y-1909D01*
X304074Y-1896D01*
X304072Y-1876D01*
X304083Y-1838D01*
X304083Y-1784D01*
X304091Y-1705D01*
X304086Y-1622D01*
X304085Y-1527D01*
X304074Y-1416D01*
X304058Y-1297D01*
X304038Y-1169D01*
X304009Y-1026D01*
X303962Y-872D01*
X303908Y-722D01*
X303844Y-556D01*
X303755Y-383D01*
X303661Y-202D01*
X303657Y-194D01*
X303638Y-162D01*
X303610Y-114D01*
X303561Y-47D01*
X303507Y29D01*
X303448Y112D01*
X303380Y212D01*
X303296Y302D01*
X303113Y506D01*
X302903Y705D01*
X302785Y797D01*
X302669Y869D01*
X302537Y932D01*
X302409Y986D01*
X302397Y989D01*
X302380Y1001D01*
X302346Y1003D01*
X302296Y1016D01*
X302225Y1029D01*
X302153Y1041D01*
X302074Y1049D01*
X301975Y1055D01*
D02*
G37*
G36*
X293805Y-3693D02*
X293694Y-3704D01*
X293575Y-3720D01*
X293444Y-3752D01*
X293436Y-3757D01*
X293392Y-3772D01*
X293323Y-3801D01*
X293226Y-3836D01*
X293170Y-3868D01*
X293093Y-3902D01*
X293021Y-3943D01*
X292936Y-3982D01*
X292840Y-4037D01*
X292731Y-4089D01*
X292003Y-4510D01*
X294120Y-8177D01*
X295105Y-7608D01*
X295204Y-7540D01*
X295317Y-7476D01*
X295419Y-7395D01*
X295519Y-7327D01*
X295598Y-7260D01*
X295614Y-7251D01*
X295636Y-7216D01*
X295675Y-7172D01*
X295725Y-7111D01*
X295779Y-7038D01*
X295828Y-6956D01*
X295872Y-6866D01*
X295912Y-6769D01*
X295915Y-6756D01*
X295926Y-6718D01*
X295934Y-6660D01*
X295942Y-6581D01*
X295940Y-6485D01*
X295946Y-6365D01*
X295921Y-6230D01*
X295895Y-6074D01*
X295891Y-6066D01*
X295894Y-6053D01*
X295880Y-6029D01*
X295870Y-5993D01*
X295867Y-5951D01*
X295847Y-5899D01*
X295802Y-5765D01*
X295735Y-5611D01*
X295662Y-5429D01*
X295550Y-5217D01*
X295428Y-4988D01*
X295424Y-4980D01*
X295410Y-4956D01*
X295391Y-4924D01*
X295368Y-4884D01*
X295336Y-4827D01*
X295291Y-4768D01*
X295204Y-4637D01*
X295096Y-4486D01*
X294982Y-4327D01*
X294863Y-4193D01*
X294739Y-4072D01*
X294735Y-4064D01*
X294722Y-4061D01*
X294683Y-4030D01*
X294622Y-3980D01*
X294544Y-3918D01*
X294450Y-3866D01*
X294343Y-3810D01*
X294228Y-3759D01*
X294109Y-3721D01*
X294097Y-3717D01*
X294059Y-3707D01*
X293992Y-3703D01*
X293913Y-3695D01*
X293805Y-3693D01*
D02*
G37*
G36*
X135126Y211269D02*
X135070D01*
X134904Y211241D01*
X134654Y211213D01*
X134376Y211130D01*
X134015Y211019D01*
X133654Y210825D01*
X133294Y210575D01*
X132933Y210214D01*
X132905Y210158D01*
X132794Y210020D01*
X132655Y209770D01*
X132516Y209437D01*
X132350Y208992D01*
X132211Y208465D01*
X132100Y207826D01*
X132072Y207105D01*
Y207077D01*
Y207021D01*
Y206882D01*
Y206744D01*
X132100Y206549D01*
Y206355D01*
X132155Y205883D01*
X132211Y205356D01*
X132322Y204800D01*
X132488Y204301D01*
X132572Y204079D01*
X132683Y203884D01*
Y203856D01*
X132738Y203829D01*
X132849Y203662D01*
X133044Y203440D01*
X133321Y203190D01*
X133682Y202913D01*
X134099Y202690D01*
X134598Y202524D01*
X134876Y202496D01*
X135154Y202468D01*
X135209D01*
X135376Y202496D01*
X135598Y202524D01*
X135903Y202607D01*
X136236Y202718D01*
X136597Y202913D01*
X136958Y203162D01*
X137319Y203523D01*
X137347Y203579D01*
X137458Y203718D01*
X137597Y203967D01*
X137763Y204328D01*
X137930Y204773D01*
X138069Y205328D01*
X138180Y205994D01*
X138208Y206744D01*
Y206771D01*
Y206855D01*
Y206966D01*
Y207132D01*
X138180Y207327D01*
X138152Y207577D01*
X138096Y208076D01*
X137985Y208659D01*
X137847Y209214D01*
X137625Y209770D01*
X137486Y209992D01*
X137319Y210214D01*
X137291Y210270D01*
X137153Y210380D01*
X136986Y210547D01*
X136736Y210741D01*
X136403Y210936D01*
X136042Y211102D01*
X135598Y211213D01*
X135126Y211269D01*
D02*
G37*
G36*
X118108Y215822D02*
X113666D01*
Y210936D01*
X117441D01*
X117997Y210963D01*
X118580Y210991D01*
X119163Y211019D01*
X119412Y211047D01*
X119635Y211075D01*
X119857Y211130D01*
X119995Y211158D01*
X120023D01*
X120106Y211213D01*
X120245Y211269D01*
X120384Y211352D01*
X120745Y211602D01*
X120912Y211769D01*
X121078Y211963D01*
X121106Y211991D01*
X121134Y212074D01*
X121217Y212185D01*
X121300Y212352D01*
X121356Y212574D01*
X121439Y212824D01*
X121467Y213101D01*
X121495Y213407D01*
Y213462D01*
Y213573D01*
X121467Y213740D01*
X121439Y213962D01*
X121356Y214212D01*
X121273Y214462D01*
X121134Y214739D01*
X120967Y214961D01*
X120939Y214989D01*
X120884Y215072D01*
X120745Y215156D01*
X120578Y215294D01*
X120384Y215433D01*
X120134Y215544D01*
X119829Y215655D01*
X119496Y215739D01*
X119468D01*
X119385Y215766D01*
X119218D01*
X118968Y215794D01*
X118357D01*
X118108Y215822D01*
D02*
G37*
G36*
X183876Y211269D02*
X183682D01*
X183460Y211213D01*
X183182Y211158D01*
X182877Y211047D01*
X182544Y210908D01*
X182211Y210686D01*
X181905Y210380D01*
X181877Y210353D01*
X181794Y210214D01*
X181655Y210020D01*
X181516Y209742D01*
X181350Y209409D01*
X181239Y208992D01*
X181156Y208521D01*
X181128Y207993D01*
X186625Y207993D01*
Y208021D01*
Y208076D01*
Y208132D01*
X186597Y208243D01*
X186569Y208548D01*
X186514Y208881D01*
X186403Y209270D01*
X186264Y209687D01*
X186042Y210075D01*
X185792Y210408D01*
X185764Y210436D01*
X185653Y210547D01*
X185487Y210686D01*
X185264Y210853D01*
X184987Y210991D01*
X184654Y211130D01*
X184293Y211241D01*
X183876Y211269D01*
D02*
G37*
G36*
X-35025Y219314D02*
X-35192D01*
X-35475Y219298D01*
X-35742Y219281D01*
X-36258Y219198D01*
X-36692Y219064D01*
X-36892Y218998D01*
X-37075Y218914D01*
X-37241Y218848D01*
X-37375Y218764D01*
X-37508Y218698D01*
X-37608Y218648D01*
X-37691Y218581D01*
X-37741Y218548D01*
X-37775Y218531D01*
X-37791Y218514D01*
X-37975Y218348D01*
X-38141Y218181D01*
X-38291Y217981D01*
X-38424Y217765D01*
X-38624Y217331D01*
X-38791Y216915D01*
X-38841Y216698D01*
X-38891Y216515D01*
X-38941Y216348D01*
X-38958Y216198D01*
X-38991Y216065D01*
Y215982D01*
X-39008Y215915D01*
Y215898D01*
X-36808Y215682D01*
X-36775Y216015D01*
X-36708Y216298D01*
X-36641Y216548D01*
X-36558Y216731D01*
X-36492Y216882D01*
X-36425Y216981D01*
X-36375Y217048D01*
X-36358Y217065D01*
X-36192Y217198D01*
X-36008Y217298D01*
X-35825Y217381D01*
X-35642Y217431D01*
X-35492Y217465D01*
X-35359Y217481D01*
X-35242D01*
X-34992Y217465D01*
X-34775Y217415D01*
X-34592Y217348D01*
X-34425Y217281D01*
X-34309Y217215D01*
X-34209Y217148D01*
X-34159Y217098D01*
X-34142Y217081D01*
X-34009Y216915D01*
X-33909Y216731D01*
X-33842Y216548D01*
X-33792Y216365D01*
X-33759Y216198D01*
X-33742Y216048D01*
Y215965D01*
Y215948D01*
Y215932D01*
X-33759Y215682D01*
X-33809Y215448D01*
X-33892Y215215D01*
X-33976Y215015D01*
X-34059Y214832D01*
X-34142Y214699D01*
X-34192Y214615D01*
X-34209Y214582D01*
X-34276Y214482D01*
X-34375Y214365D01*
X-34509Y214216D01*
X-34642Y214082D01*
X-34942Y213766D01*
X-35242Y213449D01*
X-35542Y213149D01*
X-35675Y213016D01*
X-35808Y212916D01*
X-35908Y212816D01*
X-35975Y212749D01*
X-36025Y212699D01*
X-36042Y212682D01*
X-36375Y212366D01*
X-36675Y212066D01*
X-36958Y211783D01*
X-37208Y211533D01*
X-37441Y211283D01*
X-37641Y211050D01*
X-37825Y210850D01*
X-37975Y210650D01*
X-38108Y210483D01*
X-38224Y210333D01*
X-38324Y210217D01*
X-38391Y210100D01*
X-38458Y210033D01*
X-38491Y209967D01*
X-38524Y209933D01*
Y209917D01*
X-38741Y209533D01*
X-38908Y209133D01*
X-39041Y208767D01*
X-39141Y208434D01*
X-39207Y208134D01*
X-39224Y208017D01*
X-39241Y207917D01*
X-39258Y207834D01*
X-39274Y207767D01*
Y209917D01*
Y207717D01*
X-31526D01*
Y209767D01*
X-35925D01*
X-35792Y209983D01*
X-35642Y210166D01*
X-35575Y210250D01*
X-35525Y210317D01*
X-35492Y210350D01*
X-35475Y210366D01*
X-35408Y210433D01*
X-35342Y210516D01*
X-35142Y210700D01*
X-34925Y210916D01*
X-34709Y211133D01*
X-34492Y211333D01*
X-34309Y211500D01*
X-34242Y211566D01*
X-34192Y211616D01*
X-34159Y211633D01*
X-34142Y211649D01*
X-33776Y211999D01*
X-33476Y212283D01*
X-33226Y212549D01*
X-33026Y212749D01*
X-32876Y212916D01*
X-32776Y213032D01*
X-32709Y213116D01*
X-32692Y213132D01*
X-32476Y213416D01*
X-32293Y213682D01*
X-32143Y213932D01*
X-32026Y214149D01*
X-31926Y214332D01*
X-31859Y214482D01*
X-31826Y214565D01*
X-31809Y214599D01*
X-31709Y214865D01*
X-31643Y215132D01*
X-31593Y215382D01*
X-31560Y215615D01*
X-31543Y215798D01*
X-31526Y215948D01*
Y214332D01*
Y216082D01*
X-31543Y216332D01*
X-31576Y216581D01*
X-31609Y216815D01*
X-31676Y217031D01*
X-31843Y217415D01*
X-32009Y217748D01*
X-32109Y217898D01*
X-32193Y218015D01*
X-32276Y218131D01*
X-32359Y218214D01*
X-32426Y218281D01*
X-32459Y218348D01*
X-32493Y218364D01*
X-32509Y218381D01*
X-32692Y218548D01*
X-32909Y218698D01*
X-33109Y218814D01*
X-33342Y218914D01*
X-33776Y219081D01*
X-34209Y219198D01*
X-34409Y219231D01*
X-34592Y219264D01*
X-34759Y219281D01*
X-34909Y219298D01*
X-35025Y219314D01*
D02*
G37*
G36*
X-23545Y219298D02*
X-25411D01*
X-30410Y211949D01*
Y211966D01*
Y210033D01*
X-25678D01*
Y207717D01*
X-30410D01*
D01*
X-22112D01*
X-23545D01*
Y210033D01*
X-22112D01*
Y211966D01*
X-23545D01*
Y219298D01*
D02*
G37*
G36*
X-10998Y219247D02*
X-13481D01*
X-16297Y210716D01*
X-19229Y219247D01*
X-21745D01*
X-17613Y207717D01*
X-21745D01*
X-10998D01*
D01*
X-15097D01*
X-10998Y219247D01*
D02*
G37*
%LPD*%
G36*
X-25678Y211966D02*
X-28360D01*
X-25678Y215932D01*
Y211966D01*
D02*
G37*
%LPC*%
G36*
X394479Y218740D02*
X386731D01*
D01*
X390813D01*
X390530Y218723D01*
X390264Y218707D01*
X389747Y218623D01*
X389314Y218490D01*
X389114Y218423D01*
X388931Y218340D01*
X388764Y218274D01*
X388631Y218190D01*
X388498Y218123D01*
X388397Y218074D01*
X388314Y218007D01*
X388264Y217974D01*
X388231Y217957D01*
X388214Y217940D01*
X388031Y217774D01*
X387864Y217607D01*
X387714Y217407D01*
X387581Y217190D01*
X387381Y216757D01*
X387215Y216341D01*
X387164Y216124D01*
X387114Y215941D01*
X387065Y215774D01*
X387048Y215624D01*
X387015Y215491D01*
Y215408D01*
X386998Y215341D01*
Y215324D01*
X389197Y215108D01*
X389231Y215441D01*
X389297Y215724D01*
X389364Y215974D01*
X389447Y216157D01*
X389514Y216307D01*
X389580Y216407D01*
X389631Y216474D01*
X389647Y216491D01*
X389814Y216624D01*
X389997Y216724D01*
X390180Y216807D01*
X390364Y216857D01*
X390514Y216891D01*
X390647Y216907D01*
X390764D01*
X391013Y216891D01*
X391230Y216840D01*
X391413Y216774D01*
X391580Y216707D01*
X391697Y216641D01*
X391797Y216574D01*
X391847Y216524D01*
X391863Y216507D01*
X391997Y216341D01*
X392096Y216157D01*
X392163Y215974D01*
X392213Y215791D01*
X392247Y215624D01*
X392263Y215474D01*
Y215391D01*
Y215374D01*
Y215358D01*
X392247Y215108D01*
X392197Y214874D01*
X392113Y214641D01*
X392030Y214441D01*
X391947Y214258D01*
X391863Y214125D01*
X391813Y214041D01*
X391797Y214008D01*
X391730Y213908D01*
X391630Y213791D01*
X391497Y213641D01*
X391363Y213508D01*
X391063Y213191D01*
X390764Y212875D01*
X390464Y212575D01*
X390330Y212442D01*
X390197Y212342D01*
X390097Y212242D01*
X390030Y212175D01*
X389980Y212125D01*
X389964Y212108D01*
X389631Y211792D01*
X389331Y211492D01*
X389047Y211209D01*
X388797Y210959D01*
X388564Y210709D01*
X388364Y210476D01*
X388181Y210275D01*
X388031Y210076D01*
X387898Y209909D01*
X387781Y209759D01*
X387681Y209642D01*
X387614Y209526D01*
X387548Y209459D01*
X387514Y209392D01*
X387481Y209359D01*
Y209342D01*
X387265Y208959D01*
X387098Y208559D01*
X386964Y208193D01*
X386865Y207859D01*
X386798Y207560D01*
X386781Y207443D01*
X386765Y207343D01*
X386748Y207260D01*
X386731Y207193D01*
Y209342D01*
Y207143D01*
X394479D01*
Y209193D01*
X390080D01*
X390214Y209409D01*
X390364Y209592D01*
X390430Y209676D01*
X390480Y209742D01*
X390514Y209776D01*
X390530Y209792D01*
X390597Y209859D01*
X390664Y209942D01*
X390863Y210126D01*
X391080Y210342D01*
X391297Y210559D01*
X391513Y210759D01*
X391697Y210925D01*
X391763Y210992D01*
X391813Y211042D01*
X391847Y211059D01*
X391863Y211075D01*
X392230Y211425D01*
X392530Y211709D01*
X392780Y211975D01*
X392980Y212175D01*
X393130Y212342D01*
X393230Y212458D01*
X393296Y212542D01*
X393313Y212558D01*
X393530Y212841D01*
X393713Y213108D01*
X393863Y213358D01*
X393979Y213575D01*
X394079Y213758D01*
X394146Y213908D01*
X394179Y213991D01*
X394196Y214025D01*
X394296Y214291D01*
X394363Y214558D01*
X394413Y214808D01*
X394446Y215041D01*
X394463Y215224D01*
X394479Y215374D01*
Y213758D01*
Y215508D01*
X394463Y215758D01*
X394429Y216007D01*
X394396Y216241D01*
X394329Y216457D01*
X394163Y216840D01*
X393996Y217174D01*
X393896Y217324D01*
X393813Y217440D01*
X393730Y217557D01*
X393646Y217640D01*
X393579Y217707D01*
X393546Y217774D01*
X393513Y217790D01*
X393496Y217807D01*
X393313Y217974D01*
X393096Y218123D01*
X392896Y218240D01*
X392663Y218340D01*
X392230Y218507D01*
X391797Y218623D01*
X391597Y218657D01*
X391413Y218690D01*
X391247Y218707D01*
X391097Y218723D01*
X390980Y218740D01*
X394479D01*
D02*
G37*
G36*
X403894Y218723D02*
X395596D01*
X400594D01*
X395596Y211375D01*
Y211392D01*
Y209459D01*
X400328D01*
Y207143D01*
X402461D01*
Y209459D01*
X403894D01*
Y211392D01*
X402461D01*
Y218723D01*
X403894D01*
D01*
D02*
G37*
G36*
X415007Y218673D02*
X404260D01*
D01*
X408392Y207143D01*
X410908D01*
X415007Y218673D01*
D02*
G37*
%LPD*%
G36*
X400328Y211392D02*
X397645D01*
X400328Y215358D01*
Y211392D01*
D02*
G37*
G36*
X409709Y210142D02*
X406776Y218673D01*
X412525D01*
X409709Y210142D01*
D02*
G37*
D10*
X-50294Y201517D02*
G03*
X-49387Y149513I528J-26001D01*
G01*
X409213Y149511D02*
G03*
X408306Y201515I-528J26001D01*
G01*
X7835Y287941D02*
G03*
X7835Y287941I-1270J0D01*
G01*
Y107031D02*
G03*
X7835Y107031I-1270J0D01*
G01*
X25002Y353841D02*
G03*
X25004Y353548I-24998J-293D01*
G01*
X378386Y353184D02*
G03*
X378387Y352890I-24998J-293D01*
G01*
X24563Y30D02*
G03*
X24564Y-263I-24998J-293D01*
G01*
X378822Y527D02*
G03*
X378824Y234I-24998J-293D01*
G01*
X-58617Y195837D02*
X20123D01*
X-68777Y185677D02*
X-58617Y195837D01*
X-68777Y166627D02*
Y185677D01*
Y166627D02*
X-58617Y156467D01*
X20123D01*
Y195837D01*
X-50294Y201517D02*
X26673D01*
X-49387Y149513D02*
X26673Y149518D01*
Y201517D01*
X338796Y155191D02*
X417536D01*
X427696Y165351D01*
Y184401D01*
X417536Y194561D02*
X427696Y184401D01*
X338796Y194561D02*
X417536D01*
X338796Y155191D02*
Y194561D01*
X332246Y149511D02*
X409213D01*
X332246Y201510D02*
X408306Y201515D01*
X332246Y149511D02*
Y201510D01*
X-18634Y300802D02*
X245D01*
Y282863D02*
Y300802D01*
Y270362D02*
Y272241D01*
Y257863D02*
Y259741D01*
X-18634Y229301D02*
X245D01*
Y247240D01*
X-42755Y239363D02*
Y289802D01*
X-18634Y119893D02*
X245D01*
Y101954D02*
Y119893D01*
Y89453D02*
Y91331D01*
Y76954D02*
Y78831D01*
X-18634Y48391D02*
X245Y48391D01*
X245Y66330D02*
X245Y48391D01*
X-42755Y58453D02*
Y108892D01*
X158294Y-50382D02*
X164981D01*
X158294Y-97382D02*
Y-50382D01*
Y-97382D02*
X203294D01*
Y-50382D01*
X196605D02*
X203294D01*
D11*
X262561Y296234D02*
G03*
X262561Y296234I-1501J0D01*
G01*
X380070Y311211D02*
G03*
X380070Y311211I-1501J0D01*
G01*
X36559Y295156D02*
G03*
X36559Y295156I-1501J0D01*
G01*
X313762Y182001D02*
G03*
X313743Y182019I1052J1070D01*
G01*
X146447Y361732D02*
G03*
X146447Y361732I-1501J0D01*
G01*
X206937Y296234D02*
G03*
X206937Y296234I-1501J0D01*
G01*
X206653Y362271D02*
G03*
X206653Y362271I-1501J0D01*
G01*
D12*
X109589Y75359D02*
G03*
X109589Y75359I-1250J0D01*
G01*
D13*
X333148Y208297D02*
G03*
X342205Y217355I-142J9199D01*
G01*
X324237Y235350D02*
G03*
X315153Y226265I213J-9298D01*
G01*
X328204Y188676D02*
G03*
X315356Y188676I-6424J-6725D01*
G01*
X315375Y163247D02*
G03*
X328185Y163247I6405J6605D01*
G01*
X49070Y89561D02*
G03*
X61879Y89561I6405J6605D01*
G01*
X61898Y114990D02*
G03*
X49051Y114990I-6424J-6725D01*
G01*
X316402Y190048D02*
G03*
X325487Y199132I-213J9298D01*
G01*
X307492Y217100D02*
G03*
X298435Y208043I142J-9199D01*
G01*
X35546Y118302D02*
Y129302D01*
X27046Y118302D02*
X35546Y118302D01*
X4546Y129302D02*
X4546Y118302D01*
X13046Y118302D01*
X190346Y279939D02*
X200807D01*
X190346Y262939D02*
X200807D01*
X104482Y55075D02*
X104732Y55075D01*
X86732Y55075D02*
X86982D01*
X86732D02*
X86732Y33075D01*
X104482D02*
X104732Y33075D01*
X86732Y33075D02*
X86982Y33075D01*
X104732D02*
X104732Y55075D01*
X64114Y59571D02*
X64114Y70032D01*
X47114Y70032D02*
X47114Y59571D01*
X180308Y130989D02*
X191658D01*
X160958Y146789D02*
X160958Y130989D01*
X191658Y130989D02*
X191658Y146789D01*
X160958Y130989D02*
X172308D01*
X180308Y146789D02*
X191658Y146789D01*
X160958Y146789D02*
X172308Y146789D01*
X191658Y130989D02*
X196308Y138889D01*
X191658Y146789D02*
X196308Y138889D01*
X409609Y106786D02*
X409609Y88786D01*
X378909Y106786D02*
X409609Y106786D01*
X378909Y88786D02*
Y106786D01*
Y88786D02*
X409609Y88786D01*
X315187Y226264D02*
X333148Y208304D01*
X324238Y235315D02*
X342199Y217354D01*
X299631Y262938D02*
X310092D01*
X299631Y279939D02*
X310092Y279939D01*
X88378Y260107D02*
X98839Y260107D01*
X88378Y277107D02*
X98839Y277107D01*
X328180Y163252D02*
X328180Y188652D01*
X315380Y163251D02*
X315380Y188652D01*
X49074Y89565D02*
X49075Y114965D01*
X61875Y114965D02*
X61875Y89565D01*
X64471Y277451D02*
X64471Y266990D01*
X47471Y277451D02*
X47471Y266990D01*
X244846Y267161D02*
X244846Y277622D01*
X227846D02*
X227846Y267161D01*
X275952Y267754D02*
X275952Y278215D01*
X258952D02*
X258952Y267754D01*
X267801Y222292D02*
X270629Y219464D01*
X264972Y219464D02*
X267801Y222292D01*
X223253Y177744D02*
X226081Y174916D01*
X223253Y177744D02*
X226081Y180573D01*
X264972Y136025D02*
X267801Y133197D01*
X270629Y136025D01*
X309520Y174916D02*
X312348Y177744D01*
X309520Y180573D02*
X312348Y177744D01*
X298441Y208043D02*
X316402Y190082D01*
X307492Y217094D02*
X325452Y199133D01*
X309194Y-4580D02*
X321894Y-26577D01*
X255902Y-64677D02*
X321894Y-26577D01*
X243202Y-42680D02*
X255902Y-64677D01*
X243202Y-42680D02*
X309194Y-4580D01*
X191534Y130845D02*
X196184Y122945D01*
X191534Y115045D02*
X196184Y122945D01*
X160834Y130845D02*
X172184Y130845D01*
X180184Y130845D02*
X191534Y130845D01*
X160834Y115045D02*
X172184Y115045D01*
X191534Y115045D02*
X191534Y130845D01*
X160834Y115045D02*
Y130845D01*
X180184Y115045D02*
X191534D01*
X89509Y408133D02*
X86677Y410965D01*
X81012D01*
X78179Y408133D01*
Y396803D01*
X81012Y393971D01*
X86677D01*
X89509Y396803D01*
X148750Y411373D02*
Y394379D01*
X157247D01*
X160080Y397211D01*
Y400043D01*
X157247Y402876D01*
X148750D01*
X157247D01*
X160080Y405708D01*
Y408541D01*
X157247Y411373D01*
X148750D01*
D14*
X97720Y-38131D02*
G03*
X93257Y-42593I0J-4463D01*
G01*
X102185D02*
G03*
X97720Y-38131I-4465J-3D01*
G01*
X222061Y-45556D02*
Y-30062D01*
X210631Y-45556D02*
Y-30062D01*
X270502Y122111D02*
X273669Y125278D01*
X276836Y122111D01*
X322588Y76360D02*
X322588Y70026D01*
X322588Y76360D02*
X325755Y73193D01*
X322588Y70026D02*
X325755Y73193D01*
X221584Y73193D02*
X224751Y76359D01*
X221584Y73193D02*
X224750Y70026D01*
X270502Y24274D02*
X273669Y21107D01*
X276836Y24274D01*
X286830Y235357D02*
X286830Y250851D01*
X298260Y250851D02*
X298260Y235357D01*
X192814Y248824D02*
X203770Y237868D01*
X200896Y256906D02*
X211852Y245950D01*
X149570Y229974D02*
X160526Y219018D01*
X157652Y238057D02*
X168608Y227101D01*
X76402Y11440D02*
X117608Y11440D01*
X76592Y-42482D02*
X93496Y-42497D01*
X76592Y-42482D02*
X76755Y-42474D01*
X116755Y-42497D02*
X117027Y-42474D01*
X102424Y-42497D02*
X116755Y-42497D01*
X41628Y200228D02*
X41628Y187286D01*
X41628Y200228D02*
X55589Y214190D01*
X109151Y214189D01*
X109085Y187505D02*
X109151Y214189D01*
X41633Y160616D02*
X41767Y173570D01*
X41633Y160616D02*
X55578Y146671D01*
X109146Y146671D01*
X108946Y173035D02*
X109146Y146671D01*
X131250Y53324D02*
X158174Y53324D01*
X158174Y42656D02*
X158174Y53324D01*
X131250Y53324D02*
X131251Y42656D01*
X158174Y42656D01*
D15*
X241120Y-21444D02*
X244422D01*
X241120D02*
Y-20555D01*
X244422D01*
Y-21444D02*
Y-20555D01*
X241120Y-17507D02*
Y-16618D01*
Y-17507D02*
X244422D01*
X244422Y-16618D01*
X241120Y-16618D02*
X244422Y-16618D01*
X238665Y-40745D02*
X238665Y-41634D01*
X234093D02*
Y-40745D01*
Y-41634D02*
X238665D01*
X234093Y-40745D02*
X238665D01*
X234093Y-44047D02*
X238665D01*
X234093Y-43158D02*
X238665D01*
X238665Y-44047D02*
X238665Y-43158D01*
X234093D02*
X234093Y-44047D01*
X229973Y-31291D02*
X233275Y-31291D01*
X229973Y-30402D02*
X229973Y-31291D01*
X229973Y-30402D02*
X233275D01*
Y-31291D02*
Y-30402D01*
X229973Y-26465D02*
X229973Y-27354D01*
X233275D01*
X233275Y-26465D01*
X229973D02*
X233275D01*
X235246Y4264D02*
X238548Y4264D01*
X235246Y4264D02*
X235246Y5153D01*
X238548Y5153D01*
X238548Y4264D01*
X235246Y8201D02*
X235246Y9090D01*
X235246Y8201D02*
X238548Y8201D01*
X238548Y9090D02*
X238548Y8201D01*
X235246Y9090D02*
X238548D01*
X282685Y133038D02*
X283314Y133666D01*
X285918Y129805D02*
X286546Y130434D01*
X283314Y133666D02*
X286546Y130434D01*
X282685Y133038D02*
X285918Y129805D01*
X285020Y135373D02*
X288253Y132140D01*
X284391Y134744D02*
X287624Y131511D01*
X284391Y134744D02*
X285020Y135373D01*
X287624Y131511D02*
X288253Y132140D01*
X119333Y109901D02*
X119333Y106599D01*
X119333Y109901D02*
X120222Y109901D01*
Y106599D02*
Y109901D01*
X119333Y106599D02*
X120222Y106599D01*
X123270Y109901D02*
X124159Y109901D01*
X123270Y106599D02*
X123270Y109901D01*
X123270Y106599D02*
X124158Y106599D01*
X124159Y109901D01*
X140984Y-15717D02*
X140984Y-14828D01*
X145556Y-15717D02*
X145556Y-14828D01*
X140984Y-14828D02*
X145556Y-14828D01*
X140984Y-15717D02*
X145556Y-15717D01*
X140984Y-12415D02*
X145556Y-12414D01*
X140984Y-13304D02*
X145556Y-13304D01*
X140984Y-12415D02*
X140984Y-13304D01*
X145556Y-13304D02*
Y-12414D01*
X93776Y-46464D02*
X97078Y-46464D01*
X97078Y-47353D01*
X93776Y-47353D02*
X97078Y-47353D01*
X93776Y-47353D02*
X93776Y-46464D01*
X97078Y-51290D02*
X97078Y-50401D01*
X93776Y-50401D02*
X97078Y-50401D01*
X93776Y-50401D02*
X93776Y-51290D01*
X97078Y-51290D01*
X113610Y31625D02*
Y32514D01*
X109038Y31625D02*
Y32514D01*
Y31625D02*
X113610D01*
X109038Y32514D02*
X113610D01*
X109038Y29212D02*
X113610D01*
X109038Y30101D02*
X113610D01*
Y29212D02*
Y30101D01*
X109038Y29212D02*
Y30101D01*
X123484Y31803D02*
Y32692D01*
X118912Y31803D02*
Y32692D01*
Y31803D02*
X123484D01*
X118912Y32692D02*
X123484D01*
X118912Y29390D02*
X123484D01*
X118912Y30279D02*
X123484D01*
Y29390D02*
Y30279D01*
X118912Y29390D02*
Y30279D01*
X96281Y71231D02*
X97170Y71231D01*
X96281Y75803D02*
X97170D01*
X96281Y71231D02*
Y75803D01*
X97170Y71231D02*
X97170Y75803D01*
X93868Y71231D02*
Y75803D01*
X94757Y71231D02*
X94757Y75803D01*
X93868Y71231D02*
X94757Y71231D01*
X93868Y75803D02*
X94757Y75803D01*
X96049Y62003D02*
X96938D01*
X96049Y66575D02*
X96938D01*
X96049Y62003D02*
Y66575D01*
X96938Y62003D02*
Y66575D01*
X93636Y62003D02*
Y66575D01*
X94525Y62003D02*
Y66575D01*
X93636Y62003D02*
X94525D01*
X93636Y66575D02*
X94525D01*
X89598Y117112D02*
Y120414D01*
X88708Y117112D02*
X89598Y117112D01*
X88708Y117112D02*
Y120414D01*
X89598Y120414D01*
X84771Y117112D02*
X85660D01*
Y120414D01*
X84771D02*
X85660D01*
X84771Y117112D02*
Y120414D01*
X98278Y117181D02*
X98278Y120483D01*
X99167Y120483D01*
X99167Y117182D01*
X98278Y117181D02*
X99167Y117182D01*
X102215Y120484D02*
X103104Y120483D01*
X102215Y117181D02*
X102215Y120484D01*
X102215Y117181D02*
X103104D01*
X103104Y120483D02*
X103104Y117181D01*
X107762Y118249D02*
X107762Y117360D01*
X112334Y117360D02*
Y118249D01*
X107762Y118249D02*
X112334Y118249D01*
X107762Y117360D02*
X112334Y117360D01*
X107762Y120662D02*
X112334Y120662D01*
X107762Y119773D02*
X112334Y119773D01*
X107762Y120662D02*
X107762Y119773D01*
X112334Y119773D02*
X112334Y120662D01*
X134833Y162841D02*
Y166143D01*
X135723D01*
Y162841D02*
Y166143D01*
X134833Y162841D02*
X135723D01*
X138771Y166143D02*
X139660Y166143D01*
X138771Y162841D02*
Y166143D01*
Y162841D02*
X139660Y162841D01*
Y166143D01*
X145707Y149145D02*
X149009Y149145D01*
Y148256D02*
Y149145D01*
X145707Y148256D02*
X149009Y148256D01*
X145707Y149145D02*
X145707Y148256D01*
X149009Y145208D02*
X149009Y144319D01*
X145707Y145208D02*
X149009Y145208D01*
X145707Y145208D02*
X145707Y144319D01*
X149009Y144319D01*
X145643Y121933D02*
X145643Y125235D01*
X144754Y121933D02*
X145643Y121933D01*
X144754Y125235D02*
X144754Y121933D01*
X144754Y125235D02*
X145643D01*
X140817Y121933D02*
X141706Y121933D01*
X141706Y125235D02*
X141706Y121933D01*
X140817Y125235D02*
X141706Y125235D01*
X140817Y121933D02*
X140817Y125235D01*
X136369Y125235D02*
X136369Y124346D01*
X131797Y124346D02*
X131797Y125235D01*
X131797Y124346D02*
X136369Y124346D01*
X131797Y125235D02*
X136369Y125235D01*
X131797Y121933D02*
X136369D01*
X131797Y122822D02*
X136369Y122822D01*
X136369Y121933D01*
X131797D02*
Y122822D01*
X198520Y107642D02*
Y108531D01*
X203092Y108531D02*
X203092Y107642D01*
X198520Y108531D02*
X203092Y108531D01*
X198520Y107642D02*
X203092Y107642D01*
X198520Y110944D02*
X203092D01*
X198520Y110055D02*
X203092Y110055D01*
X198520Y110055D02*
Y110944D01*
X203092D02*
X203092Y110055D01*
X213201Y92002D02*
X213830Y92630D01*
X209968Y95235D02*
X210597Y95863D01*
X209968Y95235D02*
X213201Y92002D01*
X210597Y95863D02*
X213830Y92630D01*
X208262Y93528D02*
X211495Y90295D01*
X208891Y94157D02*
X212124Y90924D01*
X211495Y90295D02*
X212124Y90924D01*
X208262Y93528D02*
X208891Y94157D01*
X209909Y107823D02*
Y108712D01*
X214481Y107823D02*
Y108712D01*
X209909D02*
X214481D01*
X209909Y107823D02*
X214481D01*
X209909Y111125D02*
X214481D01*
X209909Y110236D02*
X214481D01*
X209909D02*
Y111125D01*
X214481Y110236D02*
Y111125D01*
X219313Y107717D02*
Y108606D01*
X223885Y107717D02*
Y108606D01*
X219313D02*
X223885D01*
X219313Y107717D02*
X223885D01*
X219313Y111019D02*
X223885D01*
X219313Y110130D02*
X223885D01*
X219313D02*
Y111019D01*
X223885Y110130D02*
Y111019D01*
X223772Y125571D02*
Y128873D01*
X222883Y125571D02*
X223772Y125571D01*
X222883Y125571D02*
Y128873D01*
X223772Y128873D01*
X218946Y125571D02*
X219835D01*
Y128873D01*
X218946D02*
X219835D01*
X218946Y125571D02*
Y128873D01*
X203194Y125849D02*
Y129151D01*
X202305Y125849D02*
X203194Y125849D01*
X202305Y125849D02*
Y129151D01*
X203194Y129151D01*
X198368Y125849D02*
X199257D01*
Y129151D01*
X198368D02*
X199257D01*
X198368Y125849D02*
Y129151D01*
X219393Y85930D02*
X220022Y86559D01*
X216160Y89163D02*
X216789Y89791D01*
X216160Y89163D02*
X219393Y85930D01*
X216789Y89791D02*
X220022Y86559D01*
X214454Y87457D02*
X217687Y84224D01*
X215082Y88085D02*
X218315Y84852D01*
X217687Y84224D02*
X218315Y84852D01*
X214454Y87457D02*
X215082Y88085D01*
X211993Y47549D02*
X214328Y49884D01*
X211365Y48178D02*
X211993Y47549D01*
X211365Y48178D02*
X213700Y50513D01*
X214328Y49884D01*
X208581Y50962D02*
X209209Y50333D01*
X211544Y52668D01*
X210916Y53297D02*
X211544Y52668D01*
X208581Y50962D02*
X210916Y53297D01*
X257912Y16468D02*
X258541Y15839D01*
X261145Y19700D02*
X261774Y19072D01*
X257912Y16468D02*
X261145Y19700D01*
X258541Y15839D02*
X261774Y19072D01*
X256206Y18174D02*
X259439Y21407D01*
X256835Y17545D02*
X260067Y20778D01*
X256206Y18174D02*
X256835Y17545D01*
X259439Y21407D02*
X260067Y20778D01*
X363765Y104609D02*
Y107911D01*
X364654D01*
Y104609D02*
Y107911D01*
X363765Y104609D02*
X364654D01*
X367702Y107911D02*
X368591Y107911D01*
X367702Y104609D02*
Y107911D01*
Y104609D02*
X368591Y104609D01*
Y107911D01*
X390536Y75817D02*
X390536Y79119D01*
X389647Y75817D02*
X390536Y75817D01*
X389647Y75817D02*
Y79120D01*
X390536Y79119D01*
X385710Y75817D02*
X386599Y75817D01*
X386599Y79119D02*
X386599Y75817D01*
X385710Y79119D02*
X386599Y79119D01*
X385710Y75817D02*
X385710Y79119D01*
X399642Y78230D02*
X399642Y79120D01*
X395070Y79119D02*
X395070Y78230D01*
X399642Y78230D01*
X395070Y79119D02*
X399642Y79120D01*
X395070Y75817D02*
X399642D01*
X395070Y76707D02*
X399642Y76706D01*
X399642Y75817D01*
X395070D02*
X395070Y76707D01*
X372476Y75817D02*
Y79120D01*
X373365D01*
Y75817D02*
Y79120D01*
X372476Y75817D02*
X373365D01*
X376413Y79120D02*
X377302Y79120D01*
X376413Y75817D02*
Y79120D01*
Y75817D02*
X377302Y75817D01*
Y79120D01*
X367919Y78231D02*
Y79119D01*
X363347Y78231D02*
X363347Y79119D01*
X363347Y78231D02*
X367919Y78231D01*
X363347Y79119D02*
X367919Y79119D01*
X363347Y75817D02*
X367919Y75817D01*
X363347Y76707D02*
X367919Y76707D01*
Y75817D02*
Y76707D01*
X363347Y75817D02*
X363347Y76707D01*
X356597Y41803D02*
X358932Y44138D01*
X355969Y42432D02*
X356597Y41803D01*
X355969Y42432D02*
X358304Y44767D01*
X358932Y44138D01*
X353185Y45216D02*
X353814Y44587D01*
X356148Y46922D01*
X355520Y47551D02*
X356148Y46922D01*
X353185Y45216D02*
X355520Y47551D01*
X335691Y43325D02*
X338026Y40990D01*
X337397Y40361D02*
X338026Y40990D01*
X335062Y42696D02*
X337397Y40361D01*
X335062Y42696D02*
X335691Y43325D01*
X334613Y37577D02*
X335242Y38206D01*
X332907Y40541D02*
X335242Y38206D01*
X332279Y39912D02*
X332907Y40541D01*
X332279Y39912D02*
X334613Y37577D01*
X335835Y56995D02*
X336464Y56367D01*
X332602Y53762D02*
X333231Y53134D01*
X336464Y56367D01*
X332602Y53762D02*
X335835Y56995D01*
X334937Y51427D02*
X338170Y54660D01*
X334308Y52056D02*
X337541Y55289D01*
X338170Y54660D01*
X334308Y52056D02*
X334937Y51427D01*
X339095Y85966D02*
X339723Y86594D01*
X342328Y82733D02*
X342956Y83362D01*
X339723Y86594D02*
X342956Y83362D01*
X339095Y85966D02*
X342328Y82733D01*
X341430Y88301D02*
X344663Y85068D01*
X340801Y87672D02*
X344034Y84439D01*
X340801Y87672D02*
X341430Y88301D01*
X344034Y84439D02*
X344663Y85068D01*
X337538Y91056D02*
X338166Y91685D01*
X334305Y94289D02*
X334933Y94918D01*
X334305Y94289D02*
X337538Y91056D01*
X334933Y94918D02*
X338166Y91685D01*
X332598Y92583D02*
X335831Y89350D01*
X333227Y93211D02*
X336460Y89979D01*
X335831Y89350D02*
X336460Y89979D01*
X332598Y92583D02*
X333227Y93211D01*
X312938Y112393D02*
X313566Y113021D01*
X309705Y115625D02*
X310333Y116254D01*
X309705Y115625D02*
X312938Y112393D01*
X310333Y116254D02*
X313566Y113021D01*
X307998Y113919D02*
X311231Y110686D01*
X308627Y114548D02*
X311860Y111315D01*
X311231Y110686D02*
X311860Y111315D01*
X307998Y113919D02*
X308627Y114548D01*
X31651Y308126D02*
X31651Y309015D01*
X27079Y308126D02*
Y309015D01*
Y308126D02*
X31651Y308126D01*
X27079Y309015D02*
X31651Y309015D01*
X27079Y305713D02*
X31651Y305713D01*
X27079Y306602D02*
X31651Y306602D01*
X31651Y305713D01*
X27079Y306602D02*
X27079Y305713D01*
X234100Y148975D02*
X236435Y146640D01*
X235806Y146011D02*
X236435Y146640D01*
X233472Y148346D02*
X235806Y146011D01*
X233472Y148346D02*
X234100Y148975D01*
X233022Y143227D02*
X233651Y143856D01*
X231316Y146191D02*
X233651Y143856D01*
X230688Y145562D02*
X231316Y146191D01*
X230688Y145562D02*
X233022Y143227D01*
X48095Y8111D02*
X48095Y7222D01*
X52667Y8111D02*
X52667Y7222D01*
X48095Y8111D02*
X52667Y8111D01*
X48095Y7222D02*
X52667Y7222D01*
X48095Y10524D02*
X52667Y10524D01*
X48095Y9635D02*
X52667Y9635D01*
X48095Y9635D02*
X48095Y10524D01*
X52667Y9635D02*
X52667Y10524D01*
X214608Y125964D02*
Y129266D01*
X213719Y125964D02*
X214608D01*
X213719Y129266D02*
X213719Y125964D01*
X213719Y129266D02*
X214608Y129266D01*
X209782Y125964D02*
X210671Y125964D01*
X210671Y129266D02*
X210671Y125964D01*
X209782Y129266D02*
X210671Y129266D01*
X209782Y125964D02*
X209782Y129266D01*
X203535Y81917D02*
X205870Y79582D01*
X205242Y78953D02*
X205870Y79582D01*
X202907Y81288D02*
X205242Y78953D01*
X202907Y81288D02*
X203535Y81917D01*
X202458Y76169D02*
X203086Y76798D01*
X200751Y79133D02*
X203086Y76798D01*
X200123Y78504D02*
X200751Y79133D01*
X200123Y78504D02*
X202458Y76169D01*
X145675Y135718D02*
X148977D01*
X145675D02*
X145675Y136607D01*
X148977D01*
X148977Y135718D01*
X145675Y139655D02*
Y140544D01*
Y139655D02*
X148977D01*
Y140544D01*
X145675D02*
X148977D01*
X133184Y71554D02*
X134073Y71554D01*
X133184Y66982D02*
X134073Y66982D01*
X134073Y71554D01*
X133184Y71554D02*
X133184Y66982D01*
X136486Y71554D02*
X136486Y66982D01*
X135597D02*
X135597Y71554D01*
X136486D01*
X135597Y66982D02*
X136486D01*
X133183Y80891D02*
X134073Y80891D01*
X133183Y76319D02*
X134072D01*
X134073Y80891D01*
X133183Y80891D02*
X133183Y76319D01*
X136485Y76319D02*
X136486Y80891D01*
X135597Y76319D02*
X135597Y80891D01*
X136486D01*
X135597Y76319D02*
X136485Y76319D01*
X132926Y183714D02*
X132926Y182825D01*
X137498Y182825D02*
Y183714D01*
X132926Y183714D02*
X137498Y183714D01*
X132926Y182825D02*
X137498Y182825D01*
X132926Y186127D02*
X137498Y186127D01*
X132926Y185238D02*
X137498Y185238D01*
X132926Y186127D02*
X132926Y185238D01*
X137498Y186127D02*
X137498Y185238D01*
D16*
X216346Y-34809D02*
X219346Y-37809D01*
X213346D02*
X219346D01*
X213346D02*
X216346Y-34809D01*
X289545Y243104D02*
X292545Y240104D01*
X289545Y243104D02*
X295545Y243104D01*
X292545Y240104D02*
X295545Y243104D01*
X200212Y245266D02*
X204454Y245266D01*
X200212Y245266D02*
X204454Y249508D01*
X204454Y245266D02*
X204454Y249508D01*
X156967Y226416D02*
X161210D01*
X156967D02*
X161210Y230659D01*
Y226416D02*
Y230659D01*
X-84485Y198004D02*
X-83869Y163634D01*
X-84485Y198004D02*
X-72951Y260067D01*
X-41096Y317736D01*
X344875Y-19622D02*
X395975Y36443D01*
X-9862Y129309D02*
Y122311D01*
X-6363D01*
X-5196Y123477D01*
Y128142D01*
X-6363Y129309D01*
X-9862D01*
X635Y122311D02*
Y129309D01*
X-2864Y125810D01*
X1801D01*
X44650Y265570D02*
X37652D01*
Y269069D01*
X38818Y270235D01*
X41151D01*
X42317Y269069D01*
Y265570D01*
Y267903D02*
X44650Y270235D01*
Y272568D02*
Y274900D01*
Y273734D01*
X37652D01*
X38818Y272568D01*
X43483Y278399D02*
X44650Y279566D01*
Y281898D01*
X43483Y283064D01*
X38818D01*
X37652Y281898D01*
Y279566D01*
X38818Y278399D01*
X39984D01*
X41151Y279566D01*
Y283064D01*
X191378Y103974D02*
X190378Y102974D01*
Y100974D01*
X191378Y99975D01*
X195376D01*
X196376Y100974D01*
Y102974D01*
X195376Y103974D01*
X191378Y105973D02*
X190378Y106973D01*
Y108972D01*
X191378Y109972D01*
X192377D01*
X193377Y108972D01*
Y107972D01*
Y108972D01*
X194377Y109972D01*
X195376D01*
X196376Y108972D01*
Y106973D01*
X195376Y105973D01*
X196376Y111971D02*
Y113970D01*
Y112971D01*
X190378D01*
X191378Y111971D01*
X159228Y52975D02*
Y47144D01*
X160394Y45978D01*
X162727D01*
X163893Y47144D01*
Y52975D01*
X166226Y51809D02*
X167392Y52975D01*
X169725D01*
X170891Y51809D01*
Y50643D01*
X169725Y49477D01*
X168558D01*
X169725D01*
X170891Y48310D01*
Y47144D01*
X169725Y45978D01*
X167392D01*
X166226Y47144D01*
X215968Y137793D02*
X208971D01*
Y141292D01*
X210137Y142458D01*
X212470D01*
X213636Y141292D01*
Y137793D01*
Y140125D02*
X215968Y142458D01*
X210137Y144790D02*
X208971Y145957D01*
Y148289D01*
X210137Y149456D01*
X211303D01*
X212470Y148289D01*
Y147123D01*
Y148289D01*
X213636Y149456D01*
X214802D01*
X215968Y148289D01*
Y145957D01*
X214802Y144790D01*
X208971Y156453D02*
Y151788D01*
X212470D01*
X211303Y154121D01*
Y155287D01*
X212470Y156453D01*
X214802D01*
X215968Y155287D01*
Y152955D01*
X214802Y151788D01*
X249395Y283648D02*
X256393D01*
Y280149D01*
X255226Y278983D01*
X252894D01*
X251728Y280149D01*
Y283648D01*
Y281315D02*
X249395Y278983D01*
Y271985D02*
Y276650D01*
X254060Y271985D01*
X255226D01*
X256393Y273151D01*
Y275484D01*
X255226Y276650D01*
Y269652D02*
X256393Y268486D01*
Y266154D01*
X255226Y264987D01*
X254060D01*
X252894Y266154D01*
X251728Y264987D01*
X250561D01*
X249395Y266154D01*
Y268486D01*
X250561Y269652D01*
X251728D01*
X252894Y268486D01*
X254060Y269652D01*
X255226D01*
X252894Y268486D02*
Y266154D01*
X89882Y19635D02*
X96879D01*
Y24300D01*
Y26633D02*
Y28966D01*
Y27799D01*
X89882D01*
X91048Y26633D01*
X147753Y71968D02*
X146586Y73134D01*
X144254D01*
X143087Y71968D01*
Y67302D01*
X144254Y66136D01*
X146586D01*
X147753Y67302D01*
X150085Y71968D02*
X151251Y73134D01*
X153584D01*
X154750Y71968D01*
Y70801D01*
X153584Y69635D01*
X152418D01*
X153584D01*
X154750Y68469D01*
Y67302D01*
X153584Y66136D01*
X151251D01*
X150085Y67302D01*
X157083D02*
X158249Y66136D01*
X160582D01*
X161748Y67302D01*
Y71968D01*
X160582Y73134D01*
X158249D01*
X157083Y71968D01*
Y70801D01*
X158249Y69635D01*
X161748D01*
X130498Y89051D02*
X129332Y90218D01*
X126999D01*
X125833Y89051D01*
Y84386D01*
X126999Y83220D01*
X129332D01*
X130498Y84386D01*
X132831Y89051D02*
X133997Y90218D01*
X136330D01*
X137496Y89051D01*
Y87885D01*
X136330Y86719D01*
X135163D01*
X136330D01*
X137496Y85552D01*
Y84386D01*
X136330Y83220D01*
X133997D01*
X132831Y84386D01*
X139829Y89051D02*
X140995Y90218D01*
X143327D01*
X144494Y89051D01*
Y87885D01*
X143327Y86719D01*
X144494Y85552D01*
Y84386D01*
X143327Y83220D01*
X140995D01*
X139829Y84386D01*
Y85552D01*
X140995Y86719D01*
X139829Y87885D01*
Y89051D01*
X140995Y86719D02*
X143327D01*
X319017Y217573D02*
Y219222D01*
X317368Y220872D01*
X315718D01*
X312420Y217573D01*
Y215924D01*
X314069Y214274D01*
X315718D01*
X319842Y208501D02*
X316543Y211800D01*
X323141D01*
X323965Y212625D01*
Y214274D01*
X322316Y215924D01*
X320667D01*
X321491Y206852D02*
X323141Y205203D01*
X322316Y206027D01*
X327264Y210975D01*
X325615D01*
X320261Y143847D02*
X319095Y142680D01*
Y140348D01*
X320261Y139181D01*
X324926D01*
X326092Y140348D01*
Y142680D01*
X324926Y143847D01*
X326092Y150844D02*
Y146179D01*
X321427Y150844D01*
X320261D01*
X319095Y149678D01*
Y147345D01*
X320261Y146179D01*
Y153177D02*
X319095Y154343D01*
Y156676D01*
X320261Y157842D01*
X324926D01*
X326092Y156676D01*
Y154343D01*
X324926Y153177D01*
X320261D01*
X39848Y104920D02*
X38681Y103754D01*
Y101421D01*
X39848Y100255D01*
X44513D01*
X45679Y101421D01*
Y103754D01*
X44513Y104920D01*
X45679Y107253D02*
Y109585D01*
Y108419D01*
X38681D01*
X39848Y107253D01*
Y113084D02*
X38681Y114250D01*
Y116583D01*
X39848Y117749D01*
X41014D01*
X42180Y116583D01*
Y115417D01*
Y116583D01*
X43347Y117749D01*
X44513D01*
X45679Y116583D01*
Y114250D01*
X44513Y113084D01*
X39577Y7631D02*
X38411Y6465D01*
Y4132D01*
X39577Y2966D01*
X44242D01*
X45408Y4132D01*
Y6465D01*
X44242Y7631D01*
X39577Y9963D02*
X38411Y11130D01*
Y13462D01*
X39577Y14629D01*
X40743D01*
X41909Y13462D01*
Y12296D01*
Y13462D01*
X43076Y14629D01*
X44242D01*
X45408Y13462D01*
Y11130D01*
X44242Y9963D01*
X125092Y183711D02*
X123926Y182545D01*
Y180212D01*
X125092Y179046D01*
X129757D01*
X130923Y180212D01*
Y182545D01*
X129757Y183711D01*
X130923Y190709D02*
Y186044D01*
X126258Y190709D01*
X125092D01*
X123926Y189543D01*
Y187210D01*
X125092Y186044D01*
X73569Y222901D02*
X72402Y224067D01*
X70070D01*
X68903Y222901D01*
Y218236D01*
X70070Y217069D01*
X72402D01*
X73569Y218236D01*
X80566Y217069D02*
X75901D01*
X80566Y221735D01*
Y222901D01*
X79400Y224067D01*
X77067D01*
X75901Y222901D01*
X82899D02*
X84065Y224067D01*
X86398D01*
X87564Y222901D01*
Y221735D01*
X86398Y220568D01*
X85232D01*
X86398D01*
X87564Y219402D01*
Y218236D01*
X86398Y217069D01*
X84065D01*
X82899Y218236D01*
X142265Y152129D02*
Y159127D01*
X145764D01*
X146930Y157961D01*
Y155628D01*
X145764Y154462D01*
X142265D01*
X144597D02*
X146930Y152129D01*
X149262Y153295D02*
X150429Y152129D01*
X152761D01*
X153928Y153295D01*
Y157961D01*
X152761Y159127D01*
X150429D01*
X149262Y157961D01*
Y156794D01*
X150429Y155628D01*
X153928D01*
X271763Y-18859D02*
X268264Y-12799D01*
X271294Y-11049D01*
X272887Y-11476D01*
X274053Y-13496D01*
X273626Y-15089D01*
X270596Y-16839D01*
X277823Y-15360D02*
X279843Y-14194D01*
X278833Y-14777D01*
X275334Y-8717D01*
X274907Y-10310D01*
X159917Y112159D02*
Y105161D01*
X164583D01*
X171581Y112159D02*
X166915D01*
Y105161D01*
X171581D01*
X166915Y108660D02*
X169248D01*
X173913Y112159D02*
Y105161D01*
X177412D01*
X178578Y106327D01*
Y110993D01*
X177412Y112159D01*
X173913D01*
X180911Y105161D02*
X183243D01*
X182077D01*
Y112159D01*
X180911Y110993D01*
X94673Y365836D02*
Y370501D01*
X93507Y371667D01*
X91174D01*
X90008Y370501D01*
Y365836D01*
X91174Y364669D01*
X93507D01*
X92341Y367002D02*
X94673Y364669D01*
X93507D02*
X94673Y365836D01*
X101671Y371667D02*
X97006D01*
Y368168D01*
X99338Y369335D01*
X100505D01*
X101671Y368168D01*
Y365836D01*
X100505Y364669D01*
X98172D01*
X97006Y365836D01*
X40746Y367515D02*
Y372180D01*
X39580Y373346D01*
X37247D01*
X36081Y372180D01*
Y367515D01*
X37247Y366348D01*
X39580D01*
X38414Y368681D02*
X40746Y366348D01*
X39580D02*
X40746Y367515D01*
X47744Y373346D02*
X45411Y372180D01*
X43079Y369847D01*
Y367515D01*
X44245Y366348D01*
X46578D01*
X47744Y367515D01*
Y368681D01*
X46578Y369847D01*
X43079D01*
X211341Y367934D02*
Y372599D01*
X210174Y373766D01*
X207842D01*
X206675Y372599D01*
Y367934D01*
X207842Y366768D01*
X210174D01*
X209008Y369100D02*
X211341Y366768D01*
X210174D02*
X211341Y367934D01*
X217172Y366768D02*
Y373766D01*
X213673Y370267D01*
X218338D01*
X156784Y365626D02*
Y370291D01*
X155618Y371457D01*
X153285D01*
X152119Y370291D01*
Y365626D01*
X153285Y364460D01*
X155618D01*
X154451Y366792D02*
X156784Y364460D01*
X155618D02*
X156784Y365626D01*
X159116Y370291D02*
X160283Y371457D01*
X162615D01*
X163782Y370291D01*
Y369125D01*
X162615Y367959D01*
X161449D01*
X162615D01*
X163782Y366792D01*
Y365626D01*
X162615Y364460D01*
X160283D01*
X159116Y365626D01*
X265687Y367514D02*
Y372180D01*
X264521Y373346D01*
X262188D01*
X261022Y372180D01*
Y367514D01*
X262188Y366348D01*
X264521D01*
X263354Y368681D02*
X265687Y366348D01*
X264521D02*
X265687Y367514D01*
X272685Y366348D02*
X268020D01*
X272685Y371013D01*
Y372180D01*
X271519Y373346D01*
X269186D01*
X268020Y372180D01*
X237833Y207908D02*
X241957Y203785D01*
X243606D01*
X245255Y205434D01*
Y207084D01*
X241132Y211207D01*
X246080Y216155D02*
X242781Y212857D01*
X245255Y210382D01*
X246080Y212857D01*
X246905Y213681D01*
X248554D01*
X250203Y212032D01*
Y210382D01*
X248554Y208733D01*
X246905D01*
X119271Y-42805D02*
Y-48636D01*
X120438Y-49803D01*
X122770D01*
X123937Y-48636D01*
Y-42805D01*
X126269Y-49803D02*
X128602D01*
X127435D01*
Y-42805D01*
X126269Y-43971D01*
X225746Y265570D02*
X218748D01*
Y269069D01*
X219914Y270236D01*
X222247D01*
X223413Y269069D01*
Y265570D01*
Y267903D02*
X225746Y270236D01*
Y272568D02*
Y274901D01*
Y273734D01*
X218748D01*
X219914Y272568D01*
Y278400D02*
X218748Y279566D01*
Y281898D01*
X219914Y283065D01*
X221080D01*
X222247Y281898D01*
X223413Y283065D01*
X224579D01*
X225746Y281898D01*
Y279566D01*
X224579Y278400D01*
X223413D01*
X222247Y279566D01*
X221080Y278400D01*
X219914D01*
X222247Y279566D02*
Y281898D01*
X187388Y76278D02*
X192336Y81226D01*
X194810Y78752D01*
Y77103D01*
X193161Y75453D01*
X191511D01*
X189037Y77927D01*
X190687Y76278D02*
Y72979D01*
X192336Y71330D02*
X193986Y69680D01*
X193161Y70505D01*
X198109Y75453D01*
X196460D01*
X204707Y68856D02*
X201408Y72154D01*
X198934Y69680D01*
X201408Y68856D01*
X202232Y68031D01*
Y66382D01*
X200583Y64732D01*
X198934D01*
X197284Y66382D01*
Y68031D01*
X126374Y134832D02*
Y141830D01*
X129873D01*
X131039Y140664D01*
Y138331D01*
X129873Y137165D01*
X126374D01*
X128707D02*
X131039Y134832D01*
X133372Y141830D02*
X138037D01*
Y140664D01*
X133372Y135999D01*
Y134832D01*
X331272Y313797D02*
Y318462D01*
X330106Y319629D01*
X327773D01*
X326607Y318462D01*
Y313797D01*
X327773Y312631D01*
X330106D01*
X328940Y314963D02*
X331272Y312631D01*
X330106D02*
X331272Y313797D01*
X333605Y312631D02*
X335937D01*
X334771D01*
Y319629D01*
X333605Y318462D01*
X31600Y132524D02*
Y125526D01*
X35099D01*
X36265Y126692D01*
Y131358D01*
X35099Y132524D01*
X31600D01*
X43263Y125526D02*
X38598D01*
X43263Y130191D01*
Y131358D01*
X42096Y132524D01*
X39764D01*
X38598Y131358D01*
D17*
X311912Y359234D02*
X314060D01*
X299212Y359234D02*
X302309Y359234D01*
X286512Y359234D02*
X289609D01*
X273811Y359234D02*
X276909Y359234D01*
X262060Y300234D02*
X264209Y300234D01*
X262060Y300234D02*
X262060Y359234D01*
X264209Y359234D01*
X273811Y300234D02*
X276909Y300234D01*
X286512Y300234D02*
X289609Y300234D01*
X299212Y300234D02*
X302309Y300234D01*
X314060Y300234D02*
X314060Y359234D01*
X311912Y300234D02*
X314060D01*
X325569Y307210D02*
X327718Y307211D01*
X325569Y248211D02*
X325569Y307210D01*
X337320Y307211D02*
X340418Y307211D01*
X350020Y307210D02*
X353118Y307211D01*
X362720Y307211D02*
X365818Y307211D01*
X375420Y248211D02*
X377569D01*
X377569Y307211D01*
X375420Y307211D02*
X377569Y307211D01*
X362720Y248211D02*
X365817Y248211D01*
X350020Y248211D02*
X353117Y248211D01*
X337320Y248211D02*
X340417Y248211D01*
X325569D02*
X327718Y248211D01*
X85910Y358156D02*
X88058Y358155D01*
X73210Y358155D02*
X76307Y358156D01*
X60510Y358155D02*
X63607Y358156D01*
X47810Y358155D02*
X50907Y358156D01*
X36058Y299156D02*
X38207Y299156D01*
X36058Y299156D02*
X36058Y358156D01*
X38207D01*
X47810Y299156D02*
X50907Y299156D01*
X60510Y299156D02*
X63607D01*
X73210Y299156D02*
X76307Y299156D01*
X88058D02*
X88058Y358155D01*
X85910Y299156D02*
X88058Y299156D01*
X91945Y357732D02*
X94094Y357732D01*
X91945Y357732D02*
X91945Y298732D01*
X103697Y357732D02*
X106794D01*
X116397Y357732D02*
X119494D01*
X129096Y357732D02*
X132194Y357732D01*
X141797Y298732D02*
X143945Y298732D01*
X143945Y357732D02*
X143945Y298732D01*
X141797Y357732D02*
X143945Y357732D01*
X129097Y298732D02*
X132194Y298732D01*
X116397Y298732D02*
X119494Y298732D01*
X103697Y298732D02*
X106794Y298732D01*
X91945Y298732D02*
X94094Y298732D01*
X256287Y300234D02*
X258436Y300234D01*
Y359234D01*
X243587Y300234D02*
X246684Y300234D01*
X230887D02*
X233984Y300234D01*
X218187Y300234D02*
X221284Y300234D01*
X206436Y359234D02*
X208584Y359234D01*
X206436Y359234D02*
X206436Y300234D01*
X208584Y300234D01*
X218187Y359234D02*
X221284Y359234D01*
X230887Y359234D02*
X233984D01*
X243587Y359234D02*
X246684Y359234D01*
X256287Y359234D02*
X258436Y359234D01*
X152152Y358271D02*
X154300Y358271D01*
X152152Y358271D02*
X152152Y299272D01*
X163903Y358271D02*
X167000Y358271D01*
X176603Y358271D02*
X179700Y358271D01*
X189303Y358271D02*
X192400Y358271D01*
X202003Y299272D02*
X204152Y299272D01*
X204152Y358271D01*
X202003Y358271D02*
X204152Y358271D01*
X189303Y299271D02*
X192400Y299272D01*
X176603Y299271D02*
X179700Y299272D01*
X163903Y299271D02*
X167000Y299272D01*
X152152Y299272D02*
X154300Y299272D01*
D18*
X70781Y24423D02*
X70781Y59983D01*
X83481Y59983D01*
X83482Y24423D01*
X70781Y24423D02*
X83482Y24423D01*
X70781Y49823D02*
X83481D01*
X45058Y134966D02*
X80618Y134966D01*
X80618Y122266D02*
X80618Y134966D01*
X45058Y122266D02*
X80618Y122266D01*
X45058Y122266D02*
X45058Y134966D01*
X70458D02*
X70458Y122266D01*
D19*
X-34898Y138888D02*
Y145886D01*
X-31399D01*
X-30233Y144719D01*
Y142387D01*
X-31399Y141221D01*
X-34898D01*
X-23235Y145886D02*
X-27901D01*
Y142387D01*
X-25568Y143553D01*
X-24402D01*
X-23235Y142387D01*
Y140054D01*
X-24402Y138888D01*
X-26734D01*
X-27901Y140054D01*
X368926Y204862D02*
Y211859D01*
X372425D01*
X373591Y210693D01*
Y208361D01*
X372425Y207194D01*
X368926D01*
X380589Y211859D02*
X378257Y210693D01*
X375924Y208361D01*
Y206028D01*
X377090Y204862D01*
X379423D01*
X380589Y206028D01*
Y207194D01*
X379423Y208361D01*
X375924D01*
X-14329Y309879D02*
X-15495Y311045D01*
X-17828D01*
X-18994Y309879D01*
Y305214D01*
X-17828Y304048D01*
X-15495D01*
X-14329Y305214D01*
X-11996Y304048D02*
Y311045D01*
X-7331Y304048D01*
Y311045D01*
X-333Y304048D02*
X-4998D01*
X-333Y308713D01*
Y309879D01*
X-1499Y311045D01*
X-3832D01*
X-4998Y309879D01*
X-27668Y42375D02*
X-28834Y43541D01*
X-31167D01*
X-32333Y42375D01*
Y37710D01*
X-31167Y36544D01*
X-28834D01*
X-27668Y37710D01*
X-25335Y36544D02*
Y43541D01*
X-20670Y36544D01*
Y43541D01*
X-18338Y36544D02*
X-16005D01*
X-17171D01*
Y43541D01*
X-18338Y42375D01*
X212844Y-12752D02*
X217792Y-7804D01*
X220266Y-10278D01*
Y-11927D01*
X218617Y-13576D01*
X216968D01*
X214494Y-11102D01*
X216143Y-12752D02*
Y-16050D01*
X217792Y-17700D02*
X219442Y-19349D01*
X218617Y-18525D01*
X223565Y-13576D01*
X221916D01*
X226039Y-17700D02*
X227689D01*
X229338Y-19349D01*
Y-20999D01*
X228513Y-21823D01*
X226864D01*
X226039Y-20999D01*
X226864Y-21823D01*
Y-23473D01*
X226039Y-24297D01*
X224390D01*
X222740Y-22648D01*
Y-20999D01*
X234668Y-14386D02*
Y-7389D01*
X238167D01*
X239333Y-8555D01*
Y-10888D01*
X238167Y-12054D01*
X234668D01*
X237001D02*
X239333Y-14386D01*
X241666D02*
X243998D01*
X242832D01*
Y-7389D01*
X241666Y-8555D01*
X252162Y-14386D02*
X247497D01*
X252162Y-9721D01*
Y-8555D01*
X250996Y-7389D01*
X248664D01*
X247497Y-8555D01*
X156486Y-43834D02*
Y-36837D01*
X159985D01*
X161151Y-38003D01*
Y-40335D01*
X159985Y-41502D01*
X156486D01*
X163484Y-38003D02*
X164650Y-36837D01*
X166982D01*
X168149Y-38003D01*
Y-39169D01*
X166982Y-40335D01*
X165816D01*
X166982D01*
X168149Y-41502D01*
Y-42668D01*
X166982Y-43834D01*
X164650D01*
X163484Y-42668D01*
X212040Y-65210D02*
X219038D01*
Y-61712D01*
X217872Y-60545D01*
X213207D01*
X212040Y-61712D01*
Y-65210D01*
X213207Y-58213D02*
X212040Y-57046D01*
Y-54714D01*
X213207Y-53547D01*
X214373D01*
X215539Y-54714D01*
Y-55880D01*
Y-54714D01*
X216705Y-53547D01*
X217872D01*
X219038Y-54714D01*
Y-57046D01*
X217872Y-58213D01*
X236415Y-65859D02*
X235249Y-67026D01*
Y-69358D01*
X236415Y-70524D01*
X241080D01*
X242246Y-69358D01*
Y-67026D01*
X241080Y-65859D01*
X236415Y-63527D02*
X235249Y-62360D01*
Y-60028D01*
X236415Y-58861D01*
X237581D01*
X238748Y-60028D01*
Y-61194D01*
Y-60028D01*
X239914Y-58861D01*
X241080D01*
X242246Y-60028D01*
Y-62360D01*
X241080Y-63527D01*
X235249Y-56529D02*
Y-51864D01*
X236415D01*
X241080Y-56529D01*
X242246D01*
X68003Y115672D02*
Y109840D01*
X69169Y108674D01*
X71501D01*
X72668Y109840D01*
Y115672D01*
X78499Y108674D02*
Y115672D01*
X75000Y112173D01*
X79665D01*
X88094Y-60808D02*
Y-53810D01*
X91592D01*
X92759Y-54977D01*
Y-57309D01*
X91592Y-58475D01*
X88094D01*
X90426D02*
X92759Y-60808D01*
X95091Y-54977D02*
X96257Y-53810D01*
X98590D01*
X99756Y-54977D01*
Y-56143D01*
X98590Y-57309D01*
X97424D01*
X98590D01*
X99756Y-58475D01*
Y-59642D01*
X98590Y-60808D01*
X96257D01*
X95091Y-59642D01*
X102089Y-54977D02*
X103255Y-53810D01*
X105588D01*
X106754Y-54977D01*
Y-56143D01*
X105588Y-57309D01*
X106754Y-58475D01*
Y-59642D01*
X105588Y-60808D01*
X103255D01*
X102089Y-59642D01*
Y-58475D01*
X103255Y-57309D01*
X102089Y-56143D01*
Y-54977D01*
X103255Y-57309D02*
X105588D01*
X91244Y127465D02*
X84246D01*
Y130964D01*
X85413Y132130D01*
X87745D01*
X88912Y130964D01*
Y127465D01*
Y129798D02*
X91244Y132130D01*
Y134463D02*
Y136796D01*
Y135629D01*
X84246D01*
X85413Y134463D01*
Y140295D02*
X84246Y141461D01*
Y143793D01*
X85413Y144960D01*
X90078D01*
X91244Y143793D01*
Y141461D01*
X90078Y140295D01*
X85413D01*
X126263Y118563D02*
X119265D01*
Y122062D01*
X120431Y123228D01*
X122764D01*
X123930Y122062D01*
Y118563D01*
Y120895D02*
X126263Y123228D01*
X119265Y130225D02*
X120431Y127893D01*
X122764Y125560D01*
X125097D01*
X126263Y126727D01*
Y129059D01*
X125097Y130225D01*
X123930D01*
X122764Y129059D01*
Y125560D01*
X104464Y129098D02*
X97466D01*
Y132597D01*
X98633Y133763D01*
X100965D01*
X102132Y132597D01*
Y129098D01*
Y131430D02*
X104464Y133763D01*
Y139594D02*
X97466D01*
X100965Y136095D01*
Y140760D01*
X70706Y22397D02*
Y15399D01*
X74205D01*
X75371Y16565D01*
Y21230D01*
X74205Y22397D01*
X70706D01*
X77704Y15399D02*
X80036D01*
X78870D01*
Y22397D01*
X77704Y21230D01*
X120531Y45907D02*
X119364Y44741D01*
Y42408D01*
X120531Y41242D01*
X125196D01*
X126362Y42408D01*
Y44741D01*
X125196Y45907D01*
X126362Y48240D02*
Y50572D01*
Y49406D01*
X119364D01*
X120531Y48240D01*
X126362Y58736D02*
Y54071D01*
X121697Y58736D01*
X120531D01*
X119364Y57570D01*
Y55237D01*
X120531Y54071D01*
X109768Y46219D02*
X108602Y45053D01*
Y42720D01*
X109768Y41554D01*
X114433D01*
X115599Y42720D01*
Y45053D01*
X114433Y46219D01*
X115599Y48552D02*
Y50884D01*
Y49718D01*
X108602D01*
X109768Y48552D01*
X115599Y54383D02*
Y56716D01*
Y55550D01*
X108602D01*
X109768Y54383D01*
X72827Y78119D02*
X71660Y79285D01*
X69328D01*
X68162Y78119D01*
Y73453D01*
X69328Y72287D01*
X71660D01*
X72827Y73453D01*
X75159Y72287D02*
X77492D01*
X76326D01*
Y79285D01*
X75159Y78119D01*
X80991D02*
X82157Y79285D01*
X84490D01*
X85656Y78119D01*
Y73453D01*
X84490Y72287D01*
X82157D01*
X80991Y73453D01*
Y78119D01*
X107232Y133634D02*
X106066Y132468D01*
Y130135D01*
X107232Y128969D01*
X111897D01*
X113064Y130135D01*
Y132468D01*
X111897Y133634D01*
Y135967D02*
X113064Y137133D01*
Y139466D01*
X111897Y140632D01*
X107232D01*
X106066Y139466D01*
Y137133D01*
X107232Y135967D01*
X108399D01*
X109565Y137133D01*
Y140632D01*
X81380Y67013D02*
X80214Y68180D01*
X77881D01*
X76715Y67013D01*
Y62348D01*
X77881Y61182D01*
X80214D01*
X81380Y62348D01*
X83713Y67013D02*
X84879Y68180D01*
X87212D01*
X88378Y67013D01*
Y65847D01*
X87212Y64681D01*
X88378Y63514D01*
Y62348D01*
X87212Y61182D01*
X84879D01*
X83713Y62348D01*
Y63514D01*
X84879Y64681D01*
X83713Y65847D01*
Y67013D01*
X84879Y64681D02*
X87212D01*
X141278Y-28565D02*
X140112Y-29731D01*
Y-32064D01*
X141278Y-33230D01*
X145944D01*
X147110Y-32064D01*
Y-29731D01*
X145944Y-28565D01*
X147110Y-26233D02*
Y-23900D01*
Y-25066D01*
X140112D01*
X141278Y-26233D01*
X164481Y244331D02*
X159533Y239383D01*
X162007Y236909D01*
X163656D01*
X166955Y240208D01*
Y241857D01*
X164481Y244331D01*
X168604Y238559D02*
X170254D01*
X171903Y236909D01*
Y235260D01*
X171078Y234435D01*
X169429D01*
Y232786D01*
X168604Y231961D01*
X166955D01*
X165306Y233610D01*
Y235260D01*
X166130Y236084D01*
X167780D01*
Y237734D01*
X168604Y238559D01*
X167780Y236084D02*
X169429Y234435D01*
X190150Y244696D02*
X185201Y239748D01*
X187675Y237274D01*
X189325D01*
X192624Y240572D01*
Y242222D01*
X190150Y244696D01*
X195098Y239748D02*
X198396Y236449D01*
X197572Y235624D01*
X190974D01*
X190150Y234799D01*
X289595Y217141D02*
X296593D01*
Y220640D01*
X295426Y221807D01*
X290761D01*
X289595Y220640D01*
Y217141D01*
Y228804D02*
X290761Y226472D01*
X293094Y224139D01*
X295426D01*
X296593Y225306D01*
Y227638D01*
X295426Y228804D01*
X294260D01*
X293094Y227638D01*
Y224139D01*
X205032Y137157D02*
X198034D01*
Y140656D01*
X199200Y141822D01*
X201533D01*
X202699Y140656D01*
Y137157D01*
Y139490D02*
X205032Y141822D01*
Y147654D02*
X198034D01*
X201533Y144155D01*
Y148820D01*
X199200Y151153D02*
X198034Y152319D01*
Y154651D01*
X199200Y155818D01*
X203866D01*
X205032Y154651D01*
Y152319D01*
X203866Y151153D01*
X199200D01*
X390922Y49263D02*
X383924D01*
Y52762D01*
X385091Y53928D01*
X387423D01*
X388590Y52762D01*
Y49263D01*
Y51596D02*
X390922Y53928D01*
X385091Y56261D02*
X383924Y57427D01*
Y59760D01*
X385091Y60926D01*
X386257D01*
X387423Y59760D01*
Y58593D01*
Y59760D01*
X388590Y60926D01*
X389756D01*
X390922Y59760D01*
Y57427D01*
X389756Y56261D01*
Y63259D02*
X390922Y64425D01*
Y66757D01*
X389756Y67924D01*
X385091D01*
X383924Y66757D01*
Y64425D01*
X385091Y63259D01*
X386257D01*
X387423Y64425D01*
Y67924D01*
X148361Y95533D02*
X141363D01*
Y99032D01*
X142529Y100198D01*
X144862D01*
X146028Y99032D01*
Y95533D01*
Y97865D02*
X148361Y100198D01*
X142529Y102530D02*
X141363Y103697D01*
Y106029D01*
X142529Y107196D01*
X143695D01*
X144862Y106029D01*
Y104863D01*
Y106029D01*
X146028Y107196D01*
X147194D01*
X148361Y106029D01*
Y103697D01*
X147194Y102530D01*
X141363Y109528D02*
Y114193D01*
X142529D01*
X147194Y109528D01*
X148361D01*
X377191Y86278D02*
X370193D01*
Y89777D01*
X371359Y90943D01*
X373692D01*
X374858Y89777D01*
Y86278D01*
Y88611D02*
X377191Y90943D01*
X371359Y93276D02*
X370193Y94442D01*
Y96775D01*
X371359Y97941D01*
X372525D01*
X373692Y96775D01*
Y95609D01*
Y96775D01*
X374858Y97941D01*
X376024D01*
X377191Y96775D01*
Y94442D01*
X376024Y93276D01*
X370193Y104939D02*
X371359Y102606D01*
X373692Y100274D01*
X376024D01*
X377191Y101440D01*
Y103773D01*
X376024Y104939D01*
X374858D01*
X373692Y103773D01*
Y100274D01*
X24948Y298818D02*
X17950D01*
Y302317D01*
X19116Y303483D01*
X21449D01*
X22615Y302317D01*
Y298818D01*
Y301151D02*
X24948Y303483D01*
X19116Y305816D02*
X17950Y306982D01*
Y309315D01*
X19116Y310481D01*
X20283D01*
X21449Y309315D01*
Y308148D01*
Y309315D01*
X22615Y310481D01*
X23781D01*
X24948Y309315D01*
Y306982D01*
X23781Y305816D01*
X24948Y316312D02*
X17950D01*
X21449Y312813D01*
Y317479D01*
X361867Y98816D02*
X354869D01*
Y102315D01*
X356036Y103481D01*
X358368D01*
X359535Y102315D01*
Y98816D01*
Y101148D02*
X361867Y103481D01*
X356036Y105814D02*
X354869Y106980D01*
Y109312D01*
X356036Y110479D01*
X357202D01*
X358368Y109312D01*
Y108146D01*
Y109312D01*
X359535Y110479D01*
X360701D01*
X361867Y109312D01*
Y106980D01*
X360701Y105814D01*
X356036Y112811D02*
X354869Y113977D01*
Y116310D01*
X356036Y117476D01*
X357202D01*
X358368Y116310D01*
Y115144D01*
Y116310D01*
X359535Y117476D01*
X360701D01*
X361867Y116310D01*
Y113977D01*
X360701Y112811D01*
X225000Y138141D02*
X218003D01*
Y141640D01*
X219169Y142807D01*
X221502D01*
X222668Y141640D01*
Y138141D01*
Y140474D02*
X225000Y142807D01*
X219169Y145139D02*
X218003Y146306D01*
Y148638D01*
X219169Y149804D01*
X220335D01*
X221502Y148638D01*
Y147472D01*
Y148638D01*
X222668Y149804D01*
X223834D01*
X225000Y148638D01*
Y146306D01*
X223834Y145139D01*
X225000Y156802D02*
Y152137D01*
X220335Y156802D01*
X219169D01*
X218003Y155636D01*
Y153303D01*
X219169Y152137D01*
X202203Y50327D02*
X197255Y55275D01*
X199729Y57749D01*
X201378D01*
X203028Y56100D01*
Y54450D01*
X200554Y51976D01*
X202203Y53626D02*
X205502D01*
X203028Y59399D02*
Y61048D01*
X204677Y62697D01*
X206327D01*
X207151Y61873D01*
Y60223D01*
X206327Y59399D01*
X207151Y60223D01*
X208801D01*
X209625Y59399D01*
Y57749D01*
X207976Y56100D01*
X206327D01*
X212099Y60223D02*
X213749Y61873D01*
X212924Y61048D01*
X207976Y65996D01*
Y64347D01*
X225393Y162465D02*
Y169463D01*
X228892D01*
X230058Y168297D01*
Y165964D01*
X228892Y164798D01*
X225393D01*
X227726D02*
X230058Y162465D01*
X232391Y168297D02*
X233557Y169463D01*
X235889D01*
X237056Y168297D01*
Y167131D01*
X235889Y165964D01*
X234723D01*
X235889D01*
X237056Y164798D01*
Y163632D01*
X235889Y162465D01*
X233557D01*
X232391Y163632D01*
X239388Y168297D02*
X240555Y169463D01*
X242887D01*
X244054Y168297D01*
Y163632D01*
X242887Y162465D01*
X240555D01*
X239388Y163632D01*
Y168297D01*
X361608Y31611D02*
X356660Y36559D01*
X359134Y39033D01*
X360783D01*
X362433Y37384D01*
Y35734D01*
X359958Y33260D01*
X361608Y34910D02*
X364907D01*
X369855Y39858D02*
X366556Y36559D01*
Y43157D01*
X365731Y43981D01*
X364082D01*
X362433Y42332D01*
Y40683D01*
X370680Y42332D02*
X372329D01*
X373978Y43981D01*
Y45631D01*
X370680Y48929D01*
X369030D01*
X367381Y47280D01*
Y45631D01*
X368205Y44806D01*
X369855D01*
X372329Y47280D01*
X43241Y56674D02*
X36243D01*
Y60173D01*
X37409Y61340D01*
X39742D01*
X40908Y60173D01*
Y56674D01*
Y59007D02*
X43241Y61340D01*
Y68337D02*
Y63672D01*
X38575Y68337D01*
X37409D01*
X36243Y67171D01*
Y64838D01*
X37409Y63672D01*
X43241Y75335D02*
Y70670D01*
X38575Y75335D01*
X37409D01*
X36243Y74169D01*
Y71836D01*
X37409Y70670D01*
X320085Y36206D02*
X325034Y41154D01*
X327508Y38680D01*
Y37030D01*
X325858Y35381D01*
X324209D01*
X321735Y37855D01*
X323384Y36206D02*
Y32907D01*
X325034Y31258D02*
X326683Y29608D01*
X325858Y30433D01*
X330807Y35381D01*
X329157D01*
Y27134D02*
X330807Y25485D01*
X329982Y26309D01*
X334930Y31258D01*
X333281D01*
X247354Y3910D02*
Y10908D01*
X250853D01*
X252019Y9742D01*
Y7409D01*
X250853Y6243D01*
X247354D01*
X249687D02*
X252019Y3910D01*
X259017Y10908D02*
X254352D01*
Y7409D01*
X256684Y8575D01*
X257851D01*
X259017Y7409D01*
Y5076D01*
X257851Y3910D01*
X255518D01*
X254352Y5076D01*
X226341Y106526D02*
X225174Y105360D01*
Y103027D01*
X226341Y101861D01*
X231006D01*
X232172Y103027D01*
Y105360D01*
X231006Y106526D01*
X226341Y108859D02*
X225174Y110025D01*
Y112358D01*
X226341Y113524D01*
X227507D01*
X228673Y112358D01*
Y111191D01*
Y112358D01*
X229839Y113524D01*
X231006D01*
X232172Y112358D01*
Y110025D01*
X231006Y108859D01*
X226341Y115857D02*
X225174Y117023D01*
Y119355D01*
X226341Y120522D01*
X231006D01*
X232172Y119355D01*
Y117023D01*
X231006Y115857D01*
X226341D01*
X395439Y53928D02*
X394273Y52762D01*
Y50429D01*
X395439Y49263D01*
X400104D01*
X401270Y50429D01*
Y52762D01*
X400104Y53928D01*
X401270Y60926D02*
Y56261D01*
X396605Y60926D01*
X395439D01*
X394273Y59760D01*
Y57427D01*
X395439Y56261D01*
X400104Y63259D02*
X401270Y64425D01*
Y66757D01*
X400104Y67924D01*
X395439D01*
X394273Y66757D01*
Y64425D01*
X395439Y63259D01*
X396605D01*
X397772Y64425D01*
Y67924D01*
X236086Y107123D02*
X234920Y105957D01*
Y103624D01*
X236086Y102458D01*
X240751D01*
X241917Y103624D01*
Y105957D01*
X240751Y107123D01*
X241917Y114121D02*
Y109455D01*
X237252Y114121D01*
X236086D01*
X234920Y112954D01*
Y110622D01*
X236086Y109455D01*
Y116453D02*
X234920Y117620D01*
Y119952D01*
X236086Y121118D01*
X237252D01*
X238419Y119952D01*
X239585Y121118D01*
X240751D01*
X241917Y119952D01*
Y117620D01*
X240751Y116453D01*
X239585D01*
X238419Y117620D01*
X237252Y116453D01*
X236086D01*
X238419Y117620D02*
Y119952D01*
X131842Y99354D02*
X130675Y98188D01*
Y95855D01*
X131842Y94689D01*
X136507D01*
X137673Y95855D01*
Y98188D01*
X136507Y99354D01*
X137673Y106352D02*
Y101687D01*
X133008Y106352D01*
X131842D01*
X130675Y105186D01*
Y102853D01*
X131842Y101687D01*
X130675Y108685D02*
Y113350D01*
X131842D01*
X136507Y108685D01*
X137673D01*
X355837Y62684D02*
X354670Y61518D01*
Y59186D01*
X355837Y58019D01*
X360502D01*
X361668Y59186D01*
Y61518D01*
X360502Y62684D01*
X361668Y69682D02*
Y65017D01*
X357003Y69682D01*
X355837D01*
X354670Y68516D01*
Y66183D01*
X355837Y65017D01*
X354670Y76680D02*
X355837Y74348D01*
X358169Y72015D01*
X360502D01*
X361668Y73181D01*
Y75514D01*
X360502Y76680D01*
X359336D01*
X358169Y75514D01*
Y72015D01*
X294188Y144048D02*
X292539D01*
X290890Y142398D01*
Y140749D01*
X294188Y137450D01*
X295838D01*
X297487Y139100D01*
Y140749D01*
X303260Y144873D02*
X299961Y141574D01*
Y148171D01*
X299137Y148996D01*
X297487D01*
X295838Y147346D01*
Y145697D01*
X307383Y148996D02*
X302435Y153944D01*
Y148996D01*
X305734Y152295D01*
X335823Y235483D02*
Y237133D01*
X334174Y238782D01*
X332524D01*
X329226Y235483D01*
Y233834D01*
X330875Y232185D01*
X332524D01*
X336648Y226412D02*
X333349Y229711D01*
X339947D01*
X340771Y230535D01*
Y232185D01*
X339122Y233834D01*
X337472D01*
X341596Y221464D02*
X338297Y224762D01*
X344895D01*
X345719Y225587D01*
Y227236D01*
X344070Y228886D01*
X342421D01*
X90005Y256152D02*
X88838Y257318D01*
X86506D01*
X85339Y256152D01*
Y251487D01*
X86506Y250321D01*
X88838D01*
X90005Y251487D01*
X92337Y250321D02*
X94670D01*
X93503D01*
Y257318D01*
X92337Y256152D01*
X98168Y251487D02*
X99335Y250321D01*
X101667D01*
X102834Y251487D01*
Y256152D01*
X101667Y257318D01*
X99335D01*
X98168Y256152D01*
Y254986D01*
X99335Y253820D01*
X102834D01*
X193289Y289188D02*
X192123Y290354D01*
X189790D01*
X188624Y289188D01*
Y284522D01*
X189790Y283356D01*
X192123D01*
X193289Y284522D01*
X195621Y283356D02*
X197954D01*
X196788D01*
Y290354D01*
X195621Y289188D01*
X201453D02*
X202619Y290354D01*
X204952D01*
X206118Y289188D01*
Y288021D01*
X204952Y286855D01*
X206118Y285689D01*
Y284522D01*
X204952Y283356D01*
X202619D01*
X201453Y284522D01*
Y285689D01*
X202619Y286855D01*
X201453Y288021D01*
Y289188D01*
X202619Y286855D02*
X204952D01*
X302345Y288591D02*
X301178Y289757D01*
X298846D01*
X297680Y288591D01*
Y283925D01*
X298846Y282759D01*
X301178D01*
X302345Y283925D01*
X304677Y282759D02*
X307010D01*
X305844D01*
Y289757D01*
X304677Y288591D01*
X310509Y289757D02*
X315174D01*
Y288591D01*
X310509Y283925D01*
Y282759D01*
X320001Y126610D02*
X318352D01*
X316702Y124961D01*
Y123312D01*
X320001Y120013D01*
X321651D01*
X323300Y121662D01*
Y123312D01*
X325774Y124136D02*
X327423Y125786D01*
X326599Y124961D01*
X321651Y129909D01*
Y128260D01*
X328248Y136507D02*
X327423Y134033D01*
Y130734D01*
X329073Y129085D01*
X330722D01*
X332371Y130734D01*
Y132383D01*
X331547Y133208D01*
X329897D01*
X327423Y130734D01*
X344081Y77257D02*
X342432D01*
X340782Y75607D01*
Y73958D01*
X344081Y70659D01*
X345731D01*
X347380Y72309D01*
Y73958D01*
X349854Y74783D02*
X351503Y76432D01*
X350679Y75607D01*
X345731Y80556D01*
Y78906D01*
X352328Y87153D02*
X349029Y83854D01*
X351503Y81380D01*
X352328Y83854D01*
X353153Y84679D01*
X354802D01*
X356451Y83030D01*
Y81380D01*
X354802Y79731D01*
X353153D01*
X340614Y64522D02*
Y66171D01*
X338964Y67821D01*
X337315D01*
X334016Y64522D01*
Y62873D01*
X335665Y61223D01*
X337315D01*
X338139Y58749D02*
X339789Y57100D01*
X338964Y57924D01*
X343912Y62873D01*
X342263D01*
X344737Y52152D02*
X349685Y57100D01*
X344737D01*
X348036Y53801D01*
X272658Y10346D02*
Y11996D01*
X271009Y13645D01*
X269359D01*
X266061Y10346D01*
Y8697D01*
X267710Y7048D01*
X269359D01*
X275132Y9522D02*
X278431Y6223D01*
X277606Y5398D01*
X271009D01*
X270184Y4574D01*
X201590Y98516D02*
X199941D01*
X198291Y96867D01*
Y95218D01*
X201590Y91919D01*
X203240D01*
X204889Y93568D01*
Y95218D01*
X205714Y104289D02*
X204889Y101815D01*
Y98516D01*
X206538Y96867D01*
X208188D01*
X209837Y98516D01*
Y100166D01*
X209013Y100990D01*
X207363D01*
X204889Y98516D01*
X229012Y94438D02*
X227362D01*
X225713Y92789D01*
Y91139D01*
X229012Y87841D01*
X230661D01*
X232310Y89490D01*
Y91139D01*
X233135Y100211D02*
X229836Y96912D01*
X232310Y94438D01*
X233135Y96912D01*
X233960Y97737D01*
X235609D01*
X237259Y96088D01*
Y94438D01*
X235609Y92789D01*
X233960D01*
X343555Y105190D02*
X341906D01*
X340257Y103540D01*
Y101891D01*
X343555Y98592D01*
X345205D01*
X346854Y100241D01*
Y101891D01*
X351802Y105190D02*
X346854Y110138D01*
Y105190D01*
X350153Y108488D01*
X132611Y156745D02*
X125613D01*
Y160244D01*
X126779Y161410D01*
X129112D01*
X130278Y160244D01*
Y156745D01*
Y159078D02*
X132611Y161410D01*
Y167242D02*
X125613D01*
X129112Y163743D01*
Y168408D01*
X132611Y170741D02*
Y173073D01*
Y171907D01*
X125613D01*
X126779Y170741D01*
X297878Y36316D02*
X302001Y32193D01*
X303651D01*
X305300Y33842D01*
Y35491D01*
X301176Y39615D01*
X311073D02*
X307774Y36316D01*
Y42914D01*
X306949Y43738D01*
X305300D01*
X303651Y42089D01*
Y40440D01*
X387722Y109243D02*
Y116240D01*
X391221D01*
X392387Y115074D01*
Y112742D01*
X391221Y111575D01*
X387722D01*
X399384Y109243D02*
X394719D01*
X399384Y113908D01*
Y115074D01*
X398218Y116240D01*
X395886D01*
X394719Y115074D01*
X164673Y156957D02*
Y149959D01*
X169338D01*
X176336Y156957D02*
X171670D01*
Y149959D01*
X176336D01*
X171670Y153458D02*
X174003D01*
X178668Y156957D02*
Y149959D01*
X182167D01*
X183333Y151125D01*
Y155790D01*
X182167Y156957D01*
X178668D01*
X190331Y149959D02*
X185666D01*
X190331Y154624D01*
Y155790D01*
X189165Y156957D01*
X186832D01*
X185666Y155790D01*
D20*
X-86557Y176706D02*
X-79893D01*
X29013Y175436D02*
X35677D01*
X32345Y178768D02*
Y172104D01*
X445476Y174322D02*
X438811D01*
X329906Y175592D02*
X323241D01*
X326573Y172260D02*
Y178925D01*
D21*
X219652Y393617D02*
Y404947D01*
X225317Y410612D01*
X230981Y404947D01*
Y393617D01*
Y402114D01*
X219652D01*
M02*
