G04*
G04 #@! TF.GenerationSoftware,Altium Limited,Altium Designer,22.11.1 (43)*
G04*
G04 Layer_Color=32768*
%FSLAX44Y44*%
%MOMM*%
G71*
G04*
G04 #@! TF.SameCoordinates,1E15B7FD-EAFD-4F9B-970C-30AA40316711*
G04*
G04*
G04 #@! TF.FilePolarity,Positive*
G04*
G01*
G75*
%ADD13C,0.2000*%
%ADD16C,0.1000*%
%ADD19C,0.1500*%
%ADD20C,0.2032*%
%ADD109C,0.0508*%
G36*
X204746Y359516D02*
X204751Y359272D01*
Y359272D01*
X204746Y359027D01*
X204396Y358684D01*
X203906D01*
X203557Y359027D01*
X203552Y359272D01*
Y359272D01*
X203557Y359516D01*
X203906Y359859D01*
X204396D01*
X204746Y359516D01*
D02*
G37*
G36*
X144539Y358977D02*
X144544Y358733D01*
X144544Y358733D01*
X144539Y358488D01*
X144189Y358145D01*
X143700D01*
X143350Y358488D01*
X143345Y358733D01*
X143345Y358733D01*
X143350Y358977D01*
X143700Y359320D01*
X144189D01*
X144539Y358977D01*
D02*
G37*
G36*
X253486Y360733D02*
X253486Y355484D01*
X253686D01*
X253686Y317284D01*
X211186Y317284D01*
X211186Y355484D01*
X211386D01*
X211386Y360733D01*
X215386Y360733D01*
X215386Y355484D01*
X224086Y355484D01*
Y360733D01*
X228086D01*
X228086Y355484D01*
X236786D01*
X236786Y360733D01*
X240786D01*
X240786Y355484D01*
X249486Y355484D01*
X249486Y360733D01*
X253486Y360733D01*
D02*
G37*
G36*
X309110Y355484D02*
X309310D01*
X309310Y317284D01*
X266810Y317284D01*
X266810Y355484D01*
X267010D01*
X267010Y360733D01*
X271010Y360733D01*
X271010Y355484D01*
X279710Y355484D01*
Y360733D01*
X283710Y360733D01*
X283710Y355484D01*
X292410D01*
X292410Y360733D01*
X296410Y360733D01*
X296410Y355484D01*
X305110Y355484D01*
X305110Y360733D01*
X309110Y360733D01*
X309110Y355484D01*
D02*
G37*
G36*
X83108Y359655D02*
X83108Y354406D01*
X83308D01*
X83308Y316206D01*
X40808Y316206D01*
Y354406D01*
X41008D01*
Y359655D01*
X45008Y359655D01*
X45008Y354406D01*
X53708Y354406D01*
Y359655D01*
X57708Y359655D01*
X57708Y354406D01*
X66408Y354406D01*
X66408Y359655D01*
X70408Y359655D01*
X70408Y354406D01*
X79108Y354406D01*
X79108Y359655D01*
X83108Y359655D01*
D02*
G37*
G36*
X186502Y359272D02*
Y353272D01*
X182502Y353272D01*
X182502Y359272D01*
X186502Y359272D01*
D02*
G37*
G36*
X161102Y359272D02*
X161102Y353272D01*
X157102Y353272D01*
X157102Y359272D01*
X161102Y359272D01*
D02*
G37*
G36*
X199202Y353272D02*
X195202Y353272D01*
X195202Y359272D01*
X199202Y359272D01*
X199202Y353272D01*
D02*
G37*
G36*
X173802Y359272D02*
X173802Y353272D01*
X169802Y353272D01*
X169802Y359272D01*
X173802Y359272D01*
D02*
G37*
G36*
X100895Y352733D02*
X96895Y352733D01*
X96895Y358733D01*
X100895Y358733D01*
X100895Y352733D01*
D02*
G37*
G36*
X113595Y358733D02*
X113595Y352733D01*
X109595Y352733D01*
X109595Y358733D01*
X113595Y358733D01*
D02*
G37*
G36*
X138995Y352733D02*
X134995Y352733D01*
X134995Y358733D01*
X138995Y358733D01*
X138995Y352733D01*
D02*
G37*
G36*
X126295Y352733D02*
X122295Y352733D01*
X122295Y358733D01*
X126295Y358733D01*
X126295Y352733D01*
D02*
G37*
G36*
X378163Y308456D02*
X378168Y308211D01*
X378168Y308211D01*
X378163Y307966D01*
X377813Y307623D01*
X377323D01*
X376974Y307966D01*
X376969Y308211D01*
X376969Y308211D01*
X376974Y308456D01*
X377323Y308798D01*
X377813D01*
X378163Y308456D01*
D02*
G37*
G36*
X334519Y308211D02*
X334519Y302211D01*
X330519Y302211D01*
X330519Y308211D01*
X334519Y308211D01*
D02*
G37*
G36*
X347219Y308211D02*
X347219Y302211D01*
X343219Y302211D01*
Y308211D01*
X347219Y308211D01*
D02*
G37*
G36*
X359919Y302211D02*
X355919Y302211D01*
X355919Y308211D01*
X359919D01*
X359919Y302211D01*
D02*
G37*
G36*
X372619Y302211D02*
X368619Y302211D01*
Y308211D01*
X372619Y308211D01*
X372619Y302211D01*
D02*
G37*
G36*
X240786Y305233D02*
X240786Y299233D01*
X236786D01*
X236786Y305233D01*
X240786Y305233D01*
D02*
G37*
G36*
X296410Y305233D02*
X296410Y299233D01*
X292410Y299233D01*
X292410Y305233D01*
X296410Y305233D01*
D02*
G37*
G36*
X228085Y305233D02*
X228086Y299233D01*
X224086Y299233D01*
X224086Y305233D01*
X228085Y305233D01*
D02*
G37*
G36*
X271010Y305233D02*
X271010Y299233D01*
X267010Y299233D01*
X267010Y305233D01*
X271010Y305233D01*
D02*
G37*
G36*
X309110Y299233D02*
X305110D01*
X305110Y305233D01*
X309110Y305233D01*
X309110Y299233D01*
D02*
G37*
G36*
X283710Y299233D02*
X279710Y299233D01*
X279710Y305233D01*
X283710Y305233D01*
X283710Y299233D01*
D02*
G37*
G36*
X253486Y299233D02*
X249486Y299233D01*
X249486Y305233D01*
X253486Y305233D01*
X253486Y299233D01*
D02*
G37*
G36*
X215386Y305233D02*
X215386Y299233D01*
X211386Y299233D01*
Y305233D01*
X215386Y305233D01*
D02*
G37*
G36*
X262655Y299478D02*
X262660Y299233D01*
X262660Y299234D01*
X262655Y298989D01*
X262306Y298646D01*
X261816D01*
X261466Y298989D01*
X261461Y299234D01*
X261461Y299233D01*
X261466Y299478D01*
X261816Y299821D01*
X262306D01*
X262655Y299478D01*
D02*
G37*
G36*
X207031Y299478D02*
X207036Y299233D01*
Y299233D01*
X207031Y298989D01*
X206681Y298646D01*
X206192D01*
X205842Y298989D01*
X205837Y299233D01*
X205842Y299478D01*
X206192Y299821D01*
X206681D01*
X207031Y299478D01*
D02*
G37*
G36*
X36653Y298400D02*
X36658Y298155D01*
Y298155D01*
Y298155D01*
Y298155D01*
X36653Y297911D01*
X36304Y297568D01*
X35814D01*
X35464Y297911D01*
X35459Y298155D01*
X35464Y298400D01*
X35814Y298743D01*
X36304D01*
X36653Y298400D01*
D02*
G37*
G36*
X35459Y298155D02*
Y298155D01*
Y298155D01*
Y298155D01*
D02*
G37*
G36*
X57708Y298155D02*
X53708Y298155D01*
X53708Y304155D01*
X57708D01*
X57708Y298155D01*
D02*
G37*
G36*
X83108Y304155D02*
X83108Y298155D01*
X79108Y298155D01*
X79108Y304155D01*
X83108Y304155D01*
D02*
G37*
G36*
X70408Y304155D02*
X70408Y298155D01*
X66408Y298155D01*
X66408Y304155D01*
X70408Y304155D01*
D02*
G37*
G36*
X45008Y304155D02*
Y298155D01*
X41008Y298155D01*
X41008Y304155D01*
X45008Y304155D01*
D02*
G37*
G36*
X199402Y341221D02*
X199402Y303021D01*
X199202D01*
X199202Y297772D01*
X195202Y297772D01*
X195202Y303021D01*
X186502Y303021D01*
Y297772D01*
X182502Y297771D01*
Y303021D01*
X173802D01*
X173802Y297772D01*
X169802Y297772D01*
X169802Y303021D01*
X161102Y303021D01*
X161102Y297771D01*
X157102Y297772D01*
X157102Y303021D01*
X156902D01*
X156902Y341221D01*
X199402Y341221D01*
D02*
G37*
G36*
X139195Y340682D02*
X139195Y302482D01*
X138995D01*
X138995Y297233D01*
X134995Y297233D01*
X134995Y302482D01*
X126295D01*
X126295Y297232D01*
X122295Y297232D01*
X122295Y302482D01*
X113595Y302482D01*
X113595Y297233D01*
X109595Y297232D01*
X109595Y302482D01*
X100895D01*
X100896Y297233D01*
X96895Y297232D01*
X96895Y302482D01*
X96695D01*
X96695Y340682D01*
X139195Y340682D01*
D02*
G37*
G36*
X372819Y251960D02*
X372619D01*
Y246711D01*
X368619Y246711D01*
X368619Y251960D01*
X359919D01*
Y246711D01*
X355919Y246711D01*
X355919Y251960D01*
X347219Y251960D01*
X347219Y246711D01*
X343219D01*
Y251960D01*
X334519D01*
X334519Y246711D01*
X330519Y246711D01*
X330519Y251960D01*
X330319D01*
Y290161D01*
X372819D01*
X372819Y251960D01*
D02*
G37*
G36*
X65889Y183928D02*
X65889Y176928D01*
X39390Y176928D01*
X39389Y183928D01*
X65889Y183928D01*
D02*
G37*
G36*
X111389Y176928D02*
X84889Y176928D01*
X84889Y183928D01*
X111389Y183928D01*
X111389Y176928D01*
D02*
G37*
G36*
X39631Y148004D02*
X39979Y147668D01*
X39988Y147427D01*
X39988Y147427D01*
X39979Y147185D01*
X39630Y146851D01*
X39147Y146851D01*
X38799Y147187D01*
X38790Y147428D01*
X38790Y147428D01*
X38799Y147670D01*
X39148Y148004D01*
X39631Y148004D01*
D02*
G37*
D13*
X142110Y50986D02*
X211817D01*
X142110Y-2014D02*
Y50986D01*
Y-2014D02*
X211817D01*
Y50986D01*
X142110D02*
X211817D01*
X142110Y-2014D02*
Y50986D01*
Y-2014D02*
X211817D01*
Y50986D01*
X176785Y280939D02*
X176785Y261939D01*
X214367Y261939D01*
X214367Y280939D01*
X176785Y280939D02*
X214367Y280939D01*
X85732Y58075D02*
X105732Y58075D01*
X85732Y58075D02*
X85732Y30075D01*
X105732Y30075D01*
Y58075D01*
X46114Y83593D02*
X65114Y83593D01*
X46114Y46010D02*
X46114Y83593D01*
X46114Y46010D02*
X65114Y46010D01*
Y83593D01*
X323652Y280939D02*
X323652Y261938D01*
X286070Y280938D02*
X323652Y280939D01*
X286070Y261938D02*
Y280938D01*
Y261938D02*
X323652Y261938D01*
X112399Y278107D02*
X112400Y259107D01*
X74817Y278107D02*
X112399D01*
X74817Y259107D02*
X74817Y278107D01*
X74817Y259107D02*
X112400Y259107D01*
X46471Y253430D02*
X46471Y291012D01*
X65471Y291012D01*
X65471Y253430D02*
X65471Y291012D01*
X46471Y253430D02*
X65471Y253430D01*
X226846Y253601D02*
X226846Y291183D01*
X245846Y291183D01*
X245846Y253601D02*
X245846Y291183D01*
X226846Y253601D02*
X245846Y253601D01*
X257952Y291775D02*
X257952Y254193D01*
X257952Y291775D02*
X276952Y291775D01*
X276952Y254193D01*
X257952Y254193D02*
X276952Y254193D01*
X211669Y150221D02*
Y203221D01*
X141962Y150221D02*
X211669D01*
X141962D02*
Y203221D01*
X211669D01*
X211669Y150221D02*
Y203221D01*
X141962Y150221D02*
X211669D01*
X141962D02*
Y203221D01*
X211669D01*
D16*
X2046Y147622D02*
X38046Y147622D01*
X2046Y106982D02*
X38046Y106982D01*
X38046Y147622D02*
X38046Y106982D01*
X2046Y106982D02*
Y147622D01*
X20046Y132302D02*
X20046Y122302D01*
X15046Y127302D02*
X25046Y127302D01*
X171964Y24486D02*
X181963D01*
X176964Y19486D02*
Y29486D01*
X195576Y276439D02*
X195576Y266439D01*
X190576Y271439D02*
X200576D01*
X90732Y44075D02*
X100732D01*
X95732Y49075D02*
X95732Y39075D01*
X50614Y64802D02*
X60614Y64802D01*
X55614Y59802D02*
X55614Y69802D01*
X96339Y88859D02*
Y98859D01*
X91339Y93859D02*
X101339Y93859D01*
X72839Y114359D02*
X119839Y114359D01*
X72839Y73359D02*
X119839Y73359D01*
X72839Y114359D02*
X72839Y73359D01*
X119839Y73359D02*
X119839Y114359D01*
X304861Y266439D02*
Y276439D01*
X299861Y271439D02*
X309861D01*
X93608Y263607D02*
X93608Y273607D01*
X88608Y268607D02*
X98608Y268607D01*
X55971Y267221D02*
X55971Y277221D01*
X50971Y272221D02*
X60971Y272221D01*
X236346Y277392D02*
X236346Y267392D01*
X231346Y272392D02*
X241346Y272392D01*
X267452Y277984D02*
X267452Y267984D01*
X262452Y272984D02*
X272452Y272984D01*
X176816Y171721D02*
Y181721D01*
X171816Y176721D02*
X181816D01*
D19*
X154463Y49986D02*
X199464D01*
X154463Y-1014D02*
Y49986D01*
Y-1014D02*
X199464D01*
Y49986D01*
X199316Y151221D02*
Y202221D01*
X154316Y151221D02*
X199316D01*
X154316D02*
Y202221D01*
X199316D01*
D20*
X199308Y143889D02*
X199308Y133889D01*
X153308D02*
Y143889D01*
X148308Y138889D02*
X158308D01*
X148184Y122945D02*
X158184Y122945D01*
X153184Y127945D02*
X153184Y117945D01*
X199184Y117945D02*
Y127945D01*
D109*
X262060Y359033D02*
X262060Y300433D01*
X262060Y359033D02*
X314060Y359033D01*
X314060Y300433D01*
X262060Y300433D02*
X314060Y300433D01*
X325569Y307011D02*
X377569Y307011D01*
X325569Y248411D02*
X325569Y307011D01*
X325569Y248411D02*
X377569Y248411D01*
Y307011D01*
X55590Y213428D02*
X108390Y213428D01*
X42390Y200228D02*
X55590Y213428D01*
X42390Y160628D02*
X42390Y200228D01*
X42390Y160628D02*
X55590Y147428D01*
X108390Y147428D01*
X108390Y213428D02*
X108390Y147428D01*
X36058Y299355D02*
Y357955D01*
X88058Y357955D01*
X88058Y299355D02*
X88058Y357955D01*
X36058Y299355D02*
X88058Y299355D01*
X91946Y357533D02*
X143946Y357533D01*
X91946Y298933D02*
X91946Y357533D01*
X91946Y298933D02*
X143946Y298932D01*
X143946Y357533D01*
X206436Y300433D02*
X258435Y300433D01*
X258435Y359034D01*
X206436Y359034D02*
X258435Y359034D01*
X206436Y359034D02*
X206436Y300433D01*
X152152Y358072D02*
X204152Y358072D01*
X152152Y299472D02*
Y358072D01*
Y299472D02*
X204152Y299472D01*
X204152Y358072D02*
X204152Y299472D01*
M02*
