G04*
G04 #@! TF.GenerationSoftware,Altium Limited,Altium Designer,22.11.1 (43)*
G04*
G04 Layer_Color=8388736*
%FSLAX44Y44*%
%MOMM*%
G71*
G04*
G04 #@! TF.SameCoordinates,1E15B7FD-EAFD-4F9B-970C-30AA40316711*
G04*
G04*
G04 #@! TF.FilePolarity,Positive*
G04*
G01*
G75*
%ADD10C,0.2540*%
%ADD13C,0.2000*%
G36*
X-50996Y199647D02*
X-53361Y199531D01*
X-58000Y198608D01*
X-62371Y196798D01*
X-66304Y194170D01*
X-69648Y190825D01*
X-72277Y186892D01*
X-74087Y182522D01*
X-75010Y177882D01*
Y173152D01*
X-74087Y168513D01*
X-72277Y164143D01*
X-69648Y160210D01*
X-66304Y156865D01*
X-62371Y154237D01*
X-58000Y152426D01*
X-53361Y151504D01*
X-50996Y151387D01*
X-50470Y151387D01*
X-49726Y150643D01*
Y149591D01*
X-50470Y148847D01*
X-50996D01*
X-53095Y148847D01*
X-57241Y149504D01*
X-61234Y150801D01*
X-64974Y152707D01*
X-68370Y155175D01*
X-71339Y158143D01*
X-73806Y161539D01*
X-75712Y165280D01*
X-77009Y169272D01*
X-77666Y173418D01*
Y177616D01*
X-77009Y181763D01*
X-75712Y185755D01*
X-73806Y189496D01*
X-71339Y192892D01*
X-68370Y195860D01*
X-64974Y198328D01*
X-61234Y200233D01*
X-57241Y201531D01*
X-53095Y202187D01*
X-50996D01*
Y202187D01*
X-50470D01*
X-49726Y201444D01*
Y200391D01*
X-50470Y199647D01*
X-50996D01*
Y199647D01*
D02*
G37*
G36*
X165294Y-49382D02*
Y-52382D01*
X160294D01*
Y-95382D01*
X201294D01*
Y-52382D01*
X195794D01*
Y-49382D01*
X204294D01*
Y-98382D01*
X157294D01*
Y-49382D01*
X165294D01*
D01*
D02*
G37*
G36*
X409915Y151381D02*
X412280Y151497D01*
X416919Y152420D01*
X421289Y154230D01*
X425222Y156858D01*
X428567Y160203D01*
X431195Y164136D01*
X433005Y168506D01*
X433928Y173145D01*
Y177876D01*
X433005Y182515D01*
X431195Y186885D01*
X428567Y190819D01*
X425222Y194163D01*
X421289Y196791D01*
X416919Y198601D01*
X412280Y199524D01*
X409915Y199641D01*
X409389D01*
X408644Y200385D01*
Y201437D01*
X409389Y202181D01*
X409915D01*
X412014D01*
X416160Y201524D01*
X420152Y200227D01*
X423893Y198321D01*
X427289Y195853D01*
X430257Y192885D01*
X432725Y189489D01*
X434631Y185748D01*
X435928Y181756D01*
X436585Y177610D01*
Y173412D01*
X435928Y169265D01*
X434631Y165273D01*
X432725Y161532D01*
X430257Y158136D01*
X427289Y155168D01*
X423893Y152700D01*
X420152Y150794D01*
X416160Y149497D01*
X412014Y148841D01*
X409915D01*
X409389D01*
X408644Y149585D01*
Y150637D01*
X409389Y151381D01*
X409915D01*
D01*
D02*
G37*
D10*
X310082Y186230D02*
G03*
X310082Y186230I-1270J0D01*
G01*
D13*
X6295Y287910D02*
G03*
X6295Y287910I-1001J0D01*
G01*
Y107001D02*
G03*
X6295Y107001I-1001J0D01*
G01*
M02*
