G04*
G04 #@! TF.GenerationSoftware,Altium Limited,Altium Designer,22.11.1 (43)*
G04*
G04 Layer_Color=255*
%FSLAX44Y44*%
%MOMM*%
G71*
G04*
G04 #@! TF.SameCoordinates,1E15B7FD-EAFD-4F9B-970C-30AA40316711*
G04*
G04*
G04 #@! TF.FilePolarity,Positive*
G04*
G01*
G75*
G04:AMPARAMS|DCode=25|XSize=0.508mm|YSize=0.508mm|CornerRadius=0.127mm|HoleSize=0mm|Usage=FLASHONLY|Rotation=270.000|XOffset=0mm|YOffset=0mm|HoleType=Round|Shape=RoundedRectangle|*
%AMROUNDEDRECTD25*
21,1,0.5080,0.2540,0,0,270.0*
21,1,0.2540,0.5080,0,0,270.0*
1,1,0.2540,-0.1270,-0.1270*
1,1,0.2540,-0.1270,0.1270*
1,1,0.2540,0.1270,0.1270*
1,1,0.2540,0.1270,-0.1270*
%
%ADD25ROUNDEDRECTD25*%
G04:AMPARAMS|DCode=26|XSize=0.508mm|YSize=0.508mm|CornerRadius=0.127mm|HoleSize=0mm|Usage=FLASHONLY|Rotation=0.000|XOffset=0mm|YOffset=0mm|HoleType=Round|Shape=RoundedRectangle|*
%AMROUNDEDRECTD26*
21,1,0.5080,0.2540,0,0,0.0*
21,1,0.2540,0.5080,0,0,0.0*
1,1,0.2540,0.1270,-0.1270*
1,1,0.2540,-0.1270,-0.1270*
1,1,0.2540,-0.1270,0.1270*
1,1,0.2540,0.1270,0.1270*
%
%ADD26ROUNDEDRECTD26*%
G04:AMPARAMS|DCode=29|XSize=0.508mm|YSize=0.508mm|CornerRadius=0.127mm|HoleSize=0mm|Usage=FLASHONLY|Rotation=135.000|XOffset=0mm|YOffset=0mm|HoleType=Round|Shape=RoundedRectangle|*
%AMROUNDEDRECTD29*
21,1,0.5080,0.2540,0,0,135.0*
21,1,0.2540,0.5080,0,0,135.0*
1,1,0.2540,0.0000,0.1796*
1,1,0.2540,0.1796,0.0000*
1,1,0.2540,0.0000,-0.1796*
1,1,0.2540,-0.1796,0.0000*
%
%ADD29ROUNDEDRECTD29*%
G04:AMPARAMS|DCode=38|XSize=0.508mm|YSize=0.508mm|CornerRadius=0.127mm|HoleSize=0mm|Usage=FLASHONLY|Rotation=225.000|XOffset=0mm|YOffset=0mm|HoleType=Round|Shape=RoundedRectangle|*
%AMROUNDEDRECTD38*
21,1,0.5080,0.2540,0,0,225.0*
21,1,0.2540,0.5080,0,0,225.0*
1,1,0.2540,-0.1796,0.0000*
1,1,0.2540,0.0000,0.1796*
1,1,0.2540,0.1796,0.0000*
1,1,0.2540,0.0000,-0.1796*
%
%ADD38ROUNDEDRECTD38*%
%ADD41R,0.7600X0.8600*%
%ADD94C,3.8000*%
%ADD95C,1.2000*%
%ADD96R,1.2000X1.2000*%
%ADD97C,1.0000*%
%ADD98R,1.0000X1.0000*%
%ADD99R,2.8000X2.8000*%
%ADD100C,1.5000*%
%ADD101P,2.1213X4X255.0*%
%ADD102C,2.6000*%
%ADD103C,3.5000*%
%ADD106R,1.1883X0.3408*%
%ADD107O,1.1883X0.3408*%
D25*
X183098Y209123D02*
D03*
X193258Y209123D02*
D03*
D26*
X126210Y18166D02*
D03*
Y28326D02*
D03*
X134904Y18270D02*
D03*
X134904Y28430D02*
D03*
D29*
X313845Y119003D02*
D03*
X306661Y111819D02*
D03*
D38*
X241021Y161675D02*
D03*
X248205Y154491D02*
D03*
X327093Y107128D02*
D03*
X334277Y99944D02*
D03*
D41*
X102647Y339124D02*
D03*
X102647Y354124D02*
D03*
X164975Y339124D02*
D03*
Y354124D02*
D03*
X227303Y339124D02*
D03*
X227303Y354124D02*
D03*
X274966Y339723D02*
D03*
X274966Y354723D02*
D03*
D94*
X-49326Y175517D02*
D03*
X674Y175517D02*
D03*
X408245Y175511D02*
D03*
X358245D02*
D03*
D95*
X173293Y-50382D02*
D03*
D96*
X188294D02*
D03*
D97*
X400609Y97786D02*
D03*
D98*
X387909Y97786D02*
D03*
D99*
X250071Y402990D02*
D03*
X105684D02*
D03*
X177877D02*
D03*
D100*
X260551Y-47328D02*
D03*
X282548Y-34628D02*
D03*
D101*
X304545Y-21928D02*
D03*
D102*
X4Y353548D02*
D03*
X0Y0D02*
D03*
X353553Y353553D02*
D03*
D103*
X353553Y0D02*
D03*
D106*
X204876Y43986D02*
D03*
X204728Y196221D02*
D03*
D107*
X204876Y37486D02*
D03*
Y30986D02*
D03*
Y24486D02*
D03*
Y17986D02*
D03*
Y11486D02*
D03*
Y4986D02*
D03*
X149051D02*
D03*
Y11486D02*
D03*
Y17986D02*
D03*
Y24486D02*
D03*
Y30986D02*
D03*
Y37486D02*
D03*
Y43986D02*
D03*
X148904Y196221D02*
D03*
Y189721D02*
D03*
Y183221D02*
D03*
Y176721D02*
D03*
Y170221D02*
D03*
Y163721D02*
D03*
Y157221D02*
D03*
X204728D02*
D03*
Y163721D02*
D03*
Y170221D02*
D03*
Y176721D02*
D03*
Y183221D02*
D03*
Y189721D02*
D03*
M02*
