G04*
G04 #@! TF.GenerationSoftware,Altium Limited,Altium Designer,22.11.1 (43)*
G04*
G04 Layer_Physical_Order=2*
G04 Layer_Color=36540*
%FSLAX44Y44*%
%MOMM*%
G71*
G04*
G04 #@! TF.SameCoordinates,1E15B7FD-EAFD-4F9B-970C-30AA40316711*
G04*
G04*
G04 #@! TF.FilePolarity,Positive*
G04*
G01*
G75*
%ADD11C,0.3000*%
%ADD12C,0.2500*%
%ADD13C,0.2000*%
%ADD94C,3.8000*%
%ADD95C,1.2000*%
%ADD99R,2.8000X2.8000*%
%ADD100C,1.5000*%
%ADD101P,2.1213X4X255.0*%
%ADD104C,0.4570*%
%ADD105C,0.6000*%
G36*
X249539Y150071D02*
X249013Y148801D01*
X243669D01*
X242973Y150071D01*
X243332Y150939D01*
Y152445D01*
X242756Y153836D01*
X241691Y154901D01*
X240300Y155477D01*
X239516D01*
X239184Y155974D01*
Y157480D01*
X238608Y158871D01*
X237543Y159936D01*
X236152Y160512D01*
X234646D01*
X233255Y159936D01*
X232190Y158871D01*
X231614Y157480D01*
Y155974D01*
X231700Y155766D01*
X230852Y154496D01*
X224966D01*
X223893Y154283D01*
X222984Y153675D01*
X197679Y128370D01*
X190809D01*
X189736Y128156D01*
X188826Y127549D01*
X186682Y125405D01*
X186074Y124495D01*
X185861Y123422D01*
Y118019D01*
X184591Y117493D01*
X184485Y117599D01*
X183093Y118175D01*
X181588D01*
X180196Y117599D01*
X179132Y116534D01*
X178556Y115143D01*
Y113637D01*
X179132Y112246D01*
X180196Y111181D01*
X181588Y110605D01*
X183093D01*
X184485Y111181D01*
X184591Y111288D01*
X185861Y110762D01*
Y79626D01*
X186074Y78553D01*
X186682Y77643D01*
X209059Y55266D01*
X209969Y54658D01*
X211042Y54445D01*
X215705D01*
X216778Y54658D01*
X217688Y55266D01*
X218802Y56380D01*
X221444D01*
X221453Y56371D01*
X222844Y55795D01*
X224349D01*
X225741Y56371D01*
X226805Y57436D01*
X227381Y58827D01*
Y60333D01*
X226805Y61724D01*
X225741Y62789D01*
X224349Y63365D01*
X222844D01*
X221453Y62789D01*
X220652Y61988D01*
X217640D01*
X216567Y61774D01*
X215658Y61166D01*
X214544Y60053D01*
X212203D01*
X191469Y80787D01*
Y110208D01*
X192738Y111057D01*
X193188Y110871D01*
X194693D01*
X196084Y111447D01*
X197149Y112512D01*
X197725Y113903D01*
Y114115D01*
X202035Y118425D01*
X203533Y118127D01*
X203720Y117677D01*
X203870Y117527D01*
Y96957D01*
X203870Y96957D01*
X204103Y95786D01*
X204766Y94794D01*
X213232Y86327D01*
X214225Y85664D01*
X215395Y85431D01*
X215395Y85431D01*
X242641D01*
X242641Y85431D01*
X243811Y85664D01*
X244804Y86327D01*
X261230Y102753D01*
X261230Y102753D01*
X261893Y103745D01*
X262126Y104916D01*
X262126Y104916D01*
Y110802D01*
X261893Y111973D01*
X261230Y112965D01*
X261230Y112965D01*
X255312Y118882D01*
X254320Y119545D01*
X253150Y119778D01*
X253150Y119778D01*
X251538D01*
X251388Y119928D01*
X249997Y120505D01*
X248491D01*
X247100Y119928D01*
X246036Y118863D01*
X245459Y117472D01*
Y116155D01*
X244952Y115779D01*
X244286Y115532D01*
X238719Y121100D01*
X238661Y121261D01*
X238694Y121418D01*
X239055Y121638D01*
X240111Y121974D01*
X241201Y121522D01*
X242707D01*
X244098Y122099D01*
X245163Y123163D01*
X245739Y124554D01*
Y126060D01*
X245163Y127451D01*
X244098Y128516D01*
X242707Y129092D01*
X241201D01*
X239810Y128516D01*
X238745Y127451D01*
X238169Y126060D01*
Y124655D01*
X237901Y124427D01*
X237021Y124007D01*
X236368Y124660D01*
X234977Y125236D01*
X233472D01*
X232080Y124660D01*
X231016Y123595D01*
X230439Y122204D01*
Y120698D01*
X231016Y119307D01*
X232080Y118242D01*
X233472Y117666D01*
X234222D01*
X239865Y112022D01*
Y109440D01*
X239714Y109289D01*
X239138Y107898D01*
Y106392D01*
X239602Y105271D01*
X239437Y103827D01*
X239085Y103682D01*
X238021Y102617D01*
X237444Y101226D01*
Y99720D01*
X238021Y98329D01*
X239085Y97264D01*
X240477Y96688D01*
X241982D01*
X243374Y97264D01*
X244438Y98329D01*
X245014Y99720D01*
Y101226D01*
X244550Y102347D01*
X244715Y103790D01*
X245067Y103936D01*
X245976Y104845D01*
X246701Y104934D01*
X247442Y104847D01*
X248349Y103941D01*
X249740Y103364D01*
X251246D01*
X251498Y103469D01*
X252217Y102392D01*
X241374Y91549D01*
X216662D01*
X209987Y98224D01*
Y117527D01*
X210137Y117677D01*
X210714Y119068D01*
Y120574D01*
X210137Y121965D01*
X209073Y123029D01*
X208622Y123216D01*
X208324Y124714D01*
X226294Y142684D01*
X249158D01*
X267830Y124011D01*
X267830Y124011D01*
X268823Y123348D01*
X269993Y123115D01*
X279624D01*
X283026Y119714D01*
Y119283D01*
X283602Y117892D01*
X284667Y116827D01*
X286058Y116251D01*
X287564D01*
X288955Y116827D01*
X289989Y117861D01*
X290730Y117120D01*
X291209Y116922D01*
X292018Y115554D01*
Y114048D01*
X292594Y112657D01*
X293659Y111593D01*
X295050Y111016D01*
X296555D01*
X297946Y111593D01*
X299011Y112657D01*
X299587Y114048D01*
Y115554D01*
X299011Y116945D01*
X297946Y118010D01*
X297467Y118209D01*
X296659Y119576D01*
Y121082D01*
X296083Y122473D01*
X295018Y123538D01*
X293627Y124114D01*
X292121D01*
X290730Y123538D01*
X289696Y122504D01*
X288955Y123245D01*
X287575Y123817D01*
X283054Y128337D01*
X282062Y129000D01*
X280891Y129233D01*
X280891Y129233D01*
X272384D01*
X271975Y129731D01*
X271619Y130958D01*
X272684Y132023D01*
X273260Y133414D01*
Y134920D01*
X272684Y136311D01*
X271619Y137375D01*
X270228Y137952D01*
X268722D01*
X267331Y137375D01*
X266266Y136311D01*
X266182Y136107D01*
X264684Y135809D01*
X260320Y140173D01*
X260806Y141347D01*
X270430D01*
X294472Y165388D01*
X301773D01*
X302383Y164697D01*
X302036Y163411D01*
X301998Y163358D01*
X301209Y163031D01*
X300145Y161966D01*
X299568Y160575D01*
Y159069D01*
X300145Y157678D01*
X301209Y156613D01*
X302600Y156037D01*
X304106D01*
X305497Y156613D01*
X306562Y157678D01*
X307055Y158867D01*
X307832Y159200D01*
X308408Y159309D01*
X310186Y157532D01*
Y131604D01*
X337527Y104263D01*
X381409D01*
Y91286D01*
X394409D01*
Y93082D01*
X394549Y93182D01*
X395679Y93523D01*
X396618Y92584D01*
X398100Y91729D01*
X399753Y91286D01*
X401465D01*
X403118Y91729D01*
X404600Y92584D01*
X405810Y93795D01*
X406666Y95277D01*
X407109Y96930D01*
Y98642D01*
X406666Y100295D01*
X405810Y101777D01*
X404600Y102987D01*
X404590Y102993D01*
X404930Y104263D01*
X417981D01*
X422066Y100177D01*
Y89178D01*
X414995Y82106D01*
Y74092D01*
X406667Y65764D01*
Y56965D01*
X391582Y41880D01*
X384982D01*
X371154Y28052D01*
X348055D01*
X346798Y26795D01*
X338784D01*
X322757Y10767D01*
Y-34331D01*
X319928Y-37160D01*
X309557D01*
X297772Y-48945D01*
X288030D01*
X276087Y-60887D01*
X263674D01*
X255188Y-69372D01*
X238061D01*
X232404Y-75029D01*
X125394D01*
X116909Y-66544D01*
X91768D01*
X82497Y-57273D01*
X71026D01*
X56098Y-42345D01*
X41484D01*
X32067Y-32927D01*
X32067Y-32927D01*
Y-25605D01*
X44475Y-13197D01*
Y63477D01*
X45063Y64065D01*
X70252D01*
X75330Y69143D01*
Y87658D01*
X87365Y99693D01*
Y118325D01*
X95999Y126958D01*
X97497Y126660D01*
X97550Y126533D01*
X98615Y125468D01*
X100006Y124892D01*
X101511D01*
X102903Y125468D01*
X103967Y126533D01*
X104544Y127924D01*
Y128277D01*
X121567D01*
X130844Y137554D01*
Y149194D01*
X131643Y149727D01*
X133149D01*
X134540Y150304D01*
X135605Y151369D01*
X136181Y152760D01*
Y154265D01*
X135605Y155656D01*
X134540Y156721D01*
X133149Y157297D01*
X131643D01*
X130844Y157831D01*
Y170592D01*
X132104Y171114D01*
X133169Y172179D01*
X133745Y173570D01*
Y175076D01*
X133169Y176467D01*
X132104Y177532D01*
X130844Y178054D01*
Y188438D01*
X143071Y200665D01*
X160246D01*
X160881Y199659D01*
X160881Y199396D01*
X160881Y148859D01*
X194571D01*
Y199396D01*
X194571Y199659D01*
X195206Y200665D01*
X198945D01*
X249539Y150071D01*
D02*
G37*
G36*
X320578Y357802D02*
Y347151D01*
X343457Y324272D01*
X377776D01*
X405784Y296264D01*
Y272596D01*
X421562Y256817D01*
Y233938D01*
X428268Y227232D01*
Y127572D01*
X415787Y115090D01*
X336508D01*
X318019Y133579D01*
Y172238D01*
X310455Y179802D01*
X298789D01*
X266461Y147475D01*
X260708D01*
Y148708D01*
X202762Y206654D01*
X135774D01*
X122905Y193784D01*
Y143543D01*
X119896Y140534D01*
X65004D01*
X65212Y135405D01*
Y71281D01*
X64840Y70910D01*
X37890D01*
X34456Y74344D01*
Y151414D01*
X34846Y151576D01*
X34456Y151966D01*
Y165805D01*
X24674Y175587D01*
Y177881D01*
X23752Y182518D01*
X21943Y186886D01*
X19316Y190816D01*
X15973Y194159D01*
X12042Y196786D01*
X7675Y198595D01*
X3038Y199517D01*
X-1690D01*
X-6326Y198595D01*
X-10694Y196786D01*
X-14625Y194159D01*
X-17968Y190816D01*
X-20594Y186886D01*
X-22403Y182518D01*
X-23326Y177881D01*
Y176740D01*
X-70341D01*
X-73891Y180290D01*
Y217371D01*
Y241828D01*
X-61268Y254451D01*
Y274569D01*
X-19849Y315988D01*
X15259D01*
X34983Y335711D01*
Y362930D01*
X42477Y370425D01*
X307955D01*
X320578Y357802D01*
D02*
G37*
G36*
X-51250Y116283D02*
X-51083Y116265D01*
X-50898Y116246D01*
X-50694Y116209D01*
X-50472Y116172D01*
X-49991Y116042D01*
X-49509Y115857D01*
X-49250Y115746D01*
X-49028Y115617D01*
X-48787Y115450D01*
X-48583Y115265D01*
X-48565Y115246D01*
X-48528Y115228D01*
X-48491Y115154D01*
X-48417Y115080D01*
X-48324Y114987D01*
X-48232Y114857D01*
X-48139Y114728D01*
X-48028Y114561D01*
X-47843Y114191D01*
X-47657Y113765D01*
X-47583Y113524D01*
X-47546Y113265D01*
X-47509Y112987D01*
X-47491Y112710D01*
Y112672D01*
Y112561D01*
X-47509Y112395D01*
X-47528Y112191D01*
X-47565Y111932D01*
X-47621Y111654D01*
X-47695Y111358D01*
X-47806Y111061D01*
X-47824Y111024D01*
X-47861Y110932D01*
X-47935Y110765D01*
X-48046Y110562D01*
X-48176Y110321D01*
X-48343Y110043D01*
X-48546Y109747D01*
X-48787Y109432D01*
X-48805Y109413D01*
X-48880Y109321D01*
X-48991Y109191D01*
X-49157Y109006D01*
X-49380Y108784D01*
X-49657Y108488D01*
X-49991Y108173D01*
X-50398Y107784D01*
X-50416Y107766D01*
X-50454Y107747D01*
X-50509Y107691D01*
X-50583Y107617D01*
X-50787Y107432D01*
X-51027Y107210D01*
X-51268Y106969D01*
X-51509Y106729D01*
X-51731Y106525D01*
X-51805Y106432D01*
X-51879Y106358D01*
X-51898Y106340D01*
X-51935Y106303D01*
X-51990Y106229D01*
X-52064Y106136D01*
X-52231Y105932D01*
X-52379Y105692D01*
X-47491D01*
Y103414D01*
X-56101D01*
Y103433D01*
Y103470D01*
X-56083Y103544D01*
X-56064Y103636D01*
X-56045Y103747D01*
X-56027Y103877D01*
X-55953Y104210D01*
X-55842Y104581D01*
X-55694Y104988D01*
X-55508Y105432D01*
X-55268Y105858D01*
Y105877D01*
X-55231Y105914D01*
X-55194Y105988D01*
X-55120Y106062D01*
X-55046Y106192D01*
X-54935Y106321D01*
X-54805Y106488D01*
X-54657Y106673D01*
X-54490Y106895D01*
X-54286Y107117D01*
X-54064Y107377D01*
X-53805Y107654D01*
X-53527Y107932D01*
X-53212Y108247D01*
X-52879Y108580D01*
X-52509Y108932D01*
X-52490Y108951D01*
X-52435Y109006D01*
X-52361Y109080D01*
X-52250Y109191D01*
X-52101Y109302D01*
X-51953Y109451D01*
X-51620Y109784D01*
X-51287Y110136D01*
X-50953Y110487D01*
X-50805Y110636D01*
X-50657Y110802D01*
X-50546Y110932D01*
X-50472Y111043D01*
X-50454Y111080D01*
X-50398Y111173D01*
X-50305Y111321D01*
X-50213Y111524D01*
X-50120Y111747D01*
X-50028Y112006D01*
X-49972Y112265D01*
X-49953Y112543D01*
Y112561D01*
Y112580D01*
Y112672D01*
X-49972Y112839D01*
X-50009Y113024D01*
X-50065Y113228D01*
X-50139Y113432D01*
X-50250Y113635D01*
X-50398Y113820D01*
X-50416Y113839D01*
X-50472Y113895D01*
X-50583Y113969D01*
X-50713Y114043D01*
X-50898Y114117D01*
X-51102Y114191D01*
X-51342Y114246D01*
X-51620Y114265D01*
X-51750D01*
X-51898Y114246D01*
X-52064Y114209D01*
X-52268Y114154D01*
X-52472Y114061D01*
X-52675Y113950D01*
X-52861Y113802D01*
X-52879Y113783D01*
X-52935Y113709D01*
X-53009Y113598D01*
X-53083Y113432D01*
X-53175Y113228D01*
X-53250Y112950D01*
X-53324Y112635D01*
X-53361Y112265D01*
X-55805Y112506D01*
Y112524D01*
X-55786Y112598D01*
Y112691D01*
X-55749Y112839D01*
X-55731Y113006D01*
X-55675Y113191D01*
X-55620Y113395D01*
X-55564Y113635D01*
X-55379Y114098D01*
X-55157Y114580D01*
X-55009Y114820D01*
X-54842Y115042D01*
X-54657Y115228D01*
X-54453Y115413D01*
X-54435Y115431D01*
X-54398Y115450D01*
X-54342Y115487D01*
X-54249Y115561D01*
X-54138Y115617D01*
X-53990Y115691D01*
X-53842Y115783D01*
X-53657Y115857D01*
X-53453Y115950D01*
X-53231Y116024D01*
X-52750Y116172D01*
X-52175Y116265D01*
X-51879Y116283D01*
X-51564Y116302D01*
X-51379D01*
X-51250Y116283D01*
D02*
G37*
G36*
X-63526Y105581D02*
X-57082D01*
Y103414D01*
X-66118D01*
Y116135D01*
X-63526D01*
Y105581D01*
D02*
G37*
%LPC*%
G36*
X140919Y178449D02*
X139413D01*
X138022Y177873D01*
X136958Y176808D01*
X136381Y175417D01*
Y173912D01*
X136958Y172521D01*
X138022Y171456D01*
X139413Y170879D01*
X140919D01*
X142310Y171456D01*
X143375Y172521D01*
X143951Y173912D01*
Y175417D01*
X143375Y176808D01*
X142310Y177873D01*
X140919Y178449D01*
D02*
G37*
G36*
X302448Y151123D02*
X300942D01*
X299551Y150547D01*
X298486Y149482D01*
X297910Y148091D01*
Y146585D01*
X298486Y145194D01*
X299551Y144129D01*
X300942Y143553D01*
X302448D01*
X303839Y144129D01*
X304904Y145194D01*
X305480Y146585D01*
Y148091D01*
X304904Y149482D01*
X303839Y150547D01*
X302448Y151123D01*
D02*
G37*
G36*
X245303Y140831D02*
X243797D01*
X242406Y140255D01*
X241341Y139190D01*
X240103Y139518D01*
X239314Y139845D01*
X237808D01*
X236417Y139269D01*
X235352Y138204D01*
X234776Y136813D01*
Y135307D01*
X235352Y133916D01*
X236417Y132851D01*
X237808Y132275D01*
X239314D01*
X240705Y132851D01*
X241770Y133916D01*
X243008Y133588D01*
X243797Y133261D01*
X244999D01*
X245548Y132944D01*
X246108Y132220D01*
Y131116D01*
X246685Y129725D01*
X247749Y128660D01*
X249140Y128084D01*
X250646D01*
X252037Y128660D01*
X253102Y129725D01*
X253678Y131116D01*
Y132622D01*
X253102Y134013D01*
X252037Y135077D01*
X250646Y135654D01*
X249445D01*
X248896Y135970D01*
X248335Y136695D01*
Y137799D01*
X247759Y139190D01*
X246694Y140255D01*
X245303Y140831D01*
D02*
G37*
G36*
X151136Y135584D02*
X149630D01*
X148239Y135008D01*
X147174Y133943D01*
X146598Y132552D01*
Y131046D01*
X147174Y129655D01*
X148239Y128590D01*
X149630Y128014D01*
X151136D01*
X152527Y128590D01*
X153592Y129655D01*
X154168Y131046D01*
Y132552D01*
X153592Y133943D01*
X152527Y135008D01*
X151136Y135584D01*
D02*
G37*
G36*
X178745Y135339D02*
X177239D01*
X175848Y134763D01*
X174783Y133698D01*
X174207Y132307D01*
Y130801D01*
X174783Y129410D01*
X175848Y128345D01*
X177239Y127769D01*
X178745D01*
X180136Y128345D01*
X181201Y129410D01*
X181777Y130801D01*
Y132307D01*
X181201Y133698D01*
X180136Y134763D01*
X178745Y135339D01*
D02*
G37*
G36*
X301928Y130054D02*
X300422D01*
X299031Y129478D01*
X297966Y128413D01*
X297390Y127022D01*
Y125516D01*
X297966Y124125D01*
X299031Y123060D01*
X300422Y122484D01*
X301928D01*
X303319Y123060D01*
X304384Y124125D01*
X304960Y125516D01*
Y127022D01*
X304384Y128413D01*
X303319Y129478D01*
X301928Y130054D01*
D02*
G37*
G36*
X232218Y113899D02*
X230712D01*
X229321Y113322D01*
X228256Y112258D01*
X227680Y110867D01*
Y109361D01*
X228256Y107970D01*
X229321Y106905D01*
X230712Y106329D01*
X232218D01*
X233609Y106905D01*
X234674Y107970D01*
X235250Y109361D01*
Y110867D01*
X234674Y112258D01*
X233609Y113322D01*
X232218Y113899D01*
D02*
G37*
G36*
X315379Y110444D02*
X313873D01*
X312482Y109867D01*
X311418Y108803D01*
X310841Y107411D01*
Y105906D01*
X311418Y104515D01*
X312482Y103450D01*
X313873Y102874D01*
X315379D01*
X316770Y103450D01*
X317835Y104515D01*
X318411Y105906D01*
Y107411D01*
X317835Y108803D01*
X316770Y109867D01*
X315379Y110444D01*
D02*
G37*
G36*
X227424Y101660D02*
X225919D01*
X224527Y101084D01*
X223463Y100019D01*
X223333Y99993D01*
X222548Y100778D01*
X221157Y101354D01*
X219652D01*
X218260Y100778D01*
X217196Y99713D01*
X216619Y98322D01*
Y96816D01*
X217196Y95425D01*
X218260Y94361D01*
X219652Y93784D01*
X221157D01*
X222548Y94361D01*
X223613Y95425D01*
X223743Y95451D01*
X224527Y94666D01*
X225919Y94090D01*
X227424D01*
X228815Y94666D01*
X229880Y95731D01*
X230457Y97122D01*
Y98628D01*
X229880Y100019D01*
X228815Y101084D01*
X227424Y101660D01*
D02*
G37*
G36*
X306159Y104925D02*
X304653D01*
X303262Y104348D01*
X302198Y103284D01*
X301621Y101893D01*
Y100387D01*
X302198Y98996D01*
X303262Y97931D01*
X304653Y97355D01*
X306159D01*
X307550Y97931D01*
X308615Y98996D01*
X309191Y100387D01*
Y101893D01*
X308615Y103284D01*
X307550Y104348D01*
X306159Y104925D01*
D02*
G37*
G36*
X321500Y96973D02*
X319994D01*
X318603Y96397D01*
X317538Y95332D01*
X316962Y93941D01*
Y92436D01*
X317538Y91044D01*
X317661Y90921D01*
X317561Y90417D01*
X316496Y89353D01*
X315920Y87961D01*
Y86456D01*
X316496Y85064D01*
X317561Y84000D01*
X318952Y83424D01*
X320458D01*
X321849Y84000D01*
X322914Y85064D01*
X323490Y86456D01*
Y87961D01*
X322914Y89353D01*
X322791Y89475D01*
X322891Y89980D01*
X323956Y91044D01*
X324532Y92436D01*
Y93941D01*
X323956Y95332D01*
X322891Y96397D01*
X321500Y96973D01*
D02*
G37*
G36*
X359689Y86488D02*
X358183D01*
X356792Y85911D01*
X355728Y84846D01*
X355151Y83455D01*
Y81950D01*
X355728Y80559D01*
X356792Y79494D01*
X358183Y78917D01*
X359689D01*
X361080Y79494D01*
X362145Y80559D01*
X362721Y81950D01*
Y83455D01*
X362145Y84846D01*
X361080Y85911D01*
X359689Y86488D01*
D02*
G37*
G36*
X382780Y86215D02*
X381275D01*
X379884Y85639D01*
X378819Y84574D01*
X378243Y83183D01*
Y81678D01*
X378819Y80287D01*
X379884Y79222D01*
X381275Y78646D01*
X382780D01*
X384172Y79222D01*
X385236Y80287D01*
X385813Y81678D01*
Y83183D01*
X385236Y84574D01*
X384172Y85639D01*
X382780Y86215D01*
D02*
G37*
G36*
X342574Y82116D02*
X341068D01*
X339677Y81540D01*
X338612Y80475D01*
X338036Y79084D01*
Y77578D01*
X338612Y76187D01*
X339677Y75122D01*
X341068Y74546D01*
X342574D01*
X343965Y75122D01*
X345029Y76187D01*
X345606Y77578D01*
Y79084D01*
X345029Y80475D01*
X343965Y81540D01*
X342574Y82116D01*
D02*
G37*
G36*
X150614Y88105D02*
X149108D01*
X147717Y87529D01*
X146652Y86464D01*
X146076Y85073D01*
Y83567D01*
X146250Y83149D01*
X146232Y83122D01*
X144840Y82546D01*
X143776Y81481D01*
X143200Y80090D01*
Y78584D01*
X143776Y77193D01*
X144840Y76129D01*
X146232Y75552D01*
X147737D01*
X149105Y74744D01*
X149447Y73919D01*
X150512Y72854D01*
X151903Y72278D01*
X153408D01*
X154800Y72854D01*
X155864Y73919D01*
X156441Y75310D01*
Y76816D01*
X156267Y77234D01*
X156285Y77261D01*
X157676Y77837D01*
X158741Y78902D01*
X159317Y80293D01*
Y81799D01*
X158741Y83190D01*
X157676Y84255D01*
X156285Y84831D01*
X154780D01*
X153482Y85471D01*
X153070Y86464D01*
X152005Y87529D01*
X150614Y88105D01*
D02*
G37*
G36*
X213600Y75616D02*
X212094D01*
X210703Y75040D01*
X209638Y73975D01*
X209062Y72584D01*
Y71078D01*
X209638Y69687D01*
X210703Y68622D01*
X212094Y68046D01*
X213600D01*
X214991Y68622D01*
X216056Y69687D01*
X216632Y71078D01*
Y72584D01*
X216056Y73975D01*
X214991Y75040D01*
X213600Y75616D01*
D02*
G37*
G36*
X327358Y68603D02*
X325852D01*
X324461Y68027D01*
X323396Y66962D01*
X322820Y65571D01*
Y64065D01*
X323396Y62674D01*
X324461Y61609D01*
X325852Y61033D01*
X327358D01*
X328749Y61609D01*
X329814Y62674D01*
X330390Y64065D01*
Y65571D01*
X329814Y66962D01*
X328749Y68027D01*
X327358Y68603D01*
D02*
G37*
G36*
X320386Y62833D02*
X318880D01*
X317489Y62257D01*
X316829Y61597D01*
X307546D01*
X306571Y61403D01*
X305744Y60851D01*
X284837Y39944D01*
X284285Y39117D01*
X284090Y38142D01*
Y26726D01*
X284153Y26412D01*
X283325Y25207D01*
X283209Y25142D01*
X274379D01*
X273403Y24948D01*
X272576Y24395D01*
X270569Y22387D01*
X270016Y21560D01*
X269822Y20585D01*
Y-7847D01*
X269751Y-8202D01*
Y-35863D01*
X265703Y-39911D01*
X264025Y-38942D01*
X261736Y-38328D01*
X259366Y-38328D01*
X257077Y-38942D01*
X255025Y-40127D01*
X253349Y-41802D01*
X252164Y-43854D01*
X251551Y-46143D01*
X251551Y-48513D01*
X252164Y-50802D01*
X253349Y-52854D01*
X255025Y-54530D01*
X257077Y-55715D01*
X259366Y-56328D01*
X261736Y-56328D01*
X264025Y-55715D01*
X266077Y-54530D01*
X267753Y-52854D01*
X268937Y-50802D01*
X269551Y-48513D01*
X269551Y-46143D01*
X268944Y-43880D01*
X274102Y-38721D01*
X274655Y-37895D01*
X274849Y-36919D01*
Y-8488D01*
X274920Y-8132D01*
Y16507D01*
X276190Y16759D01*
X276644Y15664D01*
X277303Y15004D01*
Y-10819D01*
X277497Y-11795D01*
X278050Y-12622D01*
X288911Y-23483D01*
X289738Y-24035D01*
X290714Y-24230D01*
X295481D01*
X301251Y-34223D01*
X316839Y-25223D01*
X307839Y-9634D01*
X292251Y-18634D01*
X291036Y-18398D01*
X282401Y-9764D01*
Y15004D01*
X283061Y15664D01*
X284066Y15864D01*
X284171Y15759D01*
X285562Y15183D01*
X287068D01*
X288459Y15759D01*
X289523Y16824D01*
X289666Y17168D01*
X291041D01*
X291227Y16719D01*
X292292Y15654D01*
X293683Y15078D01*
X295189D01*
X296580Y15654D01*
X297645Y16719D01*
X298221Y18110D01*
Y19615D01*
X297645Y21007D01*
X296580Y22071D01*
X295189Y22648D01*
X294256D01*
X292055Y24848D01*
X291920Y25050D01*
X289188Y27782D01*
Y37086D01*
X308602Y56499D01*
X316829D01*
X317489Y55840D01*
X318880Y55263D01*
X320386D01*
X321777Y55840D01*
X322842Y56904D01*
X323418Y58295D01*
Y59801D01*
X322842Y61192D01*
X321777Y62257D01*
X320386Y62833D01*
D02*
G37*
G36*
X203858Y55394D02*
X202352D01*
X200961Y54818D01*
X199896Y53753D01*
X199320Y52362D01*
Y50856D01*
X199896Y49465D01*
X200961Y48400D01*
X202352Y47824D01*
X203858D01*
X205249Y48400D01*
X206314Y49465D01*
X206890Y50856D01*
Y52362D01*
X206314Y53753D01*
X205249Y54818D01*
X203858Y55394D01*
D02*
G37*
G36*
X126981Y54514D02*
X125476D01*
X124084Y53938D01*
X123020Y52873D01*
X122443Y51482D01*
Y49976D01*
X123020Y48585D01*
X124084Y47520D01*
X125476Y46944D01*
X126981D01*
X128372Y47520D01*
X129437Y48585D01*
X130013Y49976D01*
Y51482D01*
X129437Y52873D01*
X128372Y53938D01*
X126981Y54514D01*
D02*
G37*
G36*
X316162Y51478D02*
X314656D01*
X313265Y50902D01*
X312200Y49837D01*
X311624Y48446D01*
Y46940D01*
X312200Y45549D01*
X313265Y44485D01*
X314656Y43908D01*
X316162D01*
X317553Y44485D01*
X318618Y45549D01*
X319194Y46940D01*
Y48446D01*
X318618Y49837D01*
X317553Y50902D01*
X316162Y51478D01*
D02*
G37*
G36*
X240762Y47902D02*
X239256D01*
X237865Y47325D01*
X236800Y46261D01*
X236224Y44869D01*
Y43364D01*
X236800Y41972D01*
X237865Y40908D01*
X239256Y40332D01*
X240762D01*
X242046Y39489D01*
X242243Y39012D01*
X243308Y37948D01*
X244699Y37371D01*
X246205D01*
X247596Y37948D01*
X248661Y39012D01*
X249237Y40403D01*
Y41909D01*
X248661Y43300D01*
X247596Y44365D01*
X246205Y44941D01*
X244699D01*
X243415Y45784D01*
X243218Y46261D01*
X242153Y47325D01*
X240762Y47902D01*
D02*
G37*
G36*
X218837Y44319D02*
X217332D01*
X215940Y43742D01*
X214876Y42678D01*
X214299Y41287D01*
Y39781D01*
X214876Y38390D01*
X215940Y37325D01*
X217332Y36749D01*
X218837D01*
X220228Y37325D01*
X221293Y38390D01*
X221869Y39781D01*
Y41287D01*
X221293Y42678D01*
X220228Y43742D01*
X218837Y44319D01*
D02*
G37*
G36*
X119227Y45665D02*
X117437D01*
X115783Y44980D01*
X114517Y43714D01*
X113832Y42060D01*
Y40270D01*
X114517Y38616D01*
X115783Y37350D01*
X117437Y36665D01*
X119227D01*
X120881Y37350D01*
X122147Y38616D01*
X122832Y40270D01*
Y42060D01*
X122147Y43714D01*
X120881Y44980D01*
X119227Y45665D01*
D02*
G37*
G36*
X229102Y54583D02*
X227596D01*
X226205Y54007D01*
X225140Y52942D01*
X224564Y51551D01*
Y50045D01*
X225140Y48654D01*
X226205Y47590D01*
X226618Y46052D01*
X226514Y45803D01*
Y44297D01*
X227091Y42906D01*
X227715Y42281D01*
X227567Y41814D01*
X227092Y41108D01*
X225836D01*
X224445Y40532D01*
X223381Y39467D01*
X222804Y38076D01*
Y36570D01*
X223381Y35179D01*
X224445Y34114D01*
X225836Y33538D01*
X227342D01*
X228733Y34114D01*
X229798Y35179D01*
X230374Y36570D01*
Y38076D01*
X229798Y39467D01*
X229173Y40092D01*
X229322Y40559D01*
X229796Y41265D01*
X231052D01*
X232443Y41841D01*
X233508Y42906D01*
X234084Y44297D01*
Y45803D01*
X233508Y47194D01*
X232443Y48259D01*
X232031Y49797D01*
X232134Y50045D01*
Y51551D01*
X231558Y52942D01*
X230493Y54007D01*
X229102Y54583D01*
D02*
G37*
G36*
X306345Y38814D02*
X304839D01*
X303448Y38238D01*
X302383Y37174D01*
X301807Y35782D01*
Y34277D01*
X302383Y32885D01*
X303448Y31821D01*
X304839Y31244D01*
X306345D01*
X307736Y31821D01*
X308801Y32885D01*
X309377Y34277D01*
Y35782D01*
X308801Y37174D01*
X307736Y38238D01*
X306345Y38814D01*
D02*
G37*
G36*
X317152Y34560D02*
X315646D01*
X314255Y33984D01*
X313190Y32919D01*
X312614Y31528D01*
Y31462D01*
X311344Y30613D01*
X310876Y30807D01*
X309370D01*
X307979Y30231D01*
X306914Y29166D01*
X306338Y27775D01*
Y26269D01*
X306914Y24878D01*
X307979Y23813D01*
X309370Y23237D01*
X310876D01*
X312267Y23813D01*
X313332Y24878D01*
X313908Y26269D01*
Y26336D01*
X315178Y27184D01*
X315646Y26990D01*
X317152D01*
X318543Y27566D01*
X319608Y28631D01*
X320184Y30022D01*
Y31528D01*
X319608Y32919D01*
X318543Y33984D01*
X317152Y34560D01*
D02*
G37*
G36*
X295469Y38536D02*
X293964D01*
X292572Y37959D01*
X291508Y36895D01*
X290931Y35504D01*
Y33998D01*
X291508Y32607D01*
X292572Y31542D01*
X292705Y31487D01*
X292813Y30947D01*
X292237Y29555D01*
Y28050D01*
X292813Y26659D01*
X293878Y25594D01*
X295269Y25018D01*
X296775D01*
X298166Y25594D01*
X299230Y26659D01*
X299807Y28050D01*
Y29555D01*
X299230Y30947D01*
X298166Y32011D01*
X298033Y32067D01*
X297925Y32607D01*
X298501Y33998D01*
Y35504D01*
X297925Y36895D01*
X296861Y37959D01*
X295469Y38536D01*
D02*
G37*
G36*
X261098Y30696D02*
X259592D01*
X258201Y30120D01*
X257136Y29055D01*
X256560Y27664D01*
Y26158D01*
X257136Y24767D01*
X258201Y23702D01*
X259592Y23126D01*
X261098D01*
X262489Y23702D01*
X263554Y24767D01*
X264130Y26158D01*
Y27664D01*
X263554Y29055D01*
X262489Y30120D01*
X261098Y30696D01*
D02*
G37*
G36*
X235143Y36485D02*
X233637D01*
X232246Y35909D01*
X231181Y34844D01*
X230605Y33453D01*
Y31947D01*
X231181Y30556D01*
X232246Y29492D01*
X233637Y28915D01*
X233807D01*
X234655Y27645D01*
X234578Y27458D01*
Y25953D01*
X235154Y24561D01*
X236219Y23497D01*
X237610Y22920D01*
X239116D01*
X239388Y23033D01*
X240360Y22061D01*
X240331Y21992D01*
Y20486D01*
X240908Y19095D01*
X241972Y18031D01*
X243364Y17454D01*
X244869D01*
X246261Y18031D01*
X247325Y19095D01*
X247901Y20486D01*
Y21992D01*
X247325Y23383D01*
X246261Y24448D01*
X244869Y25024D01*
X243364D01*
X243091Y24911D01*
X242119Y25884D01*
X242148Y25953D01*
Y27458D01*
X241572Y28849D01*
X240507Y29914D01*
X239116Y30490D01*
X238946D01*
X238098Y31760D01*
X238175Y31947D01*
Y33453D01*
X237599Y34844D01*
X236534Y35909D01*
X235143Y36485D01*
D02*
G37*
G36*
X82614Y14997D02*
X80824D01*
X79170Y14311D01*
X77905Y13046D01*
X77219Y11392D01*
Y9601D01*
X77905Y7947D01*
X79170Y6682D01*
X80824Y5997D01*
X82614D01*
X84268Y6682D01*
X85534Y7947D01*
X86219Y9601D01*
Y11392D01*
X85534Y13046D01*
X84268Y14311D01*
X82614Y14997D01*
D02*
G37*
G36*
X194649Y48271D02*
X160959D01*
X160959Y-2529D01*
X194649D01*
Y48271D01*
D02*
G37*
G36*
X232570Y4272D02*
X231064D01*
X229673Y3695D01*
X228608Y2631D01*
X228032Y1239D01*
Y-266D01*
X228608Y-1657D01*
X229673Y-2722D01*
X231064Y-3298D01*
X232570D01*
X233961Y-2722D01*
X235026Y-1657D01*
X235602Y-266D01*
Y1239D01*
X235026Y2631D01*
X233961Y3695D01*
X232570Y4272D01*
D02*
G37*
G36*
X222623Y1721D02*
X221117D01*
X219726Y1145D01*
X218661Y80D01*
X218085Y-1311D01*
Y-2817D01*
X218661Y-4208D01*
X219726Y-5273D01*
X221117Y-5849D01*
X222623D01*
X224014Y-5273D01*
X225079Y-4208D01*
X225655Y-2817D01*
Y-1311D01*
X225079Y80D01*
X224014Y1145D01*
X222623Y1721D01*
D02*
G37*
G36*
X149714Y-5298D02*
X148209D01*
X146817Y-5875D01*
X145753Y-6939D01*
X145176Y-8331D01*
Y-9836D01*
X145753Y-11227D01*
X146817Y-12292D01*
X148209Y-12868D01*
X149714D01*
X151105Y-12292D01*
X152170Y-11227D01*
X152746Y-9836D01*
Y-8331D01*
X152170Y-6939D01*
X151105Y-5875D01*
X149714Y-5298D01*
D02*
G37*
G36*
X231155Y-15398D02*
X229649D01*
X228258Y-15974D01*
X227193Y-17039D01*
X226617Y-18430D01*
Y-19936D01*
X227193Y-21327D01*
X228258Y-22392D01*
X229649Y-22968D01*
X231155D01*
X232546Y-22392D01*
X233611Y-21327D01*
X234187Y-19936D01*
Y-18430D01*
X233611Y-17039D01*
X232546Y-15974D01*
X231155Y-15398D01*
D02*
G37*
G36*
X254542Y-15453D02*
X253037D01*
X251645Y-16030D01*
X250581Y-17094D01*
X250005Y-18485D01*
Y-19991D01*
X250581Y-21382D01*
X251645Y-22447D01*
X253037Y-23023D01*
X254542D01*
X255933Y-22447D01*
X256998Y-21382D01*
X257574Y-19991D01*
Y-18485D01*
X256998Y-17094D01*
X255933Y-16030D01*
X254542Y-15453D01*
D02*
G37*
G36*
X195794Y-42882D02*
X180794D01*
Y-57882D01*
X195794D01*
Y-42882D01*
D02*
G37*
G36*
X128027Y339774D02*
X126109D01*
X124256Y339278D01*
X123921Y339085D01*
X123587Y339278D01*
X121734Y339774D01*
X119816D01*
X117963Y339278D01*
X117693Y339122D01*
X117423Y339278D01*
X115570Y339774D01*
X113652D01*
X111799Y339278D01*
X111336Y339011D01*
X110874Y339278D01*
X109021Y339774D01*
X107103D01*
X105250Y339278D01*
X103589Y338319D01*
X102233Y336962D01*
X101274Y335301D01*
X100777Y333448D01*
Y331530D01*
X101274Y329677D01*
X101361Y329527D01*
X101274Y329376D01*
X100777Y327524D01*
Y325606D01*
X101274Y323753D01*
X101311Y323688D01*
X101274Y323623D01*
X100777Y321770D01*
Y319852D01*
X101274Y317999D01*
X101611Y317414D01*
X101274Y316829D01*
X100777Y314976D01*
Y313058D01*
X101274Y311205D01*
X102233Y309544D01*
X103589Y308188D01*
X105250Y307229D01*
X107103Y306732D01*
X109021D01*
X110874Y307229D01*
X111336Y307496D01*
X111799Y307229D01*
X113652Y306732D01*
X115570D01*
X117423Y307229D01*
X117693Y307385D01*
X117963Y307229D01*
X119816Y306732D01*
X121734D01*
X123587Y307229D01*
X123921Y307422D01*
X124256Y307229D01*
X126109Y306732D01*
X128027D01*
X129880Y307229D01*
X131541Y308188D01*
X132897Y309544D01*
X133856Y311205D01*
X134353Y313058D01*
Y314976D01*
X133856Y316829D01*
X133518Y317414D01*
X133856Y317999D01*
X134353Y319852D01*
Y321770D01*
X133856Y323623D01*
X133819Y323688D01*
X133856Y323753D01*
X134353Y325606D01*
Y327524D01*
X133856Y329376D01*
X133769Y329527D01*
X133856Y329677D01*
X134353Y331530D01*
Y333448D01*
X133856Y335301D01*
X132897Y336962D01*
X131541Y338319D01*
X129880Y339278D01*
X128027Y339774D01*
D02*
G37*
G36*
X188282Y339393D02*
X186364D01*
X184511Y338896D01*
X184177Y338703D01*
X183842Y338896D01*
X181989Y339393D01*
X180071D01*
X178218Y338896D01*
X177948Y338740D01*
X177678Y338896D01*
X175825Y339393D01*
X173907D01*
X172054Y338896D01*
X171592Y338629D01*
X171130Y338896D01*
X169277Y339393D01*
X167359D01*
X165506Y338896D01*
X163845Y337937D01*
X162488Y336581D01*
X161529Y334920D01*
X161033Y333067D01*
Y331149D01*
X161529Y329296D01*
X161616Y329146D01*
X161529Y328995D01*
X161033Y327142D01*
Y325224D01*
X161529Y323371D01*
X161567Y323306D01*
X161529Y323242D01*
X161033Y321389D01*
Y319471D01*
X161529Y317618D01*
X161867Y317033D01*
X161529Y316448D01*
X161033Y314595D01*
Y312677D01*
X161529Y310824D01*
X162488Y309163D01*
X163845Y307806D01*
X165506Y306847D01*
X167359Y306351D01*
X169277D01*
X171130Y306847D01*
X171592Y307114D01*
X172054Y306847D01*
X173907Y306351D01*
X175825D01*
X177678Y306847D01*
X177948Y307003D01*
X178218Y306847D01*
X180071Y306351D01*
X181989D01*
X183842Y306847D01*
X184177Y307041D01*
X184511Y306847D01*
X186364Y306351D01*
X188282D01*
X190135Y306847D01*
X191796Y307806D01*
X193153Y309163D01*
X194112Y310824D01*
X194608Y312677D01*
Y314595D01*
X194112Y316448D01*
X193774Y317033D01*
X194112Y317618D01*
X194608Y319471D01*
Y321389D01*
X194112Y323242D01*
X194074Y323306D01*
X194112Y323371D01*
X194608Y325224D01*
Y327142D01*
X194112Y328995D01*
X194025Y329146D01*
X194112Y329296D01*
X194608Y331149D01*
Y333067D01*
X194112Y334920D01*
X193153Y336581D01*
X191796Y337937D01*
X190135Y338896D01*
X188282Y339393D01*
D02*
G37*
G36*
X362185Y287908D02*
X360267D01*
X358414Y287412D01*
X358079Y287219D01*
X357745Y287412D01*
X355892Y287908D01*
X353974D01*
X352121Y287412D01*
X351851Y287256D01*
X351581Y287412D01*
X349728Y287908D01*
X347810D01*
X345957Y287412D01*
X345495Y287145D01*
X345032Y287412D01*
X343180Y287908D01*
X341261D01*
X339408Y287412D01*
X337747Y286453D01*
X336391Y285096D01*
X335432Y283435D01*
X334935Y281582D01*
Y279664D01*
X335432Y277812D01*
X335519Y277661D01*
X335432Y277511D01*
X334935Y275658D01*
Y273740D01*
X335432Y271887D01*
X335469Y271822D01*
X335432Y271757D01*
X334935Y269904D01*
Y267986D01*
X335432Y266133D01*
X335770Y265548D01*
X335432Y264963D01*
X334935Y263111D01*
Y261192D01*
X335432Y259340D01*
X336391Y257678D01*
X337747Y256322D01*
X339408Y255363D01*
X341261Y254867D01*
X343180D01*
X345032Y255363D01*
X345495Y255630D01*
X345957Y255363D01*
X347810Y254867D01*
X349728D01*
X351581Y255363D01*
X351851Y255519D01*
X352121Y255363D01*
X353974Y254867D01*
X355892D01*
X357745Y255363D01*
X358079Y255556D01*
X358414Y255363D01*
X360267Y254867D01*
X362185D01*
X364038Y255363D01*
X365699Y256322D01*
X367055Y257678D01*
X368014Y259340D01*
X368511Y261192D01*
Y263111D01*
X368014Y264963D01*
X367677Y265548D01*
X368014Y266133D01*
X368511Y267986D01*
Y269904D01*
X368014Y271757D01*
X367977Y271822D01*
X368014Y271887D01*
X368511Y273740D01*
Y275658D01*
X368014Y277511D01*
X367928Y277661D01*
X368014Y277812D01*
X368511Y279664D01*
Y281582D01*
X368014Y283435D01*
X367055Y285096D01*
X365699Y286453D01*
X364038Y287412D01*
X362185Y287908D01*
D02*
G37*
G36*
X360608Y199510D02*
X355881D01*
X351244Y198588D01*
X346876Y196779D01*
X342946Y194153D01*
X339603Y190810D01*
X336976Y186879D01*
X335167Y182511D01*
X334245Y177874D01*
Y173147D01*
X335167Y168510D01*
X336976Y164142D01*
X339603Y160212D01*
X342946Y156869D01*
X346876Y154242D01*
X351244Y152433D01*
X355881Y151511D01*
X360608D01*
X361208Y151630D01*
D01*
X365245Y152433D01*
X369613Y154242D01*
X373544Y156869D01*
X376886Y160212D01*
X379513Y164142D01*
X381322Y168510D01*
X382244Y173147D01*
Y176080D01*
D01*
Y177874D01*
X381322Y182511D01*
X379513Y186879D01*
X376886Y190810D01*
X373544Y194153D01*
X369613Y196779D01*
X365245Y198588D01*
X360608Y199510D01*
D02*
G37*
%LPD*%
D11*
X206929Y96957D02*
X215395Y88490D01*
X206929Y96957D02*
Y119821D01*
X225027Y145743D02*
X250425D01*
X193940Y114656D02*
X225027Y145743D01*
X286811Y120036D02*
Y120255D01*
X280891Y126174D02*
X286811Y120255D01*
X269993Y126174D02*
X280891D01*
X250425Y145743D02*
X269993Y126174D01*
X249244Y116720D02*
X253150D01*
X259067Y110802D01*
Y104916D02*
Y110802D01*
X215395Y88490D02*
X242641D01*
X259067Y104916D01*
X178082Y400372D02*
Y402990D01*
X167553Y389842D02*
X178082Y400372D01*
D12*
X223200Y59184D02*
X223596Y59580D01*
X215705Y57249D02*
X217640Y59184D01*
X223200D01*
X211042Y57249D02*
X215705D01*
X224966Y151692D02*
X239547D01*
X198840Y125566D02*
X224966Y151692D01*
X190809Y125566D02*
X198840D01*
X188665Y79626D02*
X211042Y57249D01*
X188665Y79626D02*
Y123422D01*
X190809Y125566D01*
X242669Y107398D02*
Y113184D01*
Y107398D02*
X242923Y107145D01*
X234402Y121451D02*
X242669Y113184D01*
X234224Y121451D02*
X234402D01*
D13*
X262139Y-47080D02*
X272300Y-36919D01*
X272371Y-8132D02*
Y20585D01*
X272300Y-8202D02*
X272371Y-8132D01*
Y20585D02*
X274379Y22593D01*
X272300Y-36919D02*
Y-8202D01*
X274379Y22593D02*
X284651D01*
X260303Y-47080D02*
X262139D01*
X290714Y-21681D02*
X304297D01*
X279852Y-10819D02*
X290714Y-21681D01*
X279852Y-10819D02*
Y17808D01*
X284651Y22593D02*
X285823Y21421D01*
Y19460D02*
Y21421D01*
X290118Y23180D02*
X294436Y18863D01*
X290118Y23180D02*
Y23248D01*
X286639Y26726D02*
X290118Y23248D01*
X285823Y19460D02*
X286315Y18968D01*
X286639Y26726D02*
Y38142D01*
X307546Y59048D02*
X319633D01*
X286639Y38142D02*
X307546Y59048D01*
D94*
X-49326Y175517D02*
D03*
X408245Y175511D02*
D03*
D95*
X173293Y-50382D02*
D03*
D99*
X177877Y402990D02*
D03*
D100*
X260551Y-47328D02*
D03*
X282548Y-34628D02*
D03*
D101*
X304545Y-21928D02*
D03*
D104*
X215647Y17986D02*
D03*
X223596Y59580D02*
D03*
X160837Y53749D02*
D03*
X236084Y-53582D02*
D03*
X216134Y-51365D02*
D03*
X126320Y12591D02*
D03*
X193940Y114656D02*
D03*
X38435Y83714D02*
D03*
X38435Y89639D02*
D03*
X43871Y89639D02*
D03*
Y83714D02*
D03*
Y77960D02*
D03*
X38499Y78199D02*
D03*
X96800Y158697D02*
D03*
X96561Y153325D02*
D03*
X90690Y152997D02*
D03*
X102314Y153325D02*
D03*
X108239D02*
D03*
X108239Y158761D02*
D03*
X102314D02*
D03*
X195127Y87656D02*
D03*
X143649Y112307D02*
D03*
X200041Y97189D02*
D03*
X206929Y119821D02*
D03*
X286811Y120036D02*
D03*
X311245Y124556D02*
D03*
X350214Y93770D02*
D03*
X375490Y66918D02*
D03*
X363441Y52889D02*
D03*
X345994Y46868D02*
D03*
X343553Y33452D02*
D03*
X267586Y19384D02*
D03*
X269241Y75975D02*
D03*
X277708Y76164D02*
D03*
X273640Y80233D02*
D03*
X281897Y71975D02*
D03*
X273349Y71806D02*
D03*
X277539Y67616D02*
D03*
X268900Y67356D02*
D03*
X273089Y63167D02*
D03*
X264831Y71424D02*
D03*
X286315Y18968D02*
D03*
X279852Y17808D02*
D03*
X272631Y173297D02*
D03*
X276700Y177365D02*
D03*
X268442Y169107D02*
D03*
X268001Y177927D02*
D03*
X272069Y181996D02*
D03*
X263811Y173738D02*
D03*
X263642Y182286D02*
D03*
X259453Y178097D02*
D03*
X267710Y186354D02*
D03*
X292661Y255973D02*
D03*
X148595Y239218D02*
D03*
X140015Y190758D02*
D03*
X46417Y260156D02*
D03*
X40578Y250042D02*
D03*
X43540Y255173D02*
D03*
X51867Y257010D02*
D03*
X46027Y246896D02*
D03*
X48990Y252027D02*
D03*
X51366Y243814D02*
D03*
X57205Y253928D02*
D03*
X54328Y248945D02*
D03*
X57037Y240540D02*
D03*
X62876Y250653D02*
D03*
X59999Y245671D02*
D03*
X270429Y237501D02*
D03*
Y249179D02*
D03*
Y243255D02*
D03*
X264136Y237501D02*
D03*
Y249179D02*
D03*
Y243255D02*
D03*
X257972Y249179D02*
D03*
Y237501D02*
D03*
Y243255D02*
D03*
X251423Y249179D02*
D03*
Y237501D02*
D03*
Y243255D02*
D03*
X192425Y256667D02*
D03*
X281895Y138357D02*
D03*
X207160Y144327D02*
D03*
X319633Y59048D02*
D03*
X294436Y18863D02*
D03*
X63103Y32703D02*
D03*
Y26410D02*
D03*
X57350Y32703D02*
D03*
X57350Y26410D02*
D03*
X51425Y32703D02*
D03*
X51425Y26410D02*
D03*
X239547Y151692D02*
D03*
X249244Y116720D02*
D03*
X242923Y107145D02*
D03*
X234224Y121451D02*
D03*
D105*
X340304Y210282D02*
D03*
X50677Y19906D02*
D03*
X96874Y-15446D02*
D03*
M02*
