G04*
G04 #@! TF.GenerationSoftware,Altium Limited,Altium Designer,22.11.1 (43)*
G04*
G04 Layer_Color=8388736*
%FSLAX44Y44*%
%MOMM*%
G71*
G04*
G04 #@! TF.SameCoordinates,1E15B7FD-EAFD-4F9B-970C-30AA40316711*
G04*
G04*
G04 #@! TF.FilePolarity,Positive*
G04*
G01*
G75*
%ADD11C,0.3000*%
%ADD109C,0.0508*%
G36*
X106410Y181418D02*
X106410Y179438D01*
X98490Y179438D01*
X98490Y181418D01*
X106410Y181418D01*
D02*
G37*
G36*
X49320Y181418D02*
X52290Y181418D01*
X52290Y179438D01*
X49320Y179438D01*
X49320Y173828D01*
X47340Y173828D01*
Y179438D01*
X44370Y179438D01*
X44370Y181418D01*
X47340Y181418D01*
Y187028D01*
X49320Y187028D01*
X49320Y181418D01*
D02*
G37*
D11*
X270062Y299233D02*
G03*
X270062Y299233I-1501J0D01*
G01*
X372570Y308211D02*
G03*
X372570Y308211I-1501J0D01*
G01*
X44060Y298155D02*
G03*
X44060Y298155I-1501J0D01*
G01*
X138946Y358733D02*
G03*
X138946Y358733I-1501J0D01*
G01*
X214437Y299233D02*
G03*
X214437Y299233I-1501J0D01*
G01*
X199153Y359272D02*
G03*
X199153Y359272I-1501J0D01*
G01*
D109*
X-75326Y147517D02*
X26674D01*
Y203517D01*
X-75326D02*
X26674D01*
X-75326Y147517D02*
Y203517D01*
X332245Y203510D02*
X434244D01*
X332245Y147511D02*
Y203510D01*
Y147511D02*
X434244D01*
Y203510D01*
X-42755Y229802D02*
Y300301D01*
Y229802D02*
X-255D01*
Y300301D01*
X-42755D02*
X-255D01*
X-42755Y48892D02*
Y119392D01*
Y48892D02*
X-255D01*
Y119392D01*
X-42755D02*
X-255D01*
X158293Y-97381D02*
X203293D01*
Y-50381D01*
X158293D02*
X203293D01*
X158293Y-97381D02*
Y-50381D01*
X225374Y177745D02*
X267801Y220171D01*
X225374Y177745D02*
X267801Y135319D01*
X310227Y177745D01*
X267801Y220171D02*
X310227Y177745D01*
M02*
