G04*
G04 #@! TF.GenerationSoftware,Altium Limited,Altium Designer,22.11.1 (43)*
G04*
G04 Layer_Color=32768*
%FSLAX44Y44*%
%MOMM*%
G71*
G04*
G04 #@! TF.SameCoordinates,1E15B7FD-EAFD-4F9B-970C-30AA40316711*
G04*
G04*
G04 #@! TF.FilePolarity,Positive*
G04*
G01*
G75*
%ADD15C,0.0254*%
D15*
X218124Y-46318D02*
X218124Y-44286D01*
X214568Y-46318D02*
X218124D01*
X220791Y-44286D02*
Y-31332D01*
X214568Y-44286D02*
X218124D01*
X214568D02*
X214568Y-46318D01*
X211901Y-44286D02*
X220791D01*
X211901Y-31332D02*
X220791D01*
X218568Y-31332D02*
X220791Y-33554D01*
X218124Y-31332D02*
X218124Y-29300D01*
X214568Y-31332D02*
X218124D01*
X211901Y-33554D02*
X214123Y-31332D01*
X211901Y-44286D02*
Y-31332D01*
X214568Y-29300D02*
X218124D01*
X214568D02*
X214568Y-31332D01*
X223380Y73193D02*
X273669Y123482D01*
X278291Y118860D02*
X280446Y116705D01*
X278291Y118860D02*
X280446Y116705D01*
X281826Y115325D02*
X283982Y113170D01*
X281826Y115325D02*
X283982Y113170D01*
X285362Y111789D02*
X287517Y109634D01*
X285362Y111789D02*
X287517Y109634D01*
X288897Y108254D02*
X291053Y106099D01*
X288897Y108254D02*
X291053Y106099D01*
X292433Y104718D02*
X294588Y102563D01*
X292433Y104718D02*
X294588Y102563D01*
X295969Y101183D02*
X298124Y99028D01*
X295969Y101183D02*
X298124Y99028D01*
X299504Y97647D02*
X301659Y95492D01*
X299504Y97647D02*
X301659Y95492D01*
X303040Y94112D02*
X305195Y91956D01*
X303040Y94112D02*
X305195Y91956D01*
X306575Y90576D02*
X308731Y88421D01*
X306575Y90576D02*
X308731Y88421D01*
X310111Y87041D02*
X312266Y84885D01*
X310111Y87041D02*
X312266Y84885D01*
X313646Y83505D02*
X315801Y81350D01*
X314978Y64212D02*
X314979Y82173D01*
X313646Y83505D02*
X315801Y81350D01*
X317182Y79970D02*
X319337Y77814D01*
X317182Y79970D02*
X319337Y77814D01*
X273669Y123482D02*
X323959Y73193D01*
X266892Y116705D02*
X269048Y118861D01*
X317182Y66416D02*
X319337Y68571D01*
X266892Y116705D02*
X269048Y118861D01*
X317182Y66416D02*
X319337Y68571D01*
X263357Y113169D02*
X265512Y115325D01*
X313646Y62880D02*
X315802Y65035D01*
X263357Y113169D02*
X265512Y115325D01*
X313646Y62880D02*
X315802Y65035D01*
X259821Y109634D02*
X261977Y111790D01*
X310111Y59345D02*
X312266Y61500D01*
X259821Y109634D02*
X261977Y111790D01*
X310111Y59345D02*
X312266Y61500D01*
X256286Y106099D02*
X258441Y108254D01*
X306575Y55809D02*
X308730Y57964D01*
X256286Y106099D02*
X258441Y108254D01*
X306575Y55809D02*
X308730Y57964D01*
X252750Y102563D02*
X254905Y104718D01*
X303040Y52274D02*
X305195Y54429D01*
X252750Y102563D02*
X254905Y104718D01*
X303040Y52274D02*
X305195Y54429D01*
X249215Y99028D02*
X251370Y101183D01*
X299504Y48738D02*
X301659Y50893D01*
X249215Y99028D02*
X251370Y101183D01*
X299504Y48738D02*
X301659Y50893D01*
X245679Y95492D02*
X247834Y97647D01*
X295969Y45203D02*
X298124Y47358D01*
X245679Y95492D02*
X247834Y97647D01*
X295969Y45203D02*
X298124Y47358D01*
X242144Y91956D02*
X244299Y94112D01*
X292433Y41667D02*
X294588Y43822D01*
X242144Y91956D02*
X244299Y94112D01*
X292433Y41667D02*
X294588Y43822D01*
X238608Y88421D02*
X240763Y90576D01*
X288898Y38131D02*
X291053Y40287D01*
X238608Y88421D02*
X240763Y90576D01*
X288898Y38131D02*
X291053Y40287D01*
X235072Y84885D02*
X237228Y87041D01*
X285362Y34596D02*
X287517Y36751D01*
X235072Y84885D02*
X237228Y87041D01*
X285362Y34596D02*
X287517Y36751D01*
X231537Y81350D02*
X233692Y83505D01*
X281826Y31061D02*
X283982Y33216D01*
X231537Y81350D02*
X233692Y83505D01*
X281826Y31061D02*
X283982Y33216D01*
X228001Y77814D02*
X230157Y79970D01*
X278291Y27525D02*
X280446Y29680D01*
X228001Y77814D02*
X230157Y79970D01*
X278291Y27525D02*
X280446Y29680D01*
X223380Y73193D02*
X273669Y22903D01*
X228001Y68571D02*
X230157Y66416D01*
X228001Y68571D02*
X230157Y66416D01*
X231537Y65035D02*
X233692Y62880D01*
X231537Y65035D02*
X233692Y62880D01*
X235072Y61500D02*
X237228Y59345D01*
X235072Y61500D02*
X237228Y59345D01*
X238608Y57964D02*
X240763Y55809D01*
X238608Y57964D02*
X240763Y55809D01*
X242143Y54429D02*
X244299Y52274D01*
X242143Y54429D02*
X244299Y52274D01*
X245679Y50893D02*
X247834Y48738D01*
X245679Y50893D02*
X247834Y48738D01*
X249215Y47358D02*
X251370Y45202D01*
X249215Y47358D02*
X251370Y45202D01*
X252750Y43822D02*
X254905Y41667D01*
X252750Y43822D02*
X254905Y41667D01*
X256286Y40287D02*
X258441Y38131D01*
X256286Y40287D02*
X258441Y38131D01*
X259821Y36751D02*
X261977Y34596D01*
X259821Y36751D02*
X261977Y34596D01*
X263357Y33216D02*
X265512Y31061D01*
X263357Y33216D02*
X265512Y31061D01*
X266892Y29680D02*
X269048Y27525D01*
X266892Y29680D02*
X269048Y27525D01*
X273669Y22903D02*
X323959Y73193D01*
X290767Y251613D02*
X290767Y249581D01*
X290767Y251613D02*
X294323Y251613D01*
X288100Y236627D02*
Y249581D01*
X290767D02*
X294323Y249581D01*
X294323Y251613D02*
X294323Y249581D01*
X288100Y249581D02*
X296990Y249581D01*
X288100Y236627D02*
X296990Y236627D01*
X288100Y238849D02*
X290323Y236626D01*
X290767Y236627D02*
X290767Y234595D01*
X290767Y236627D02*
X294323Y236627D01*
X294768Y236627D02*
X296990Y238849D01*
X296990Y249581D02*
X296990Y236627D01*
X290767Y234595D02*
X294323Y234595D01*
X294323Y236627D02*
X294323Y234595D01*
X195059Y252146D02*
X196496Y250710D01*
X195059Y252146D02*
X197573Y254661D01*
X194610Y248824D02*
X203770Y239664D01*
X196496Y250710D02*
X199010Y253224D01*
X197573Y254661D02*
X199010Y253224D01*
X194610Y248824D02*
X200896Y255110D01*
X203770Y239664D02*
X210056Y245950D01*
X202198Y241236D02*
X205341Y241236D01*
X205655Y241550D02*
X207092Y240113D01*
X205655Y241550D02*
X208170Y244064D01*
X208484Y244379D02*
Y247522D01*
X200896Y255110D02*
X210056Y245950D01*
X207092Y240113D02*
X209607Y242627D01*
X208170Y244064D02*
X209607Y242627D01*
X151815Y233297D02*
X153252Y231860D01*
X151815Y233297D02*
X154329Y235811D01*
X151366Y229974D02*
X160525Y220814D01*
X153252Y231860D02*
X155766Y234375D01*
X154329Y235811D02*
X155766Y234375D01*
X151366Y229974D02*
X157652Y236261D01*
X160525Y220814D02*
X166812Y227101D01*
X158954Y222386D02*
X162097D01*
X162411Y222700D02*
X163848Y221263D01*
X162411Y222700D02*
X164926Y225215D01*
X165240Y225529D02*
X165240Y228672D01*
X157652Y236261D02*
X166812Y227101D01*
X163848Y221263D02*
X166363Y223778D01*
X164926Y225215D02*
X166363Y223778D01*
M02*
