G04*
G04 #@! TF.GenerationSoftware,Altium Limited,Altium Designer,22.11.1 (43)*
G04*
G04 Layer_Color=32896*
%FSLAX44Y44*%
%MOMM*%
G71*
G04*
G04 #@! TF.SameCoordinates,1E15B7FD-EAFD-4F9B-970C-30AA40316711*
G04*
G04*
G04 #@! TF.FilePolarity,Positive*
G04*
G01*
G75*
%ADD13C,0.2000*%
D13*
X180076Y279189D02*
X180076Y263689D01*
X211076D01*
X211076Y279189D02*
X211076Y263689D01*
X180076Y279189D02*
X211076Y279189D01*
X86732Y55075D02*
X104732Y55075D01*
X86732Y55075D02*
X86732Y33075D01*
X104732Y33075D01*
X104732Y55075D01*
X47864Y80302D02*
X63364Y80302D01*
X47864Y80302D02*
X47864Y49302D01*
X63364Y49302D01*
X63364Y80302D02*
X63364Y49302D01*
X320361Y263689D02*
X320361Y279188D01*
X289361Y279188D02*
X320361Y279188D01*
X289361Y263689D02*
X289361Y279188D01*
X289361Y263689D02*
X320361Y263689D01*
X109108Y260857D02*
Y276357D01*
X78108Y276357D02*
X109108Y276357D01*
X78108Y276357D02*
X78108Y260857D01*
X109108D01*
X48221Y287721D02*
X48221Y256721D01*
X48221Y287721D02*
X63721Y287721D01*
X63721Y256721D01*
X48221D02*
X63721D01*
X228596Y256892D02*
X228596Y287892D01*
X244096Y287892D01*
X244096Y256892D01*
X228596Y256892D02*
X244096Y256892D01*
X259702Y257484D02*
X259702Y288484D01*
X275202Y288484D01*
X275202Y257484D01*
X259702Y257484D02*
X275202Y257484D01*
M02*
